<svg xmlns="http://www.w3.org/2000/svg" version="1.1" x="0" y="0" width="154.2" height="98" viewBox="0 0 154.2 98" enable-background="new 0 0 154.185 97.953" xml:space="preserve"><polygon fill="#989A95" points="145.2 22.7 124.7 30.1 115.8 36.3 128.5 31.7 142.9 28.1 151.7 23.9 "/><polygon fill="#E4E5DF" points="149.2 23.1 152.6 23.8 154.2 25.2 140.9 33.6 126 48.5 116.6 51.6 108.6 50 103.6 47.9 101.9 45.9 112.2 38.1 "/><polygon fill="#6A6968" points="0 0 64.3 19.1 78.1 25 103.6 47.3 97.8 57.2 89 57.2 56.3 28.6 "/><polygon fill="#D6D5D5" points="29.4 14.9 55.1 26.1 68.3 39 80.2 47.2 93.5 56.9 88 62.1 76.4 55.1 "/><polygon fill="#BBBBC3" points="81 69.6 63.9 72.1 57.8 76.4 60.4 78.8 83.3 71.1 "/><polygon fill="#BBBBC3" points="85.6 72.6 64.4 80.4 57.7 87.1 61.6 89 89 73.6 "/><polygon fill="#BBBBC3" points="89.7 75 71.8 88.8 67.4 97.2 71.8 98 93.2 75 "/><polygon fill="#C6C4C0" points="84.7 70.4 62.2 75.6 54.5 82.1 58.2 85 88 72.1 "/><polygon fill="#C6C4C0" points="87.6 74.2 67.1 84.9 61.2 93.1 65.6 94.9 91.2 75.1 "/><polygon fill="#BBBBC3" points="94.9 75.5 85.1 86.9 83.4 93.1 86.4 92.9 97.1 75 "/><polygon fill="#C6C4C0" points="93.4 75.2 81.5 85 78.8 91.2 81.9 91.8 95.9 75.3 "/><path fill="#949391" d="M140.4 58.9c0.8 0.4-4 1.7-5.9 2.8 -1.9 1.2-7.3 6-9.8 7.8 -2.4 1.8-23.6 9-25.3 9.2 -1.7 0.2-16.5-7.3-17.5-8.7 -1-1.4 3.7-4.9 5.7-7.7 2-2.9 15.4-12.6 14.5-14.4 -0.9-1.9-1.1-2.6-1.1-2.6s12.9 5.5 12.7 5.4c-0.2-0.1 17.2-0.4 19.3 0.8L140.4 58.9z"/><path fill="#7D1716" d="M137.8 56.3c0 0 7.6 6 8.2 6.8 0.6 0.8-7.2-4.5-8.4-4.5S137.8 56.3 137.8 56.3z"/><path fill="#7D1716" d="M134.5 60.4c0 0 10 2.9 11 3 1 0.1-7.5-4.3-8.3-5.4C136.4 56.8 134.5 60.4 134.5 60.4z"/><polygon fill="#C1C1C3" points="94.2 62.5 120 55.8 129.3 57.7 135.3 61.6 116.8 74.2 99.6 79.6 83.4 73.4 "/><polygon fill="#E4E5DF" points="58.7 26.5 55.4 25.9 53.6 26.3 64.4 35.5 75.5 49.3 83.8 54.1 91.7 55.6 96.8 55.8 98.8 55.2 90.6 47.2 "/></svg>