<svg xmlns="http://www.w3.org/2000/svg" version="1.1" x="0" y="0" width="424.2" height="278.8" viewBox="0 5.1 424.2 278.8" enable-background="new 0.004 5.119 424.21 278.798" xml:space="preserve"><path fill="#E08626" d="M91.2 236.5C86.9 249.3 75 248.1 75 248.1 78.8 231.2 91.2 236.5 91.2 236.5z"/><path fill="#E08626" d="M2.2 267c0.7 0.4 1.5 0.7 2.1 1.2 -0.2-0.5-0.5-1-0.6-1.5 1.7-0.6 4.4-1.8 6.4-4.5 2.1 0.5 3.9 1.5 5.4 2.6 4.9 3.6 6.4 9 6.4 9 -2.7 0.7-5.1 0.9-7.1 0.8 -2.4-0.1-4.3-0.7-5.8-1.5 3 5.3 1.7 11 1.7 11 -15.9-4.8-9-17.3-9-17.3 0.2 0.1 0.3 0.2 0.4 0.2 0 0.1 0 0.1 0 0.2C1.9 267.1 2 267 2.2 267z"/><path fill="#E08626" d="M144 46.6c13.3 0.6 15.7 12.6 15.7 12.6C142.8 60.3 144 46.6 144 46.6z"/><path fill="#E08626" d="M50.5 201c-4.4 12.8-16.2 11.6-16.2 11.6C38 195.7 50.5 201 50.5 201z"/><path fill="#E08626" d="M260.6 88.9c3.7 13-6.8 18.7-6.8 18.7C247.4 91.7 260.6 88.9 260.6 88.9z"/><path fill="#E08626" d="M206.9 82.8c3.6 13-6.8 18.7-6.8 18.7C193.6 85.6 206.9 82.8 206.9 82.8z"/><path fill="#824E20" d="M86.5 79.2c0.3-0.3 0.5-0.5 0.8-0.8 0.2-0.2 0.4-0.4 0.6-0.5 4-3.6 8.5-4.5 8.5-4.5 0.2 3.2 0 5.8-0.6 8 -0.8 3.4-2.4 5.8-4.1 7.4 -4.4 3.9-10.2 3.3-10.2 3.3 0.1-3.2 0.8-5.8 1.9-8 0.3-0.7 0.7-1.4 1-2 0.1-0.1 0.2-0.2 0.3-0.4C85.1 80.9 85.8 80 86.5 79.2z"/><path fill="#824E20" d="M167.4 179.3c0-0.4-0.1-0.7-0.1-1.1 0-0.3 0-0.5-0.1-0.8 -0.2-5.4 1.9-9.4 1.9-9.4 2.6 1.9 4.5 3.7 5.9 5.5 2.1 2.8 3 5.5 3.1 7.9 0.3 5.9-3.9 10-3.9 10 -2.4-2.1-4-4.3-5-6.5 -0.4-0.7-0.7-1.4-0.9-2 0-0.1-0.1-0.3-0.1-0.4C167.9 181.4 167.6 180.3 167.4 179.3z"/><path fill="#824E20" d="M190.4 27.6c-1.7-16.6 11.4-22.4 11.4-22.4C206.2 25.8 190.4 27.6 190.4 27.6z"/><path fill="#824E20" d="M421.6 40.1c-13.1-10.3-8.2-23.8-8.2-23.8C431.3 27.6 421.6 40.1 421.6 40.1z"/></svg>