<?xml version="1.0" encoding="iso-8859-1"?>
<!-- Generator: Adobe Illustrator 19.0.0, SVG Export Plug-In . SVG Version: 6.00 Build 0)  -->
<svg version="1.1" id="Layer_1" xmlns="http://www.w3.org/2000/svg" xmlns:xlink="http://www.w3.org/1999/xlink" x="0px" y="0px"
	 viewBox="0 0 481.882 481.882" style="enable-background:new 0 0 481.882 481.882;" xml:space="preserve">
<rect x="30.118" y="60.235" style="fill:#FFFFFF;" width="421.647" height="271.059"/>
<g>
	<rect x="30.118" y="286.118" style="fill:#C5EB98;" width="421.647" height="7.529"/>
	<rect x="30.118" y="225.882" style="fill:#C5EB98;" width="421.647" height="7.529"/>
	<rect x="30.118" y="165.647" style="fill:#C5EB98;" width="421.647" height="7.529"/>
	<rect x="30.118" y="105.412" style="fill:#C5EB98;" width="421.647" height="7.529"/>
</g>
<g>
	<path style="fill:#003B15;" d="M474.353,30.118H256V15.059C256,6.746,249.254,0,240.941,0s-15.059,6.746-15.059,15.059v15.059
		H7.529C3.366,30.118,0,33.491,0,37.647v15.059c0,4.156,3.366,7.529,7.529,7.529h466.824c4.164,0,7.529-3.373,7.529-7.529V37.647
		C481.882,33.491,478.517,30.118,474.353,30.118z"/>
	<path style="fill:#003B15;" d="M474.353,331.294H7.529c-4.164,0-7.529,3.373-7.529,7.529v15.059c0,4.156,3.366,7.529,7.529,7.529
		h218.353v30.118l-59.43,71.326c-2.884,3.456-3.509,8.267-1.604,12.356c1.912,4.066,6.016,6.671,10.519,6.671
		c3.388,0,6.603-1.483,8.809-4.051l41.705-48.655v37.647c0,8.312,6.746,15.059,15.059,15.059S256,475.136,256,466.824v-37.647
		l41.705,48.655c2.206,2.568,5.421,4.051,8.809,4.051c4.503,0,8.606-2.605,10.511-6.694c1.912-4.073,1.295-8.885-1.604-12.356
		L256,391.529v-30.118h218.353c4.164,0,7.529-3.373,7.529-7.529v-15.059C481.882,334.667,478.517,331.294,474.353,331.294z"/>
</g>
<path style="fill:#00C250;" d="M376.471,97.882c-16.632,0-30.118,13.485-30.118,30.118c0,9.577,4.555,18.018,11.528,23.529
	l-18.485,40.079c-9.69-2.296-18.711,3.162-21.911,11.686h-47.676c-2.673-7.13-9.502-12.235-17.574-12.235
	c-11.957,0-21.361,11.189-18.153,23.537l-44.16,44.16c-4.676-2.816-9.826-3.569-15.39-1.777l-54.438-76.235
	c2.394-11.693-6.535-22.626-18.447-22.626c-11.821,0-21.007,10.895-18.357,22.897l-53.173,41.743v19.17l62.05-48.806
	c5.685,3.336,12.311,3.614,18.417,0.286L163.155,267c-5.783,12.597,3.494,26.647,17.084,26.647c11.708,0,20.759-10.647,18.455-22.43
	l44.777-44.762c9.736,5.173,20.864,1.009,25.487-8.094h49.385c11.347,22.332,45.071,4.864,33.272-17.28l19.991-43.452
	c19.027,3.117,34.982-11.61,34.982-29.628C406.588,111.368,393.103,97.882,376.471,97.882z"/>
<g>
</g>
<g>
</g>
<g>
</g>
<g>
</g>
<g>
</g>
<g>
</g>
<g>
</g>
<g>
</g>
<g>
</g>
<g>
</g>
<g>
</g>
<g>
</g>
<g>
</g>
<g>
</g>
<g>
</g>
</svg>
