<?xml version="1.0" encoding="iso-8859-1"?>
<!-- Generator: Adobe Illustrator 19.0.0, SVG Export Plug-In . SVG Version: 6.00 Build 0)  -->
<svg version="1.1" id="Layer_1" xmlns="http://www.w3.org/2000/svg" xmlns:xlink="http://www.w3.org/1999/xlink" x="0px" y="0px"
	 viewBox="0 0 481.882 481.882" style="enable-background:new 0 0 481.882 481.882;" xml:space="preserve">
<path style="fill:#003B15;" d="M481.882,355.264c0,12.085-9.811,21.896-21.903,21.896H21.903C9.811,377.16,0,367.349,0,355.264
	V48.599c0-12.092,9.811-21.903,21.903-21.903h438.076c12.092,0,21.903,9.811,21.903,21.903V355.264z"/>
<rect x="175.209" y="377.16" style="fill:#ECF5E1;" width="131.426" height="56.124"/>
<g>
	<path style="fill:#FFFFFF;" d="M350.456,444.239c0,6.054-4.894,10.948-10.948,10.948H142.374c-6.054,0-10.948-4.894-10.948-10.948
		s4.894-10.955,10.948-10.955h197.135C345.562,433.284,350.456,438.185,350.456,444.239z"/>
	<path style="fill:#FFFFFF;" d="M481.882,355.264V289.54H0v65.724c0,12.085,9.811,21.896,21.903,21.896h438.076
		C472.072,377.16,481.882,367.349,481.882,355.264z"/>
</g>
<path style="fill:#C5EB98;" d="M240.941,364.149c-16.226,0-29.432-13.207-29.432-29.432c0-16.226,13.207-29.425,29.432-29.425
	c16.218,0,29.432,13.199,29.432,29.425C270.374,350.942,257.16,364.149,240.941,364.149z M240.941,320.35
	c-7.928,0-14.374,6.438-14.374,14.366c0,7.928,6.445,14.374,14.374,14.374s14.374-6.445,14.374-14.374
	C255.315,326.788,248.87,320.35,240.941,320.35z"/>
<path style="fill:#006E31;" d="M0,48.599V289.54h148.51L411.354,26.696H21.903C9.811,26.696,0,36.506,0,48.599z"/>
<g>
	<path style="fill:#00E676;" d="M481.882,70.66c0-2.402-0.301-4.744-0.821-7.002l-66.206,76.378
		c-16.474-6.49-33.619,7.544-30.441,25.02l-68.555,39.145c-7.093-6.121-17.077-7.499-25.841-2.477l-73.224-62.728
		c5.805-15.089-5.444-30.69-21.03-30.69c-16.301,0-27.64,16.994-20.322,32.294L85,231.036c-7.597-3.629-15.962-2.778-22.483,1.724
		L0,187.29v18.673l53.722,39.048c-4.442,15.044,6.987,28.943,21.572,28.943c16.301,0,27.64-16.986,20.322-32.279l90.443-90.458
		c6.904,3.305,14.313,2.974,20.894-0.806l73.186,62.765c-5.813,15.209,5.564,30.66,21.037,30.66
		c13.719,0,24.749-12.311,22.174-26.601l68.548-39.183c19.08,16.474,46.743-6.212,34.251-28.145l55.733-64.264V70.66z"/>
	<polygon style="fill:#00E676;" points="353.882,138.952 266.955,138.952 225.882,101.304 266.955,63.657 353.882,63.657 	"/>
</g>
<path style="fill:#FFFFFF;" d="M306.409,72.715c1.626,0,2.914,1.295,2.914,2.921v1.491c3.998,0.474,7.379,1.762,10.511,3.727
	c1.092,0.61,2.04,1.626,2.04,3.26c0,2.093-1.702,3.72-3.795,3.72c-0.678,0-1.363-0.203-2.04-0.602
	c-2.372-1.423-4.676-2.44-6.987-2.982v13.018c10.308,2.568,14.712,6.701,14.712,13.952c0,7.454-5.82,12.401-14.441,13.222v4.066
	c0,1.626-1.288,2.914-2.914,2.914c-1.634,0-2.982-1.288-2.982-2.914v-4.209c-5.082-0.542-9.758-2.364-13.899-5.286
	c-1.144-0.745-1.822-1.83-1.822-3.26c0-2.093,1.626-3.72,3.72-3.72c0.806,0,1.634,0.271,2.244,0.745
	c3.185,2.304,6.302,3.863,10.029,4.54v-13.35c-9.886-2.575-14.509-6.302-14.509-13.96c0-7.258,5.768-12.273,14.238-12.951v-1.423
	C303.428,74.01,304.783,72.715,306.409,72.715z M303.699,95.831V83.836c-4.337,0.414-6.505,2.711-6.505,5.7
	C297.193,92.375,298.488,94.144,303.699,95.831z M309.06,105.257v12.341c4.337-0.474,6.709-2.65,6.709-5.896
	C315.768,108.713,314.27,106.884,309.06,105.257z"/>
<g>
</g>
<g>
</g>
<g>
</g>
<g>
</g>
<g>
</g>
<g>
</g>
<g>
</g>
<g>
</g>
<g>
</g>
<g>
</g>
<g>
</g>
<g>
</g>
<g>
</g>
<g>
</g>
<g>
</g>
</svg>
