<?xml version="1.0" encoding="iso-8859-1"?>
<!-- Generator: Adobe Illustrator 19.0.0, SVG Export Plug-In . SVG Version: 6.00 Build 0)  -->
<svg version="1.1" id="Layer_1" xmlns="http://www.w3.org/2000/svg" xmlns:xlink="http://www.w3.org/1999/xlink" x="0px" y="0px"
	 viewBox="0 0 481.882 481.882" style="enable-background:new 0 0 481.882 481.882;" xml:space="preserve">
<path style="fill:#006E31;" d="M210.824,466.824c0,8.32-6.746,15.059-15.059,15.059H15.059C6.746,481.882,0,475.144,0,466.824
	v-60.235c0-8.312,6.746-15.059,15.059-15.059h180.706c8.312,0,15.059,6.746,15.059,15.059V466.824z"/>
<polygon style="fill:#003B15;" points="180.706,301.176 60.235,301.176 30.118,391.529 180.706,391.529 "/>
<g>
	<path style="fill:#006E31;" d="M195.765,0h-90.353c-8.312,0-15.059,6.746-15.059,15.059v30.118c0,8.312,6.746,15.059,15.059,15.059
		h15.059v30.118h60.235V60.235h15.059c8.312,0,15.059-6.746,15.059-15.059V15.059C210.824,6.746,204.077,0,195.765,0z"/>
	<path style="fill:#006E31;" d="M271.059,466.824c0,8.32,6.746,15.059,15.059,15.059h180.706c8.312,0,15.059-6.739,15.059-15.059
		v-60.235c0-8.312-6.746-15.059-15.059-15.059H286.118c-8.312,0-15.059,6.746-15.059,15.059V466.824z"/>
</g>
<polygon style="fill:#003B15;" points="301.176,301.176 421.647,301.176 451.765,391.529 301.176,391.529 "/>
<path style="fill:#006E31;" d="M376.471,0h-90.353c-8.312,0-15.059,6.746-15.059,15.059v30.118c0,8.312,6.746,15.059,15.059,15.059
	h15.059v30.118h60.235V60.235h15.059c8.312,0,15.059-6.746,15.059-15.059V15.059C391.529,6.746,384.783,0,376.471,0z"/>
<path style="fill:#00A344;" d="M71.597,90.353c-6.724,0-12.634,4.457-14.479,10.925L0.587,281.984
	c-1.295,4.548-0.392,9.427,2.455,13.207c2.839,3.772,7.288,5.986,12.017,5.986h188.235c12.476,0,22.588-10.112,22.588-22.588
	V112.941c0-12.476-10.112-22.588-22.588-22.588H71.597z"/>
<path style="fill:#00C250;" d="M410.285,90.353c6.724,0,12.634,4.457,14.479,10.925l56.531,180.706
	c1.303,4.548,0.392,9.427-2.447,13.207c-2.839,3.772-7.304,5.986-12.025,5.986H278.588c-12.476,0-22.588-10.112-22.588-22.588
	V112.941c0-12.476,10.112-22.588,22.588-22.588H410.285z"/>
<rect x="225.86" y="150.588" style="fill:#003B15;" width="30.118" height="82.824"/>
<g>
	<path style="fill:#C5EB98;" d="M0,466.824c0,8.312,6.746,15.059,15.059,15.059h180.706c8.312,0,15.059-6.746,15.059-15.059v-30.118
		H0C0,436.706,0,466.824,0,466.824z"/>
	<path style="fill:#C5EB98;" d="M210.824,30.118V15.059C210.824,6.746,204.077,0,195.765,0h-90.353
		c-8.312,0-15.059,6.746-15.059,15.059v15.059H210.824z"/>
</g>
<path style="fill:#FFFFFF;" d="M150.588,0h-45.176c-8.312,0-15.059,6.746-15.059,15.059v15.059h60.235V0z"/>
<path style="fill:#C5EB98;" d="M391.529,30.118V15.059C391.529,6.746,384.783,0,376.471,0h-90.353
	c-8.312,0-15.059,6.746-15.059,15.059v15.059H391.529z"/>
<g>
	<path style="fill:#FFFFFF;" d="M331.294,0h-45.176c-8.312,0-15.059,6.746-15.059,15.059v15.059h60.235V0z"/>
	<path style="fill:#FFFFFF;" d="M112.941,436.706H0v30.118c0,8.312,6.746,15.059,15.059,15.059h97.882V436.706z"/>
</g>
<path style="fill:#C5EB98;" d="M271.059,466.824c0,8.312,6.746,15.059,15.059,15.059h180.706c8.312,0,15.059-6.746,15.059-15.059
	v-30.118H271.059V466.824z"/>
<path style="fill:#FFFFFF;" d="M384,436.706H271.059v30.118c0,8.312,6.746,15.059,15.059,15.059H384V436.706z"/>
<path style="fill:#00C250;" d="M128,90.353H71.597c-6.724,0-12.634,4.457-14.479,10.925L0.587,281.984
	c-1.295,4.548-0.392,9.427,2.455,13.207c2.839,3.772,7.288,5.986,12.017,5.986H128V90.353z"/>
<path style="fill:#00A344;" d="M353.882,90.353h56.403c6.724,0,12.634,4.457,14.479,10.925l56.531,180.706
	c1.303,4.548,0.392,9.427-2.447,13.207c-2.839,3.772-7.304,5.986-12.025,5.986H353.882V90.353z"/>
<g>
	<rect x="120.448" y="60.235" style="fill:#003B15;" width="60.235" height="30.118"/>
	<rect x="301.154" y="60.235" style="fill:#003B15;" width="60.235" height="30.118"/>
</g>
<g>
</g>
<g>
</g>
<g>
</g>
<g>
</g>
<g>
</g>
<g>
</g>
<g>
</g>
<g>
</g>
<g>
</g>
<g>
</g>
<g>
</g>
<g>
</g>
<g>
</g>
<g>
</g>
<g>
</g>
</svg>
