<?xml version="1.0" encoding="iso-8859-1"?>
<!-- Generator: Adobe Illustrator 19.0.0, SVG Export Plug-In . SVG Version: 6.00 Build 0)  -->
<svg version="1.1" id="Layer_1" xmlns="http://www.w3.org/2000/svg" xmlns:xlink="http://www.w3.org/1999/xlink" x="0px" y="0px"
	 viewBox="0 0 481.882 481.882" style="enable-background:new 0 0 481.882 481.882;" xml:space="preserve">
<path style="fill:#006E31;" d="M436.706,82.824c0-8.312-6.746-15.059-15.059-15.059H60.235c-8.312,0-15.059,6.746-15.059,15.059v384
	c0,8.312,6.746,15.059,15.059,15.059h361.412c8.312,0,15.059-6.746,15.059-15.059V82.824z"/>
<rect x="75.294" y="97.882" style="fill:#FFFFFF;" width="331.294" height="353.882"/>
<path style="fill:#C5EB98;" d="M316.235,45.176h-30.118C286.118,20.232,265.879,0,240.941,0c-24.945,0-45.176,20.232-45.176,45.176
	h-30.118c-8.312,0-15.059,6.746-15.059,15.059v60.235c0,8.312,6.746,15.059,15.059,15.059h150.588
	c8.312,0,15.059-6.746,15.059-15.059V60.235C331.294,51.923,324.548,45.176,316.235,45.176z M240.941,15.059
	c8.312,0,15.059,6.746,15.059,15.059s-6.746,15.059-15.059,15.059s-15.059-6.746-15.059-15.059S232.629,15.059,240.941,15.059z"/>
<path style="fill:#00A344;" d="M275.351,417.882c-24.915,0-45.176-20.262-45.176-45.176c0-24.915,20.262-45.176,45.176-45.176
	c24.922,0,45.176,20.262,45.176,45.176C320.527,397.621,300.273,417.882,275.351,417.882z M275.351,350.118
	c-12.446,0-22.588,10.135-22.588,22.588s10.142,22.588,22.588,22.588c12.454,0,22.588-10.135,22.588-22.588
	S287.827,350.118,275.351,350.118z"/>
<polygon style="fill:#00E676;" points="370.018,231.477 356.352,217.818 335.849,238.306 315.369,217.818 301.704,231.477 
	322.206,251.972 301.704,272.459 315.369,286.118 335.849,265.63 356.352,286.118 370.018,272.459 349.523,251.972 "/>
<polygon style="fill:#3BEC96;" points="188.762,186.835 175.112,173.176 154.616,193.664 133.594,172.642 119.936,186.3 
	140.958,207.322 120.471,227.817 134.129,241.468 154.616,220.988 174.577,240.941 188.235,227.283 168.282,207.322 "/>
<path style="fill:#003B15;" d="M272.316,218.353l-60.966,7.13l16.806,17.679c-22.874,13.591-80.798,56.983-80.798,148.367
	c0,6.234,5.052,11.294,11.294,11.294c6.242,0,11.294-5.06,11.294-11.294c0-88.154,61.304-124.747,74.248-131.486l17.89,18.824
	L272.316,218.353z"/>
<path style="fill:#ECF5E1;" d="M316.235,45.176h-30.118C286.118,20.232,265.879,0,240.941,0c-24.945,0-45.176,20.232-45.176,45.176
	h-30.118c-8.312,0-15.059,6.746-15.059,15.059v30.118h180.706V60.235C331.294,51.923,324.548,45.176,316.235,45.176z
	 M240.941,45.176c-8.312,0-15.059-6.746-15.059-15.059s6.746-15.059,15.059-15.059S256,21.805,256,30.118
	S249.254,45.176,240.941,45.176z"/>
<g>
</g>
<g>
</g>
<g>
</g>
<g>
</g>
<g>
</g>
<g>
</g>
<g>
</g>
<g>
</g>
<g>
</g>
<g>
</g>
<g>
</g>
<g>
</g>
<g>
</g>
<g>
</g>
<g>
</g>
</svg>
