<?xml version="1.0" encoding="iso-8859-1"?>
<!-- Generator: Adobe Illustrator 19.0.0, SVG Export Plug-In . SVG Version: 6.00 Build 0)  -->
<svg version="1.1" id="Layer_1" xmlns="http://www.w3.org/2000/svg" xmlns:xlink="http://www.w3.org/1999/xlink" x="0px" y="0px"
	 viewBox="0 0 481.882 481.882" style="enable-background:new 0 0 481.882 481.882;" xml:space="preserve">
<path style="fill:#FFFFFF;" d="M421.647,0c33.28,0,60.235,26.955,60.235,60.235v361.412c0,33.28-26.955,60.235-60.235,60.235H60.235
	C26.955,481.882,0,454.927,0,421.647V60.235C0,26.955,26.955,0,60.235,0H421.647z"/>
<path style="fill:#3BB86F;" d="M0,90.353v331.294c0,33.28,26.955,60.235,60.235,60.235h120.471V90.353H0z"/>
<path style="fill:#003B15;" d="M421.647,0H60.235C26.97,0,0,26.97,0,60.235v30.118h481.882V60.235
	C481.882,26.97,454.912,0,421.647,0z"/>
<g>
	<circle style="fill:#00E676;" cx="67.765" cy="45.176" r="15.059"/>
	<circle style="fill:#00E676;" cx="128" cy="45.176" r="15.059"/>
	<circle style="fill:#00E676;" cx="188.235" cy="45.176" r="15.059"/>
</g>
<g>
	<rect x="30.118" y="135.529" style="fill:#FFFFFF;" width="60.235" height="30.118"/>
	<rect x="90.353" y="195.765" style="fill:#FFFFFF;" width="60.235" height="30.118"/>
	<rect x="90.353" y="256" style="fill:#FFFFFF;" width="60.235" height="30.118"/>
	<rect x="30.118" y="331.294" style="fill:#FFFFFF;" width="60.235" height="30.118"/>
	<rect x="90.353" y="391.529" style="fill:#FFFFFF;" width="60.235" height="30.118"/>
</g>
<polygon style="fill:#C5EB98;" points="90.353,414.118 52.706,414.118 52.706,361.412 67.765,361.412 67.765,399.059 
	90.353,399.059 "/>
<g>
	<rect x="225.882" y="135.529" style="fill:#00E676;" width="203.294" height="128"/>
	<rect x="225.882" y="301.176" style="fill:#00E676;" width="203.294" height="128"/>
</g>
<polygon style="fill:#C5EB98;" points="67.765,278.588 90.353,278.588 90.353,263.529 67.765,263.529 67.765,218.353 
	90.353,218.353 90.353,203.294 67.765,203.294 67.765,165.647 52.706,165.647 52.706,278.588 "/>
<g>
</g>
<g>
</g>
<g>
</g>
<g>
</g>
<g>
</g>
<g>
</g>
<g>
</g>
<g>
</g>
<g>
</g>
<g>
</g>
<g>
</g>
<g>
</g>
<g>
</g>
<g>
</g>
<g>
</g>
</svg>
