<?xml version="1.0" encoding="iso-8859-1"?>
<!-- Generator: Adobe Illustrator 19.0.0, SVG Export Plug-In . SVG Version: 6.00 Build 0)  -->
<svg version="1.1" id="Layer_1" xmlns="http://www.w3.org/2000/svg" xmlns:xlink="http://www.w3.org/1999/xlink" x="0px" y="0px"
	 viewBox="0 0 481.882 481.882" style="enable-background:new 0 0 481.882 481.882;" xml:space="preserve">
<path style="fill:#00A344;" d="M421.647,60.235H60.235C26.955,60.235,0,87.191,0,120.471v286.118
	c0,8.312,6.746,15.059,15.059,15.059h451.765c8.312,0,15.059-6.746,15.059-15.059V120.471
	C481.882,87.191,454.927,60.235,421.647,60.235z"/>
<path style="fill:#00C250;" d="M329.02,60.235H60.235C26.955,60.235,0,87.191,0,120.471v268.785L329.02,60.235z"/>
<path style="fill:#FFFFFF;" d="M421.647,60.235H60.235C26.963,60.235,0,87.198,0,120.471v30.118h481.882v-30.118
	C481.882,87.198,454.912,60.235,421.647,60.235z"/>
<g>
	<circle style="fill:#56C435;" cx="67.742" cy="105.412" r="15.059"/>
	<circle style="fill:#56C435;" cx="127.977" cy="105.412" r="15.059"/>
	<circle style="fill:#56C435;" cx="188.213" cy="105.412" r="15.059"/>
</g>
<path style="fill:#FFFFFF;" d="M371.125,384c-2.786-9.788-6.709-19.042-11.512-27.776l25.088-25.073
	c5.873-5.88,5.873-15.428,0-21.308l-31.955-31.932c-5.865-5.88-15.413-5.88-21.293,0l-25.088,25.08
	c-8.704-4.841-18.04-8.651-27.768-11.475V256c0-8.312-6.746-15.059-15.059-15.059H218.36c-8.312,0-15.059,6.746-15.059,15.059
	v35.501c-9.743,2.824-19.064,6.648-27.776,11.475l-25.088-25.08c-5.873-5.88-15.413-5.88-21.293,0l-31.94,31.94
	c-5.88,5.88-5.88,15.42,0,21.293l25.08,25.088c-4.819,8.727-8.727,17.995-11.512,27.768H75.309c-8.312,0-15.059,6.746-15.059,15.059
	v22.588c128.926,0,227.095,0,361.412,0v-22.588c0-8.312-6.746-15.059-15.059-15.059L371.125,384L371.125,384z"/>
<path style="fill:#00A344;" d="M331.294,421.647H150.588c0-49.92,40.433-90.353,90.353-90.353S331.294,371.727,331.294,421.647z"/>
<g>
</g>
<g>
</g>
<g>
</g>
<g>
</g>
<g>
</g>
<g>
</g>
<g>
</g>
<g>
</g>
<g>
</g>
<g>
</g>
<g>
</g>
<g>
</g>
<g>
</g>
<g>
</g>
<g>
</g>
</svg>
