<?xml version="1.0" encoding="iso-8859-1"?>
<!-- Generator: Adobe Illustrator 19.0.0, SVG Export Plug-In . SVG Version: 6.00 Build 0)  -->
<svg version="1.1" id="Layer_1" xmlns="http://www.w3.org/2000/svg" xmlns:xlink="http://www.w3.org/1999/xlink" x="0px" y="0px"
	 viewBox="0 0 481.89 481.89" style="enable-background:new 0 0 481.89 481.89;" xml:space="preserve">
<path style="fill:#00A344;" d="M436.71,109.184H0.004V68.239c0-22.611,18.334-40.945,40.945-40.945h354.824
	c22.618,0,40.945,18.334,40.945,40.945L436.71,109.184L436.71,109.184z"/>
<path style="fill:#00C250;" d="M40.949,27.302c-22.611,0-40.945,18.334-40.945,40.945v40.937h97.521l81.882-81.882H40.949z"/>
<path style="fill:#FFFFFF;" d="M436.71,395.776c0,22.611-18.342,40.937-40.937,40.937H40.949c-22.611,0-40.945-18.327-40.945-40.937
	V109.184H436.71V395.776z"/>
<rect x="143.288" y="163.772" style="fill:#00E676;" width="68.216" height="61.41"/>
<g>
	<rect x="143.288" y="238.833" style="fill:#C5EB98;" width="68.216" height="61.41"/>
	<rect x="225.178" y="238.833" style="fill:#C5EB98;" width="68.216" height="61.41"/>
	<rect x="54.592" y="163.772" style="fill:#C5EB98;" width="75.061" height="61.41"/>
	<rect x="225.178" y="163.772" style="fill:#C5EB98;" width="68.216" height="61.41"/>
	<rect x="307.061" y="163.772" style="fill:#C5EB98;" width="68.216" height="61.41"/>
	<rect x="54.592" y="238.833" style="fill:#C5EB98;" width="75.061" height="61.41"/>
</g>
<rect x="54.592" y="313.894" style="fill:#00E676;" width="75.061" height="68.216"/>
<rect x="143.288" y="313.894" style="fill:#C5EB98;" width="68.216" height="68.216"/>
<g>
	<path style="fill:#003B15;" d="M95.537,61.417c0,11.264-9.216,20.472-20.472,20.472l0,0c-11.256,0-20.472-9.208-20.472-20.472
		V20.472C54.592,9.216,63.808,0,75.064,0l0,0c11.256,0,20.472,9.216,20.472,20.472V61.417z"/>
	<path style="fill:#003B15;" d="M382.121,61.417c0,11.264-9.224,20.472-20.472,20.472l0,0c-11.256,0-20.472-9.208-20.472-20.472
		V20.472C341.176,9.216,350.392,0,361.649,0l0,0c11.249,0,20.472,9.216,20.472,20.472V61.417z"/>
	<path style="fill:#003B15;" d="M238.829,61.417c0,11.264-9.216,20.472-20.472,20.472l0,0c-11.256,0-20.472-9.208-20.472-20.472
		V20.472c0-11.249,9.216-20.465,20.472-20.465l0,0c11.256,0,20.472,9.216,20.472,20.472V61.417z"/>
	<circle style="fill:#003B15;" cx="353.886" cy="353.89" r="128"/>
</g>
<path style="fill:#006E31;" d="M353.886,225.89c-70.694,0-128,57.306-128,128c0,35.561,14.517,67.704,37.911,90.895L444.781,263.8
	C421.591,240.407,389.448,225.89,353.886,225.89z"/>
<circle style="fill:#ECF5E1;" cx="353.886" cy="353.89" r="97.882"/>
<path style="fill:#FFFFFF;" d="M353.886,256.008c-54.061,0-97.882,43.821-97.882,97.882c0,27.234,11.136,51.855,29.094,69.602
	l138.391-138.383C405.741,267.144,381.12,256.008,353.886,256.008z"/>
<path style="fill:#00C250;" d="M399.063,399.066h-52.706c-8.312,0-15.059-6.746-15.059-15.059v-90.353
	c0-8.312,6.746-15.059,15.059-15.059s15.059,6.746,15.059,15.059v75.294h37.647c8.312,0,15.059,6.746,15.059,15.059
	S407.375,399.066,399.063,399.066z"/>
<path style="fill:#00E676;" d="M346.357,278.596c-8.312,0-15.059,6.746-15.059,15.059v83.629l30.118-30.118v-53.512
	C361.416,285.342,354.669,278.596,346.357,278.596z"/>
<g>
</g>
<g>
</g>
<g>
</g>
<g>
</g>
<g>
</g>
<g>
</g>
<g>
</g>
<g>
</g>
<g>
</g>
<g>
</g>
<g>
</g>
<g>
</g>
<g>
</g>
<g>
</g>
<g>
</g>
</svg>
