<?xml version="1.0" encoding="iso-8859-1"?>
<!-- Generator: Adobe Illustrator 19.0.0, SVG Export Plug-In . SVG Version: 6.00 Build 0)  -->
<svg version="1.1" id="Layer_1" xmlns="http://www.w3.org/2000/svg" xmlns:xlink="http://www.w3.org/1999/xlink" x="0px" y="0px"
	 viewBox="0 0 479.226 479.226" style="enable-background:new 0 0 479.226 479.226;" xml:space="preserve">
<path style="fill:#003B15;" d="M429.748,116.851L365.251,33.47c-0.602-0.768-1.092-1.581-1.513-2.417L57.788,212.948
	c-23.07,13.719-39.236,36.593-44.446,62.931c-5.218,26.338,1.001,53.647,17.099,75.136c16.535,22.069,41.886,35.072,66.854,37.421
	c29.425,2.319,54.746-7.552,73.487-25.088l261.037-244.314C431.073,118.387,430.38,117.656,429.748,116.851z"/>
<path style="fill:#00A344;" d="M94.463,169.474c-12.288-10.805-31.345-22.136-57.495-22.136c-4.164,0-7.529,3.366-7.529,7.529
	c0,4.156,3.366,7.529,7.529,7.529c19.057,0,33.589,7.349,43.746,15.209L94.463,169.474z"/>
<path style="fill:#003B15;" d="M73.23,203.77l48.535-28.86l-1.784-3.027c-4.224-7.13-13.5-9.517-20.631-5.301l-22.686,13.41
	c-7.123,4.216-9.517,13.493-5.301,20.623L73.23,203.77z"/>
<g>
	<path style="fill:#006E31;" d="M465.483,89.203L400.971,5.837c-5.06-6.551-14.577-7.763-21.12-2.696l-11.912,9.216
		c-6.551,5.075-7.763,14.584-2.688,21.128l64.497,83.373c5.067,6.551,14.577,7.763,21.135,2.688l11.896-9.216
		C469.338,105.255,470.542,95.753,465.483,89.203z"/>
	<path style="fill:#006E31;" d="M132.103,373.649L23.235,444.651c-6.942,4.518-12.619,14.999-12.619,23.273
		c0,8.29,6.483,13.079,14.411,10.677l135.394-41.216C145.249,419.834,135.084,397.871,132.103,373.649z"/>
</g>
<circle style="fill:#FFFFFF;" cx="251.557" cy="358.756" r="120.471"/>
<circle style="fill:#C5EB98;" cx="251.557" cy="358.748" r="82.824"/>
<circle style="fill:#003B15;" cx="251.557" cy="358.748" r="30.118"/>
<path style="fill:#008232;" d="M400.971,5.829c-5.06-6.558-14.577-7.763-21.12-2.696l-11.912,9.216
	c-6.551,5.067-7.763,14.577-2.688,21.128l33.137,42.835l36.036-27.241L400.971,5.829z"/>
<path style="fill:#006E31;" d="M365.251,33.47c-0.602-0.776-1.092-1.581-1.513-2.417L57.795,212.948
	c-23.078,13.719-39.243,36.593-44.454,62.931c-5.218,26.323,1.001,53.647,17.099,75.128c0.557,0.768,1.22,1.416,1.807,2.161
	l366.14-276.864L365.251,33.47z"/>
<g>
</g>
<g>
</g>
<g>
</g>
<g>
</g>
<g>
</g>
<g>
</g>
<g>
</g>
<g>
</g>
<g>
</g>
<g>
</g>
<g>
</g>
<g>
</g>
<g>
</g>
<g>
</g>
<g>
</g>
</svg>
