<?xml version="1.0" encoding="iso-8859-1"?>
<!-- Generator: Adobe Illustrator 19.0.0, SVG Export Plug-In . SVG Version: 6.00 Build 0)  -->
<svg version="1.1" id="Layer_1" xmlns="http://www.w3.org/2000/svg" xmlns:xlink="http://www.w3.org/1999/xlink" x="0px" y="0px"
	 viewBox="0 0 481.882 481.882" style="enable-background:new 0 0 481.882 481.882;" xml:space="preserve">
<path style="fill:#ECF5E1;" d="M210.824,142.163c0-11.987,9.705-21.692,21.692-21.692h159.014l90.353,75.896v263.831
	c0,11.979-9.705,21.685-21.677,21.685H232.516c-11.987,0-21.692-9.705-21.692-21.685V142.163z"/>
<g>
	<path style="fill:#C5EB98;" d="M391.529,120.471v54.204c0,11.987,9.705,21.692,21.692,21.692h68.661"/>
	<path style="fill:#C5EB98;" d="M346.353,218.353c0,4.164-3.366,7.529-7.529,7.529h-67.765c-4.164,0-7.529-3.366-7.529-7.529
		c0-4.156,3.366-7.529,7.529-7.529h67.765C342.987,210.824,346.353,214.197,346.353,218.353z"/>
	<path style="fill:#C5EB98;" d="M436.706,278.588c0,4.164-3.366,7.529-7.529,7.529H271.059c-4.164,0-7.529-3.366-7.529-7.529
		c0-4.156,3.366-7.529,7.529-7.529h158.118C433.34,271.059,436.706,274.432,436.706,278.588z"/>
	<path style="fill:#C5EB98;" d="M436.706,338.824c0,4.164-3.366,7.529-7.529,7.529H271.059c-4.164,0-7.529-3.366-7.529-7.529
		c0-4.156,3.366-7.529,7.529-7.529h158.118C433.34,331.294,436.706,334.667,436.706,338.824z"/>
	<path style="fill:#C5EB98;" d="M436.706,399.059c0,4.164-3.366,7.529-7.529,7.529H271.059c-4.164,0-7.529-3.366-7.529-7.529
		c0-4.156,3.366-7.529,7.529-7.529h158.118C433.34,391.529,436.706,394.903,436.706,399.059z"/>
</g>
<path style="fill:#FFFFFF;" d="M0,21.692C0,9.705,9.705,0,21.692,0h159.014l90.353,75.896v263.831
	c0,11.979-9.705,21.685-21.677,21.685H21.692C9.705,361.412,0,351.706,0,339.727V21.692z"/>
<g>
	<path style="fill:#C5EB98;" d="M180.706,0v54.204c0,11.987,9.705,21.692,21.692,21.692h68.661"/>
	<path style="fill:#C5EB98;" d="M135.529,97.882c0,4.164-3.366,7.529-7.529,7.529H60.235c-4.164,0-7.529-3.366-7.529-7.529
		c0-4.156,3.366-7.529,7.529-7.529H128C132.164,90.353,135.529,93.726,135.529,97.882z"/>
	<path style="fill:#C5EB98;" d="M225.882,158.118c0,4.164-3.366,7.529-7.529,7.529H60.235c-4.164,0-7.529-3.366-7.529-7.529
		c0-4.156,3.366-7.529,7.529-7.529h158.118C222.517,150.588,225.882,153.961,225.882,158.118z"/>
	<path style="fill:#C5EB98;" d="M225.882,218.353c0,4.164-3.366,7.529-7.529,7.529H60.235c-4.164,0-7.529-3.366-7.529-7.529
		c0-4.156,3.366-7.529,7.529-7.529h158.118C222.517,210.824,225.882,214.197,225.882,218.353z"/>
	<path style="fill:#C5EB98;" d="M225.882,278.588c0,4.164-3.366,7.529-7.529,7.529H60.235c-4.164,0-7.529-3.366-7.529-7.529
		c0-4.156,3.366-7.529,7.529-7.529h158.118C222.517,271.059,225.882,274.432,225.882,278.588z"/>
</g>
<g>
</g>
<g>
</g>
<g>
</g>
<g>
</g>
<g>
</g>
<g>
</g>
<g>
</g>
<g>
</g>
<g>
</g>
<g>
</g>
<g>
</g>
<g>
</g>
<g>
</g>
<g>
</g>
<g>
</g>
</svg>
