<svg id="Layer_1" enable-background="new 0 0 512 512" height="512" viewBox="0 0 512 512" width="512" xmlns="http://www.w3.org/2000/svg"><g><path d="m256 22.004c-135.308 0-244.998 109.689-244.998 244.998 0 59.844 21.468 114.667 57.107 157.215l38.859 37.235c13.579 10.423 28.276 19.46 43.889 26.889l99.984 4.158 110.302-4.158c82.692-39.352 139.855-123.666 139.855-221.34 0-135.307-109.689-244.997-244.998-244.997z" fill="#5c45bf"/><g><path d="m371.907 322.08h-245.846c5.19 5.998 8.337 13.813 8.337 22.367s-3.147 16.369-8.337 22.368h218.761c2.393 0 4.631-1.188 5.971-3.171l24.185-35.781c1.664-2.462-.1-5.783-3.071-5.783z" fill="#e0f5fc"/></g><path d="m371.907 238.949h-245.846c5.19 5.998 8.337 13.813 8.337 22.368s-3.147 16.369-8.337 22.368h218.761c2.393 0 4.631-1.188 5.971-3.171l24.185-35.781c1.664-2.463-.1-5.784-3.071-5.784z" fill="#e0f5fc"/><path d="m126.061 238.949c5.19 5.999 8.337 13.813 8.337 22.368s-3.147 16.369-8.337 22.368h76.165c-6.152-6.152 0-13.359 0-13.359v-18.017c-6.59-6.59 0-13.359 0-13.359h-76.165z" fill="#c5ebfc"/><path d="m336.042 261.317c0-4.975-4.033-9.008-9.008-9.008h-24.196c-4.975 0-9.009 4.033-9.009 9.008 0 4.975 4.033 9.008 9.009 9.008h24.196c4.974 0 9.008-4.033 9.008-9.008z" fill="#a4d9f7"/><path d="m79.599 287.028h45.113c7.142-6.271 11.656-15.461 11.656-25.711 0-18.895-15.317-34.212-34.212-34.212s-34.212 15.317-34.212 34.212c-.001 10.25 4.513 19.441 11.655 25.711z" fill="#ff4155"/><g><path d="m371.907 405.211h-245.846c5.19 5.999 8.337 13.813 8.337 22.368s-3.147 16.369-8.337 22.368h218.761c2.393 0 4.631-1.188 5.971-3.171l24.185-35.781c1.664-2.463-.1-5.784-3.071-5.784z" fill="#e0f5fc"/></g><path d="m150.857 488.342c31.862 15.162 67.508 23.658 105.143 23.658s73.281-8.496 105.143-23.658z" fill="#e0f5fc"/><path d="m336.042 344.448c0-4.975-4.033-9.009-9.008-9.009h-24.196c-4.975 0-9.009 4.033-9.009 9.008 0 4.975 4.033 9.008 9.009 9.008h24.196c4.974.001 9.008-4.032 9.008-9.007z" fill="#a4d9f7"/><path d="m336.042 427.579c0-4.975-4.033-9.009-9.008-9.009h-24.196c-4.975 0-9.009 4.033-9.009 9.008 0 4.975 4.033 9.008 9.009 9.008h24.196c4.974.001 9.008-4.032 9.008-9.007z" fill="#a4d9f7"/><path d="m276.441 261.317c0-4.975-4.033-9.008-9.008-9.008h-104.374c-4.975 0-9.009 4.033-9.009 9.008 0 4.975 4.033 9.008 9.009 9.008h104.374c4.975 0 9.008-4.033 9.008-9.008z" fill="#a4d9f7"/><path d="m207.917 139.586-22.668 39.263c-1.274 2.207.644 4.888 3.145 4.394l12.171-2.407 19.404-33.608c-4.255-2.189-8.287-4.747-12.052-7.642z" fill="#e80054"/><path d="m256 155.954c-4.688 0-9.274-.434-13.74-1.22l-21.726 37.631 4.001 11.744c.822 2.413 4.103 2.734 5.378.527l28.136-48.733c-.683.017-1.362.051-2.049.051z" fill="#ff4155"/><path d="m304.082 139.586c-3.764 2.895-7.796 5.453-12.051 7.642l19.404 33.608 12.171 2.407c2.501.494 4.419-2.186 3.145-4.394z" fill="#ff4155"/><path d="m256 155.954c-.687 0-1.366-.034-2.049-.052l28.136 48.733c1.274 2.208 4.555 1.886 5.378-.527l4.001-11.744-21.726-37.631c-4.466.788-9.052 1.221-13.74 1.221z" fill="#e80054"/><path d="m218.753 146.605-19.967 34.583 13.904-2.749c1.662-.329 3.31.623 3.857 2.227l4.571 13.416 22.569-39.091c-8.886-1.397-17.284-4.281-24.934-8.386z" fill="#e0f5fc"/><path d="m218.753 146.605-19.966 34.583 13.904-2.75c.738-.146 1.468-.027 2.106.277 3.063-5.595 6.895-12.602 9.437-17.271 3.775-6.935 14.771-6.771 19.404-6.368l.05-.086c-8.887-1.396-17.285-4.28-24.935-8.385z" fill="#a4d9f7"/><path d="m268.312 154.99 22.569 39.091 4.571-13.416c.546-1.603 2.195-2.555 3.857-2.227l13.904 2.749-19.967-34.583c-7.649 4.106-16.047 6.99-24.934 8.386z" fill="#e0f5fc"/><path d="m293.247 146.605c-7.65 4.105-16.048 6.989-24.935 8.385l22.569 39.091 4.571-13.416c.354-1.04 1.175-1.798 2.16-2.118-2.854-4.69-6.192-10.257-8.829-14.892-5.783-10.166 4.464-17.05 4.464-17.05z" fill="#a4d9f7"/><circle cx="256" cy="79.041" fill="#ffc839" r="79.041"/><path d="m294.455 10.02c-.349.078-13.173 3.052-8.912 16.986 4.32 14.126 30.308 52.036 30.308 52.036s6.37 8.66 19.191 0c0-29.631-16.398-55.491-40.587-69.022z" fill="#ffdd40"/><path d="m232.302 37.15c-.444-.722-1.163-1.207-1.979-1.435-3.643-1.019-4.445-4.072-4.538-6.202-.057-1.308-.929-2.417-2.16-2.864-7.623-2.765-8.369-9.265-8.113-12.982.053-.775-.186-1.516-.626-2.108-22.727 13.898-37.927 38.948-37.927 67.483 0 43.253 34.922 78.495 78.05 79.029-.017-.653-.229-1.3-.645-1.839-5.759-7.473-1.075-14.253.88-16.53.492-.573.758-1.301.762-2.056l.288-60.558c.003-.597-.161-1.183-.474-1.692z" fill="#ffb332"/><path d="m256 19.191c-33.002 0-59.85 26.849-59.85 59.851 0 20.912 10.789 39.342 27.084 50.048h65.532c16.296-10.705 27.085-29.136 27.085-50.048 0-33.002-26.849-59.851-59.851-59.851z" fill="#fce99a"/><path d="m232.302 37.15c-.444-.722-1.163-1.207-1.979-1.435-3.643-1.019-4.445-4.072-4.538-6.202-.028-.648-.258-1.246-.63-1.74-17.367 10.488-29.005 29.543-29.005 51.269 0 20.912 10.789 39.342 27.084 50.048h32.813l.247-52.002c.003-.597-.161-1.183-.474-1.692z" fill="#ffdd40"/><path d="m231.366 122.016c.154-.008.308-.013.464-.013h48.34c.156 0 .311.005.465.013.377-.825.788-1.592 1.222-2.295 3.051-4.947 3.367-11.389-.506-17.044h-50.703c-3.811 5.565-3.62 11.995-.506 17.044.435.703.846 1.47 1.224 2.295z" fill="#ffa219"/><path d="m230.143 119.721c.434.703.845 1.47 1.222 2.295.154-.008.309-.013.464-.013h19.249c-.034-.845-.313-1.672-.849-2.358-6.732-8.623.34-16.075.34-16.075l-.677-.893h-19.243c-3.81 5.565-3.62 11.995-.506 17.044z" fill="#ff9100"/><path d="m280.17 121.461h-48.34c-4.418 0-8.087 3.346-8.613 7.628 9.423 6.194 20.689 9.803 32.783 9.803 12.095 0 23.361-3.61 32.784-9.803-.527-4.282-4.195-7.628-8.614-7.628z" fill="#ffb332"/><path d="m250.807 123.716c.275-.731.343-1.51.215-2.256h-19.192c-4.418 0-8.087 3.346-8.613 7.628 9.423 6.194 20.689 9.803 32.783 9.803-7.999-4.237-6.575-11.508-5.193-15.175z" fill="#ffa219"/><g><path d="m270.405 63.409h-28.81c3.149 3.015 7.738 15.616-8.312 34.938h45.434c-16.05-19.322-11.461-31.923-8.312-34.938z" fill="#ffa219"/><path d="m250.69 97.927c3.588-7.517 5.039-16.552 5.608-21.753.265-2.424 2.315-4.256 4.753-4.256h6.269c.224-4.351 1.778-7.257 3.085-8.509h-28.81c3.149 3.015 7.738 15.616-8.312 34.938h17.084c.058-.069.11-.126.15-.169.071-.075.129-.158.173-.251z" fill="#ff9100"/><path d="m272.531 63.68h-33.062c-1.79 0-3.255-1.465-3.255-3.255v-2.894h39.573v2.894c-.001 1.79-1.466 3.255-3.256 3.255z" fill="#ffb332"/><path d="m258.012 57.803c-.275-.078-.523-.17-.751-.271h-21.047v2.894c0 1.79 1.465 3.255 3.255 3.255h18.543c-2.899-2.899 0-5.878 0-5.878z" fill="#ffa219"/><path d="m274.085 36.858v1.742c0 .493-.4.892-.892.892h-5.449c-.493 0-.892-.399-.892-.892v-1.742c0-.493-.4-.892-.892-.892h-5.449c-.493 0-.892.4-.892.892v1.742c0 .493-.399.892-.892.892h-5.449c-.493 0-.892-.399-.892-.892v-1.742c0-.493-.399-.892-.892-.892h-5.449c-.493 0-.892.4-.892.892v1.742c0 .493-.4.892-.892.892h-5.449c-.493 0-.892-.399-.892-.892v-1.742c0-.493-.4-.892-.892-.892h-5.449c-.493 0-.892.4-.892.892 0 .474 0 17.931 0 17.902 0 1.681 1.363 3.043 3.043 3.043h44.551c1.681 0 3.043-1.362 3.043-3.043 0-.698 0-18.43 0-17.902 0-.493-.399-.892-.892-.892h-5.449c-.499 0-.898.399-.898.892z" fill="#ffc839"/><path d="m254.932 54.476s0-7.537 0-11.191 3.793-3.793 3.793-3.793h-5.449c-.493 0-.892-.399-.892-.892v-1.742c0-.493-.399-.892-.892-.892h-5.449c-.493 0-.892.4-.892.892v1.742c0 .493-.4.892-.892.892h-5.449c-.493 0-.892-.399-.892-.892v-1.742c0-.493-.4-.892-.892-.892h-5.449c-.493 0-.892.4-.892.892 0 .474 0 17.931 0 17.902 0 1.681 1.363 3.043 3.043 3.043h24.287c-3.054-.872-3.083-3.327-3.083-3.327z" fill="#ffb332"/></g><path d="m281.419 98.076c-2.824 0-48.015 0-50.839 0-1.517 0-2.747 1.23-2.747 2.747s1.23 2.747 2.747 2.747h50.839c1.517 0 2.747-1.23 2.747-2.747.001-1.517-1.229-2.747-2.747-2.747z" fill="#ffb332"/><path d="m247.822 100.823c0-1.517 1.23-2.747 2.747-2.747-9.974 0-18.792 0-19.989 0-1.517 0-2.747 1.23-2.747 2.747s1.23 2.747 2.747 2.747h19.989c-1.517 0-2.747-1.23-2.747-2.747z" fill="#ffa219"/><ellipse cx="428.147" cy="261.317" fill="#e0f5fc" rx="34.212" ry="34.212" transform="matrix(.23 -.973 .973 .23 75.453 617.972)"/><path d="m445.001 291.085c-10.449-1.838-11.716-9.223-11.69-12.833.009-1.242-.7-2.365-1.79-2.961-9.425-5.155-9.951-14.163-9.565-18.588.13-1.492-.773-2.863-2.167-3.412-12.22-4.81-11.509-19.581-11.496-19.828-8.689 6.204-14.359 16.363-14.359 27.854 0 18.895 15.317 34.212 34.212 34.212 6.131 0 11.879-1.62 16.855-4.444z" fill="#c5ebfc"/><path d="m437.355 257.754-7.065-7.556c-1.16-1.24-3.127-1.24-4.286 0l-7.065 7.556c-1.219 1.304-3.288 1.304-4.507 0l-3.945-4.219c-1.54-1.647-4.277-.267-3.869 1.95l3.111 16.905c.411 2.234 2.359 3.856 4.631 3.856.939 0 28.465 0 27.573 0 2.272 0 4.219-1.622 4.631-3.856l3.111-16.905c.408-2.217-2.329-3.597-3.869-1.95l-3.944 4.219c-1.219 1.304-3.288 1.304-4.507 0z" fill="#ffdd40"/><path d="m431.521 275.292c-9.425-5.155-9.951-14.163-9.565-18.588.056-.637-.086-1.247-.365-1.786l-2.652 2.836c-1.219 1.304-3.288 1.304-4.507 0l-3.945-4.219c-1.54-1.647-4.277-.267-3.869 1.95l3.111 16.905c.411 2.234 2.359 3.856 4.63 3.856h18.267c-.292-.385-.665-.714-1.105-.954z" fill="#ffb332"/><g fill="#c5ebfc"><path d="m126.061 322.08c5.19 5.999 8.337 13.814 8.337 22.368 0 8.555-3.147 16.369-8.337 22.368h76.165c-6.152-6.152 0-13.359 0-13.359v-18.017c-6.59-6.59 0-13.359 0-13.359h-76.165z"/><path d="m126.061 405.211c5.19 5.999 8.337 13.814 8.337 22.368 0 8.555-3.147 16.369-8.337 22.368h76.165c-6.152-6.152 0-13.359 0-13.359v-18.018c-6.59-6.59 0-13.359 0-13.359z"/><path d="m201.77 488.342h-50.913c16.027 7.627 33.012 13.563 50.726 17.583-4.544-7.634-1.126-15.203.187-17.583z"/></g><path d="m79.599 370.159h45.113c7.142-6.271 11.656-15.461 11.656-25.711 0-18.895-15.317-34.212-34.212-34.212s-34.212 15.317-34.212 34.212c-.001 10.25 4.513 19.44 11.655 25.711z" fill="#ffc839"/><g><path d="m111.914 341.867-16.635-21.137c-6.177-1.551-4.477-8.517-4.466-8.561-13.319 4.68-22.87 17.36-22.87 32.279 0 10.25 4.514 19.441 11.656 25.711h26.631c5.461-6.159 10.573-13.38 7.663-16.289-5.5-5.5-1.979-12.003-1.979-12.003z" fill="#ffa219"/></g><circle cx="102.155" cy="332.436" fill="#fce99a" r="13.577"/><path d="m107.407 351.564h-10.504c-9.517 0-17.304 7.787-17.304 17.305v1.291c6.023 5.288 13.912 8.501 22.557 8.501 8.644 0 16.534-3.213 22.557-8.501v-1.291c-.001-9.518-7.788-17.305-17.306-17.305z" fill="#fce99a"/><path d="m102.155 393.366c-17.76 0-32.357 13.534-34.046 30.851 4.9 5.85 10.084 11.452 15.502 16.817l41.101 12.255-.001.007c7.146-6.268 11.657-15.465 11.657-25.718-.001-18.895-15.318-34.212-34.213-34.212z" fill="#5cc563"/><path d="m83.611 441.034 26.284 7.837c3.74-4.877 6.228-9.642 3.998-11.872-5.5-5.5-1.979-12.002-1.979-12.002l-16.634-21.137c-6.177-1.551-4.477-8.517-4.466-8.562l-.002-.002c-12.304 4.324-21.391 15.48-22.702 28.919 4.899 5.852 10.083 11.454 15.501 16.819z" fill="#46af49"/><circle cx="102.155" cy="415.567" fill="#b4d667" r="13.577"/><path d="m107.407 434.695h-10.504c-5.358 0-10.167 2.468-13.348 6.323 7.359 7.293 15.182 14.116 23.414 20.435 6.747-.952 12.859-3.875 17.743-8.163v-1.291c0-9.517-7.787-17.304-17.305-17.304z" fill="#b4d667"/><path d="m276.441 344.448c0-4.975-4.033-9.009-9.008-9.009h-104.374c-4.975 0-9.009 4.033-9.009 9.008 0 4.975 4.033 9.008 9.009 9.008h104.374c4.975.001 9.008-4.032 9.008-9.007z" fill="#a4d9f7"/><path d="m276.441 427.579c0-4.975-4.033-9.009-9.008-9.009h-104.374c-4.975 0-9.009 4.033-9.009 9.008 0 4.975 4.033 9.008 9.009 9.008h104.374c4.975.001 9.008-4.032 9.008-9.007z" fill="#a4d9f7"/><path d="m111.914 258.737-16.634-21.137c-6.177-1.551-4.477-8.517-4.466-8.561-13.319 4.68-22.87 17.36-22.87 32.279 0 10.25 4.514 19.441 11.656 25.711h26.631c5.461-6.159 10.573-13.38 7.663-16.29-5.501-5.5-1.98-12.002-1.98-12.002z" fill="#e80054"/><ellipse cx="102.155" cy="249.305" fill="#ff7186" rx="13.577" ry="13.577" transform="matrix(.16 -.987 .987 .16 -160.295 310.207)"/><path d="m107.407 268.433h-10.504c-9.517 0-17.304 7.787-17.304 17.305v1.291c6.023 5.288 13.912 8.501 22.557 8.501 8.644 0 16.534-3.213 22.557-8.501v-1.291c-.001-9.518-7.788-17.305-17.306-17.305z" fill="#ff7186"/><path d="m365.404 47.748c4.863 17.824 7.085 44.266-6.542 74.565-23.737 52.781 22.473 126.252 125.02 54.558-22.261-56.239-64.745-102.259-118.478-129.123z" fill="#7255ce"/><path d="m28.117 176.872c102.548 71.694 148.757-1.777 125.02-54.558-13.627-30.3-11.405-56.741-6.542-74.565-53.731 26.863-96.216 72.883-118.478 129.123z" fill="#7255ce"/></g></svg>