<?xml version="1.0" encoding="iso-8859-1"?>
<!-- Generator: Adobe Illustrator 19.0.0, SVG Export Plug-In . SVG Version: 6.00 Build 0)  -->
<svg version="1.1" id="Layer_1" xmlns="http://www.w3.org/2000/svg" xmlns:xlink="http://www.w3.org/1999/xlink" x="0px" y="0px"
	 viewBox="0 0 421.647 421.647" style="enable-background:new 0 0 421.647 421.647;" xml:space="preserve">
<g>
	<path style="fill:#FFFFFF;" d="M195.765,402.071c0,10.812-8.764,19.576-19.576,19.576H19.576C8.764,421.647,0,412.883,0,402.071
		V245.459c0-10.812,8.764-19.576,19.576-19.576h156.612c10.812,0,19.576,8.764,19.576,19.576V402.071z"/>
	<path style="fill:#FFFFFF;" d="M421.647,402.071c0,10.812-8.764,19.576-19.576,19.576H245.459
		c-10.812,0-19.576-8.764-19.576-19.576V245.459c0-10.812,8.764-19.576,19.576-19.576h156.612c10.812,0,19.576,8.764,19.576,19.576
		V402.071z"/>
	<path style="fill:#FFFFFF;" d="M308.706,176.188c0,10.812-8.764,19.576-19.576,19.576H132.518
		c-10.812,0-19.576-8.764-19.576-19.576V19.576C112.941,8.764,121.705,0,132.518,0h156.612c10.812,0,19.576,8.764,19.576,19.576
		V176.188z"/>
</g>
<g>
	<polygon style="fill:#00E676;" points="210.824,39.153 171.671,97.882 191.247,97.882 191.247,156.612 230.4,156.612 230.4,97.882 
		249.976,97.882 	"/>
	<polygon style="fill:#00E676;" points="392.282,323.765 333.553,284.612 333.553,304.188 274.824,304.188 274.824,343.341 
		333.553,343.341 333.553,362.918 	"/>
	<polygon style="fill:#00E676;" points="29.365,323.765 88.094,362.918 88.094,343.341 146.824,343.341 146.824,304.188 
		88.094,304.188 88.094,284.612 	"/>
</g>
<g>
</g>
<g>
</g>
<g>
</g>
<g>
</g>
<g>
</g>
<g>
</g>
<g>
</g>
<g>
</g>
<g>
</g>
<g>
</g>
<g>
</g>
<g>
</g>
<g>
</g>
<g>
</g>
<g>
</g>
</svg>
