<?xml version="1.0" encoding="iso-8859-1"?>
<!-- Generator: Adobe Illustrator 21.0.0, SVG Export Plug-In . SVG Version: 6.00 Build 0)  -->
<svg xmlns="http://www.w3.org/2000/svg" xmlns:xlink="http://www.w3.org/1999/xlink" version="1.1" id="Capa_1" x="0px" y="0px" viewBox="0 0 512 512" style="enable-background:new 0 0 512 512;" xml:space="preserve" width="512" height="512">
<g>
	<g>
		<circle style="fill:#65B2FF;" cx="256" cy="256" r="256"/>
		<path style="fill:#0F9BE8;" d="M512,256c0,141.38-114.62,256-256,256S0,397.38,0,256c0-46.22,12.25-89.57,33.68-127    C77.8,206.07,160.84,258,256,258s178.21-51.93,222.32-129C499.75,166.43,512,209.78,512,256z"/>
		<path style="fill:#0066E8;" d="M481.26,377.7v0.01C437.97,457.68,353.32,512,256,512S74.03,457.68,30.74,377.71v-0.01H481.26z"/>
	</g>
	<g>
		<g>
			<path style="fill:#FFFFFF;" d="M346.99,93.688l-14.92,14.92c-0.1,0.1-0.25,0.09-0.34-0.02c-2.18-2.7-4.53-5.31-7.02-7.8     c-2.56-2.56-5.22-4.95-8-7.18c-17.17-13.79-38.37-21.28-60.71-21.28h-0.01c-22.34,0-43.53,7.49-60.7,21.28     c-2.78,2.23-5.44,4.62-8,7.18c-2.5,2.5-4.84,5.11-7.01,7.81c-0.09,0.11-0.24,0.12-0.34,0.02l-14.93-14.94     c-0.09-0.08-0.09-0.21-0.02-0.31c2.24-2.67,4.62-5.26,7.12-7.76c2.55-2.55,5.19-4.97,7.92-7.26     c21.3-17.8,47.88-27.49,75.96-27.49H256c28.08,0,54.67,9.69,75.96,27.5c2.73,2.28,5.38,4.7,7.93,7.25     c2.5,2.5,4.87,5.09,7.12,7.77C347.08,93.468,347.08,93.608,346.99,93.688z"/>
			<path style="fill:#FFFFFF;" d="M317.65,123.018l-15.04,15.05c-0.1,0.1-0.26,0.09-0.34-0.03c-1.96-2.88-4.2-5.58-6.72-8.1     c-2.58-2.57-5.36-4.87-8.31-6.86c-9.16-6.19-19.95-9.52-31.24-9.52h-0.01c-11.29,0-22.07,3.33-31.23,9.52     c-2.95,1.99-5.73,4.29-8.31,6.86c-2.53,2.54-4.77,5.25-6.71,8.1c-0.08,0.12-0.24,0.14-0.34,0.04l-15.05-15.06     c-0.09-0.08-0.1-0.21-0.03-0.3c2.1-2.77,4.42-5.43,6.95-7.95c2.56-2.56,5.27-4.92,8.11-7.07c13.36-10.13,29.56-15.61,46.61-15.61     H256c17.05,0,33.26,5.48,46.62,15.61c2.84,2.15,5.55,4.51,8.11,7.07c2.52,2.51,4.83,5.17,6.95,7.95     C317.74,122.808,317.74,122.938,317.65,123.018z"/>
			<path style="fill:#FFFFFF;" d="M288.62,152.068l-6.62,6.61c-4.11,4.12-10.74,3.97-14.83-0.18c-0.03-0.03-0.06-0.06-0.08-0.09     c-2.94-2.94-6.75-4.46-10.6-4.58c-0.16-0.01-0.33-0.01-0.49-0.01h-0.01c-0.16,0-0.31,0-0.48,0.01c-3.85,0.12-7.66,1.64-10.6,4.58     c-0.01,0.01-0.02,0.02-0.03,0.03c-4.15,4.18-10.89,4.23-15.05,0.07l-6.46-6.46c-0.07-0.07-0.09-0.19-0.04-0.28     c1.7-3.1,3.84-5.98,6.4-8.54c2.64-2.64,5.58-4.8,8.71-6.47c5.46-2.92,11.5-4.39,17.55-4.39s12.1,1.46,17.57,4.39     c3.13,1.67,6.07,3.83,8.71,6.47c2.6,2.6,4.73,5.48,6.39,8.56C288.71,151.878,288.69,151.988,288.62,152.068z"/>
		</g>
		<path style="fill:#D0F6FF;" d="M288.66,151.788c0.05,0.09,0.03,0.2-0.04,0.28l-6.62,6.61c-4.11,4.12-10.74,3.97-14.83-0.18    c-0.03-0.03-0.06-0.06-0.08-0.09c-2.94-2.94-6.75-4.46-10.6-4.58c-0.16-0.01-0.33-0.01-0.49-0.01h-0.01v-21.45    c6.05,0,12.1,1.46,17.57,4.39c3.13,1.67,6.07,3.83,8.71,6.47C284.87,145.828,287,148.708,288.66,151.788z"/>
		<path style="fill:#D0F6FF;" d="M317.68,122.718c0.06,0.09,0.06,0.22-0.03,0.3l-15.04,15.05c-0.1,0.1-0.26,0.09-0.34-0.03    c-1.96-2.88-4.2-5.58-6.72-8.1c-2.58-2.57-5.36-4.87-8.31-6.86c-9.16-6.19-19.95-9.52-31.24-9.52h-0.01v-21.47H256    c17.05,0,33.26,5.48,46.62,15.61c2.84,2.15,5.55,4.51,8.11,7.07C313.25,117.278,315.56,119.938,317.68,122.718z"/>
		<path style="fill:#D0F6FF;" d="M346.99,93.688l-14.92,14.92c-0.1,0.1-0.25,0.09-0.34-0.02c-2.18-2.7-4.53-5.31-7.02-7.8    c-2.56-2.56-5.22-4.95-8-7.18c-17.17-13.79-38.37-21.28-60.71-21.28h-0.01v-21.47H256c28.08,0,54.67,9.69,75.96,27.5    c2.73,2.28,5.38,4.7,7.93,7.25c2.5,2.5,4.87,5.09,7.12,7.77C347.08,93.468,347.08,93.608,346.99,93.688z"/>
	</g>
	<g>
		<g>
			<path style="fill:#FFFFFF;" d="M441.454,296.891c0,56.732-45.991,102.723-102.723,102.723H111.856     c-22.815,0-41.31-18.498-41.31-41.31c0-22.815,18.494-41.31,41.31-41.31c6.803,0,13.226,1.646,18.884,4.56     c4.216-34.352,33.49-60.951,68.98-60.951c14.527,0,28.012,4.459,39.162,12.078c10.885-45.05,51.453-78.514,99.848-78.514     C395.462,194.168,441.454,240.156,441.454,296.891z"/>
			<g>
				<path style="fill:#FFFFFF;" d="M441.454,296.891c0,56.732-45.991,102.723-102.723,102.723H111.856      c-22.815,0-41.31-18.498-41.31-41.31c0-22.815,18.494-41.31,41.31-41.31c6.803,0,13.226,1.646,18.884,4.56      c4.216-34.352,33.49-60.951,68.98-60.951c14.527,0,28.012,4.459,39.162,12.078c10.885-45.05,51.453-78.514,99.848-78.514      C395.462,194.168,441.454,240.156,441.454,296.891z"/>
			</g>
			<path style="fill:#D0F6FF;" d="M441.454,296.891c0,56.732-45.991,102.723-102.723,102.723h-99.848V272.682     c10.885-45.05,51.453-78.514,99.848-78.514C395.462,194.168,441.454,240.156,441.454,296.891z"/>
			<path style="fill:#D0F6FF;" d="M379.61,256.01c-10.92-10.91-25.44-16.93-40.88-16.93c-13.23,0-25.68,4.35-35.98,12.57     c-10.05,8.01-17.22,19.22-20.21,31.58c-3.46,14.35-13.76,26.08-27.53,31.37c-0.33,0.13-0.65,0.25-0.98,0.36     c-0.57,0.21-1.14,0.4-1.72,0.58c-0.3,0.1-0.6,0.19-0.91,0.27c-0.3,0.09-0.6,0.18-0.91,0.26c-0.3,0.08-0.61,0.16-0.91,0.23     c-0.61,0.16-1.22,0.29-1.84,0.41c-0.46,0.1-0.93,0.19-1.4,0.26c-0.27,0.05-0.53,0.09-0.8,0.13c-0.52,0.08-1.03,0.15-1.55,0.21     c-0.68,0.08-1.36,0.14-2.04,0.18c-0.55,0.04-1.09,0.07-1.64,0.08c-0.47,0.02-0.95,0.03-1.42,0.03h-0.01     c-1.23,0-2.45-0.05-3.67-0.15c-3.51-0.29-6.98-0.99-10.34-2.1c-2.53-0.83-4.99-1.88-7.36-3.17c-1.36-0.72-2.68-1.53-3.97-2.41     c-1.77-1.21-4.27-2.57-7.44-3.41c-1.9-0.51-4.03-0.84-6.38-0.84c-12.41,0-22.89,9.25-24.4,21.51c-0.25,2.06-0.65,4.09-1.18,6.07     c-1.08,4.08-2.72,7.95-4.88,11.53c-0.88,1.49-1.86,2.93-2.92,4.31c-1.59,2.06-3.35,3.99-5.28,5.76h177.67     c0.53,0,1.05-0.01,1.57-0.02c0.25-0.01,0.49-0.02,0.73-0.03c0.51-0.02,1.02-0.04,1.53-0.08c0.42-0.03,0.84-0.06,1.26-0.1     c0.28-0.02,0.55-0.05,0.82-0.07c0.34-0.03,0.67-0.07,1-0.11c0.56-0.06,1.11-0.14,1.66-0.22c0.36-0.05,0.72-0.1,1.07-0.17     c0.06,0,0.12-0.01,0.18-0.03c0.28-0.04,0.55-0.09,0.82-0.15c0.29-0.05,0.57-0.1,0.85-0.16c0.28-0.05,0.57-0.11,0.86-0.18     c0.21-0.04,0.42-0.09,0.64-0.14c0.66-0.15,1.32-0.31,1.98-0.49c0.39-0.11,0.77-0.21,1.16-0.32c0.46-0.13,0.92-0.27,1.37-0.42     c0.55-0.17,1.09-0.35,1.63-0.54c0.92-0.31,1.82-0.66,2.71-1.03c0.3-0.12,0.59-0.24,0.89-0.37c0.34-0.14,0.67-0.28,0.99-0.43     c0.45-0.2,0.9-0.41,1.35-0.63c0.39-0.18,0.77-0.37,1.15-0.57c0.33-0.17,0.66-0.34,1-0.52c0.41-0.22,0.82-0.45,1.23-0.68     c0.41-0.23,0.81-0.47,1.22-0.71c0.62-0.38,1.24-0.77,1.86-1.17c0.26-0.17,0.51-0.34,0.76-0.5c0.03-0.02,0.06-0.04,0.09-0.06     c0.45-0.31,0.89-0.62,1.33-0.94c0.42-0.29,0.82-0.59,1.23-0.91c0.29-0.21,0.57-0.43,0.85-0.66c0.82-0.64,1.63-1.32,2.42-2.03     c0.42-0.37,0.84-0.75,1.26-1.14c0.48-0.44,0.95-0.9,1.41-1.36c10.91-10.91,16.93-25.43,16.93-40.87     C396.54,281.45,390.52,266.93,379.61,256.01z"/>
			<path style="fill:#8FC9F7;" d="M396.538,296.891c0,15.439-6.013,29.956-16.93,40.873c-10.921,10.921-25.435,16.934-40.877,16.934     h-99.848v-37.1h0.003c5.439,0,10.904-0.987,16.121-2.993c13.776-5.298,24.071-17.025,27.536-31.376     c2.987-12.357,10.16-23.573,20.202-31.582c10.308-8.219,22.75-12.563,35.985-12.563c15.442,0,29.956,6.013,40.877,16.93     C390.525,266.932,396.538,281.449,396.538,296.891z"/>
		</g>
		<g>
			<g>
				<g>
					<path style="fill:#FFD112;" d="M176.95,354.83v61.27l-36.88,36.88v31.32c-0.48-0.24-0.96-0.49-1.43-0.74       c-3.09-1.59-6.15-3.25-9.16-4.97c-0.17-0.09-0.33-0.18-0.5-0.28c-3.42-1.95-6.79-3.99-10.1-6.1v-28l36.89-36.9v-52.48H176.95z"/>
					<path style="fill:#FF9F00;" d="M176.95,354.83v61.27l-36.88,36.88v31.32c-0.48-0.24-0.96-0.49-1.43-0.74       c-3.09-1.59-6.15-3.25-9.16-4.97V448.6l36.88-36.89v-56.88H176.95z"/>
				</g>
				<g>
					<path style="fill:#FFE955;" d="M152.57,488.91c0,0.44-0.01,0.88-0.04,1.31c-4.22-1.86-8.37-3.84-12.46-5.92       c-0.48-0.24-0.96-0.49-1.43-0.74c-3.09-1.59-6.15-3.25-9.16-4.97c-0.17-0.09-0.33-0.18-0.5-0.28c-3.42-1.95-6.79-3.99-10.1-6.1       c-1.02-0.64-2.02-1.29-3.03-1.95c0.95-0.69,1.97-1.32,3.03-1.87c3.17-1.64,6.78-2.57,10.6-2.57c3.82,0,7.42,0.92,10.59,2.57       C147.49,472.23,152.57,479.98,152.57,488.91z"/>
					<path style="fill:#FFD112;" d="M152.57,488.91c0,0.44-0.01,0.88-0.04,1.31c-4.22-1.86-8.37-3.84-12.46-5.92       c-0.48-0.24-0.96-0.49-1.43-0.74c-3.09-1.59-6.15-3.25-9.16-4.97v-12.77c3.82,0,7.42,0.92,10.59,2.57       C147.49,472.23,152.57,479.98,152.57,488.91z"/>
					<path style="fill:#FFD112;" d="M129.48,478.59c-0.17-0.09-0.33-0.18-0.5-0.28c0.17-0.01,0.33-0.01,0.5-0.01       c3.91,0,7.32,2.11,9.16,5.26C135.55,481.97,132.49,480.31,129.48,478.59z"/>
					<path style="fill:#FF9F00;" d="M138.64,483.56c-3.09-1.59-6.15-3.25-9.16-4.97v-0.29C133.39,478.3,136.8,480.41,138.64,483.56z       "/>
				</g>
				<g>
					<circle style="fill:#FFE955;" cx="166.341" cy="354.835" r="23.089"/>
					<path style="fill:#FFD112;" d="M189.43,354.835c0,12.753-10.336,23.089-23.089,23.089v-46.177       C179.094,331.746,189.43,342.082,189.43,354.835z"/>
					<circle style="fill:#FFD112;" cx="166.341" cy="354.835" r="10.612"/>
					<path style="fill:#FF9F00;" d="M176.953,354.835c0,5.862-4.75,10.612-10.612,10.612v-21.224       C172.203,344.223,176.953,348.973,176.953,354.835z"/>
				</g>
			</g>
			<g>
				<g>
					<rect x="214.275" y="317.594" style="fill:#FFD112;" width="21.187" height="175.935"/>
					<rect x="224.869" y="317.594" style="fill:#FF9F00;" width="10.594" height="175.935"/>
				</g>
				<g>
					<path style="fill:#FFE955;" d="M247.96,488.91c0,10.27-6.71,18.98-15.99,21.97h-0.01c-2.37-0.22-4.74-0.47-7.09-0.76       c-4.22-0.51-8.4-1.12-12.56-1.84h-0.01c-6.33-4.12-10.52-11.25-10.52-19.37c0-8.93,5.08-16.68,12.5-20.52       c3.17-1.65,6.78-2.57,10.59-2.57s7.42,0.92,10.59,2.57C242.88,472.23,247.96,479.98,247.96,488.91z"/>
					<path style="fill:#FFD112;" d="M247.96,488.91c0,10.27-6.71,18.98-15.99,21.97h-0.01c-2.37-0.22-4.74-0.47-7.09-0.76v-44.3       c3.81,0,7.42,0.92,10.59,2.57C242.88,472.23,247.96,479.98,247.96,488.91z"/>
					<circle style="fill:#FFD112;" cx="224.869" cy="488.911" r="10.612"/>
					<path style="fill:#FF9F00;" d="M235.481,488.911c0,5.862-4.75,10.612-10.612,10.612V478.3       C230.73,478.3,235.481,483.05,235.481,488.911z"/>
				</g>
				<g>
					<circle style="fill:#FFE955;" cx="224.869" cy="319.809" r="23.089"/>
					<path style="fill:#FFD112;" d="M247.957,319.809c0,12.753-10.336,23.089-23.089,23.089V296.72       C237.622,296.72,247.957,307.056,247.957,319.809z"/>
					<circle style="fill:#FFD112;" cx="224.869" cy="319.809" r="10.612"/>
					<path style="fill:#FF9F00;" d="M235.481,319.809c0,5.862-4.75,10.612-10.612,10.612v-21.224       C230.73,309.197,235.481,313.947,235.481,319.809z"/>
				</g>
			</g>
			<g>
				<g>
					<polygon style="fill:#FFD112;" points="329.859,444.212 329.859,493.529 308.672,493.529 308.672,452.98 271.774,416.098        271.774,354.835 292.961,354.835 292.961,407.314      "/>
					<polygon style="fill:#FF9F00;" points="329.859,444.212 329.859,493.529 319.266,493.529 319.266,448.596 282.367,411.714        282.367,354.835 292.961,354.835 292.961,407.314      "/>
				</g>
				<g>
					<path style="fill:#FFE955;" d="M342.13,488.91c0,3.13-0.63,6.12-1.76,8.85h-0.01c-6.97,2.45-14.08,4.59-21.32,6.42       c-4.61,1.17-9.27,2.21-13.97,3.12c-5.54-4.22-9.12-10.89-9.12-18.39c0-9.02,5.17-16.83,12.72-20.64       c3.11-1.57,6.64-2.45,10.37-2.45c0.08,0,0.15,0,0.23,0.01c3.83,0.03,7.43,0.99,10.59,2.67       C337.16,472.39,342.13,480.07,342.13,488.91z"/>
					<path style="fill:#FFD112;" d="M342.13,488.91c0,3.13-0.63,6.12-1.76,8.85h-0.01c-6.97,2.45-14.08,4.59-21.32,6.42v-38.36       c0.08,0,0.15,0,0.23,0.01c3.83,0.03,7.43,0.99,10.59,2.67C337.16,472.39,342.13,480.07,342.13,488.91z"/>
					<circle style="fill:#FFD112;" cx="319.037" cy="488.911" r="10.612"/>
					<path style="fill:#FF9F00;" d="M329.649,488.911c0,5.862-4.75,10.612-10.612,10.612V478.3       C324.899,478.3,329.649,483.05,329.649,488.911z"/>
				</g>
				<g>
					<circle style="fill:#FFE955;" cx="282.367" cy="354.835" r="23.089"/>
					<path style="fill:#FFD112;" d="M305.456,354.835c0,12.753-10.336,23.089-23.089,23.089v-46.177       C295.12,331.746,305.456,342.082,305.456,354.835z"/>
					<circle style="fill:#FFD112;" cx="282.367" cy="354.835" r="10.612"/>
					<path style="fill:#FF9F00;" d="M292.979,354.835c0,5.862-4.75,10.612-10.612,10.612v-21.224       C288.229,344.223,292.979,348.973,292.979,354.835z"/>
				</g>
			</g>
			<g>
				<g>
					<path style="fill:#FFD112;" d="M393.11,419.8v52.42c-3.31,2.11-6.68,4.14-10.09,6.09c-0.17,0.1-0.33,0.19-0.5,0.28       c-3.01,1.72-6.07,3.38-9.16,4.97c-0.47,0.26-0.95,0.5-1.44,0.74v-55.73l-29.04-29.05l-7.84-7.84v-61.26h21.19v52.48l12.3,12.31       L393.11,419.8z"/>
					<path style="fill:#FF9F00;" d="M393.11,419.8v52.42c-3.31,2.11-6.68,4.14-10.09,6.09c-0.17,0.1-0.33,0.19-0.5,0.28v-54.41       l-36.88-36.88v-56.88h10.59v52.48l12.3,12.31L393.11,419.8z"/>
				</g>
				<g>
					<path style="fill:#FFE955;" d="M396.15,470.26c-1.01,0.66-2.02,1.31-3.04,1.96c-3.31,2.11-6.68,4.14-10.09,6.09       c-0.17,0.1-0.33,0.19-0.5,0.28c-3.01,1.72-6.07,3.38-9.16,4.97c-0.47,0.26-0.95,0.5-1.44,0.74c-4.08,2.09-8.24,4.06-12.45,5.92       c-0.03-0.43-0.04-0.87-0.04-1.31c0-8.93,5.07-16.68,12.49-20.52c3.17-1.64,6.78-2.57,10.6-2.57s7.42,0.92,10.59,2.57       C394.18,468.93,395.19,469.56,396.15,470.26z"/>
					<path style="fill:#FFD112;" d="M383.02,478.31c-0.17,0.1-0.33,0.19-0.5,0.28v-12.77c3.82,0,7.42,0.92,10.59,2.57       c1.07,0.54,2.08,1.17,3.04,1.87c-1.01,0.66-2.02,1.31-3.04,1.96C389.8,474.33,386.43,476.36,383.02,478.31z"/>
					<path style="fill:#FFD112;" d="M382.52,478.59c-3.01,1.72-6.07,3.38-9.16,4.97c1.84-3.15,5.25-5.26,9.16-5.26       c0.17,0,0.33,0,0.5,0.01C382.85,478.41,382.69,478.5,382.52,478.59z"/>
					<path style="fill:#FF9F00;" d="M383.02,478.31c-0.17,0.1-0.33,0.19-0.5,0.28v-0.29C382.69,478.3,382.85,478.3,383.02,478.31z"/>
				</g>
				<g>
					<circle style="fill:#FFE955;" cx="345.635" cy="330.421" r="23.089"/>
					<path style="fill:#FFD112;" d="M368.724,330.421c0,12.753-10.336,23.089-23.089,23.089v-46.177       C358.388,307.332,368.724,317.668,368.724,330.421z"/>
					<circle style="fill:#FFD112;" cx="345.635" cy="330.421" r="10.612"/>
					<path style="fill:#FF9F00;" d="M356.247,330.421c0,5.862-4.75,10.612-10.612,10.612v-21.224       C351.497,319.809,356.247,324.559,356.247,330.421z"/>
				</g>
			</g>
		</g>
	</g>
</g>















</svg>
