<?xml version="1.0" encoding="iso-8859-1"?>
<!-- Generator: Adobe Illustrator 19.0.0, SVG Export Plug-In . SVG Version: 6.00 Build 0)  -->
<svg version="1.1" id="Layer_1" xmlns="http://www.w3.org/2000/svg" xmlns:xlink="http://www.w3.org/1999/xlink" x="0px" y="0px"
	 viewBox="0 0 481.882 481.882" style="enable-background:new 0 0 481.882 481.882;" xml:space="preserve">
<g>
	<path style="fill:#003B15;" d="M316.235,465.235c0,8.312-6.746,15.059-15.059,15.059H180.706c-8.312,0-15.059-6.746-15.059-15.059
		V254.411c0-8.312,6.746-15.059,15.059-15.059h120.471c8.312,0,15.059,6.746,15.059,15.059V465.235z"/>
	<path style="fill:#003B15;" d="M481.882,465.235c0,8.312-6.746,15.059-15.059,15.059H346.353c-8.312,0-15.059-6.746-15.059-15.059
		V254.411c0-8.312,6.746-15.059,15.059-15.059h120.471c8.312,0,15.059,6.746,15.059,15.059V465.235z"/>
	<path style="fill:#003B15;" d="M150.588,465.235c0,8.312-6.746,15.059-15.059,15.059H15.059C6.746,480.294,0,473.547,0,465.235
		V254.411c0-8.312,6.746-15.059,15.059-15.059h120.471c8.312,0,15.059,6.746,15.059,15.059V465.235z"/>
</g>
<g>
	<circle style="fill:#00E676;" cx="116.706" cy="273.235" r="11.294"/>
	<circle style="fill:#00E676;" cx="79.059" cy="273.235" r="11.294"/>
	<circle style="fill:#00E676;" cx="41.412" cy="273.235" r="11.294"/>
</g>
<path style="fill:#ECF5E1;" d="M399.059,138.18c0-29.764-18.379-55.206-44.408-65.679C334.042,22.076,300.74,1.589,259.945,1.589
	c-38.332,0-71.567,21.85-87.861,53.805c-25.916-11.038-55.145,7.304-56.23,35.689c-23.62,8.328-40.561,30.765-40.561,57.208
	c0,33.528,27.174,60.71,60.71,60.71h202.353C338.357,209.001,399.059,197.745,399.059,138.18z"/>
<path style="fill:#FFFFFF;" d="M259.938,1.589c-38.34,0-71.575,21.85-87.868,53.805c-25.916-11.038-55.145,7.304-56.23,35.689
	c-23.605,8.328-40.546,30.765-40.546,57.208c0,31.842,24.523,57.901,55.695,60.454L318.645,21.082
	C301.809,7.642,281.976,1.589,259.938,1.589z"/>
<g>
	<circle style="fill:#00E676;" cx="282.353" cy="273.235" r="11.294"/>
	<circle style="fill:#00E676;" cx="244.706" cy="273.235" r="11.294"/>
	<circle style="fill:#00E676;" cx="207.059" cy="273.235" r="11.294"/>
	<circle style="fill:#00E676;" cx="448" cy="273.235" r="11.294"/>
	<circle style="fill:#00E676;" cx="410.353" cy="273.235" r="11.294"/>
	<circle style="fill:#00E676;" cx="372.706" cy="273.235" r="11.294"/>
</g>
<g>
	<rect y="427.588" style="fill:#3B8F61;" width="150.588" height="15.059"/>
	<rect y="389.941" style="fill:#3B8F61;" width="150.588" height="15.059"/>
	<rect y="352.294" style="fill:#3B8F61;" width="150.588" height="15.059"/>
	<rect y="314.647" style="fill:#3B8F61;" width="150.588" height="15.059"/>
	<rect x="165.647" y="427.588" style="fill:#3B8F61;" width="150.588" height="15.059"/>
	<rect x="165.647" y="389.941" style="fill:#3B8F61;" width="150.588" height="15.059"/>
	<rect x="165.647" y="352.294" style="fill:#3B8F61;" width="150.588" height="15.059"/>
	<rect x="165.647" y="314.647" style="fill:#3B8F61;" width="150.588" height="15.059"/>
	<rect x="331.294" y="427.588" style="fill:#3B8F61;" width="150.588" height="15.059"/>
	<rect x="331.294" y="389.941" style="fill:#3B8F61;" width="150.588" height="15.059"/>
	<rect x="331.294" y="352.294" style="fill:#3B8F61;" width="150.588" height="15.059"/>
	<rect x="331.294" y="314.647" style="fill:#3B8F61;" width="150.588" height="15.059"/>
</g>
<g>
</g>
<g>
</g>
<g>
</g>
<g>
</g>
<g>
</g>
<g>
</g>
<g>
</g>
<g>
</g>
<g>
</g>
<g>
</g>
<g>
</g>
<g>
</g>
<g>
</g>
<g>
</g>
<g>
</g>
</svg>
