<?xml version="1.0" encoding="iso-8859-1"?>
<!-- Generator: Adobe Illustrator 21.0.0, SVG Export Plug-In . SVG Version: 6.00 Build 0)  -->
<svg xmlns="http://www.w3.org/2000/svg" xmlns:xlink="http://www.w3.org/1999/xlink" version="1.1" id="Capa_1" x="0px" y="0px" viewBox="0 0 512 512" style="enable-background:new 0 0 512 512;" xml:space="preserve" width="512" height="512">
<g>
	<g>
		<circle style="fill:#B5E237;" cx="256" cy="256" r="256"/>
		<path style="fill:#95D600;" d="M512,256c0,141.38-114.62,256-256,256S0,397.38,0,256c0-46.22,12.25-89.57,33.68-127    C77.8,206.07,160.84,258,256,258s178.21-51.93,222.32-129C499.75,166.43,512,209.78,512,256z"/>
		<path style="fill:#85AF12;" d="M481.26,377.7v0.01C437.97,457.68,353.32,512,256,512S74.03,457.68,30.74,377.71v-0.01H481.26z"/>
	</g>
	<g>
		<g>
			<g>
				<g>
					<path style="fill:#D0F6FF;" d="M426.73,245.71v201.04c-1.13,1.01-2.26,2.01-3.41,2.99c-0.71,0.62-1.43,1.23-2.15,1.85       c-2.2,1.86-4.45,3.69-6.72,5.49c-1,0.79-2.01,1.57-3.02,2.34c-4.42,3.39-8.95,6.63-13.59,9.72c-0.99,0.66-1.99,1.32-2.99,1.96       c-0.88,0.57-1.76,1.14-2.65,1.69c-1.38,0.88-2.78,1.74-4.18,2.58c-1.07,0.65-2.14,1.28-3.22,1.91       c-0.27,0.16-0.55,0.32-0.82,0.47c-0.93,0.55-1.87,1.08-2.81,1.61c-0.07,0.04-0.14,0.07-0.21,0.12       c-1.09,0.61-2.19,1.21-3.3,1.81c-1.23,0.67-2.48,1.33-3.73,1.98c-1.4,0.73-2.82,1.45-4.24,2.16c-4.35,2.15-8.77,4.2-13.26,6.11       c-1.49,0.64-2.98,1.26-4.48,1.86c-2.25,0.92-4.52,1.8-6.81,2.64c-0.76,0.29-1.52,0.57-2.29,0.84c-0.76,0.28-1.53,0.55-2.3,0.82       c-0.77,0.27-1.54,0.54-2.31,0.8H173.76c-12.35-4.18-24.27-9.29-35.69-15.23c-21.17-11-40.6-24.87-57.79-41.1V245.71       c0-7.06,5.72-12.78,12.77-12.78h320.9C421,232.93,426.73,238.65,426.73,245.71z"/>
					<path style="fill:#8FC9F7;" d="M426.73,245.71v201.04c-25.43,22.78-55.45,40.55-88.49,51.75H256V232.93h157.95       C421,232.93,426.73,238.65,426.73,245.71z"/>
					<path style="fill:#474F6F;" d="M400.515,273.661v184.106c0,5.409-4.388,9.796-9.789,9.796H118.28       c-5.409,0-9.789-4.388-9.789-9.796V273.661c0-5.409,4.38-9.789,9.789-9.789h272.447       C396.128,263.872,400.515,268.252,400.515,273.661z"/>
					<path style="fill:#323B5A;" d="M400.515,273.661v184.106c0,5.409-4.388,9.796-9.789,9.796H256.135V263.872h134.592       C396.128,263.872,400.515,268.252,400.515,273.661z"/>
				</g>
				<path style="fill:#8FC9F7;" d="M373.93,483.27c-11.42,5.94-23.34,11.04-35.69,15.23C312.43,507.25,284.77,512,256,512      c-28.77,0-56.43-4.75-82.24-13.5c-12.35-4.18-24.27-9.29-35.69-15.23H373.93z"/>
				<path style="fill:#0F9BE8;" d="M373.93,483.27c-11.42,5.94-23.34,11.04-35.69,15.23C312.43,507.25,284.77,512,256,512v-28.73      H373.93z"/>
				<g>
					<path style="fill:#0F9BE8;" d="M312.893,483.267c0,7.708-6.25,13.958-13.958,13.958h-85.869       c-7.708,0-13.958-6.25-13.958-13.958H312.893z"/>
					<path style="fill:#0066E8;" d="M312.893,483.267c0,7.708-6.25,13.958-13.958,13.958h-42.942v-13.958H312.893z"/>
				</g>
			</g>
			<g>
				<path style="fill:#FFFFFF;" d="M157.01,318.042l-17.058-7.076c-1.266-0.525-2.091-1.761-2.091-3.131v-1.698      c0-1.369,0.824-2.604,2.089-3.13l17.058-7.088c2.232-0.928,4.69,0.713,4.69,3.13v0.041c0,1.402-0.863,2.659-2.171,3.163      L147.212,307l12.316,4.749c1.308,0.504,2.17,1.761,2.17,3.162v0C161.698,317.328,159.242,318.968,157.01,318.042z"/>
				<path style="fill:#FFFFFF;" d="M173.676,291.098h2.281c1.659,0,2.881,1.553,2.489,3.166l-6.475,26.66      c-0.279,1.148-1.307,1.957-2.489,1.957h-2.245c-1.658,0-2.879-1.551-2.49-3.163l6.439-26.66      C171.464,291.908,172.493,291.098,173.676,291.098z"/>
				<path style="fill:#FFFFFF;" d="M183.524,311.749L195.84,307l-12.316-4.747c-1.308-0.504-2.171-1.761-2.171-3.163v-0.041      c0-2.417,2.458-4.058,4.69-3.13l17.058,7.088c1.265,0.526,2.089,1.76,2.089,3.13v1.698c0,1.37-0.825,2.606-2.091,3.131      l-17.058,7.076c-2.232,0.926-4.688-0.714-4.688-3.131v0C181.354,313.51,182.216,312.253,183.524,311.749z"/>
			</g>
			<path style="fill:#DD1265;" d="M171.931,347.461h-27.736c-3.498,0-6.333-2.836-6.333-6.333v0c0-3.498,2.836-6.333,6.333-6.333     h27.736c3.498,0,6.333,2.836,6.333,6.333v0C178.264,344.626,175.429,347.461,171.931,347.461z"/>
			<path style="fill:#FFD112;" d="M245.877,390.461h-27.736c-3.498,0-6.333-2.836-6.333-6.333v0c0-3.498,2.836-6.333,6.333-6.333     h27.736c3.498,0,6.333,2.836,6.333,6.333v0C252.211,387.626,249.375,390.461,245.877,390.461z"/>
			<path style="fill:#FFFFFF;" d="M309.726,347.461H194.695c-3.498,0-6.333-2.836-6.333-6.333v0c0-3.498,2.836-6.333,6.333-6.333     h115.031c3.498,0,6.333,2.836,6.333,6.333v0C316.059,344.626,313.224,347.461,309.726,347.461z"/>
			<path style="fill:#FFFFFF;" d="M259.226,368.961H144.195c-3.498,0-6.333-2.836-6.333-6.333v0c0-3.498,2.836-6.333,6.333-6.333     h115.031c3.498,0,6.333,2.836,6.333,6.333v0C265.559,366.126,262.724,368.961,259.226,368.961z"/>
			<path style="fill:#FFFFFF;" d="M195.941,390.461h-51.746c-3.498,0-6.333-2.836-6.333-6.333v0c0-3.498,2.836-6.333,6.333-6.333     h51.746c3.498,0,6.333,2.836,6.333,6.333v0C202.274,387.626,199.439,390.461,195.941,390.461z"/>
			<path style="fill:#FFFFFF;" d="M259.226,411.961H144.195c-3.498,0-6.333-2.836-6.333-6.333v0c0-3.498,2.836-6.333,6.333-6.333     h115.031c3.498,0,6.333,2.836,6.333,6.333v0C265.559,409.126,262.724,411.961,259.226,411.961z"/>
			<path style="fill:#FFFFFF;" d="M288.333,411.961h-14.721c-1.335,0-2.417-1.082-2.417-2.417l0,0c0-1.335,1.082-2.417,2.417-2.417     h14.721c1.335,0,2.417,1.082,2.417,2.417l0,0C290.75,410.879,289.668,411.961,288.333,411.961z"/>
		</g>
		<g>
			<circle style="fill:#D0F6FF;" cx="256.854" cy="112.217" r="77.948"/>
			<path style="fill:#8FC9F7;" d="M334.803,112.217c0,43.045-34.903,77.948-77.948,77.948V34.269     C299.9,34.269,334.803,69.172,334.803,112.217z"/>
			<path style="fill:#0F9BE8;" d="M322.745,59.357c-0.795-0.998-1.615-1.97-2.46-2.924c-2.384-2.708-4.939-5.263-7.647-7.647     c-0.953-0.845-1.926-1.665-2.924-2.466c-14.486-11.639-32.875-18.612-52.86-18.612s-38.374,6.973-52.86,18.612     c-0.998,0.801-1.97,1.621-2.924,2.466c-2.708,2.384-5.263,4.939-7.647,7.647c-0.845,0.953-1.665,1.926-2.466,2.924     c-11.639,14.48-18.612,32.869-18.612,52.86s6.973,38.38,18.612,52.86c0.801,0.998,1.621,1.971,2.466,2.924     c2.384,2.708,4.939,5.263,7.647,7.647c0.953,0.845,1.926,1.665,2.924,2.466c14.486,11.639,32.875,18.612,52.86,18.612     s38.374-6.973,52.86-18.612c0.998-0.801,1.97-1.621,2.924-2.466c2.708-2.384,5.263-4.939,7.647-7.647     c0.845-0.953,1.665-1.926,2.46-2.924c11.645-14.48,18.618-32.869,18.618-52.86S334.39,73.837,322.745,59.357z M326.361,104.907     h-27.447c1.348-12.954,6.255-24.866,13.723-34.744C320.107,80.041,325.014,91.953,326.361,104.907z M284.231,119.527     c0.82,9.554,3.235,18.662,6.986,27.053c-8.39-3.75-17.499-6.166-27.053-6.986c-0.001,0-0.001,0-0.002,0v-20.068L284.231,119.527     L284.231,119.527z M222.492,77.854c8.39,3.75,17.498,6.165,27.051,6.986v20.067h-20.065     C228.657,95.353,226.242,86.245,222.492,77.854z M284.231,104.907h-20.069V84.84c0.001,0,0.001,0,0.002,0     c9.554-0.82,18.662-3.235,27.053-6.986C287.467,86.245,285.051,95.353,284.231,104.907z M229.477,119.527L229.477,119.527     l20.065-0.001v20.068c-9.553,0.82-18.661,3.235-27.051,6.986C226.242,138.189,228.657,129.081,229.477,119.527z M298.908,56.433     c-9.878,7.469-21.79,12.376-34.744,13.724c-0.001,0-0.001,0-0.002,0V42.71c0.001,0,0.001,0,0.002,0     C277.118,44.058,289.03,48.965,298.908,56.433z M249.542,42.71v27.446c-12.954-1.348-24.865-6.255-34.742-13.723     C224.678,48.965,236.589,44.058,249.542,42.71z M201.071,70.163c7.469,9.878,12.376,21.789,13.723,34.744h-27.447     C188.695,91.953,193.602,80.041,201.071,70.163z M187.347,119.527L187.347,119.527l27.447-0.001l0,0.001     c-1.348,12.954-6.255,24.866-13.723,34.744C193.602,144.393,188.695,132.481,187.347,119.527z M249.542,154.278v27.446     c-12.954-1.348-24.865-6.255-34.742-13.723C224.678,160.532,236.589,155.625,249.542,154.278z M264.164,181.724     c-0.001,0-0.001,0-0.002,0v-27.447c0.001,0,0.001,0,0.002,0c12.954,1.348,24.866,6.255,34.744,13.724     C289.03,175.47,277.118,180.377,264.164,181.724z M312.638,154.271c-7.469-9.878-12.376-21.79-13.723-34.744c0,0,0,0,0-0.001     h27.447l0,0.001C325.014,132.481,320.107,144.393,312.638,154.271z"/>
			<path style="fill:#0066E8;" d="M322.745,59.357c-0.795-0.998-1.615-1.97-2.46-2.924c-2.384-2.708-4.939-5.263-7.647-7.647     c-0.953-0.845-1.926-1.665-2.924-2.466c-14.486-11.639-32.875-18.612-52.86-18.612v169.016c19.984,0,38.374-6.973,52.86-18.612     c0.998-0.801,1.97-1.621,2.924-2.466c2.708-2.384,5.263-4.939,7.647-7.647c0.845-0.953,1.665-1.926,2.46-2.924     c11.645-14.48,18.618-32.869,18.618-52.86S334.39,73.837,322.745,59.357z M312.638,70.163     c7.469,9.878,12.376,21.79,13.723,34.744h-27.447C300.262,91.953,305.169,80.041,312.638,70.163z M264.164,84.84     c4.774-0.413,9.439-1.22,13.965-2.396c4.519-1.169,8.893-2.714,13.088-4.589c-3.75,8.39-6.166,17.499-6.986,27.053h-20.067V84.84     z M264.164,119.527h20.067c0.82,9.554,3.235,18.662,6.986,27.053c-8.39-3.75-17.499-6.166-27.053-6.986V119.527z      M264.164,181.724v-27.447c6.477,0.674,12.694,2.237,18.529,4.564c5.829,2.333,11.276,5.422,16.215,9.16     C289.03,175.47,277.118,180.377,264.164,181.724z M264.164,70.157V42.71c6.477,0.674,12.694,2.237,18.529,4.564     c5.829,2.333,11.276,5.422,16.215,9.16C289.03,63.902,277.118,68.809,264.164,70.157z M321.798,138.049     c-2.333,5.835-5.428,11.283-9.16,16.222c-7.469-9.878-12.376-21.79-13.723-34.744h27.447     C325.688,126.004,324.124,132.221,321.798,138.049z"/>
		</g>
	</g>
</g>















</svg>
