<?xml version="1.0" encoding="iso-8859-1"?>
<!-- Generator: Adobe Illustrator 19.0.0, SVG Export Plug-In . SVG Version: 6.00 Build 0)  -->
<svg version="1.1" id="Layer_1" xmlns="http://www.w3.org/2000/svg" xmlns:xlink="http://www.w3.org/1999/xlink" x="0px" y="0px"
	 viewBox="0 0 481.882 481.882" style="enable-background:new 0 0 481.882 481.882;" xml:space="preserve">
<path style="fill:#FFFFFF;" d="M372.706,218.353h-66.003c-0.708-1.288-1.528-2.515-2.62-3.607l-40.719-40.719
	c-1.099-1.084-2.327-1.912-3.607-2.613v-66.003h-15.059v66.003c-1.288,0.7-2.515,1.528-3.607,2.613l-40.727,40.719
	c-1.084,1.099-1.912,2.327-2.613,3.607h-65.988c-20.759,0-37.647,16.888-37.647,37.647v97.882h15.059V256
	c0-12.454,10.135-22.588,22.588-22.588h66.003c0.7,1.288,1.528,2.515,2.613,3.607l40.727,40.734c6.144,6.136,16.12,6.136,22.264,0
	l40.734-40.734c1.084-1.092,1.912-2.319,2.605-3.607h65.995c12.454,0,22.588,10.135,22.588,22.588v97.882h15.059V256
	C410.353,235.241,393.464,218.353,372.706,218.353z"/>
<path style="fill:#C5EB98;" d="M372.706,90.353c0,16.632-13.485,30.118-30.118,30.118H161.882
	c-16.632,0-30.118-13.485-30.118-30.118V30.118C131.765,13.485,145.25,0,161.882,0h180.706c16.632,0,30.118,13.485,30.118,30.118
	V90.353z"/>
<path style="fill:#003B15;" d="M3.765,361.412c0-16.632,13.485-30.118,30.118-30.118h120.471c16.632,0,30.118,13.485,30.118,30.118
	v90.353c0,16.632-13.485,30.118-30.118,30.118H33.882c-16.632,0-30.118-13.485-30.118-30.118V361.412z"/>
<circle style="fill:#00A344;" cx="402.824" cy="406.588" r="75.294"/>
<path style="fill:#ECF5E1;" d="M252.235,0h-90.353c-16.632,0-30.118,13.485-30.118,30.118v60.235
	c0,16.632,13.485,30.118,30.118,30.118h90.353V0z"/>
<path style="fill:#00C250;" d="M327.529,406.588c0,41.585,33.709,75.294,75.294,75.294V331.294
	C361.239,331.294,327.529,365.018,327.529,406.588z"/>
<path style="fill:#008232;" d="M94.118,331.294H33.882c-16.632,0-30.118,13.485-30.118,30.118v90.353
	c0,16.632,13.485,30.118,30.118,30.118h60.235V331.294z"/>
<g>
</g>
<g>
</g>
<g>
</g>
<g>
</g>
<g>
</g>
<g>
</g>
<g>
</g>
<g>
</g>
<g>
</g>
<g>
</g>
<g>
</g>
<g>
</g>
<g>
</g>
<g>
</g>
<g>
</g>
</svg>
