<?xml version="1.0" encoding="iso-8859-1"?>
<!-- Generator: Adobe Illustrator 19.0.0, SVG Export Plug-In . SVG Version: 6.00 Build 0)  -->
<svg version="1.1" id="Layer_1" xmlns="http://www.w3.org/2000/svg" xmlns:xlink="http://www.w3.org/1999/xlink" x="0px" y="0px"
	 viewBox="0 0 481.882 481.882" style="enable-background:new 0 0 481.882 481.882;" xml:space="preserve">
<path style="fill:#FFFFFF;" d="M0.813,28.913C0.813,12.943,13.756,0,29.726,0h212.028l120.471,101.188v351.782
	c0,15.97-12.943,28.913-28.913,28.913H29.726c-15.97,0-28.913-12.943-28.913-28.913V28.913z"/>
<g>
	<path style="fill:#C5EB98;" d="M241.754,0v72.282c0,15.97,12.943,28.913,28.913,28.913h91.558L241.754,0z"/>
	<path style="fill:#C5EB98;" d="M241.754,135.529c0,4.164-3.366,7.529-7.529,7.529H98.695c-4.164,0-7.529-3.366-7.529-7.529
		c0-4.156,3.366-7.529,7.529-7.529h135.529C238.389,128,241.754,131.373,241.754,135.529z"/>
	<path style="fill:#C5EB98;" d="M332.107,195.765c0,4.164-3.366,7.529-7.529,7.529H98.695c-4.164,0-7.529-3.366-7.529-7.529
		c0-4.156,3.366-7.529,7.529-7.529h225.882C328.742,188.235,332.107,191.608,332.107,195.765z"/>
	<path style="fill:#C5EB98;" d="M332.107,256c0,4.164-3.366,7.529-7.529,7.529H98.695c-4.164,0-7.529-3.366-7.529-7.529
		c0-4.156,3.366-7.529,7.529-7.529h225.882C328.742,248.471,332.107,251.844,332.107,256z"/>
	<path style="fill:#C5EB98;" d="M332.107,316.235c0,4.164-3.366,7.529-7.529,7.529H98.695c-4.164,0-7.529-3.366-7.529-7.529
		c0-4.156,3.366-7.529,7.529-7.529h225.882C328.742,308.706,332.107,312.079,332.107,316.235z"/>
</g>
<rect x="98.695" y="376.471" style="fill:#00E676;" width="128" height="37.647"/>
<path style="fill:#00A344;" d="M219.482,224.632L418.086,98.251c5.941-3.787,13.734-2.936,18.726,2.056l39.861,39.853
	c4.977,4.992,5.828,12.777,2.048,18.733L352.346,357.489L219.482,224.632z"/>
<polygon style="fill:#003B15;" points="217.487,336.512 181.519,376.471 224.226,376.471 240.828,359.868 "/>
<path style="fill:#C5EB98;" d="M352.354,357.338L285.5,290.477l-0.09,0.083l-65.943-65.928c0.173,37.399-1.016,64.346-14.238,99.644
	l42.707,42.707c35.298-13.222,66.997-9.668,104.395-9.502l-0.158-0.158C352.248,357.338,352.301,357.338,352.354,357.338z"/>
<path style="fill:#00C250;" d="M436.811,100.307c-4.992-4.992-12.77-5.843-18.726-2.056L219.482,224.632l65.016,65.001
	l170.827-170.827L436.811,100.307z"/>
<path style="fill:#ECF5E1;" d="M219.482,224.632c0.173,37.399-1.016,64.346-14.238,99.644l22.31,22.295l56.945-56.945
	L219.482,224.632z"/>
<g>
</g>
<g>
</g>
<g>
</g>
<g>
</g>
<g>
</g>
<g>
</g>
<g>
</g>
<g>
</g>
<g>
</g>
<g>
</g>
<g>
</g>
<g>
</g>
<g>
</g>
<g>
</g>
<g>
</g>
</svg>
