<?xml version="1.0" encoding="iso-8859-1"?>
<!-- Generator: Adobe Illustrator 19.0.0, SVG Export Plug-In . SVG Version: 6.00 Build 0)  -->
<svg version="1.1" id="Layer_1" xmlns="http://www.w3.org/2000/svg" xmlns:xlink="http://www.w3.org/1999/xlink" x="0px" y="0px"
	 viewBox="0 0 481.882 481.882" style="enable-background:new 0 0 481.882 481.882;" xml:space="preserve">
<path style="fill:#FFFFFF;" d="M444.235,286.118c0,8.312-6.746,15.059-15.059,15.059h-384c-8.312,0-15.059-6.746-15.059-15.059
	V15.059C30.118,6.746,36.864,0,45.176,0h384c8.312,0,15.059,6.746,15.059,15.059V286.118z"/>
<rect x="120.471" y="301.176" style="fill:#C5EB98;" width="240.941" height="30.118"/>
<path style="fill:#FFFFFF;" d="M481.882,451.765c0,16.632-13.485,30.118-30.118,30.118H30.118C13.485,481.882,0,468.397,0,451.765
	v-90.353c0-16.632,13.485-30.118,30.118-30.118h421.647c16.632,0,30.118,13.485,30.118,30.118V451.765z"/>
<rect x="60.235" y="30.118" style="fill:#00C250;" width="353.882" height="240.941"/>
<g>
	<path style="fill:#C5EB98;" d="M128,429.176c0,4.164-3.366,7.529-7.529,7.529s-7.529-3.366-7.529-7.529V384
		c0-4.156,3.366-7.529,7.529-7.529S128,379.844,128,384V429.176z"/>
	<path style="fill:#C5EB98;" d="M158.118,429.176c0,4.164-3.366,7.529-7.529,7.529c-4.164,0-7.529-3.366-7.529-7.529V384
		c0-4.156,3.366-7.529,7.529-7.529c4.164,0,7.529,3.373,7.529,7.529V429.176z"/>
	<path style="fill:#C5EB98;" d="M188.235,429.176c0,4.164-3.366,7.529-7.529,7.529s-7.529-3.366-7.529-7.529V384
		c0-4.156,3.366-7.529,7.529-7.529s7.529,3.373,7.529,7.529V429.176z"/>
	<path style="fill:#C5EB98;" d="M218.353,429.176c0,4.164-3.366,7.529-7.529,7.529s-7.529-3.366-7.529-7.529V384
		c0-4.156,3.366-7.529,7.529-7.529s7.529,3.373,7.529,7.529V429.176z"/>
	<path style="fill:#C5EB98;" d="M451.765,429.176c0,16.632-13.485,30.118-30.118,30.118H301.176
		c-16.632,0-30.118-13.485-30.118-30.118V384c0-16.632,13.485-30.118,30.118-30.118h120.471c16.632,0,30.118,13.485,30.118,30.118
		V429.176z"/>
</g>
<g>
	<path style="fill:#56C435;" d="M421.647,384c0,4.164-3.366,7.529-7.529,7.529H308.706c-4.164,0-7.529-3.366-7.529-7.529
		c0-4.156,3.366-7.529,7.529-7.529h105.412C418.281,376.471,421.647,379.844,421.647,384z"/>
	<path style="fill:#56C435;" d="M421.647,429.176c0,4.164-3.366,7.529-7.529,7.529H308.706c-4.164,0-7.529-3.366-7.529-7.529
		c0-4.156,3.366-7.529,7.529-7.529h105.412C418.281,421.647,421.647,425.02,421.647,429.176z"/>
</g>
<polygon style="fill:#00E676;" points="60.235,259.418 289.544,30.118 60.235,30.118 "/>
<g>
	<path style="fill:#C5EB98;" d="M60.68,376.471c-4.156,0-7.529,3.373-7.529,7.529v45.176c0,4.156,3.373,7.529,7.529,7.529
		c4.164,0,7.529-3.373,7.529-7.529V384C68.209,379.844,64.836,376.471,60.68,376.471z"/>
	<path style="fill:#C5EB98;" d="M90.797,376.471c-4.156,0-7.529,3.373-7.529,7.529v45.176c0,4.156,3.373,7.529,7.529,7.529
		c4.164,0,7.529-3.373,7.529-7.529V384C98.327,379.844,94.953,376.471,90.797,376.471z"/>
</g>
<g>
</g>
<g>
</g>
<g>
</g>
<g>
</g>
<g>
</g>
<g>
</g>
<g>
</g>
<g>
</g>
<g>
</g>
<g>
</g>
<g>
</g>
<g>
</g>
<g>
</g>
<g>
</g>
<g>
</g>
</svg>
