<?xml version="1.0" encoding="iso-8859-1"?>
<!-- Generator: Adobe Illustrator 19.0.0, SVG Export Plug-In . SVG Version: 6.00 Build 0)  -->
<svg version="1.1" id="Layer_1" xmlns="http://www.w3.org/2000/svg" xmlns:xlink="http://www.w3.org/1999/xlink" x="0px" y="0px"
	 viewBox="0 0 481.905 481.905" style="enable-background:new 0 0 481.905 481.905;" xml:space="preserve">
<path style="fill:#ECF5E1;" d="M361.434,0.011c-66.417,0-120.471,54.046-120.471,120.471v90.353H30.14
	c-16.632,0-30.118,13.485-30.118,30.118c0,77.914,0,132.548,0,210.824c0,16.595,13.847,30.118,30.118,30.118h301.176
	c16.625,0,30.118-13.493,30.118-30.118c0-75.693,0-132.194,0-210.824c0-16.632-13.493-30.118-30.118-30.118h-30.118v-90.353
	c0-33.212,27.023-60.235,60.235-60.235s60.235,27.023,60.235,60.235v90.353h60.235v-90.353
	C481.905,54.057,427.859,0.011,361.434,0.011z"/>
<path style="fill:#FFFFFF;" d="M180.728,210.835H30.14c-16.632,0-30.118,13.485-30.118,30.118c0,77.914,0,132.548,0,210.824
	c0,8.915,3.938,16.821,10.082,22.332c5.331,4.789,12.303,7.785,20.036,7.785h150.588V210.835z"/>
<g>
	<rect y="256.011" style="fill:#C5EB98;" width="361.412" height="30.118"/>
	<rect y="331.305" style="fill:#C5EB98;" width="361.412" height="30.118"/>
	<rect y="406.6" style="fill:#C5EB98;" width="361.412" height="30.118"/>
</g>
<g>
	<rect y="256.011" style="fill:#ECF5E1;" width="180.706" height="30.118"/>
	<rect y="331.305" style="fill:#ECF5E1;" width="180.706" height="30.118"/>
	<rect y="406.6" style="fill:#ECF5E1;" width="180.706" height="30.118"/>
</g>
<path style="fill:#006E31;" d="M210.846,323.776c0-16.632-13.493-30.118-30.118-30.118c-16.632,0-30.118,13.485-30.118,30.118
	c0,11.58,6.611,21.512,16.196,26.556l-16.196,86.385h60.235l-16.196-86.385C204.235,345.288,210.846,335.356,210.846,323.776z"/>
<g>
</g>
<g>
</g>
<g>
</g>
<g>
</g>
<g>
</g>
<g>
</g>
<g>
</g>
<g>
</g>
<g>
</g>
<g>
</g>
<g>
</g>
<g>
</g>
<g>
</g>
<g>
</g>
<g>
</g>
</svg>
