<?xml version="1.0" encoding="iso-8859-1"?>
<!-- Generator: Adobe Illustrator 19.0.0, SVG Export Plug-In . SVG Version: 6.00 Build 0)  -->
<svg version="1.1" id="Layer_1" xmlns="http://www.w3.org/2000/svg" xmlns:xlink="http://www.w3.org/1999/xlink" x="0px" y="0px"
	 viewBox="0 0 481.882 481.882" style="enable-background:new 0 0 481.882 481.882;" xml:space="preserve">
<path style="fill:#C5EB98;" d="M466.824,451.765H30.118V15.059C30.118,6.746,23.371,0,15.059,0S0,6.746,0,15.059v466.824h466.824
	c8.312,0,15.059-6.746,15.059-15.059C481.882,458.511,475.136,451.765,466.824,451.765z"/>
<rect x="30.118" y="45.176" style="fill:#ECF5E1;" width="225.882" height="90.33"/>
<rect x="30.118" y="45.176" style="fill:#003B15;" width="60.235" height="90.345"/>
<rect x="90.353" y="45.176" style="fill:#00A344;" width="60.235" height="90.345"/>
<g>
	<rect x="30.118" y="180.706" style="fill:#ECF5E1;" width="331.294" height="90.353"/>
	<rect x="30.118" y="316.235" style="fill:#ECF5E1;" width="406.588" height="90.353"/>
</g>
<rect x="30.118" y="316.235" style="fill:#003B15;" width="128" height="90.353"/>
<g>
	<rect x="158.118" y="180.706" style="fill:#00A344;" width="128" height="90.345"/>
	<rect x="158.11" y="316.235" style="fill:#00A344;" width="173.176" height="90.338"/>
</g>
<rect x="30.118" y="180.706" style="fill:#003B15;" width="128" height="90.353"/>
<rect x="331.294" y="316.235" style="fill:#FFFFFF;" width="105.412" height="45.176"/>
<rect x="158.11" y="316.235" style="fill:#00C250;" width="173.176" height="45.176"/>
<rect x="30.118" y="316.235" style="fill:#006E31;" width="128" height="45.176"/>
<rect x="286.118" y="180.706" style="fill:#FFFFFF;" width="75.294" height="45.176"/>
<rect x="158.11" y="180.706" style="fill:#00C250;" width="128" height="45.176"/>
<rect x="30.118" y="180.706" style="fill:#006E31;" width="128" height="45.176"/>
<rect x="150.588" y="45.176" style="fill:#FFFFFF;" width="105.412" height="45.161"/>
<rect x="90.353" y="45.176" style="fill:#00C250;" width="60.235" height="45.176"/>
<rect x="30.118" y="45.176" style="fill:#006E31;" width="60.235" height="45.176"/>
<g>
</g>
<g>
</g>
<g>
</g>
<g>
</g>
<g>
</g>
<g>
</g>
<g>
</g>
<g>
</g>
<g>
</g>
<g>
</g>
<g>
</g>
<g>
</g>
<g>
</g>
<g>
</g>
<g>
</g>
</svg>
