<?xml version="1.0" encoding="iso-8859-1"?>
<!-- Generator: Adobe Illustrator 19.0.0, SVG Export Plug-In . SVG Version: 6.00 Build 0)  -->
<svg version="1.1" id="Layer_1" xmlns="http://www.w3.org/2000/svg" xmlns:xlink="http://www.w3.org/1999/xlink" x="0px" y="0px"
	 viewBox="0 0 421.647 421.647" style="enable-background:new 0 0 421.647 421.647;" xml:space="preserve">
<polygon style="fill:#00E676;" points="240.941,26.353 0,116.706 0,304.941 180.706,395.294 421.647,304.941 421.647,116.706 "/>
<polygon style="fill:#00A344;" points="421.647,304.941 180.706,395.294 180.706,207.059 421.647,116.706 "/>
<polygon style="fill:#00C250;" points="0,304.941 180.706,395.294 180.706,207.059 0,116.706 "/>
<path style="fill:#00A344;" d="M240.941,131.765v30.118c0,8.282-20.247,15.059-45.176,15.059s-45.176-6.776-45.176-15.059v-30.118
	c0,8.282,20.247,15.059,45.176,15.059S240.941,140.047,240.941,131.765z"/>
<path style="fill:#C5EB98;" d="M195.765,116.706c-24.93,0-45.176,6.776-45.176,15.059s20.247,15.059,45.176,15.059
	s45.176-6.776,45.176-15.059S220.695,116.706,195.765,116.706z"/>
<path style="fill:#00A344;" d="M150.588,86.588v30.118c0,8.282-20.247,15.059-45.176,15.059s-45.176-6.776-45.176-15.059V86.588
	c0,8.282,20.247,15.059,45.176,15.059S150.588,94.871,150.588,86.588z"/>
<path style="fill:#C5EB98;" d="M105.412,71.529c-24.93,0-45.176,6.776-45.176,15.059s20.247,15.059,45.176,15.059
	s45.176-6.776,45.176-15.059S130.342,71.529,105.412,71.529z"/>
<path style="fill:#00A344;" d="M271.059,41.412v30.118c0,8.282-20.247,15.059-45.176,15.059s-45.176-6.776-45.176-15.059V41.412
	c0,8.282,20.247,15.059,45.176,15.059S271.059,49.694,271.059,41.412z"/>
<path style="fill:#C5EB98;" d="M225.882,26.353c-24.93,0-45.176,6.776-45.176,15.059s20.247,15.059,45.176,15.059
	s45.176-6.776,45.176-15.059S250.812,26.353,225.882,26.353z"/>
<path style="fill:#00A344;" d="M361.412,86.588v30.118c0,8.282-20.247,15.059-45.176,15.059c-24.93,0-45.176-6.776-45.176-15.059
	V86.588c0,8.282,20.247,15.059,45.176,15.059C341.165,101.647,361.412,94.871,361.412,86.588z"/>
<path style="fill:#C5EB98;" d="M316.235,71.529c-24.93,0-45.176,6.776-45.176,15.059s20.247,15.059,45.176,15.059
	c24.93,0,45.176-6.776,45.176-15.059S341.165,71.529,316.235,71.529z"/>
<g>
</g>
<g>
</g>
<g>
</g>
<g>
</g>
<g>
</g>
<g>
</g>
<g>
</g>
<g>
</g>
<g>
</g>
<g>
</g>
<g>
</g>
<g>
</g>
<g>
</g>
<g>
</g>
<g>
</g>
</svg>
