<svg height="512pt" viewBox="0 0 512 512" width="512pt" xmlns="http://www.w3.org/2000/svg"><path d="m512 256c0 141.386719-114.613281 256-256 256s-256-114.613281-256-256 114.613281-256 256-256 256 114.613281 256 256zm0 0" fill="#d88cff"/><path d="m512 256c0-10.175781-.613281-20.207031-1.765625-30.070312l-103.234375-103.234376-302 266.609376 120.929688 120.929687c9.863281 1.152344 19.894531 1.765625 30.070312 1.765625 141.386719 0 256-114.613281 256-256zm0 0" fill="#be40ff"/><path d="m187.292969 131.542969 68.707031 257.761719h151v-204.675782zm0 0" fill="#5c6f74"/><path d="m105 184.628906v204.675782h151v-257.761719zm0 0" fill="#7a888a"/><path d="m222.683594 166.933594 33.316406 204.675781h133.304688v-204.675781zm0 0" fill="#eaf7ff"/><path d="m122.695312 166.933594h133.304688v204.675781h-133.304688zm0 0" fill="#fff"/><path d="m407 184.628906v-61.933594h-61.933594l-17.695312 30.964844 17.695312 30.96875zm0 0" fill="#f85b3f"/><path d="m345.066406 184.628906v-61.933594h-89.066406l-17.695312 30.964844 17.695312 30.96875zm0 0" fill="#3e575f"/><path d="m105 122.695312h151v61.933594h-151zm0 0" fill="#5c6f74"/><path d="m256 215.597656-17.695312 62.519532 17.695312 62.527343c34.476562 0 62.523438-28.050781 62.523438-62.523437 0-34.476563-28.046876-62.523438-62.523438-62.523438zm0 0" fill="#367a9f"/><path d="m193.476562 278.117188c0 34.476562 28.046876 62.523437 62.523438 62.523437v-125.042969c-34.476562 0-62.523438 28.046875-62.523438 62.519532zm0 0" fill="#4bb4f5"/><path d="m256 206.746094-11.796875 8.851562 11.796875 9.089844c3.476562 2.722656 10.476562 17.871094 11.78125 44.582031h-11.78125l-11.796875 8.847657 11.796875 8.851562h11.78125c-1.304688 26.710938-8.304688 41.859375-11.78125 44.582031l-11.796875 9.09375 11.796875 8.84375c39.355469 0 71.371094-32.015625 71.371094-71.371093 0-39.351563-32.015625-71.371094-71.371094-71.371094zm52.941406 62.523437h-23.457031c-.644531-14.285156-2.84375-27.589843-6.359375-38.136719-.199219-.59375-.398438-1.164062-.597656-1.726562 15.804687 7.339844 27.464844 22.148438 30.414062 39.863281zm-30.414062 57.5625c.199218-.5625.398437-1.136719.59375-1.726562 3.519531-10.546875 5.71875-23.851563 6.363281-38.136719h23.457031c-2.949218 17.714844-14.609375 32.523438-30.414062 39.863281zm0 0" fill="#7acbfc"/><path d="m244.21875 286.96875h11.78125v-17.695312h-11.78125c1.304688-26.714844 8.304688-41.863282 11.78125-44.585938v-17.9375c-39.355469 0-71.371094 32.015625-71.371094 71.371094 0 39.351562 32.015625 71.367187 71.371094 71.367187v-17.9375c-3.476562-2.722656-10.476562-17.871093-11.78125-44.582031zm-41.160156 0h23.457031c.644531 14.285156 2.84375 27.589844 6.359375 38.136719.199219.589843.398438 1.164062.597656 1.726562-15.804687-7.339843-27.464844-22.148437-30.414062-39.863281zm29.816406-55.835938c-3.515625 10.546876-5.714844 23.851563-6.359375 38.140626h-23.457031c2.949218-17.71875 14.609375-32.527344 30.414062-39.867188-.199218.5625-.398437 1.136719-.597656 1.726562zm0 0" fill="#a7dcfc"/></svg>