<?xml version="1.0" encoding="iso-8859-1"?>
<!-- Generator: Adobe Illustrator 19.0.0, SVG Export Plug-In . SVG Version: 6.00 Build 0)  -->
<svg version="1.1" id="Layer_1" xmlns="http://www.w3.org/2000/svg" xmlns:xlink="http://www.w3.org/1999/xlink" x="0px" y="0px"
	 viewBox="0 0 481.882 481.882" style="enable-background:new 0 0 481.882 481.882;" xml:space="preserve">
<path style="fill:#FFFFFF;" d="M421.647,45.176c33.28,0,60.235,26.955,60.235,60.235v271.059c0,33.28-26.955,60.235-60.235,60.235
	H60.235C26.955,436.706,0,409.751,0,376.471V105.412c0-33.28,26.955-60.235,60.235-60.235H421.647z"/>
<g>
	<rect x="271.059" y="195.765" style="fill:#00E676;" width="165.647" height="180.706"/>
	<rect x="45.176" y="195.765" style="fill:#00E676;" width="165.647" height="180.706"/>
</g>
<polygon style="fill:#006E31;" points="210.824,376.471 210.824,329.254 161.544,263.529 76.83,376.471 "/>
<path style="fill:#003B15;" d="M421.647,45.176H60.235C26.97,45.176,0,72.147,0,105.412v30.118h481.882v-30.118
	C481.882,72.147,454.912,45.176,421.647,45.176z"/>
<polygon style="fill:#FFFFFF;" points="161.544,325.135 184.636,294.332 161.544,263.529 138.443,294.332 "/>
<polygon style="fill:#006E31;" points="436.706,376.471 436.706,329.254 387.426,263.529 302.712,376.471 "/>
<polygon style="fill:#FFFFFF;" points="387.426,325.135 410.511,294.332 387.426,263.529 364.326,294.332 "/>
<g>
	<circle style="fill:#00E676;" cx="67.765" cy="90.353" r="15.059"/>
	<circle style="fill:#00E676;" cx="128" cy="90.353" r="15.059"/>
	<circle style="fill:#00E676;" cx="188.235" cy="90.353" r="15.059"/>
</g>
<g>
</g>
<g>
</g>
<g>
</g>
<g>
</g>
<g>
</g>
<g>
</g>
<g>
</g>
<g>
</g>
<g>
</g>
<g>
</g>
<g>
</g>
<g>
</g>
<g>
</g>
<g>
</g>
<g>
</g>
</svg>
