<?xml version="1.0" encoding="iso-8859-1"?>
<!-- Generator: Adobe Illustrator 19.0.0, SVG Export Plug-In . SVG Version: 6.00 Build 0)  -->
<svg version="1.1" id="Layer_1" xmlns="http://www.w3.org/2000/svg" xmlns:xlink="http://www.w3.org/1999/xlink" x="0px" y="0px"
	 viewBox="0 0 504.4 504.4" style="enable-background:new 0 0 504.4 504.4;" xml:space="preserve">
<circle style="fill:#FD8469;" cx="252.2" cy="252.2" r="252.2"/>
<path style="fill:#FFFFFF;" d="M377.4,130.2H127c-16.3,0-29.6,13.2-29.6,29.6v184.8c0,16.3,13.2,29.6,29.6,29.6h250.5
	c16.3,0,29.6-13.2,29.6-29.6V159.8C407,143.5,393.8,130.2,377.4,130.2z"/>
<path style="fill:#324A5E;" d="M97.4,183.8v-23.5c0-16.7,13.5-30.2,30.2-30.2h249.3c16.7,0,30.2,13.5,30.2,30.2v23.5H97.4z"/>
<g>
	<circle style="fill:#FFFFFF;" cx="369" cy="158.6" r="10.1"/>
	<circle style="fill:#FFFFFF;" cx="331" cy="158.6" r="10.1"/>
	<circle style="fill:#FFFFFF;" cx="293.1" cy="158.6" r="10.1"/>
</g>
<g>
	<path style="fill:#4CDBC4;" d="M219.8,280.5c-0.8-0.8-1.2-1.8-1.2-3s0.4-2.2,1.2-3s1.8-1.2,3-1.2s2.2,0.4,3,1.2
		c0.8,0.8,1.2,1.8,1.2,3s-0.4,2.2-1.2,3s-1.8,1.2-3,1.2C221.6,281.7,220.6,281.3,219.8,280.5z"/>
	<path style="fill:#4CDBC4;" d="M245.1,275.5c2.4,0,4.5-1.2,6.4-3.5l4.2,4.7c-3.3,3.4-6.8,5.1-10.6,5.1s-7-1.2-9.7-3.6
		c-2.6-2.4-3.9-5.6-3.9-9.5c0-3.9,1.3-7.1,4-9.5c2.7-2.4,5.8-3.7,9.5-3.7c1.8,0,3.7,0.4,5.6,1.1c1.9,0.8,3.5,1.9,4.9,3.4l-3.7,4.8
		c-0.8-1-1.8-1.7-3-2.3c-1.2-0.5-2.4-0.8-3.5-0.8c-1.9,0-3.5,0.6-4.8,1.8s-2,2.9-2,5.1s0.7,3.8,2,5
		C241.8,274.9,243.3,275.5,245.1,275.5z"/>
	<path style="fill:#4CDBC4;" d="M285.5,268.6c0,3.7-1.3,6.8-3.8,9.3c-2.6,2.5-5.8,3.8-9.6,3.8c-3.9,0-7.1-1.3-9.6-3.8
		c-2.6-2.5-3.8-5.6-3.8-9.3s1.3-6.8,3.8-9.3c2.6-2.5,5.8-3.8,9.6-3.8c3.9,0,7.1,1.3,9.6,3.8S285.5,265,285.5,268.6z M265.7,268.6
		c0,2.1,0.6,3.8,1.8,5.1c1.2,1.3,2.7,2,4.5,2s3.4-0.7,4.5-2c1.2-1.3,1.8-3,1.8-5.1c0-2.1-0.6-3.8-1.8-5.1c-1.2-1.3-2.7-2-4.5-2
		s-3.4,0.7-4.5,2C266.3,264.9,265.7,266.6,265.7,268.6z"/>
	<path style="fill:#4CDBC4;" d="M314.1,267.6v13.7H307v-13.9c0-2-0.3-3.5-0.9-4.4c-0.6-0.9-1.6-1.4-3-1.4c-1.4,0-2.6,0.5-3.6,1.5
		c-1.1,1-1.6,2.5-1.6,4.5v13.7h-7.1v-25.4h7.1v2.9c2-2.2,4.2-3.3,6.7-3.3c1.6,0,3.1,0.5,4.4,1.4c1.3,0.9,2.3,2.1,3,3.5
		c1-1.5,2.3-2.7,3.9-3.6c1.7-0.9,3.3-1.3,5-1.3c3,0,5.4,0.9,7.2,2.7c1.8,1.8,2.7,4.4,2.7,7.7v15.5h-7.1v-13.9c0-3.9-1.4-5.9-4.3-5.9
		c-1.4,0-2.6,0.5-3.7,1.5C314.6,264.2,314.1,265.7,314.1,267.6z"/>
	<path style="fill:#4CDBC4;" d="M219.8,333c-0.8-0.8-1.2-1.8-1.2-3s0.4-2.2,1.2-3s1.8-1.2,3-1.2s2.2,0.4,3,1.2
		c0.8,0.8,1.2,1.8,1.2,3s-0.4,2.2-1.2,3s-1.8,1.2-3,1.2C221.6,334.2,220.6,333.8,219.8,333z"/>
	<path style="fill:#4CDBC4;" d="M240,319.6v14.2h-7.1v-25.4h7.1v2.8c2.1-2.2,4.6-3.3,7.2-3.3c2.7,0,4.9,0.9,6.7,2.8
		c1.8,1.9,2.7,4.4,2.7,7.6v15.5h-7.1v-14.4c0-3.9-1.4-5.9-4.3-5.9c-1.4,0-2.7,0.5-3.7,1.5C240.6,316.1,240,317.6,240,319.6z"/>
	<path style="fill:#4CDBC4;" d="M285.2,330.1c-2.9,2.7-6.2,4.1-10.1,4.1c-3.9,0-7.1-1.2-9.6-3.6c-2.5-2.4-3.8-5.6-3.8-9.6
		s1.3-7.2,3.9-9.6c2.6-2.4,5.6-3.5,9.1-3.5s6.5,1.1,8.9,3.2c2.4,2.1,3.7,5,3.7,8.7v3.8h-18.5c0.2,1.4,0.9,2.5,2.2,3.4
		c1.2,0.9,2.6,1.3,4.2,1.3c2.5,0,4.5-0.8,6.1-2.5L285.2,330.1z M278.4,315c-1-0.8-2.2-1.2-3.6-1.2c-1.4,0-2.7,0.4-3.9,1.3
		c-1.2,0.9-1.8,2-2,3.5h11.2C279.9,317,279.4,315.8,278.4,315z"/>
	<path style="fill:#4CDBC4;" d="M300.6,313.4v11.4c0,1,0.3,1.7,0.8,2.3c0.5,0.6,1.1,0.8,1.8,0.8c1.3,0,2.4-0.6,3.4-1.8l2.6,5
		c-2.2,2-4.5,3-7,3s-4.5-0.8-6.2-2.4c-1.7-1.6-2.5-3.8-2.5-6.6v-11.7h-3v-5.1h3v-7.6h7.1v7.6h6.1v5.1L300.6,313.4L300.6,313.4z"/>
</g>
<rect x="173.6" y="252.2" style="fill:#FF7058;" width="29.7" height="29.7"/>
<g>
	<rect x="173.6" y="307.9" style="fill:#54C0EB;" width="29.7" height="29.7"/>
	<path style="fill:#54C0EB;" d="M204.8,228.5h-7.3l-8.7-25.4h7.3l5,15.4l5-15.4h6.9l5,15.4l5-15.4h7.4l-8.7,25.4h-7.5l-4.7-13.9
		L204.8,228.5z"/>
	<path style="fill:#54C0EB;" d="M247.5,228.5h-7.3l-8.7-25.4h7.3l5,15.4l5-15.4h6.9l5,15.4l5-15.4h7.4l-8.7,25.4H257l-4.7-13.9
		L247.5,228.5z"/>
	<path style="fill:#54C0EB;" d="M290.1,228.5h-7.3l-8.7-25.4h7.3l5,15.4l5-15.4h6.9l5,15.4l5-15.4h7.4l-8.7,25.4h-7.4l-4.7-13.9
		L290.1,228.5z"/>
</g>
<g>
</g>
<g>
</g>
<g>
</g>
<g>
</g>
<g>
</g>
<g>
</g>
<g>
</g>
<g>
</g>
<g>
</g>
<g>
</g>
<g>
</g>
<g>
</g>
<g>
</g>
<g>
</g>
<g>
</g>
</svg>
