<?xml version="1.0" encoding="iso-8859-1"?>
<svg width="421.647" height="421.647" xmlns="http://www.w3.org/2000/svg" xmlns:svg="http://www.w3.org/2000/svg">
 <g>
  <title>Layer 1</title>
  <polygon points="376.471,361.412 361.412,376.471 60.235,376.471 45.176,361.412 45.176,60.235   60.235,45.176 361.412,45.176 376.471,60.235 " fill="#003B15" id="svg_1"/>
  <g id="svg_2">
   <path d="m105.412,45.176l-30.118,0l0,-30.117c0,-8.313 6.746,-15.059 15.059,-15.059s15.059,6.746 15.059,15.059l0,30.117z" fill="#FFFFFF" id="svg_3"/>
   <path d="m165.647,45.176l-30.118,0l0,-30.117c0,-8.313 6.747,-15.059 15.059,-15.059s15.059,6.746 15.059,15.059l0,30.117z" fill="#FFFFFF" id="svg_4"/>
   <path d="m225.882,45.176l-30.118,0l0,-30.117c0.001,-8.313 6.747,-15.059 15.06,-15.059s15.059,6.746 15.059,15.059l0,30.117l-0.001,0z" fill="#FFFFFF" id="svg_5"/>
   <path d="m286.118,45.176l-30.118,0l0,-30.117c0,-8.313 6.746,-15.059 15.059,-15.059s15.059,6.746 15.059,15.059l0,30.117z" fill="#FFFFFF" id="svg_6"/>
   <path d="m346.353,45.176l-30.118,0l0,-30.117c0,-8.313 6.747,-15.059 15.059,-15.059s15.059,6.746 15.059,15.059l0,30.117z" fill="#FFFFFF" id="svg_7"/>
  </g>
  <path d="m105.412,406.588c0,8.312 -6.746,15.059 -15.059,15.059s-15.059,-6.746 -15.059,-15.059l0,-30.118l30.118,0l0,30.118z" fill="#C5EB98" id="svg_8"/>
  <g id="svg_9">
   <path d="m45.176,346.353l-30.117,0c-8.313,0 -15.059,-6.746 -15.059,-15.059s6.746,-15.059 15.059,-15.059l30.118,0l0,30.118l-0.001,0z" fill="#FFFFFF" id="svg_10"/>
   <path d="m45.176,286.118l-30.117,0c-8.313,0 -15.059,-6.747 -15.059,-15.059s6.746,-15.059 15.059,-15.059l30.118,0l0,30.118l-0.001,0z" fill="#FFFFFF" id="svg_11"/>
   <path d="m45.176,225.882l-30.117,0c-8.313,0 -15.059,-6.746 -15.059,-15.058s6.746,-15.059 15.059,-15.059l30.118,0l0,30.117l-0.001,0z" fill="#FFFFFF" id="svg_12"/>
   <path d="m45.176,165.647l-30.117,0c-8.313,0 -15.059,-6.746 -15.059,-15.059s6.746,-15.059 15.059,-15.059l30.118,0l0,30.118l-0.001,0z" fill="#FFFFFF" id="svg_13"/>
   <path d="m45.176,105.412l-30.117,0c-8.313,0 -15.059,-6.747 -15.059,-15.059s6.746,-15.059 15.059,-15.059l30.118,0l0,30.118l-0.001,0z" fill="#FFFFFF" id="svg_14"/>
  </g>
  <g id="svg_15">
   <path d="m421.647,331.294c0,8.312 -6.746,15.059 -15.059,15.059l-30.118,0l0,-30.118l30.118,0c8.313,0 15.059,6.747 15.059,15.059z" fill="#C5EB98" id="svg_16"/>
   <path d="m421.647,271.059c0,8.312 -6.746,15.059 -15.059,15.059l-30.118,0l0,-30.118l30.118,0c8.313,0 15.059,6.746 15.059,15.059z" fill="#C5EB98" id="svg_17"/>
   <path d="m421.647,210.824c0,8.312 -6.746,15.059 -15.059,15.059l-30.118,0l0,-30.118l30.118,0c8.313,0 15.059,6.746 15.059,15.059z" fill="#C5EB98" id="svg_18"/>
   <path d="m421.647,150.588c0,8.312 -6.746,15.059 -15.059,15.059l-30.118,0l0,-30.118l30.118,0c8.313,0 15.059,6.747 15.059,15.059z" fill="#C5EB98" id="svg_19"/>
   <path d="m421.647,90.353c0,8.312 -6.746,15.059 -15.059,15.059l-30.118,0l0,-30.118l30.118,0c8.313,0 15.059,6.746 15.059,15.059z" fill="#C5EB98" id="svg_20"/>
   <path d="m165.647,406.588c0,8.312 -6.746,15.059 -15.059,15.059s-15.059,-6.746 -15.059,-15.059l0,-30.118l30.118,0l0,30.118z" fill="#C5EB98" id="svg_21"/>
   <path d="m225.882,406.588c0,8.312 -6.746,15.059 -15.059,15.059s-15.059,-6.746 -15.059,-15.059l0,-30.118l30.118,0l0,30.118z" fill="#C5EB98" id="svg_22"/>
   <path d="m286.118,406.588c0,8.312 -6.746,15.059 -15.059,15.059s-15.059,-6.746 -15.059,-15.059l0,-30.118l30.118,0l0,30.118z" fill="#C5EB98" id="svg_23"/>
   <path d="m346.353,406.588c0,8.312 -6.746,15.059 -15.059,15.059s-15.059,-6.746 -15.059,-15.059l0,-30.118l30.118,0l0,30.118z" fill="#C5EB98" id="svg_24"/>
  </g>
  <rect x="82.824" y="82.824" width="256" height="256" fill="#00C250" id="svg_25"/>
  <polygon points="82.8239974975586,84.8239974975586 338.8240051269531,84.8239974975586 82.8239974975586,340.8240051269531 " fill="#00E676" id="svg_26"/>
  <g id="svg_46"/>
  <g id="svg_47"/>
  <g id="svg_48"/>
  <g id="svg_49"/>
  <g id="svg_50"/>
  <g id="svg_51"/>
  <g id="svg_52"/>
  <g id="svg_53"/>
  <g id="svg_54"/>
  <g id="svg_55"/>
  <g id="svg_56"/>
  <g id="svg_57"/>
  <g id="svg_58"/>
  <g id="svg_59"/>
  <g id="svg_60"/>
  <text fill="#ffffff" stroke-width="0" stroke-dasharray="null" stroke-linejoin="null" stroke-linecap="null" x="122.823486" y="125.352997" id="svg_65" font-size="24" font-family="serif" text-anchor="middle" xml:space="preserve" transform="matrix(1.136897804504874,0,0,1,24.187239703807865,0) ">Domain Age</text>
  <text fill="#ffffff" stroke-width="0" stroke-dasharray="null" stroke-linejoin="null" stroke-linecap="null" x="131.22117" y="156.812639" id="svg_66" font-size="24" font-family="serif" text-anchor="middle" xml:space="preserve" transform="matrix(0.8917855212667756,0,0,0.672699768153766,24.798253771986825,42.71050124995082) ">10/10/1998</text>
 </g>
</svg>