<?xml version="1.0" encoding="iso-8859-1"?>
<!-- Generator: Adobe Illustrator 19.0.0, SVG Export Plug-In . SVG Version: 6.00 Build 0)  -->
<svg version="1.1" id="Layer_1" xmlns="http://www.w3.org/2000/svg" xmlns:xlink="http://www.w3.org/1999/xlink" x="0px" y="0px"
	 viewBox="0 0 481.882 481.882" style="enable-background:new 0 0 481.882 481.882;" xml:space="preserve">
<circle style="fill:#C5EB98;" cx="240.941" cy="256" r="225.882"/>
<path style="fill:#ECF5E1;" d="M240.941,30.118C116.194,30.118,15.059,131.253,15.059,256c0,57.668,21.647,110.268,57.208,150.174
	L391.115,87.319C351.209,51.757,298.609,30.118,240.941,30.118z"/>
<path style="fill:#00A344;" d="M188.815,248.026L128,274.101l-26.059-69.504h78.185l52.126-69.496v-26.074L130.711,58.85
	C82.342,85.956,44.996,130.319,26.97,183.62l40.215,90.481l52.126,43.437l69.504,130.319h26.067l43.445-130.319L188.815,248.026z"/>
<path style="fill:#00E676;" d="M188.815,248.026L128,274.101l-26.059-69.504h78.185l52.126-69.496v-26.074L130.711,58.85
	C82.342,85.956,44.996,130.319,26.97,183.62l40.215,90.481l52.126,43.437l14.472,27.128l75.829-75.821L188.815,248.026z"/>
<path style="fill:#00A344;" d="M466.824,256c0-85.436-47.443-159.782-117.414-198.159l-56.343,93.914l43.452,26.059l43.422-34.756
	l26.067,34.748h26.067v26.067l-86.882-8.689l-34.748,52.126l-17.378,95.571l34.756,43.445l6.972,75.136
	C412.68,425.811,466.824,347.249,466.824,256z"/>
<path style="fill:#00E676;" d="M293.067,151.748l21.015,12.604l76.966-76.966c-12.702-11.317-26.601-21.308-41.623-29.553
	L293.067,151.748z"/>
<path style="fill:#FFFFFF;" d="M421.647,240.941c0,33.265-60.235,120.471-60.235,120.471s-60.235-87.206-60.235-120.471
	s26.97-60.235,60.235-60.235S421.647,207.676,421.647,240.941z"/>
<circle style="fill:#00E676;" cx="361.412" cy="240.941" r="22.588"/>
<path style="fill:#FFFFFF;" d="M180.706,60.235c0,33.265-60.235,120.471-60.235,120.471S60.235,93.5,60.235,60.235
	S87.206,0,120.471,0S180.706,26.97,180.706,60.235z"/>
<circle style="fill:#00E676;" cx="120.471" cy="60.235" r="22.588"/>
<g>
</g>
<g>
</g>
<g>
</g>
<g>
</g>
<g>
</g>
<g>
</g>
<g>
</g>
<g>
</g>
<g>
</g>
<g>
</g>
<g>
</g>
<g>
</g>
<g>
</g>
<g>
</g>
<g>
</g>
</svg>
