<?xml version="1.0" encoding="iso-8859-1"?>
<!-- Generator: Adobe Illustrator 19.0.0, SVG Export Plug-In . SVG Version: 6.00 Build 0)  -->
<svg version="1.1" id="Layer_1" xmlns="http://www.w3.org/2000/svg" xmlns:xlink="http://www.w3.org/1999/xlink" x="0px" y="0px"
	 viewBox="0 0 481.882 481.882" style="enable-background:new 0 0 481.882 481.882;" xml:space="preserve">
<path style="fill:#FFFFFF;" d="M406.89,165.647C406.89,60.235,324.066,0,233.714,0C121.435,0,30.419,91.016,30.419,203.294
	c0,63.767,29.365,120.629,75.294,157.914v120.674h210.824v-72.824c32.482,0.203,60.589-2.824,75.294-17.528
	c18.824-18.824,15.059-90.353,15.059-90.353s17.235,0.685,30.735,0.136c4.691-0.196,9.028-2.583,11.723-6.43
	c2.688-3.855,1.679-8.523,2.025-13.207C453.776,248.026,406.89,182.438,406.89,165.647z"/>
<path style="fill:#00A344;" d="M334.608,171.678h-40.35c-0.836-2.394-1.807-4.736-2.899-7.017l28.529-28.514
	c4.706-4.721,4.706-12.341,0-17.047l-17.047-17.047c-4.706-4.691-12.333-4.691-17.039,0l-28.529,28.529
	c-2.281-1.092-4.608-2.056-7.025-2.914V87.341c0-6.648-5.384-12.047-12.04-12.047h-24.087c-6.664,0-12.047,5.399-12.047,12.047
	v40.335c-2.409,0.851-4.736,1.822-7.017,2.914l-28.529-28.529c-4.706-4.691-12.326-4.691-17.032,0l-17.047,17.047
	c-4.706,4.706-4.706,12.326,0,17.047l28.529,28.514c-1.092,2.281-2.056,4.616-2.914,7.017H117.73
	c-6.648,0-12.047,5.399-12.047,12.047v24.079c0,6.664,5.399,12.047,12.047,12.047h40.335c0.851,2.402,1.822,4.744,2.914,7.017
	l-28.529,28.529c-4.706,4.706-4.706,12.333,0,17.039l17.047,17.047c4.706,4.706,12.326,4.706,17.032,0l28.529-28.529
	c2.281,1.092,4.616,2.056,7.017,2.906v40.32c0,6.648,5.384,12.047,12.047,12.047h24.087c6.656,0,12.04-5.399,12.04-12.047v-40.343
	c2.394-0.843,4.744-1.815,7.025-2.906l28.529,28.529c4.706,4.706,12.333,4.706,17.039,0l17.047-17.047
	c4.706-4.706,4.706-12.333,0-17.039l-28.529-28.529c1.092-2.274,2.048-4.608,2.899-7.017h40.35c6.648,0,12.047-5.384,12.047-12.047
	v-24.072C346.655,177.077,341.256,171.678,334.608,171.678z M226.184,231.913c-19.953,0-36.149-16.188-36.149-36.149
	s16.188-36.149,36.149-36.149c19.953,0,36.149,16.188,36.149,36.149S246.137,231.913,226.184,231.913z"/>
<path style="fill:#00C250;" d="M285.817,102.061l-28.529,28.529c-2.281-1.092-4.616-2.056-7.017-2.914V87.341
	c0-6.648-5.384-12.047-12.047-12.047h-24.087c-6.664,0-12.047,5.399-12.047,12.047v40.335c-2.409,0.851-4.736,1.822-7.017,2.914
	l-28.529-28.529c-4.706-4.691-12.326-4.691-17.032,0l-17.047,17.047c-4.706,4.698-4.706,12.326,0,17.047l28.529,28.514
	c-1.092,2.281-2.056,4.616-2.899,7.017h-40.35c-6.648,0-12.047,5.399-12.047,12.047v24.079c0,6.664,5.399,12.047,12.047,12.047
	h40.35c0.836,2.402,1.807,4.744,2.899,7.017l-28.529,28.529c-4.706,4.706-4.706,12.333,0,17.039l9.532,9.54l59.723-59.731
	c-7.145-6.603-11.693-15.977-11.693-26.473c0-19.953,16.188-36.149,36.149-36.149c10.504,0,19.878,4.548,26.481,11.701
	l59.723-59.731l-9.532-9.532C298.143,97.37,290.523,97.37,285.817,102.061z"/>
<g>
</g>
<g>
</g>
<g>
</g>
<g>
</g>
<g>
</g>
<g>
</g>
<g>
</g>
<g>
</g>
<g>
</g>
<g>
</g>
<g>
</g>
<g>
</g>
<g>
</g>
<g>
</g>
<g>
</g>
</svg>
