<?xml version="1.0" encoding="iso-8859-1"?>
<!-- Generator: Adobe Illustrator 19.0.0, SVG Export Plug-In . SVG Version: 6.00 Build 0)  -->
<svg version="1.1" id="Layer_1" xmlns="http://www.w3.org/2000/svg" xmlns:xlink="http://www.w3.org/1999/xlink" x="0px" y="0px"
	 viewBox="0 0 481.882 481.882" style="enable-background:new 0 0 481.882 481.882;" xml:space="preserve">
<path style="fill:#ECF5E1;" d="M391.541,210.824h-30.118v-90.353C361.423,54.046,307.377,0,240.952,0
	S120.482,54.046,120.482,120.471v90.353H90.364c-16.632,0-30.118,13.485-30.118,30.118c0,77.914,0,132.548,0,210.824
	c0,16.595,13.847,30.118,30.118,30.118h301.176c16.625,0,30.118-13.493,30.118-30.118c0-75.693,0-132.194,0-210.824
	C421.658,224.309,408.166,210.824,391.541,210.824z M180.717,210.824v-90.353c0-33.212,27.023-60.235,60.235-60.235
	s60.235,27.023,60.235,60.235v90.353H180.717z"/>
<path style="fill:#FFFFFF;" d="M240.952,210.824H90.364c-16.632,0-30.118,13.485-30.118,30.118c0,77.914,0,132.548,0,210.824
	c0,16.595,13.847,30.118,30.118,30.118h150.588V210.824z"/>
<g>
	<rect x="60.224" y="256" style="fill:#C5EB98;" width="361.412" height="30.118"/>
	<rect x="60.224" y="331.294" style="fill:#C5EB98;" width="361.412" height="30.118"/>
	<rect x="60.224" y="406.588" style="fill:#C5EB98;" width="361.412" height="30.118"/>
</g>
<g>
	<rect x="60.224" y="256" style="fill:#ECF5E1;" width="180.706" height="30.118"/>
	<rect x="60.224" y="331.294" style="fill:#ECF5E1;" width="180.706" height="30.118"/>
	<rect x="60.224" y="406.588" style="fill:#ECF5E1;" width="180.706" height="30.118"/>
</g>
<path style="fill:#006E31;" d="M271.07,323.765c0-16.632-13.493-30.118-30.118-30.118c-16.632,0-30.118,13.485-30.118,30.118
	c0,11.58,6.611,21.512,16.196,26.556l-16.196,86.385h60.235l-16.196-86.385C264.459,345.276,271.07,335.345,271.07,323.765z"/>
<g>
</g>
<g>
</g>
<g>
</g>
<g>
</g>
<g>
</g>
<g>
</g>
<g>
</g>
<g>
</g>
<g>
</g>
<g>
</g>
<g>
</g>
<g>
</g>
<g>
</g>
<g>
</g>
<g>
</g>
</svg>
