<?xml version="1.0" encoding="iso-8859-1"?>
<!-- Generator: Adobe Illustrator 19.0.0, SVG Export Plug-In . SVG Version: 6.00 Build 0)  -->
<svg version="1.1" id="Layer_1" xmlns="http://www.w3.org/2000/svg" xmlns:xlink="http://www.w3.org/1999/xlink" x="0px" y="0px"
	 viewBox="0 0 481.882 481.882" style="enable-background:new 0 0 481.882 481.882;" xml:space="preserve">
<path style="fill:#FFFFFF;" d="M370.032,112.941c0,54.061-57.291,82.824-128,82.824c-70.694,0-128-28.762-128-82.824
	S171.338,0,242.032,0S370.032,58.88,370.032,112.941z"/>
<path style="fill:#ECF5E1;" d="M122.615,320.768c-8.614-32.068-14.441-62.893-18.116-85.828c-1.31-8.222-0.151-16.279,2.891-23.447
	c-39.304,48.828-53.18,126.667-6.039,197.843c6.287,9.495,23.251,3.712,19.84-7.138
	C112.142,373.308,115.086,345.088,122.615,320.768z"/>
<path style="fill:#C5EB98;" d="M374.512,211.509c3.027,7.16,4.179,15.209,2.869,23.416c-3.674,22.95-9.517,53.775-18.116,85.835
	c7.529,24.312,10.488,52.548,1.423,81.416c-3.411,10.85,13.553,16.632,19.84,7.13C427.67,338.161,413.793,260.344,374.512,211.509z"
	/>
<path style="fill:#ECF5E1;" d="M104.5,234.925c-3.584-22.408,10.918-43.746,33.092-48.602c69.624-15.277,139.264-15.277,208.896,0
	c22.189,4.864,36.676,26.172,33.092,48.602c-12.506,78.02-49.687,246.957-137.547,246.957S116.983,312.945,104.5,234.925z"/>
<path style="fill:#003B15;" d="M340.502,105.126c0,39.499-44.077,60.521-98.47,60.521c-54.377,0-98.455-21.022-98.455-60.521
	c-0.008-39.507,44.077-82.537,98.455-82.537S340.502,65.619,340.502,105.126z"/>
<path style="fill:#00E676;" d="M302.267,97.882c-4.164,0-7.529-3.366-7.529-7.529c0-8.305-6.746-15.059-15.059-15.059
	c-8.297,0-15.059,6.754-15.059,15.059c0,4.164-3.358,7.529-7.529,7.529c-4.164,0-7.529-3.366-7.529-7.529
	c0-16.61,13.515-30.118,30.118-30.118c16.617,0,30.118,13.508,30.118,30.118C309.797,94.517,306.423,97.882,302.267,97.882z"/>
<path style="fill:#FFFFFF;" d="M137.584,186.323c-22.167,4.864-36.668,26.195-33.092,48.602
	c12.491,78.02,49.679,246.957,137.54,246.957V174.863C207.216,174.863,172.392,178.673,137.584,186.323z"/>
<path style="fill:#00E676;" d="M226.973,97.882c-4.164,0-7.529-3.366-7.529-7.529c0-8.305-6.746-15.059-15.059-15.059
	c-8.297,0-15.059,6.754-15.059,15.059c0,4.164-3.366,7.529-7.529,7.529c-4.164,0-7.529-3.366-7.529-7.529
	c0-16.61,13.508-30.118,30.118-30.118c16.617,0,30.118,13.508,30.118,30.118C234.503,94.517,231.129,97.882,226.973,97.882z"/>
<g>
</g>
<g>
</g>
<g>
</g>
<g>
</g>
<g>
</g>
<g>
</g>
<g>
</g>
<g>
</g>
<g>
</g>
<g>
</g>
<g>
</g>
<g>
</g>
<g>
</g>
<g>
</g>
<g>
</g>
</svg>
