<?xml version="1.0" encoding="iso-8859-1"?>
<!-- Generator: Adobe Illustrator 19.0.0, SVG Export Plug-In . SVG Version: 6.00 Build 0)  -->
<svg version="1.1" id="Layer_1" xmlns="http://www.w3.org/2000/svg" xmlns:xlink="http://www.w3.org/1999/xlink" x="0px" y="0px"
	 viewBox="0 0 481.882 481.882" style="enable-background:new 0 0 481.882 481.882;" xml:space="preserve">
<path style="fill:#00A344;" d="M90.353,199.529h301.176v180.706c0,16.632-13.485,30.118-30.118,30.118H120.471
	c-16.632,0-30.118-13.485-30.118-30.118V199.529z"/>
<g>
	<path style="fill:#ECF5E1;" d="M361.412,229.647c-66.53,0-120.471,53.941-120.471,120.471c0,66.537,53.941,120.471,120.471,120.471
		s120.471-53.933,120.471-120.471C481.882,283.588,427.942,229.647,361.412,229.647z M361.412,380.235
		c-16.632,0-30.118-13.485-30.118-30.118S344.779,320,361.412,320c16.632,0,30.118,13.485,30.118,30.118
		S378.044,380.235,361.412,380.235z"/>
	<polygon style="fill:#ECF5E1;" points="90.353,109.176 45.176,199.529 436.706,199.529 391.529,109.176 	"/>
</g>
<polygon style="fill:#006E31;" points="391.529,109.176 90.353,109.176 120.471,41.412 361.412,41.412 "/>
<g>
	<path style="fill:#FFFFFF;" d="M361.412,320c4.856,0,9.359,1.25,13.41,3.298l40.41-80.828
		c-16.203-8.139-34.455-12.823-53.82-12.823c-19.373,0-37.617,4.683-53.82,12.808l40.41,80.821
		C352.053,321.25,356.555,320,361.412,320z"/>
	<path style="fill:#FFFFFF;" d="M374.822,376.945c-4.051,2.04-8.553,3.29-13.41,3.29s-9.359-1.25-13.41-3.298l-40.41,80.828
		c16.203,8.139,34.447,12.823,53.82,12.823c19.366,0,37.617-4.683,53.82-12.807L374.822,376.945z"/>
</g>
<g>
	<polygon style="fill:#ECF5E1;" points="120.471,41.412 90.353,109.176 0,64 60.235,11.294 	"/>
	<polygon style="fill:#ECF5E1;" points="361.412,41.412 391.529,109.176 481.882,64 421.647,11.294 	"/>
</g>
<g>
</g>
<g>
</g>
<g>
</g>
<g>
</g>
<g>
</g>
<g>
</g>
<g>
</g>
<g>
</g>
<g>
</g>
<g>
</g>
<g>
</g>
<g>
</g>
<g>
</g>
<g>
</g>
<g>
</g>
</svg>
