<?xml version="1.0" encoding="iso-8859-1"?>
<!-- Generator: Adobe Illustrator 19.0.0, SVG Export Plug-In . SVG Version: 6.00 Build 0)  -->
<svg version="1.1" id="Layer_1" xmlns="http://www.w3.org/2000/svg" xmlns:xlink="http://www.w3.org/1999/xlink" x="0px" y="0px"
	 viewBox="0 0 466.824 466.824" style="enable-background:new 0 0 466.824 466.824;" xml:space="preserve">
<g>
	<path style="fill:#C5EB98;" d="M240.941,297.412c0-10.398,8.425-18.824,18.824-18.824h48.678c4.984,0,9.781,1.988,13.312,5.512
		l26.616,26.616c3.524,3.531,8.32,5.519,13.304,5.519H448c10.398,0,18.824,8.425,18.824,18.824V448
		c0,10.398-8.425,18.824-18.824,18.824H259.765c-10.398,0-18.824-8.425-18.824-18.824V297.412z"/>
	<path style="fill:#C5EB98;" d="M240.941,71.529c0-10.398,8.425-18.824,18.824-18.824h48.678c4.984,0,9.781,1.988,13.312,5.512
		l26.616,26.616c3.524,3.531,8.32,5.519,13.304,5.519H448c10.398,0,18.824,8.425,18.824,18.824v112.941
		c0,10.398-8.425,18.824-18.824,18.824H259.765c-10.398,0-18.824-8.425-18.824-18.824V71.529z"/>
</g>
<g>
	<circle style="fill:#00A344;" cx="195.765" cy="135.529" r="15.059"/>
	<circle style="fill:#00A344;" cx="135.529" cy="135.529" r="15.059"/>
	<circle style="fill:#00A344;" cx="75.294" cy="135.529" r="15.059"/>
	<circle style="fill:#00A344;" cx="15.059" cy="135.529" r="15.059"/>
	<circle style="fill:#00A344;" cx="195.765" cy="376.471" r="15.059"/>
	<circle style="fill:#00A344;" cx="135.529" cy="376.471" r="15.059"/>
	<circle style="fill:#00A344;" cx="75.294" cy="376.471" r="15.059"/>
	<circle style="fill:#00A344;" cx="15.059" cy="376.471" r="15.059"/>
	<circle style="fill:#00A344;" cx="15.059" cy="316.235" r="15.059"/>
	<circle style="fill:#00A344;" cx="15.059" cy="256" r="15.059"/>
	<circle style="fill:#00A344;" cx="15.059" cy="195.765" r="15.059"/>
	<circle style="fill:#00A344;" cx="15.059" cy="75.294" r="15.059"/>
	<circle style="fill:#00A344;" cx="15.059" cy="15.059" r="15.059"/>
</g>
<g>
	<path style="fill:#ECF5E1;" d="M361.675,90.353c-4.984,0-9.781-1.988-13.312-5.512l-26.616-26.616
		c-3.524-3.531-8.32-5.519-13.304-5.519h-48.678c-10.398,0-18.824,8.425-18.824,18.824v150.588c0,5.519,2.409,10.443,6.204,13.884
		L392.794,90.353H361.675z"/>
	<path style="fill:#ECF5E1;" d="M361.675,316.235c-4.984,0-9.781-1.988-13.312-5.512l-26.616-26.616
		c-3.524-3.531-8.32-5.519-13.304-5.519h-48.678c-10.398,0-18.824,8.425-18.824,18.824V448c0,5.512,2.409,10.443,6.204,13.884
		l145.649-145.649H361.675z"/>
</g>
<g>
</g>
<g>
</g>
<g>
</g>
<g>
</g>
<g>
</g>
<g>
</g>
<g>
</g>
<g>
</g>
<g>
</g>
<g>
</g>
<g>
</g>
<g>
</g>
<g>
</g>
<g>
</g>
<g>
</g>
</svg>
