<?xml version="1.0" encoding="iso-8859-1"?>
<!-- Generator: Adobe Illustrator 19.0.0, SVG Export Plug-In . SVG Version: 6.00 Build 0)  -->
<svg version="1.1" id="Layer_1" xmlns="http://www.w3.org/2000/svg" xmlns:xlink="http://www.w3.org/1999/xlink" x="0px" y="0px"
	 viewBox="0 0 481.882 481.882" style="enable-background:new 0 0 481.882 481.882;" xml:space="preserve">
<path style="fill:#C5EB98;" d="M198.882,166.377C89.035,166.377,0,129.28,0,83.509v314.895c0,45.764,89.035,82.869,198.882,82.869
	c109.839,0,198.882-37.105,198.882-82.869V83.509C397.764,129.28,308.721,166.377,198.882,166.377z"/>
<path style="fill:#ECF5E1;" d="M0,83.509v314.895c0,45.764,89.035,82.869,198.882,82.869V166.377C89.035,166.377,0,129.28,0,83.509z
	"/>
<ellipse style="fill:#FFFFFF;" cx="198.882" cy="83.509" rx="198.882" ry="82.899"/>
<g>
	<path style="fill:#64DD17;" d="M198.882,249.246C79.917,249.246,0,210.68,0,174.675v35.689
		c32.218,32.881,108.168,55.454,198.882,55.454c90.707,0,166.664-22.573,198.882-55.454v-35.689
		C397.764,210.68,317.839,249.246,198.882,249.246z"/>
	<path style="fill:#64DD17;" d="M198.882,356.969C79.917,356.969,0,318.404,0,282.391v35.697
		c32.218,32.873,108.168,55.447,198.882,55.447c90.707,0,166.664-22.573,198.882-55.447v-35.697
		C397.764,318.404,317.839,356.969,198.882,356.969z"/>
</g>
<g>
	<path style="fill:#C5EB98;" d="M198.882,249.246C79.917,249.246,0,210.68,0,174.675v35.689
		c32.218,32.881,108.16,55.454,198.882,55.454V249.246z"/>
	<path style="fill:#C5EB98;" d="M0,282.391v35.697c32.218,32.873,108.16,55.447,198.882,55.447v-16.565
		C79.917,356.969,0,318.404,0,282.391z"/>
</g>
<circle style="fill:#00C250;" cx="346.353" cy="345.743" r="135.529"/>
<path style="fill:#FFFFFF;" d="M414.118,311.861h-33.882v-33.882c0-9.352-7.59-16.941-16.941-16.941h-33.882
	c-9.352,0-16.941,7.59-16.941,16.941v33.882h-33.882c-9.352,0-16.941,7.59-16.941,16.941v33.882c0,9.359,7.59,16.941,16.941,16.941
	h33.882v33.882c0,9.359,7.59,16.941,16.941,16.941h33.882c9.352,0,16.941-7.582,16.941-16.941v-33.882h33.882
	c9.352,0,16.941-7.582,16.941-16.941v-33.882C431.059,319.45,423.469,311.861,414.118,311.861z"/>
<g>
</g>
<g>
</g>
<g>
</g>
<g>
</g>
<g>
</g>
<g>
</g>
<g>
</g>
<g>
</g>
<g>
</g>
<g>
</g>
<g>
</g>
<g>
</g>
<g>
</g>
<g>
</g>
<g>
</g>
</svg>
