<?xml version="1.0" encoding="iso-8859-1"?>
<!-- Generator: Adobe Illustrator 19.0.0, SVG Export Plug-In . SVG Version: 6.00 Build 0)  -->
<svg version="1.1" id="Layer_1" xmlns="http://www.w3.org/2000/svg" xmlns:xlink="http://www.w3.org/1999/xlink" x="0px" y="0px"
	 viewBox="0 0 481.882 481.882" style="enable-background:new 0 0 481.882 481.882;" xml:space="preserve">
<rect x="30.118" y="52.706" style="fill:#C5EB98;" width="421.647" height="331.294"/>
<rect x="60.235" y="82.824" style="fill:#00C250;" width="361.412" height="301.176"/>
<polygon style="fill:#ECF5E1;" points="30.118,52.706 60.235,82.824 421.647,82.824 451.765,52.706 "/>
<polygon style="fill:#00E676;" points="421.647,82.824 60.235,82.824 60.235,384 122.443,384 421.647,84.796 "/>
<rect y="384" style="fill:#006E31;" width="481.882" height="45.176"/>
<path style="fill:#FFFFFF;" d="M180.706,353.882c0-8.312-6.746-15.059-15.059-15.059h-60.235c-8.32,0-15.059,6.746-15.059,15.059
	V384h90.353V353.882z"/>
<path style="fill:#00A344;" d="M391.529,376.471c0,4.149-3.381,7.529-7.529,7.529h-45.176c-4.149,0-7.529-3.381-7.529-7.529l0,0
	c0-4.134,3.381-7.529,7.529-7.529H384C388.149,368.941,391.529,372.337,391.529,376.471L391.529,376.471z"/>
<g>
	<path style="fill:#FFFFFF;" d="M110.999,221.116l30.306-68.435c2.101-4.721,5.956-7.575,11.174-7.575h1.122
		c5.203,0,8.945,2.854,11.046,7.575l30.306,68.435c0.617,1.37,0.986,2.62,0.986,3.855c0,5.09-3.968,9.193-9.058,9.193
		c-4.472,0-7.454-2.62-9.193-6.588l-5.835-13.658h-38.249l-6.091,14.276c-1.619,3.735-4.841,5.971-8.824,5.971
		c-4.954,0-8.809-3.976-8.809-8.945C109.884,223.849,110.381,222.487,110.999,221.116z M164.781,197.022l-12.062-28.687
		l-12.047,28.687H164.781z"/>
	<path style="fill:#FFFFFF;" d="M210.959,156.04c0-5.338,4.224-9.57,9.57-9.57h30.795c9.939,0,17.762,2.733,22.739,7.71
		c3.968,3.96,5.956,8.817,5.956,14.773v0.248c0,9.811-5.21,15.27-11.43,18.748c10.059,3.855,16.264,9.69,16.264,21.368v0.233
		c0,15.902-12.913,23.853-32.527,23.853h-31.797c-5.353,0-9.57-4.224-9.57-9.562L210.959,156.04L210.959,156.04z M247.221,181.617
		c8.456,0,13.794-2.726,13.794-9.193v-0.241c0-5.707-4.472-8.937-12.544-8.937h-18.884v18.364L247.221,181.617L247.221,181.617z
		 M252.326,216.644c8.44,0,13.53-2.982,13.53-9.442v-0.248c0-5.835-4.337-9.442-14.163-9.442h-22.106v19.132H252.326z"/>
	<path style="fill:#FFFFFF;" d="M296.764,190.2v-0.248c0-24.719,18.635-44.966,45.335-44.966c13.018,0,21.843,3.479,29.048,8.817
		c1.995,1.491,3.72,4.239,3.72,7.582c0,5.21-4.232,9.306-9.442,9.306c-2.613,0-4.337-0.994-5.715-1.86
		c-5.338-3.976-10.918-6.212-17.754-6.212c-14.637,0-25.216,12.175-25.216,27.076v0.256c0,14.901,10.308,27.317,25.216,27.317
		c8.072,0,13.41-2.477,18.884-6.829c1.483-1.242,3.471-2.108,5.715-2.108c4.856,0,8.945,3.976,8.945,8.824
		c0,2.974-1.483,5.338-3.223,6.822c-7.823,6.837-17.016,10.925-30.923,10.925C315.768,234.895,296.764,215.153,296.764,190.2z"/>
</g>
<g>
</g>
<g>
</g>
<g>
</g>
<g>
</g>
<g>
</g>
<g>
</g>
<g>
</g>
<g>
</g>
<g>
</g>
<g>
</g>
<g>
</g>
<g>
</g>
<g>
</g>
<g>
</g>
<g>
</g>
</svg>
