<?xml version="1.0" encoding="iso-8859-1"?>
<!-- Generator: Adobe Illustrator 19.0.0, SVG Export Plug-In . SVG Version: 6.00 Build 0)  -->
<svg version="1.1" id="Capa_1" xmlns="http://www.w3.org/2000/svg" xmlns:xlink="http://www.w3.org/1999/xlink" x="0px" y="0px"
	 viewBox="0 0 422.48 422.48" style="enable-background:new 0 0 422.48 422.48;" xml:space="preserve">
<g>
	<g>
		<path d="M211.24,0C94.575,0,0,94.575,0,211.24s94.575,211.24,211.24,211.24s211.24-94.575,211.24-211.24
			C422.348,94.63,327.85,0.132,211.24,0z M412.24,206.4l-77.36-0.2c-0.312-28.458-4.223-56.763-11.64-84.24
			c18.474-6.486,35.97-15.477,52-26.72C398.393,127.769,411.279,166.484,412.24,206.4z M369.28,87l-0.04-0.04
			c-15.062,10.552-31.476,19.028-48.8,25.2c-13.6-43.48-35.8-77.88-62.72-96.6C301.896,26.118,341.209,51.293,369.28,87z
			 M216.36,10.32c40.88,3.16,76.28,44.92,94.88,104.92c-21.724,7.016-44.151,11.63-66.88,13.76v0.04
			c-2.816-13.892-13.992-24.556-28-26.72V10.32z M206.2,102.28c-14.02,2.169-25.199,12.853-28,26.76
			c-22.758-2.137-45.212-6.765-66.96-13.8c18.72-60.56,54.44-101.92,94.84-105.12L206.2,102.28z M126,216.36h80.2v65.56
			c-33.121,0.328-66.011,5.558-97.6,15.52c-4.615-17.397-7.747-35.154-9.36-53.08C113.147,241.559,123.831,230.38,126,216.36z
			 M92.56,234.96v0.28c-13.1-0.001-23.719-10.621-23.718-23.722c0.001-13.1,10.621-23.719,23.722-23.718
			c12.99,0.001,23.563,10.451,23.717,23.44C116.258,224.331,105.651,234.938,92.56,234.96z M125.92,206.4
			c-2.169-14.02-12.853-25.199-26.76-28c1.649-17.875,4.807-35.578,9.44-52.92c22.442,7.093,45.593,11.707,69.04,13.76
			c1.595,15.336,13.354,27.655,28.6,29.96v37.2H125.92z M164.96,15.52c-26.88,18.64-49.28,52.96-62.96,96.64
			C84.692,105.997,68.292,97.535,53.24,87C81.346,51.248,120.72,26.055,164.96,15.52z M47.24,95.24
			c16.018,11.314,33.515,20.372,52,26.92c-4.992,18.163-8.391,36.727-10.16,55.48c-15.277,1.642-27.531,13.37-29.84,28.56H10.2
			C11.212,166.348,24.111,127.709,47.24,95.24z M10.2,216.28L10.2,216.28l49.04,0c2.301,15.232,14.599,26.988,29.92,28.6
			c1.711,18.926,5.084,37.665,10.08,56c-18.472,6.508-35.968,15.511-52,26.76C24.035,295.059,11.133,256.269,10.2,216.28z
			 M53.24,335.52c15.044-10.558,31.446-19.035,48.76-25.2c13.68,43.68,36,78,62.96,96.64
			C120.726,396.435,81.352,371.257,53.24,335.52z M206.28,412.2c-40.4-3.2-76-44.6-94.84-105.16
			c30.667-9.683,62.602-14.765,94.76-15.08h0.08V412.2z M211.2,159.36c-13.1,0-23.72-10.62-23.72-23.72c0.04-0.4,0.08-0.4,0.12-0.72
			c0.537-13.067,11.566-23.224,24.633-22.687c12.314,0.506,22.181,10.373,22.687,22.687v0.72
			C234.92,148.74,224.3,159.36,211.2,159.36z M216.28,169c15.164-2.301,26.884-14.514,28.56-29.76
			c23.478-2.086,46.657-6.74,69.12-13.88c6.936,26.397,10.59,53.549,10.88,80.84H216.28V169z M293.68,303.72
			c0-13.1,10.62-23.72,23.72-23.72c13.1,0,23.72,10.62,23.72,23.72c0,13.1-10.62,23.72-23.72,23.72
			c-13.107,0.022-23.756-10.573-23.8-23.68L293.68,303.72z M286.56,289.96c-23.078-5.06-46.615-7.741-70.24-8v-65.68H324.8
			c-0.233,18.049-1.892,36.052-4.96,53.84c-0.84-0.08-1.64-0.16-2.48-0.16h0C304.051,269.981,291.994,277.811,286.56,289.96z
			 M216.32,291.96c22.722,0.269,45.358,2.842,67.56,7.68c-1.765,13.805,5.195,27.261,17.48,33.8c-20.52,47.08-52,76-85.04,78.64
			V291.96z M257.76,406.92c20.92-14.44,39.4-38.44,53.04-70c13.843,2.752,27.932-3.43,35.28-15.48
			c8.06,4.11,15.801,8.817,23.16,14.08C341.183,371.197,301.902,396.356,257.76,406.92z M375.24,327.44
			c-8.009-5.732-16.448-10.841-25.24-15.28c4.439-16.578-4.344-33.834-20.36-40c3.221-18.498,4.96-37.225,5.2-56h77.44
			C411.331,256.121,398.43,294.882,375.24,327.44L375.24,327.44z"/>
	</g>
</g>
<g>
</g>
<g>
</g>
<g>
</g>
<g>
</g>
<g>
</g>
<g>
</g>
<g>
</g>
<g>
</g>
<g>
</g>
<g>
</g>
<g>
</g>
<g>
</g>
<g>
</g>
<g>
</g>
<g>
</g>
</svg>
