<?xml version="1.0" encoding="iso-8859-1"?>
<!-- Generator: Adobe Illustrator 19.0.0, SVG Export Plug-In . SVG Version: 6.00 Build 0)  -->
<svg version="1.1" id="Layer_1" xmlns="http://www.w3.org/2000/svg" xmlns:xlink="http://www.w3.org/1999/xlink" x="0px" y="0px"
	 viewBox="0 0 481.882 481.882" style="enable-background:new 0 0 481.882 481.882;" xml:space="preserve">
<path style="fill:#00C250;" d="M481.882,203.294c0,16.632-13.485,30.118-30.118,30.118H331.294V22.588h120.471
	c16.632,0,30.118,13.485,30.118,30.118V203.294z"/>
<g>
	<path style="fill:#FFFFFF;" d="M331.294,233.412H30.118C13.485,233.412,0,219.927,0,203.294V52.706
		c0-16.632,13.485-30.118,30.118-30.118h301.176V233.412z"/>
	<polygon style="fill:#FFFFFF;" points="350.231,331.52 382.17,299.573 211.802,256.979 254.389,427.347 286.336,395.415 
		350.231,459.294 414.118,395.415 	"/>
</g>
<g>
	<circle style="fill:#006E31;" cx="79.059" cy="130.786" r="33.882"/>
	<circle style="fill:#006E31;" cx="169.412" cy="130.786" r="33.882"/>
	<circle style="fill:#006E31;" cx="259.765" cy="130.786" r="33.882"/>
</g>
<path style="fill:#FFFFFF;" d="M440.117,113.965h-6.46V94.554c0-14.276-11.618-25.886-25.886-25.886
	c-14.268,0-25.886,11.61-25.886,25.886v19.411h-6.468c-3.576,0-6.46,2.899-6.46,6.468c0,16.738,0,28.476,0,45.297
	c0,3.576,2.982,6.468,6.46,6.468h64.715c3.584,0,6.46-2.899,6.46-6.468c0-16.264,0-28.393,0-45.297
	C446.577,116.864,443.701,113.965,440.117,113.965z M394.812,113.965V94.554c0-7.138,5.805-12.943,12.951-12.943
	c7.123,0,12.936,5.805,12.936,12.943v19.411H394.812z"/>
<polygon style="fill:#ECF5E1;" points="381.493,428.032 212.247,258.786 254.389,427.347 286.336,395.415 350.231,459.294 "/>
<g>
</g>
<g>
</g>
<g>
</g>
<g>
</g>
<g>
</g>
<g>
</g>
<g>
</g>
<g>
</g>
<g>
</g>
<g>
</g>
<g>
</g>
<g>
</g>
<g>
</g>
<g>
</g>
<g>
</g>
</svg>
