<?xml version="1.0" encoding="iso-8859-1"?>
<!-- Generator: Adobe Illustrator 19.0.0, SVG Export Plug-In . SVG Version: 6.00 Build 0)  -->
<svg version="1.1" id="Layer_1" xmlns="http://www.w3.org/2000/svg" xmlns:xlink="http://www.w3.org/1999/xlink" x="0px" y="0px"
	 viewBox="0 0 481.882 481.882" style="enable-background:new 0 0 481.882 481.882;" xml:space="preserve">
<path style="fill:#00C250;" d="M60.235,28.913C60.235,12.943,73.178,0,89.148,0h212.028l120.471,101.188v351.782
	c0,15.97-12.943,28.913-28.913,28.913H89.148c-15.97,0-28.913-12.943-28.913-28.913V28.913z"/>
<path style="fill:#00A344;" d="M301.176,0v72.282c0,15.97,12.943,28.913,28.913,28.913h91.558"/>
<g>
	<path style="fill:#FFFFFF;" d="M148.668,311.605v-33.423h-18.741v33.423h-18.748v-78.268h18.748v30.276h18.741v-30.276h18.748
		v78.268L148.668,311.605L148.668,311.605z"/>
	<path style="fill:#FFFFFF;" d="M216.32,247.68v63.925h-18.748V247.68h-21.911v-14.344h63.473l-1.912,14.336H216.32V247.68z"/>
	<path style="fill:#FFFFFF;" d="M258.342,250.955c0.678,8.132,1.363,15.021,1.129,27.671l-0.572,32.979h-16.03l4.397-78.268h19.208
		l8.252,49.129h0.452l8.019-49.129h19.2l4.405,78.268h-16.392l-0.904-33.318c-0.346-12.416,0.226-18.402,1.024-27.332h-0.459
		l-8.252,47.322h-14.118l-8.915-47.322H258.342z"/>
	<path style="fill:#FFFFFF;" d="M319.104,311.605v-78.268h18.741v63.473h33.882l-1.92,14.795L319.104,311.605L319.104,311.605z"/>
</g>
<g>
</g>
<g>
</g>
<g>
</g>
<g>
</g>
<g>
</g>
<g>
</g>
<g>
</g>
<g>
</g>
<g>
</g>
<g>
</g>
<g>
</g>
<g>
</g>
<g>
</g>
<g>
</g>
<g>
</g>
</svg>
