<svg id="Capa_1" enable-background="new 0 0 512 512" height="512" viewBox="0 0 512 512" width="512" xmlns="http://www.w3.org/2000/svg" xmlns:xlink="http://www.w3.org/1999/xlink"><linearGradient id="SVGID_1_" gradientUnits="userSpaceOnUse" x1="256" x2="256" y1="512" y2="0"><stop offset="0" stop-color="#ffe59a"/><stop offset="1" stop-color="#ffffd5"/></linearGradient><linearGradient id="SVGID_2_" gradientUnits="userSpaceOnUse" x1="256" x2="256" y1="380.5" y2="131.5"><stop offset="0" stop-color="#ffde00"/><stop offset="1" stop-color="#fd5900"/></linearGradient><g><g><circle cx="256" cy="256" fill="url(#SVGID_1_)" r="256"/></g><g><g><path d="m258.767 326.703c-5.626 1.849-11.327 3.672-17.07 5.457-.004.002-.009.003-.013.004-22.25 6.914-45.809 12.767-74.473 12.767-2.891 0-5.92-.163-8.917-.285v26.963c0 4.915 3.973 8.892 8.882 8.892h177.647c4.91 0 8.882-3.977 8.882-8.892v-61.863c-37.387-1.662-65.68 7.355-94.938 16.957zm147.904-188.687c-1.318-4.733-6.202-7.529-10.938-6.174-.382.106-24.071 6.594-59.791 11.63v-3.068c0-4.915-3.973-8.892-8.882-8.892s-8.882 3.977-8.882 8.892v5.299c-18.788 2.096-39.874 3.593-62.177 3.593s-43.388-1.497-62.177-3.593v-5.299c0-4.915-3.973-8.892-8.882-8.892s-8.882 3.977-8.882 8.892v3.068c-35.72-5.036-59.409-11.524-59.791-11.63-4.753-1.355-9.62 1.442-10.938 6.174s1.44 9.631 6.167 10.951c1.649.46 26.783 7.385 64.562 12.536v23.363h-8.882c-4.91 0-8.882 3.977-8.882 8.892v133.064c27.246 1.222 49.642-3.262 71.059-9.542v-48.7l-9.958 9.969c-3.47 3.474-9.09 3.474-12.56 0s-3.47-9.101 0-12.574l9.958-9.969h-14.087c-4.91 0-8.882-3.977-8.882-8.892s3.973-8.892 8.882-8.892h14.087l-9.958-9.969c-3.47-3.474-3.47-9.101 0-12.574s9.091-3.474 12.56 0l18.84 18.862 18.84-18.862c3.47-3.474 9.09-3.474 12.56 0s3.47 9.101 0 12.574l-9.958 9.969h14.087c4.91 0 8.882 3.977 8.882 8.892s-3.973 8.892-8.882 8.892h-14.087l9.958 9.969c3.47 3.474 3.47 9.101 0 12.574-3.469 3.474-9.09 3.474-12.56 0l-9.958-9.969v43.201c37.41-12.198 65.802-21.454 106.588-19.796v-98.226c0-4.915-3.973-8.892-8.882-8.892h-8.882v-23.363c37.779-5.152 62.913-12.076 64.562-12.536 4.726-1.321 7.484-6.219 6.166-10.952zm-88.494 46.85h-124.354v-21.228c18.804 2.021 39.814 3.443 62.177 3.443 22.361 0 43.372-1.422 62.177-3.443z" fill="url(#SVGID_2_)"/></g></g></g></svg>