<?xml version="1.0" encoding="iso-8859-1"?>
<!-- Generator: Adobe Illustrator 19.0.0, SVG Export Plug-In . SVG Version: 6.00 Build 0)  -->
<svg version="1.1" id="Layer_1" xmlns="http://www.w3.org/2000/svg" xmlns:xlink="http://www.w3.org/1999/xlink" x="0px" y="0px"
	 viewBox="0 0 481.882 481.882" style="enable-background:new 0 0 481.882 481.882;" xml:space="preserve">
<path style="fill:#FFFFFF;" d="M60.235,28.913C60.235,12.943,73.178,0,89.148,0h212.028l120.471,101.195v351.774
	c0,15.97-12.943,28.913-28.913,28.913H89.148c-15.97,0-28.913-12.943-28.913-28.913V28.913z"/>
<g>
	<path style="fill:#C5EB98;" d="M301.176,0v72.282c0,15.97,12.943,28.913,28.913,28.913h91.558"/>
	<path style="fill:#C5EB98;" d="M240.941,161.875c-23.296,0-45.237,3.689-64.384,10.172c-42.353,14.261-71.145,42.308-71.145,74.534
		h135.529l61.704-75.43C284.371,165.278,262.972,161.875,240.941,161.875z"/>
</g>
<path style="fill:#008232;" d="M376.471,246.581c0,21.338-12.619,39.59-29.651,52.887v-0.203
	c-48.896-24.32-23.883-11.889-105.886-52.691l61.289-75.55c0.136,0.03,0.294,0.083,0.429,0.12
	C346.488,185.171,376.471,213.67,376.471,246.581z"/>
<path style="fill:#006E31;" d="M376.471,246.581v67.765c0,19.991-11.106,38.377-29.651,52.887v-67.765
	C363.844,286.17,376.471,267.919,376.471,246.581z"/>
<path style="fill:#00C250;" d="M346.827,299.309v0.158c-21.504,16.813-53.03,28.386-88.945,31.179v-0.09l-16.941-83.976
	L346.827,299.309z"/>
<path style="fill:#00A344;" d="M346.827,299.467v67.765c-21.504,16.813-53.06,28.386-88.945,31.179v-67.765
	C293.798,327.853,325.308,316.288,346.827,299.467z"/>
<path style="fill:#00C250;" d="M257.882,330.647v67.765c-81.928,6.249-152.471-33.551-152.471-84.066v-67.765
	C105.412,296.983,175.804,336.904,257.882,330.647z"/>
<path style="fill:#00E676;" d="M257.882,330.647c-81.815,6.242-152.471-33.498-152.471-84.066h135.529L257.882,330.647z"/>
<g>
</g>
<g>
</g>
<g>
</g>
<g>
</g>
<g>
</g>
<g>
</g>
<g>
</g>
<g>
</g>
<g>
</g>
<g>
</g>
<g>
</g>
<g>
</g>
<g>
</g>
<g>
</g>
<g>
</g>
</svg>
