<?xml version="1.0" encoding="iso-8859-1"?>
<!-- Generator: Adobe Illustrator 19.0.0, SVG Export Plug-In . SVG Version: 6.00 Build 0)  -->
<svg version="1.1" id="Capa_1" xmlns="http://www.w3.org/2000/svg" xmlns:xlink="http://www.w3.org/1999/xlink" x="0px" y="0px"
	 viewBox="0 0 512 512" style="enable-background:new 0 0 512 512;" xml:space="preserve">
<linearGradient id="SVGID_1_" gradientUnits="userSpaceOnUse" x1="256" y1="514" x2="256" y2="2" gradientTransform="matrix(1 0 0 -1 0 514)">
	<stop  offset="0" style="stop-color:#2AF598"/>
	<stop  offset="1" style="stop-color:#009EFD"/>
</linearGradient>
<path style="fill:url(#SVGID_1_);" d="M240.911,132.089c0-13.807,11.193-25,25-25c13.807,0,25,11.193,25,25s-11.193,25-25,25
	S240.911,145.896,240.911,132.089z M278.528,366.083c-4.024,1.965-7.223,0.347-8.771-0.792c-1.546-1.138-4.041-3.705-3.359-8.17
	l17.163-114.269c2.728-17.888-4.633-35.66-19.212-46.381c-14.582-10.724-33.746-12.454-50.01-4.517l-24.695,12.044l17.527,35.955
	l24.708-12.051c4.023-1.962,7.223-0.345,8.771,0.793c1.547,1.138,4.041,3.706,3.36,8.17l-17.163,114.269
	c-2.729,17.888,4.633,35.659,19.211,46.381c8.508,6.257,18.574,9.451,28.716,9.451c7.24,0,14.519-1.629,21.294-4.935l24.696-12.045
	l-17.53-35.955L278.528,366.083z M512,256c0,68.38-26.629,132.667-74.98,181.02C388.667,485.371,324.38,512,256,512
	s-132.667-26.629-181.02-74.98C26.629,388.667,0,324.38,0,256S26.629,123.333,74.98,74.98C123.333,26.629,187.62,0,256,0
	s132.667,26.629,181.02,74.98C485.371,123.333,512,187.62,512,256z M472,256c0-119.103-96.897-216-216-216S40,136.897,40,256
	s96.897,216,216,216S472,375.103,472,256z"/>
<g>
</g>
<g>
</g>
<g>
</g>
<g>
</g>
<g>
</g>
<g>
</g>
<g>
</g>
<g>
</g>
<g>
</g>
<g>
</g>
<g>
</g>
<g>
</g>
<g>
</g>
<g>
</g>
<g>
</g>
</svg>
