<?xml version="1.0" encoding="iso-8859-1"?>
<!-- Generator: Adobe Illustrator 19.0.0, SVG Export Plug-In . SVG Version: 6.00 Build 0)  -->
<svg version="1.1" id="Layer_1" xmlns="http://www.w3.org/2000/svg" xmlns:xlink="http://www.w3.org/1999/xlink" x="0px" y="0px"
	 viewBox="0 0 481.882 481.882" style="enable-background:new 0 0 481.882 481.882;" xml:space="preserve">
<path style="fill:#FFFFFF;" d="M421.647,16.22c33.28,0,60.235,26.955,60.235,60.235v271.059c0,33.28-26.955,60.235-60.235,60.235
	H60.235C26.955,407.75,0,380.794,0,347.514V76.456C0,43.176,26.955,16.22,60.235,16.22C60.235,16.22,421.647,16.22,421.647,16.22z"
	/>
<g>
	<path style="fill:#00E676;" d="M49.762,167.441c0-14.539,4.977-22.701,14.547-22.701c9.562,0,14.532,8.162,14.532,22.701
		c0,14.6-4.969,22.761-14.532,22.761C54.746,190.21,49.762,182.048,49.762,167.441z M72.787,167.441
		c0-12.815-3.125-18.04-8.478-18.04c-5.293,0-8.486,5.225-8.486,18.04c0,12.883,3.192,18.108,8.486,18.108
		C69.662,185.557,72.787,180.324,72.787,167.441z M64.309,163.3c2.417,0,4.209,1.852,4.209,4.149c0,2.357-1.784,4.209-4.209,4.209
		c-2.357,0-4.149-1.845-4.149-4.209C60.16,165.152,61.952,163.3,64.309,163.3z"/>
	<path style="fill:#00E676;" d="M102.4,151.953l-10.511,6.377l-2.808-4.081l14.027-8.734h5.165v39.213h8.998v4.721H91.633v-4.721
		H102.4V151.953z"/>
	<path style="fill:#00E676;" d="M126.344,167.441c0-14.539,4.977-22.701,14.539-22.701s14.539,8.162,14.539,22.701
		c0,14.6-4.977,22.761-14.539,22.761S126.344,182.048,126.344,167.441z M149.368,167.441c0-12.815-3.132-18.04-8.486-18.04
		c-5.293,0-8.486,5.225-8.486,18.04c0,12.883,3.192,18.108,8.486,18.108C146.236,185.557,149.368,180.324,149.368,167.441z
		 M140.883,163.3c2.424,0,4.209,1.852,4.209,4.149c0,2.357-1.777,4.209-4.209,4.209c-2.357,0-4.149-1.845-4.149-4.209
		C136.734,165.152,138.519,163.3,140.883,163.3z"/>
	<path style="fill:#00E676;" d="M178.982,151.953l-10.526,6.377l-2.801-4.081l14.02-8.734h5.173v39.213h8.99v4.721h-25.63v-4.721
		h10.782L178.982,151.953L178.982,151.953z"/>
	<path style="fill:#00E676;" d="M217.261,151.953l-10.511,6.377l-2.808-4.081l14.027-8.734h5.165v39.213h8.99v4.721h-25.63v-4.721
		h10.775L217.261,151.953L217.261,151.953z"/>
	<path style="fill:#00E676;" d="M241.205,167.441c0-14.539,4.969-22.701,14.547-22.701c9.562,0,14.547,8.162,14.547,22.701
		c0,14.6-4.984,22.761-14.547,22.761C246.174,190.21,241.205,182.048,241.205,167.441z M264.23,167.441
		c0-12.815-3.125-18.04-8.478-18.04c-5.293,0-8.486,5.225-8.486,18.04c0,12.883,3.192,18.108,8.486,18.108
		C261.105,185.557,264.23,180.324,264.23,167.441z M255.752,163.3c2.417,0,4.209,1.852,4.209,4.149c0,2.357-1.777,4.209-4.209,4.209
		c-2.357,0-4.149-1.845-4.149-4.209C251.603,165.152,253.38,163.3,255.752,163.3z"/>
	<path style="fill:#00E676;" d="M293.835,151.953l-10.511,6.377l-2.808-4.081l14.027-8.734h5.165v39.213h8.998v4.721h-25.63v-4.721
		h10.782v-32.783h-0.023V151.953z"/>
	<path style="fill:#00E676;" d="M317.786,167.441c0-14.539,4.977-22.701,14.539-22.701c9.57,0,14.547,8.162,14.547,22.701
		c0,14.6-4.969,22.761-14.547,22.761C322.763,190.21,317.786,182.048,317.786,167.441z M340.811,167.441
		c0-12.815-3.117-18.04-8.486-18.04c-5.293,0-8.478,5.225-8.478,18.04c0,12.883,3.185,18.108,8.478,18.108
		C337.694,185.557,340.811,180.324,340.811,167.441z M332.326,163.3c2.424,0,4.209,1.852,4.209,4.149
		c0,2.357-1.769,4.209-4.209,4.209c-2.357,0-4.141-1.845-4.141-4.209C328.184,165.152,329.969,163.3,332.326,163.3z"/>
	<path style="fill:#00E676;" d="M370.424,151.953l-10.519,6.37l-2.808-4.081l14.027-8.734h5.173v39.213h8.983v4.721h-25.63v-4.721
		h10.79L370.424,151.953L370.424,151.953z"/>
	<path style="fill:#00E676;" d="M49.762,244.015c0-14.532,4.977-22.694,14.547-22.694c9.562,0,14.532,8.162,14.532,22.694
		c0,14.592-4.969,22.754-14.532,22.754C54.746,266.784,49.762,258.622,49.762,244.015z M72.787,244.015
		c0-12.808-3.125-18.04-8.478-18.04c-5.293,0-8.486,5.225-8.486,18.04c0,12.883,3.192,18.101,8.486,18.101
		C69.662,262.138,72.787,256.898,72.787,244.015z M64.309,239.866c2.417,0,4.209,1.852,4.209,4.149c0,2.357-1.784,4.216-4.209,4.216
		c-2.357,0-4.149-1.845-4.149-4.216C60.16,241.726,61.952,239.866,64.309,239.866z"/>
	<path style="fill:#00E676;" d="M102.4,228.535l-10.511,6.362l-2.816-4.073l14.027-8.734h5.165v39.213h8.998v4.713h-25.63v-4.713
		H102.4V228.535z"/>
	<path style="fill:#00E676;" d="M126.344,244.015c0-14.532,4.977-22.694,14.539-22.694s14.539,8.162,14.539,22.694
		c0,14.592-4.977,22.754-14.539,22.754S126.344,258.622,126.344,244.015z M149.368,244.015c0-12.808-3.132-18.04-8.486-18.04
		c-5.293,0-8.486,5.225-8.486,18.04c0,12.883,3.192,18.101,8.486,18.101C146.236,262.138,149.368,256.898,149.368,244.015z
		 M140.883,239.866c2.424,0,4.209,1.852,4.209,4.149c0,2.357-1.777,4.216-4.209,4.216c-2.357,0-4.149-1.845-4.149-4.216
		C136.734,241.726,138.519,239.866,140.883,239.866z"/>
	<path style="fill:#00E676;" d="M178.982,228.535l-10.526,6.362l-2.801-4.073l14.02-8.727h5.173v39.213h8.99v4.713h-25.63v-4.713
		h10.782L178.982,228.535L178.982,228.535z"/>
	<path style="fill:#00E676;" d="M202.925,244.015c0-14.532,4.969-22.694,14.532-22.694c9.57,0,14.547,8.162,14.547,22.694
		c0,14.592-4.977,22.754-14.547,22.754C207.895,266.784,202.925,258.622,202.925,244.015z M225.943,244.015
		c0-12.808-3.125-18.04-8.486-18.04c-5.286,0-8.478,5.225-8.478,18.04c0,12.883,3.192,18.101,8.478,18.101
		C222.818,262.138,225.943,256.898,225.943,244.015z M217.457,239.866c2.424,0,4.216,1.852,4.216,4.149
		c0,2.357-1.784,4.216-4.216,4.216c-2.357,0-4.141-1.845-4.141-4.216C213.316,241.726,215.1,239.866,217.457,239.866z"/>
	<path style="fill:#00E676;" d="M241.205,244.015c0-14.532,4.969-22.694,14.547-22.694c9.562,0,14.547,8.162,14.547,22.694
		c0,14.592-4.984,22.754-14.547,22.754C246.174,266.784,241.205,258.622,241.205,244.015z M264.23,244.015
		c0-12.808-3.125-18.04-8.478-18.04c-5.293,0-8.486,5.225-8.486,18.04c0,12.883,3.192,18.101,8.486,18.101
		C261.105,262.138,264.23,256.898,264.23,244.015z M255.752,239.866c2.417,0,4.209,1.852,4.209,4.149
		c0,2.357-1.777,4.216-4.209,4.216c-2.357,0-4.149-1.845-4.149-4.216C251.603,241.726,253.38,239.866,255.752,239.866z"/>
	<path style="fill:#00E676;" d="M293.835,228.535l-10.511,6.362l-2.808-4.073l14.027-8.727h5.165v39.213h8.998v4.713h-25.63v-4.713
		h10.782v-32.776H293.835z"/>
	<path style="fill:#00E676;" d="M317.786,244.015c0-14.532,4.977-22.694,14.539-22.694c9.57,0,14.547,8.162,14.547,22.694
		c0,14.592-4.969,22.754-14.547,22.754C322.763,266.784,317.786,258.622,317.786,244.015z M340.811,244.015
		c0-12.808-3.117-18.04-8.486-18.04c-5.293,0-8.478,5.225-8.478,18.04c0,12.883,3.185,18.101,8.478,18.101
		C337.694,262.138,340.811,256.898,340.811,244.015z M332.326,239.866c2.424,0,4.209,1.852,4.209,4.149
		c0,2.357-1.769,4.216-4.209,4.216c-2.357,0-4.141-1.845-4.141-4.216C328.184,241.726,329.969,239.866,332.326,239.866z"/>
	<path style="fill:#00E676;" d="M64.12,305.109l-10.526,6.392l-2.801-4.081l14.027-8.742h5.173v39.221h8.983v4.721h-25.63v-4.728
		h10.782L64.12,305.109L64.12,305.109z"/>
	<path style="fill:#00E676;" d="M88.056,320.604c0-14.547,4.969-22.709,14.532-22.709c9.57,0,14.547,8.162,14.547,22.709
		c0,14.6-4.969,22.761-14.547,22.761C93.026,343.373,88.056,335.211,88.056,320.604z M111.074,320.604
		c0-12.815-3.117-18.04-8.486-18.04c-5.286,0-8.471,5.225-8.471,18.04c0,12.883,3.185,18.101,8.471,18.101
		C107.957,338.705,111.074,333.487,111.074,320.604z M102.588,316.456c2.424,0,4.216,1.852,4.216,4.149
		c0,2.357-1.784,4.209-4.216,4.209c-2.357,0-4.141-1.837-4.141-4.209C98.447,318.308,100.239,316.456,102.588,316.456z"/>
	<path style="fill:#00E676;" d="M140.695,305.109l-10.519,6.392l-2.801-4.081l14.027-8.742h5.165v39.221h8.983v4.721h-25.63v-4.728
		h10.782L140.695,305.109L140.695,305.109z"/>
	<path style="fill:#00E676;" d="M164.631,320.604c0-14.547,4.969-22.709,14.539-22.709s14.539,8.162,14.539,22.709
		c0,14.6-4.969,22.761-14.539,22.761S164.631,335.211,164.631,320.604z M187.648,320.604c0-12.815-3.117-18.04-8.478-18.04
		c-5.286,0-8.478,5.225-8.478,18.04c0,12.883,3.192,18.101,8.478,18.101C184.531,338.705,187.648,333.487,187.648,320.604z
		 M179.17,316.456c2.417,0,4.216,1.852,4.216,4.149c0,2.357-1.792,4.209-4.216,4.209c-2.357,0-4.141-1.837-4.141-4.209
		C175.029,318.308,176.806,316.456,179.17,316.456z"/>
	<path style="fill:#00E676;" d="M202.925,320.604c0-14.547,4.969-22.709,14.532-22.709c9.57,0,14.547,8.162,14.547,22.709
		c0,14.6-4.977,22.761-14.547,22.761C207.895,343.373,202.925,335.211,202.925,320.604z M225.943,320.604
		c0-12.815-3.125-18.04-8.486-18.04c-5.286,0-8.478,5.225-8.478,18.04c0,12.883,3.192,18.101,8.478,18.101
		C222.818,338.705,225.943,333.487,225.943,320.604z M217.457,316.456c2.424,0,4.216,1.852,4.216,4.149
		c0,2.357-1.784,4.209-4.216,4.209c-2.357,0-4.141-1.837-4.141-4.209C213.316,318.308,215.1,316.456,217.457,316.456z"/>
	<path style="fill:#00E676;" d="M255.556,305.109l-10.519,6.392l-2.801-4.081l14.02-8.742h5.173v39.221h8.983v4.721h-25.63v-4.728
		h10.782v-32.783H255.556z"/>
</g>
<path style="fill:#003B15;" d="M421.647,15.708H60.235C26.97,15.708,0,42.679,0,75.944v30.118h481.882V75.944
	C481.882,42.679,454.912,15.708,421.647,15.708z"/>
<g>
	<circle style="fill:#00E676;" cx="67.765" cy="61.412" r="15.059"/>
	<circle style="fill:#00E676;" cx="128" cy="61.412" r="15.059"/>
	<circle style="fill:#00E676;" cx="188.235" cy="61.412" r="15.059"/>
</g>
<path style="fill:#003B15;" d="M276.134,377.278l-81.31,81.295c-10.12,10.135-26.511,10.135-36.631,0
	c-10.135-10.12-10.135-26.511,0-36.631l81.476-81.483C248.689,355.48,261.188,368.122,276.134,377.278z"/>
<path style="fill:#006E31;" d="M255.428,360.751l-97.513,97.498c-9.856-10.12-9.758-26.278,0.226-36.307l81.528-81.528
	C244.111,347.785,249.427,354.615,255.428,360.751z"/>
<path style="fill:#FFFFFF;" d="M333.794,392.932c-60.198,0-109.176-48.979-109.176-109.176s48.979-109.176,109.176-109.176
	S442.97,223.558,442.97,283.755S393.992,392.932,333.794,392.932z"/>
<path style="fill:#C5EB98;" d="M333.794,174.488c60.326,0,109.267,48.941,109.267,109.267S394.12,393.022,333.794,393.022
	c-60.544,0-109.267-49.408-109.267-109.267C224.527,223.43,273.468,174.488,333.794,174.488 M333.794,159.52
	c-68.503,0-124.235,55.733-124.235,124.235c0,68.51,55.733,124.235,124.235,124.235s124.235-55.725,124.235-124.235
	C458.029,215.253,402.296,159.52,333.794,159.52L333.794,159.52z"/>
<circle style="fill:#00C250;" cx="333.779" cy="283.755" r="87.032"/>
<path style="fill:#00E676;" d="M333.794,196.73c-48.06,0-87.032,38.965-87.032,87.025c0,23.778,9.562,45.32,25.013,61.018
	l123.031-123.023C379.106,206.293,357.572,196.73,333.794,196.73z"/>
<g>
</g>
<g>
</g>
<g>
</g>
<g>
</g>
<g>
</g>
<g>
</g>
<g>
</g>
<g>
</g>
<g>
</g>
<g>
</g>
<g>
</g>
<g>
</g>
<g>
</g>
<g>
</g>
<g>
</g>
</svg>
