<?xml version="1.0" encoding="iso-8859-1"?>
<!-- Generator: Adobe Illustrator 19.0.0, SVG Export Plug-In . SVG Version: 6.00 Build 0)  -->
<svg version="1.1" id="Layer_1" xmlns="http://www.w3.org/2000/svg" xmlns:xlink="http://www.w3.org/1999/xlink" x="0px" y="0px"
	 viewBox="0 0 481.882 481.882" style="enable-background:new 0 0 481.882 481.882;" xml:space="preserve">
<g>
	<path style="fill:#ECF5E1;" d="M150.588,451.765H90.353v-45.176c0-8.312,6.746-15.059,15.059-15.059h30.118
		c8.312,0,15.059,6.746,15.059,15.059V451.765z"/>
	<path style="fill:#ECF5E1;" d="M240.941,451.765h-60.235V346.353c0-8.312,6.746-15.059,15.059-15.059h30.118
		c8.312,0,15.059,6.746,15.059,15.059V451.765z"/>
	<path style="fill:#ECF5E1;" d="M331.294,451.765h-60.235V286.118c0-8.312,6.746-15.059,15.059-15.059h30.118
		c8.312,0,15.059,6.746,15.059,15.059V451.765z"/>
	<path style="fill:#ECF5E1;" d="M421.647,451.765h-60.235V225.882c0-8.312,6.746-15.059,15.059-15.059h30.118
		c8.312,0,15.059,6.746,15.059,15.059V451.765z"/>
</g>
<path style="fill:#C5EB98;" d="M466.824,451.765H30.118V15.059C30.118,6.746,23.371,0,15.059,0S0,6.746,0,15.059v466.824h466.824
	c8.312,0,15.059-6.746,15.059-15.059C481.882,458.511,475.136,451.765,466.824,451.765z"/>
<polygon style="fill:#00A344;" points="335.217,159.36 351.842,28.333 220.8,44.943 258.003,82.138 97.882,267.512 108.958,278.588 
	296.395,120.538 "/>
<g>
</g>
<g>
</g>
<g>
</g>
<g>
</g>
<g>
</g>
<g>
</g>
<g>
</g>
<g>
</g>
<g>
</g>
<g>
</g>
<g>
</g>
<g>
</g>
<g>
</g>
<g>
</g>
<g>
</g>
</svg>
