<?xml version="1.0" encoding="iso-8859-1"?>
<!-- Generator: Adobe Illustrator 19.0.0, SVG Export Plug-In . SVG Version: 6.00 Build 0)  -->
<svg version="1.1" id="Layer_1" xmlns="http://www.w3.org/2000/svg" xmlns:xlink="http://www.w3.org/1999/xlink" x="0px" y="0px"
	 viewBox="0 0 481.882 481.882" style="enable-background:new 0 0 481.882 481.882;" xml:space="preserve">
<path style="fill:#FFFFFF;" d="M60.235,28.913C60.235,12.943,73.178,0,89.148,0h212.028l120.471,101.195v351.774
	c0,15.97-12.943,28.913-28.913,28.913H89.148c-15.97,0-28.913-12.943-28.913-28.913V28.913z"/>
<path style="fill:#C5EB98;" d="M301.176,0v72.282c0,15.97,12.943,28.913,28.913,28.913h91.558"/>
<rect x="120.471" y="165.647" style="fill:#00E676;" width="240.941" height="165.647"/>
<g>
	<polygon style="fill:#006E31;" points="148.548,307.787 141.335,294.566 186.014,270.2 217.133,284.032 271.759,190.381 
		337.001,266.15 325.587,275.968 274.123,216.207 223.337,303.262 186.692,286.984 	"/>
	<path style="fill:#006E31;" d="M365.176,331.294H116.706c-6.212,0-11.294,5.082-11.294,11.294c0,6.212,5.082,11.294,11.294,11.294
		H226.53l-60.235,60.235c-4.141,4.141-2.733,7.529,3.117,7.529c5.85,0,14.035-3.388,18.176-7.529l45.824-45.824v45.824
		c0,4.141,3.388,7.529,7.529,7.529s7.529-3.388,7.529-7.529v-45.824l45.824,45.824c4.149,4.141,12.326,7.529,18.176,7.529
		c5.85,0,7.258-3.388,3.117-7.529l-60.235-60.235h109.824c6.212,0,11.294-5.082,11.294-11.294
		C376.471,336.376,371.388,331.294,365.176,331.294z"/>
	<path style="fill:#006E31;" d="M376.471,154.353c0,6.212-5.09,11.294-11.294,11.294H116.706c-6.212,0-11.294-5.082-11.294-11.294
		c0-6.212,5.082-11.294,11.294-11.294h248.471C371.381,143.059,376.471,148.141,376.471,154.353z"/>
</g>
<polygon style="fill:#FFFFFF;" points="263.529,274.184 210.824,221.478 161.882,270.419 137.736,246.264 148.382,235.618 
	161.882,249.118 210.824,200.177 263.529,252.883 325.971,190.441 336.617,201.088 "/>
<g>
</g>
<g>
</g>
<g>
</g>
<g>
</g>
<g>
</g>
<g>
</g>
<g>
</g>
<g>
</g>
<g>
</g>
<g>
</g>
<g>
</g>
<g>
</g>
<g>
</g>
<g>
</g>
<g>
</g>
</svg>
