<?xml version="1.0" encoding="iso-8859-1"?>
<!-- Generator: Adobe Illustrator 19.0.0, SVG Export Plug-In . SVG Version: 6.00 Build 0)  -->
<svg version="1.1" id="Layer_1" xmlns="http://www.w3.org/2000/svg" xmlns:xlink="http://www.w3.org/1999/xlink" x="0px" y="0px"
	 viewBox="0 0 481.882 481.882" style="enable-background:new 0 0 481.882 481.882;" xml:space="preserve">
<path style="fill:#00A344;" d="M421.647,240.941c0,99.644-81.062,180.706-180.706,180.706S60.235,340.585,60.235,240.941
	c0-99.637,81.062-180.706,180.706-180.706c54.664,0,105.208,24.087,139.708,66.199l-41.826,46.743h128V30.118l-45.651,51.012
	C375.424,29.402,310.709,0,240.941,0C108.085,0,0,108.092,0,240.941c0,132.856,108.085,240.941,240.941,240.941
	s240.941-108.085,240.941-240.941H421.647z"/>
<path style="fill:#00C250;" d="M60.235,240.941c0-99.637,81.062-180.706,180.706-180.706c27.987,0,54.882,6.355,79.104,18.176
	l44.408-44.424C327.718,11.964,285.365,0,240.941,0C108.085,0,0,108.092,0,240.941c0,45.071,12.469,87.288,34.101,123.415
	l44.371-44.371C66.808,296.087,60.235,269.282,60.235,240.941z"/>
<g>
	<path style="fill:#FFFFFF;" d="M139.219,210.327c11.031-21.105,29.289-30.615,47.736-30.615c29.651,0,45.056,20.344,45.056,41.449
		c0,12.552-4.555,26.232-16.738,37.647l-29.658,24.915h46.208v32.324h-86.709l-8.561-17.687l54.761-61.606
		c18.063-20.337-11.784-39.74-26.616-12.552L139.219,210.327z"/>
	<path style="fill:#FFFFFF;" d="M342.664,286.953H330.12v29.282h-32.512v-29.282H250.27l-10.835-19.96l62.743-85.368h27.964v77.764
		h12.536L342.664,286.953L342.664,286.953z M300.077,259.765l0.384-34.417l-24.154,34.417H300.077z"/>
</g>
<g>
</g>
<g>
</g>
<g>
</g>
<g>
</g>
<g>
</g>
<g>
</g>
<g>
</g>
<g>
</g>
<g>
</g>
<g>
</g>
<g>
</g>
<g>
</g>
<g>
</g>
<g>
</g>
<g>
</g>
</svg>
