<?xml version="1.0" encoding="iso-8859-1"?>
<!-- Generator: Adobe Illustrator 21.0.0, SVG Export Plug-In . SVG Version: 6.00 Build 0)  -->
<svg version="1.1" id="Capa_1" xmlns="http://www.w3.org/2000/svg" xmlns:xlink="http://www.w3.org/1999/xlink" x="0px" y="0px"
	 viewBox="0 0 512 512" style="enable-background:new 0 0 512 512;" xml:space="preserve">
<circle style="fill:#4A7AFF;" cx="256" cy="256" r="256"/>
<path style="fill:#2864F0;" d="M511.28,275.28L389.333,153.333L122.667,421.5l86.142,86.142C224.106,510.493,239.876,512,256,512
	C390.899,512,501.422,407.659,511.28,275.28z"/>
<polygon style="fill:#FFFFFF;" points="311,75 122.667,75 122.667,421.5 389.333,421.5 389.333,153.333 "/>
<polygon style="fill:#F2F6FC;" points="389.333,153.333 311,75 255.571,75 255.571,421.5 389.333,421.5 "/>
<polygon style="fill:#DCE1EB;" points="311,153.333 389.333,153.333 311,75 "/>
<path style="fill:#96EBE6;" d="M314.4,285.286h-29.767v-47.053c0-15.945-12.972-28.917-28.917-28.917S226.8,222.288,226.8,238.233
	v47.053h-29.767v-47.053c0-32.358,26.325-58.684,58.684-58.684s58.684,26.325,58.684,58.684v47.053H314.4z"/>
<path style="fill:#64E1DC;" d="M255.716,179.549c-0.049,0-0.096,0.003-0.145,0.004v29.767c0.049,0,0.096-0.003,0.145-0.003
	c15.945,0,28.917,12.972,28.917,28.917v47.053H314.4v-47.053C314.401,205.875,288.075,179.549,255.716,179.549z"/>
<rect x="183.29" y="267.19" style="fill:#00C8C8;" width="145.43" height="124.52"/>
<rect x="255.57" y="267.19" style="fill:#1CADB5;" width="73.14" height="124.52"/>
<path style="fill:#00A0AA;" d="M277.971,313.147c0-12.134-9.837-21.971-21.971-21.971s-21.971,9.837-21.971,21.971
	c0,6.596,2.911,12.508,7.513,16.536v38.038h28.917v-38.038C275.061,325.655,277.971,319.743,277.971,313.147z"/>
<path style="fill:#108D91;" d="M256,291.176c-0.144,0-0.286,0.008-0.429,0.011v76.534h14.887v-38.038
	c4.602-4.027,7.513-9.94,7.513-16.536C277.971,301.012,268.134,291.176,256,291.176z"/>
<g>
</g>
<g>
</g>
<g>
</g>
<g>
</g>
<g>
</g>
<g>
</g>
<g>
</g>
<g>
</g>
<g>
</g>
<g>
</g>
<g>
</g>
<g>
</g>
<g>
</g>
<g>
</g>
<g>
</g>
</svg>
