<?xml version="1.0" encoding="iso-8859-1"?>
<!-- Generator: Adobe Illustrator 19.0.0, SVG Export Plug-In . SVG Version: 6.00 Build 0)  -->
<svg version="1.1" id="Layer_1" xmlns="http://www.w3.org/2000/svg" xmlns:xlink="http://www.w3.org/1999/xlink" x="0px" y="0px"
	 viewBox="0 0 481.882 481.882" style="enable-background:new 0 0 481.882 481.882;" xml:space="preserve">
<g>
	<polygon style="fill:#00A344;" points="436.706,391.529 45.176,391.529 0,481.882 481.882,481.882 	"/>
	<polygon style="fill:#00A344;" points="105.412,271.059 60.235,361.412 421.647,361.412 376.471,271.059 	"/>
	<polygon style="fill:#00A344;" points="120.471,240.941 361.412,240.941 316.235,150.588 165.647,150.588 	"/>
	<polygon style="fill:#00A344;" points="180.706,120.471 301.176,120.471 240.941,0 	"/>
</g>
<path style="fill:#ECF5E1;" d="M481.747,273.619c3.034-68.6-50.101-126.675-118.716-129.717
	c-68.593-3.034-126.667,50.108-129.709,118.716c-0.949,21.361,3.569,41.705,12.288,59.678L137.969,430.238
	c8.659,25.848,25.916,43.061,51.795,51.644L295.56,375.816c16.723,9.638,35.885,15.593,56.486,16.504
	C420.646,395.362,478.72,342.212,481.747,273.619z"/>
<path style="fill:#FFFFFF;" d="M363.046,143.902c-68.585-3.034-126.667,50.108-129.709,118.716
	c-0.949,21.361,3.569,41.705,12.288,59.678L137.969,430.238c4.826,14.396,12.416,26.014,22.588,35.057L445.455,180.39
	C424.252,159.127,395.43,145.34,363.046,143.902z"/>
<circle style="fill:#00C250;" cx="357.572" cy="268.115" r="88.809"/>
<path style="fill:#00E676;" d="M361.48,179.396c-49.001-2.176-90.481,35.787-92.657,84.789
	c-1.144,25.961,9.043,49.739,26.097,66.748l125.448-125.447C405.203,190.276,384.61,180.42,361.48,179.396z"/>
<path style="fill:#003B15;" d="M272.708,398.72l-51.787-51.644l-82.952,83.162c8.659,25.848,25.916,43.061,51.795,51.644
	L272.708,398.72z"/>
<path style="fill:#C5EB98;" d="M272.708,398.72l22.852-22.912c-21.594-12.446-39.063-31.104-49.935-53.512l-24.704,24.779
	L272.708,398.72z"/>
<path style="fill:#006E31;" d="M245.624,322.296L137.969,430.238c4.826,14.396,12.416,26.014,22.588,35.057l109.267-109.274
	C259.983,346.232,251.738,334.901,245.624,322.296z"/>
<path style="fill:#ECF5E1;" d="M245.624,322.296l-24.704,24.779l28.966,28.898l19.938-19.938
	C259.983,346.232,251.738,334.901,245.624,322.296z"/>
<g>
</g>
<g>
</g>
<g>
</g>
<g>
</g>
<g>
</g>
<g>
</g>
<g>
</g>
<g>
</g>
<g>
</g>
<g>
</g>
<g>
</g>
<g>
</g>
<g>
</g>
<g>
</g>
<g>
</g>
</svg>
