<?xml version="1.0" encoding="iso-8859-1"?>
<!-- Generator: Adobe Illustrator 19.0.0, SVG Export Plug-In . SVG Version: 6.00 Build 0)  -->
<svg version="1.1" id="Layer_1" xmlns="http://www.w3.org/2000/svg" xmlns:xlink="http://www.w3.org/1999/xlink" x="0px" y="0px"
	 viewBox="0 0 481.882 481.882" style="enable-background:new 0 0 481.882 481.882;" xml:space="preserve">
<path style="fill:#003B15;" d="M481.882,355.264c0,12.085-9.811,21.896-21.903,21.896H21.903C9.811,377.16,0,367.349,0,355.264
	V48.599c0-12.092,9.811-21.903,21.903-21.903h438.076c12.092,0,21.903,9.811,21.903,21.903V355.264z"/>
<rect x="175.209" y="377.16" style="fill:#ECF5E1;" width="131.426" height="56.124"/>
<g>
	<path style="fill:#FFFFFF;" d="M350.456,444.239c0,6.054-4.894,10.948-10.948,10.948H142.374c-6.054,0-10.948-4.894-10.948-10.948
		s4.894-10.955,10.948-10.955h197.135C345.562,433.284,350.456,438.185,350.456,444.239z"/>
	<path style="fill:#FFFFFF;" d="M481.882,355.264V289.54H0v65.724c0,12.085,9.811,21.896,21.903,21.896h438.076
		C472.072,377.16,481.882,367.349,481.882,355.264z"/>
</g>
<path style="fill:#C5EB98;" d="M240.941,364.149c-16.226,0-29.432-13.207-29.432-29.432c0-16.226,13.207-29.432,29.432-29.432
	c16.218,0,29.432,13.207,29.432,29.432C270.374,350.942,257.16,364.149,240.941,364.149z M240.941,320.343
	c-7.928,0-14.374,6.445-14.374,14.374c0,7.928,6.445,14.374,14.374,14.374s14.374-6.445,14.374-14.374
	C255.315,326.788,248.87,320.343,240.941,320.343z"/>
<path style="fill:#006E31;" d="M0,48.599V289.54h148.51L411.354,26.696H21.903C9.811,26.696,0,36.506,0,48.599z"/>
<g>
	<path style="fill:#FFFFFF;" d="M63.232,97.555c0-11.625,3.968-18.153,11.618-18.153s11.633,6.528,11.633,18.153
		c0,11.678-3.983,18.206-11.633,18.206S63.232,109.233,63.232,97.555z M81.641,97.555c0-10.248-2.5-14.434-6.784-14.434
		c-4.232,0-6.776,4.186-6.776,14.434c0,10.293,2.552,14.487,6.776,14.487C79.142,112.041,81.641,107.848,81.641,97.555z
		 M74.85,94.242c1.943,0,3.366,1.476,3.366,3.313c0,1.882-1.423,3.366-3.366,3.366c-1.882,0-3.305-1.483-3.305-3.366
		C71.544,95.718,72.968,94.242,74.85,94.242z"/>
	<path style="fill:#FFFFFF;" d="M105.291,85.154l-8.41,5.105l-2.251-3.26l11.219-6.987h4.134v31.36h7.191v3.772H96.678v-3.772h8.621
		L105.291,85.154L105.291,85.154z"/>
	<path style="fill:#FFFFFF;" d="M124.408,97.555c0-11.625,3.968-18.153,11.618-18.153c7.657,0,11.633,6.528,11.633,18.153
		c0,11.678-3.976,18.206-11.633,18.206C128.384,115.761,124.408,109.233,124.408,97.555z M142.818,97.555
		c0-10.248-2.5-14.434-6.784-14.434c-4.232,0-6.776,4.186-6.776,14.434c0,10.293,2.552,14.487,6.776,14.487
		C140.318,112.041,142.818,107.848,142.818,97.555z M136.026,94.242c1.943,0,3.366,1.476,3.366,3.313
		c0,1.882-1.423,3.366-3.366,3.366c-1.882,0-3.305-1.483-3.305-3.366C132.721,95.718,134.144,94.242,136.026,94.242z"/>
	<path style="fill:#FFFFFF;" d="M166.468,85.154l-8.41,5.105l-2.251-3.26l11.219-6.987h4.134v31.36h7.191v3.772h-20.503v-3.772
		h8.621L166.468,85.154L166.468,85.154z"/>
	<path style="fill:#FFFFFF;" d="M197.06,85.154l-8.41,5.105l-2.251-3.26l11.219-6.987h4.134v31.36h7.191v3.772h-20.503v-3.772h8.621
		V85.154z"/>
	<path style="fill:#FFFFFF;" d="M216.177,97.555c0-11.625,3.968-18.153,11.618-18.153c7.657,0,11.633,6.528,11.633,18.153
		c0,11.678-3.976,18.206-11.633,18.206C220.145,115.761,216.177,109.233,216.177,97.555z M234.579,97.555
		c0-10.248-2.492-14.434-6.784-14.434c-4.232,0-6.776,4.186-6.776,14.434c0,10.293,2.552,14.487,6.776,14.487
		C232.087,112.041,234.579,107.848,234.579,97.555z M227.795,94.242c1.943,0,3.366,1.476,3.366,3.313
		c0,1.882-1.423,3.366-3.366,3.366c-1.882,0-3.305-1.483-3.305-3.366C224.482,95.718,225.912,94.242,227.795,94.242z"/>
	<path style="fill:#FFFFFF;" d="M258.236,85.154l-8.41,5.105l-2.244-3.26l11.211-6.987h4.134v31.36h7.191v3.772h-20.503v-3.772
		h8.621V85.154z"/>
	<path style="fill:#FFFFFF;" d="M277.353,97.555c0-11.625,3.968-18.153,11.625-18.153c7.657,0,11.625,6.528,11.625,18.153
		c0,11.678-3.968,18.206-11.625,18.206C281.321,115.761,277.353,109.233,277.353,97.555z M295.763,97.555
		c0-10.248-2.5-14.434-6.784-14.434c-4.239,0-6.784,4.186-6.784,14.434c0,10.293,2.56,14.487,6.784,14.487
		C293.263,112.041,295.763,107.848,295.763,97.555z M288.979,94.242c1.935,0,3.358,1.476,3.358,3.313
		c0,1.882-1.423,3.366-3.358,3.366c-1.89,0-3.313-1.483-3.313-3.366C285.658,95.718,287.089,94.242,288.979,94.242z"/>
	<path style="fill:#FFFFFF;" d="M319.413,85.154l-8.41,5.105l-2.244-3.26l11.211-6.987h4.134v31.36h7.191v3.772h-20.503v-3.772
		h8.621V85.154z"/>
	<path style="fill:#FFFFFF;" d="M63.232,158.731c0-11.625,3.968-18.146,11.618-18.146s11.633,6.52,11.633,18.146
		c0,11.678-3.983,18.206-11.633,18.206S63.232,170.409,63.232,158.731z M81.641,158.731c0-10.248-2.5-14.426-6.784-14.426
		c-4.232,0-6.776,4.179-6.776,14.426c0,10.3,2.552,14.487,6.776,14.487C79.142,173.218,81.641,169.032,81.641,158.731z
		 M74.85,155.418c1.943,0,3.366,1.483,3.366,3.313c0,1.89-1.423,3.366-3.366,3.366c-1.882,0-3.305-1.476-3.305-3.366
		C71.544,156.902,72.968,155.418,74.85,155.418z"/>
	<path style="fill:#FFFFFF;" d="M105.291,146.338l-8.41,5.097l-2.251-3.268l11.219-6.98h4.134v31.36h7.191v3.772H96.678v-3.772
		h8.621L105.291,146.338L105.291,146.338z"/>
	<path style="fill:#FFFFFF;" d="M124.408,158.731c0-11.625,3.968-18.146,11.618-18.146c7.657,0,11.633,6.52,11.633,18.146
		c0,11.678-3.976,18.206-11.633,18.206C128.384,176.937,124.408,170.409,124.408,158.731z M142.818,158.731
		c0-10.248-2.5-14.426-6.784-14.426c-4.232,0-6.776,4.179-6.776,14.426c0,10.3,2.552,14.487,6.776,14.487
		C140.318,173.218,142.818,169.032,142.818,158.731z M136.026,155.418c1.943,0,3.366,1.483,3.366,3.313
		c0,1.89-1.423,3.366-3.366,3.366c-1.882,0-3.305-1.476-3.305-3.366C132.721,156.902,134.144,155.418,136.026,155.418z"/>
	<path style="fill:#FFFFFF;" d="M166.468,146.338l-8.41,5.097l-2.251-3.268l11.219-6.98h4.134v31.36h7.191v3.772h-20.503v-3.772
		h8.621V146.338z"/>
	<path style="fill:#FFFFFF;" d="M185.585,158.731c0-11.625,3.968-18.146,11.618-18.146c7.657,0,11.633,6.52,11.633,18.146
		c0,11.678-3.976,18.206-11.633,18.206C189.56,176.937,185.585,170.409,185.585,158.731z M203.994,158.731
		c0-10.248-2.492-14.426-6.784-14.426c-4.232,0-6.776,4.179-6.776,14.426c0,10.3,2.552,14.487,6.776,14.487
		C201.502,173.218,203.994,169.032,203.994,158.731z M197.203,155.418c1.943,0,3.366,1.483,3.366,3.313
		c0,1.89-1.423,3.366-3.366,3.366c-1.882,0-3.305-1.476-3.305-3.366C193.897,156.902,195.32,155.418,197.203,155.418z"/>
	<path style="fill:#FFFFFF;" d="M216.177,158.731c0-11.625,3.968-18.146,11.618-18.146c7.657,0,11.633,6.52,11.633,18.146
		c0,11.678-3.976,18.206-11.633,18.206C220.145,176.937,216.177,170.409,216.177,158.731z M234.579,158.731
		c0-10.248-2.492-14.426-6.784-14.426c-4.232,0-6.776,4.179-6.776,14.426c0,10.3,2.552,14.487,6.776,14.487
		C232.087,173.218,234.579,169.032,234.579,158.731z M227.795,155.418c1.943,0,3.366,1.483,3.366,3.313
		c0,1.89-1.423,3.366-3.366,3.366c-1.882,0-3.305-1.476-3.305-3.366C224.482,156.902,225.912,155.418,227.795,155.418z"/>
	<path style="fill:#FFFFFF;" d="M258.236,146.338l-8.41,5.097l-2.244-3.268l11.211-6.98h4.134v31.36h7.191v3.772h-20.503v-3.772
		h8.621V146.338z"/>
	<path style="fill:#FFFFFF;" d="M277.353,158.731c0-11.625,3.968-18.146,11.625-18.146c7.657,0,11.625,6.52,11.625,18.146
		c0,11.678-3.968,18.206-11.625,18.206C281.321,176.937,277.353,170.409,277.353,158.731z M295.763,158.731
		c0-10.248-2.5-14.426-6.784-14.426c-4.239,0-6.784,4.179-6.784,14.426c0,10.3,2.56,14.487,6.784,14.487
		C293.263,173.218,295.763,169.032,295.763,158.731z M288.979,155.418c1.935,0,3.358,1.483,3.358,3.313
		c0,1.89-1.423,3.366-3.358,3.366c-1.89,0-3.313-1.476-3.313-3.366C285.658,156.902,287.089,155.418,288.979,155.418z"/>
	<path style="fill:#FFFFFF;" d="M74.707,207.514l-8.41,5.105l-2.251-3.268l11.219-6.987h4.134v31.36h7.191v3.772H66.086v-3.772
		h8.621C74.707,233.724,74.707,207.514,74.707,207.514z"/>
	<path style="fill:#FFFFFF;" d="M93.824,219.908c0-11.618,3.968-18.146,11.618-18.146s11.633,6.528,11.633,18.146
		c0,11.678-3.983,18.206-11.633,18.206S93.824,231.586,93.824,219.908z M112.226,219.908c0-10.248-2.5-14.426-6.784-14.426
		c-4.232,0-6.776,4.179-6.776,14.426c0,10.3,2.552,14.487,6.776,14.487C109.726,234.394,112.226,230.208,112.226,219.908z
		 M105.442,216.602c1.943,0,3.366,1.476,3.366,3.305c0,1.89-1.423,3.366-3.366,3.366c-1.882,0-3.305-1.476-3.305-3.366
		C102.129,218.078,103.56,216.602,105.442,216.602z"/>
	<path style="fill:#FFFFFF;" d="M135.883,207.514l-8.41,5.105l-2.251-3.268l11.219-6.987h4.134v31.36h7.191v3.772h-20.503v-3.772
		h8.621V207.514z"/>
	<path style="fill:#FFFFFF;" d="M155,219.908c0-11.618,3.968-18.146,11.618-18.146c7.657,0,11.633,6.528,11.633,18.146
		c0,11.678-3.976,18.206-11.633,18.206C158.968,238.114,155,231.586,155,219.908z M173.402,219.908
		c0-10.248-2.5-14.426-6.784-14.426c-4.232,0-6.776,4.179-6.776,14.426c0,10.3,2.552,14.487,6.776,14.487
		C170.903,234.394,173.402,230.208,173.402,219.908z M166.618,216.602c1.943,0,3.366,1.476,3.366,3.305
		c0,1.89-1.423,3.366-3.366,3.366c-1.882,0-3.305-1.476-3.305-3.366C163.305,218.078,164.736,216.602,166.618,216.602z"/>
	<path style="fill:#FFFFFF;" d="M185.585,219.908c0-11.618,3.968-18.146,11.618-18.146c7.657,0,11.633,6.528,11.633,18.146
		c0,11.678-3.976,18.206-11.633,18.206C189.56,238.114,185.585,231.586,185.585,219.908z M203.994,219.908
		c0-10.248-2.492-14.426-6.784-14.426c-4.232,0-6.776,4.179-6.776,14.426c0,10.3,2.552,14.487,6.776,14.487
		C201.502,234.394,203.994,230.208,203.994,219.908z M197.203,216.602c1.943,0,3.366,1.476,3.366,3.305
		c0,1.89-1.423,3.366-3.366,3.366c-1.882,0-3.305-1.476-3.305-3.366C193.897,218.078,195.32,216.602,197.203,216.602z"/>
	<path style="fill:#FFFFFF;" d="M227.644,207.514l-8.41,5.105l-2.251-3.268l11.219-6.987h4.134v31.36h7.191v3.772h-20.495v-3.772
		h8.621L227.644,207.514L227.644,207.514z"/>
</g>
<g>
</g>
<g>
</g>
<g>
</g>
<g>
</g>
<g>
</g>
<g>
</g>
<g>
</g>
<g>
</g>
<g>
</g>
<g>
</g>
<g>
</g>
<g>
</g>
<g>
</g>
<g>
</g>
<g>
</g>
</svg>
