<?xml version="1.0" encoding="iso-8859-1"?>
<!-- Generator: Adobe Illustrator 19.0.0, SVG Export Plug-In . SVG Version: 6.00 Build 0)  -->
<svg version="1.1" id="Layer_1" xmlns="http://www.w3.org/2000/svg" xmlns:xlink="http://www.w3.org/1999/xlink" x="0px" y="0px"
	 viewBox="0 0 481.882 481.882" style="enable-background:new 0 0 481.882 481.882;" xml:space="preserve">
<path style="fill:#00C250;" d="M391.529,268.243c12.582,0,24.553,2.59,35.433,7.221l-210.47-215.8
	c-26.127-26.79-69.03-27.332-95.827-1.197L93.711,84.751l220.943,226.537C330.556,285.493,358.987,268.243,391.529,268.243z"/>
<path style="fill:#FFFFFF;" d="M102.174,93.418l-40.99,40.087L231.206,307.84c9.013-4.435,29.139-17.016,39.853-17.016
	c11.204,0,21.737,2.778,31.051,7.597L102.174,93.418z"/>
<polygon style="fill:#C5EB98;" points="116.751,108.371 76.1,149.015 88.561,161.476 129.054,120.983 "/>
<path style="fill:#006E31;" d="M233.886,280.99l-118.43-121.08c-2.906-2.982-2.854-7.74,0.113-10.654
	c2.982-2.899,7.74-2.854,10.647,0.128l118.438,121.08c2.906,2.974,2.854,7.733-0.12,10.647S236.8,283.965,233.886,280.99z"/>
<rect y="400.64" style="fill:#ECF5E1;" width="481.882" height="42.029"/>
<path style="fill:#00A344;" d="M426.963,275.464l-210.47-215.8c-24.267-24.877-62.968-27.083-89.833-6.347l220.83,226.409l0,0
	c-27.625,15.458-46.313,44.958-46.313,78.871H30.118C13.485,358.596,0,383.993,0,400.625h481.882c0-7.529,0-22.588,0-42.029
	C481.882,321.258,459.256,289.228,426.963,275.464z"/>
<polygon style="fill:#FFFFFF;" points="319.262,400.625 0,400.625 0,442.654 277.233,442.654 "/>
<path style="fill:#00C250;" d="M301.176,358.596H30.118C13.485,358.596,0,383.993,0,400.625h319.262l119.16-119.16
	c-13.681-8.32-29.696-13.222-46.901-13.222C341.617,268.243,301.176,308.676,301.176,358.596z"/>
<path style="fill:#003B15;" d="M391.529,298.361c-16.632,0-30.118,13.485-30.118,30.118c0,16.64,13.485,30.118,30.118,30.118
	c16.625,0,30.118-13.478,30.118-30.118C421.647,311.846,408.162,298.361,391.529,298.361z"/>
<path style="fill:#006E31;" d="M412.762,307.125c-5.444-5.414-12.943-8.764-21.233-8.764c-16.632,0-30.118,13.485-30.118,30.118
	c0,8.297,3.351,15.797,8.772,21.233L412.762,307.125z"/>
<g>
</g>
<g>
</g>
<g>
</g>
<g>
</g>
<g>
</g>
<g>
</g>
<g>
</g>
<g>
</g>
<g>
</g>
<g>
</g>
<g>
</g>
<g>
</g>
<g>
</g>
<g>
</g>
<g>
</g>
</svg>
