<?xml version="1.0" encoding="iso-8859-1"?>
<!-- Generator: Adobe Illustrator 19.0.0, SVG Export Plug-In . SVG Version: 6.00 Build 0)  -->
<svg version="1.1" id="Layer_1" xmlns="http://www.w3.org/2000/svg" xmlns:xlink="http://www.w3.org/1999/xlink" x="0px" y="0px"
	 viewBox="0 0 481.882 481.882" style="enable-background:new 0 0 481.882 481.882;" xml:space="preserve">
<path style="fill:#FFFFFF;" d="M60.235,28.913C60.235,12.943,73.178,0,89.148,0h212.028l120.471,101.188v351.782
	c0,15.97-12.943,28.913-28.913,28.913H89.148c-15.97,0-28.913-12.943-28.913-28.913V28.913z"/>
<path style="fill:#C5EB98;" d="M301.176,0v72.282c0,15.97,12.943,28.913,28.913,28.913h91.558"/>
<g>
	<path style="fill:#00C250;" d="M314.029,343.469c-3.923,0-7.831-1.559-10.707-4.661c-5.496-5.903-5.165-15.149,0.745-20.646
		l36.156-33.649l-35.998-32.497c-5.986-5.414-6.453-14.66-1.047-20.646s14.645-6.453,20.638-1.062l47.834,43.189
		c3.042,2.748,4.796,6.633,4.826,10.737s-1.664,8.011-4.661,10.812l-47.842,44.514C321.16,342.174,317.591,343.469,314.029,343.469z
		"/>
	<path style="fill:#00C250;" d="M167.853,343.469c-3.561,0-7.138-1.295-9.954-3.923l-47.834-44.499
		c-2.997-2.801-4.683-6.709-4.653-10.812s1.777-7.989,4.819-10.737l47.834-43.189c6.001-5.399,15.24-4.924,20.646,1.062
		c5.406,5.986,4.939,15.232-1.054,20.646l-35.998,32.497l36.164,33.649c5.911,5.496,6.249,14.743,0.745,20.646
		C175.684,341.911,171.768,343.469,167.853,343.469z"/>
	<path style="fill:#00C250;" d="M211.704,372.706c-1.815,0-3.644-0.339-5.429-1.047c-7.499-2.997-11.136-11.497-8.139-18.997
		l58.466-146.161c2.997-7.492,11.497-11.121,18.982-8.147c7.514,3.004,11.144,11.505,8.147,19.004L225.28,363.512
		C222.991,369.227,217.502,372.706,211.704,372.706z"/>
</g>
<g>
</g>
<g>
</g>
<g>
</g>
<g>
</g>
<g>
</g>
<g>
</g>
<g>
</g>
<g>
</g>
<g>
</g>
<g>
</g>
<g>
</g>
<g>
</g>
<g>
</g>
<g>
</g>
<g>
</g>
</svg>
