<?xml version="1.0" encoding="iso-8859-1"?>
<!-- Generator: Adobe Illustrator 19.0.0, SVG Export Plug-In . SVG Version: 6.00 Build 0)  -->
<svg version="1.1" id="Layer_1" xmlns="http://www.w3.org/2000/svg" xmlns:xlink="http://www.w3.org/1999/xlink" x="0px" y="0px"
	 viewBox="0 0 481.882 481.882" style="enable-background:new 0 0 481.882 481.882;" xml:space="preserve">
<path style="fill:#FFFFFF;" d="M421.647,22.588c33.28,0,60.235,26.955,60.235,60.235v271.059c0,33.28-26.955,60.235-60.235,60.235
	H60.235C26.955,414.118,0,387.162,0,353.882V82.824c0-33.28,26.955-60.235,60.235-60.235H421.647z"/>
<path style="fill:#003B15;" d="M201.352,370.394l-81.303,81.31c-10.127,10.12-26.519,10.12-36.646,0
	c-10.12-10.135-10.12-26.519,0-36.646l81.483-81.483C173.914,348.604,186.413,361.254,201.352,370.394z"/>
<path style="fill:#006E31;" d="M180.646,353.867l-97.513,97.513c-9.848-10.12-9.758-26.285,0.226-36.322l81.528-81.528
	C169.329,340.894,174.645,347.738,180.646,353.867z"/>
<path style="fill:#FFFFFF;" d="M259.012,386.04c-60.205,0-109.176-48.971-109.176-109.176c0-60.198,48.979-109.176,109.176-109.176
	c60.19,0,109.176,48.979,109.176,109.176C368.188,337.077,319.217,386.04,259.012,386.04z"/>
<path style="fill:#C5EB98;" d="M259.012,167.612c60.326,0,109.267,48.941,109.267,109.274c0,60.326-48.941,109.267-109.267,109.267
	c-60.552,0-109.267-49.416-109.267-109.267C149.752,216.553,198.694,167.612,259.012,167.612 M259.012,152.636
	c-68.51,0-124.235,55.725-124.235,124.235s55.733,124.235,124.235,124.235s124.235-55.725,124.235-124.235
	C383.247,208.369,327.514,152.636,259.012,152.636L259.012,152.636z"/>
<circle style="fill:#00C250;" cx="259.012" cy="276.872" r="87.032"/>
<path style="fill:#00E676;" d="M259.012,189.847c-48.06,0-87.04,38.965-87.04,87.04c0,23.778,9.57,45.312,25.02,61.018
	l123.023-123.023C304.324,199.409,282.797,189.847,259.012,189.847z"/>
<path style="fill:#003B15;" d="M421.647,22.588H60.235C26.97,22.588,0,49.559,0,82.824v30.118h481.882V82.824
	C481.882,49.559,454.912,22.588,421.647,22.588z"/>
<g>
	<circle style="fill:#00E676;" cx="67.765" cy="67.765" r="15.059"/>
	<circle style="fill:#00E676;" cx="128" cy="67.765" r="15.059"/>
	<circle style="fill:#00E676;" cx="188.235" cy="67.765" r="15.059"/>
</g>
<g>
</g>
<g>
</g>
<g>
</g>
<g>
</g>
<g>
</g>
<g>
</g>
<g>
</g>
<g>
</g>
<g>
</g>
<g>
</g>
<g>
</g>
<g>
</g>
<g>
</g>
<g>
</g>
<g>
</g>
</svg>
