<?xml version="1.0" encoding="iso-8859-1"?>
<!-- Generator: Adobe Illustrator 19.0.0, SVG Export Plug-In . SVG Version: 6.00 Build 0)  -->
<svg version="1.1" id="Layer_1" xmlns="http://www.w3.org/2000/svg" xmlns:xlink="http://www.w3.org/1999/xlink" x="0px" y="0px"
	 viewBox="0 0 481.882 481.882" style="enable-background:new 0 0 481.882 481.882;" xml:space="preserve">
<path style="fill:#00A344;" d="M271.059,15.059h-30.118h-30.118C94.389,15.059,0,109.448,0,225.882v60.235
	c0,66.537,53.941,120.471,120.471,120.471h120.471h120.471c66.53,0,120.471-53.933,120.471-120.471v-60.235
	C481.882,109.448,387.494,15.059,271.059,15.059z"/>
<path style="fill:#00C250;" d="M210.824,15.059C94.389,15.059,0,109.448,0,225.882v60.235c0,66.53,53.941,120.471,120.471,120.471
	h120.471V15.059H210.824z"/>
<path style="fill:#C5EB98;" d="M90.353,346.353c60.235-82.824,240.941-82.824,301.176,0v60.235c0,33.265-26.97,60.235-60.235,60.235
	H150.588c-33.265,0-60.235-26.97-60.235-60.235V346.353z"/>
<path style="fill:#ECF5E1;" d="M90.353,346.353v60.235c0,33.265,26.97,60.235,60.235,60.235h90.353V284.235
	C180.706,284.235,120.471,304.941,90.353,346.353z"/>
<g>
	<path style="fill:#003B15;" d="M286.118,346.353c0-8.312,6.746-15.059,15.059-15.059s15.059,6.746,15.059,15.059v67.765
		c0,8.312-6.746,15.059-15.059,15.059s-15.059-6.746-15.059-15.059V346.353z"/>
	<path style="fill:#003B15;" d="M165.647,346.353c0-8.312,6.746-15.059,15.059-15.059s15.059,6.746,15.059,15.059v67.765
		c0,8.312-6.746,15.059-15.059,15.059s-15.059-6.746-15.059-15.059V346.353z"/>
</g>
<g>
	<path style="fill:#FFFFFF;" d="M412.032,69.15c-33.077-29.756-75.603-49.167-122.519-53.233
		c-6.897,10.594-10.925,23.213-10.925,36.789c0,37.429,30.336,67.765,67.765,67.765C378.097,120.471,404.668,98.613,412.032,69.15z"
		/>
	<path style="fill:#FFFFFF;" d="M399.059,218.353c0,37.429,30.336,67.765,67.765,67.765c5.18,0,10.202-0.632,15.059-1.732v-58.504
		c0-26.511-4.939-51.863-13.877-75.234c-0.399-0.008-0.783-0.06-1.182-0.06C429.395,150.588,399.059,180.924,399.059,218.353z"/>
	<path style="fill:#FFFFFF;" d="M69.85,69.15c33.077-29.756,75.603-49.167,122.526-53.233c6.889,10.594,10.918,23.213,10.918,36.789
		c0,37.429-30.336,67.765-67.765,67.765C103.778,120.471,77.214,98.613,69.85,69.15z"/>
	<path style="fill:#FFFFFF;" d="M82.824,218.353c0,37.429-30.336,67.765-67.765,67.765c-5.18,0-10.202-0.632-15.059-1.732v-58.504
		c0-26.511,4.939-51.863,13.877-75.234c0.399-0.008,0.783-0.06,1.182-0.06C52.488,150.588,82.824,180.924,82.824,218.353z"/>
	<path style="fill:#FFFFFF;" d="M331.234,301.335c4.887-11.625,7.59-24.403,7.59-37.805c0-54.061-43.821-97.882-97.882-97.882
		s-97.882,43.821-97.882,97.882c0,13.402,2.703,26.18,7.59,37.805C205.094,278.611,276.789,278.611,331.234,301.335z"/>
	<ellipse style="fill:#FFFFFF;" cx="180.706" cy="353.882" rx="7.529" ry="15.059"/>
	<ellipse style="fill:#FFFFFF;" cx="301.176" cy="353.882" rx="7.529" ry="15.059"/>
</g>
<g>
</g>
<g>
</g>
<g>
</g>
<g>
</g>
<g>
</g>
<g>
</g>
<g>
</g>
<g>
</g>
<g>
</g>
<g>
</g>
<g>
</g>
<g>
</g>
<g>
</g>
<g>
</g>
<g>
</g>
</svg>
