<?xml version="1.0" encoding="iso-8859-1"?>
<!-- Generator: Adobe Illustrator 19.0.0, SVG Export Plug-In . SVG Version: 6.00 Build 0)  -->
<svg version="1.1" id="Layer_1" xmlns="http://www.w3.org/2000/svg" xmlns:xlink="http://www.w3.org/1999/xlink" x="0px" y="0px"
	 viewBox="0 0 481.882 481.882" style="enable-background:new 0 0 481.882 481.882;" xml:space="preserve">
<path style="fill:#FFFFFF;" d="M421.647,45.176c33.28,0,60.235,26.955,60.235,60.235v271.059c0,33.28-26.955,60.235-60.235,60.235
	H60.235C26.955,436.706,0,409.751,0,376.471V105.412c0-33.28,26.955-60.235,60.235-60.235H421.647z"/>
<path style="fill:#3BEC96;" d="M237.176,372.706c-73.133,0-130.447-77.636-132.856-80.926l-4.111-5.662l4.119-5.662
	c2.402-3.29,59.716-80.926,132.849-80.926s130.447,77.636,132.856,80.926l4.111,5.662l-4.119,5.662
	C367.624,295.07,310.31,372.706,237.176,372.706z M124.356,286.11c14.155,17.152,60.085,67.343,112.821,67.343
	c52.864,0,98.688-50.176,112.821-67.328c-14.163-17.137-60.085-67.351-112.821-67.351
	C184.312,218.775,138.481,268.958,124.356,286.11z"/>
<path style="fill:#003B15;" d="M421.647,45.176H60.235C26.97,45.176,0,72.147,0,105.412v30.118h481.882v-30.118
	C481.882,72.147,454.912,45.176,421.647,45.176z"/>
<g>
	<circle style="fill:#00E676;" cx="67.765" cy="90.353" r="15.059"/>
	<circle style="fill:#00E676;" cx="128" cy="90.353" r="15.059"/>
	<circle style="fill:#00E676;" cx="188.235" cy="90.353" r="15.059"/>
	<path style="fill:#00E676;" d="M247.032,243.087c-5.594,19.644-23.484,34.131-44.936,34.131c-3.343,0-6.596-0.384-9.743-1.047
		c-1.167,4.088-1.988,8.312-1.988,12.77c0,25.901,21,46.901,46.908,46.901c25.901,0,46.908-21,46.908-46.901
		C284.19,266.391,268.25,247.575,247.032,243.087z"/>
</g>
<g>
</g>
<g>
</g>
<g>
</g>
<g>
</g>
<g>
</g>
<g>
</g>
<g>
</g>
<g>
</g>
<g>
</g>
<g>
</g>
<g>
</g>
<g>
</g>
<g>
</g>
<g>
</g>
<g>
</g>
</svg>
