<?xml version="1.0" encoding="iso-8859-1"?>
<!-- Generator: Adobe Illustrator 19.0.0, SVG Export Plug-In . SVG Version: 6.00 Build 0)  -->
<svg version="1.1" id="Layer_1" xmlns="http://www.w3.org/2000/svg" xmlns:xlink="http://www.w3.org/1999/xlink" x="0px" y="0px"
	 viewBox="0 0 481.882 481.882" style="enable-background:new 0 0 481.882 481.882;" xml:space="preserve">
<circle style="fill:#ECF5E1;" cx="240.941" cy="240.941" r="240.941"/>
<path style="fill:#FFFFFF;" d="M0.023,240.941c0,133.067,107.874,240.941,240.941,240.941V0C107.896,0,0.023,107.874,0.023,240.941z
	"/>
<path style="fill:#00C250;" d="M211.825,155.407c-35.614,12.122-61.214,45.854-61.214,85.534H60.258
	c0-74.165,44.951-138.089,109.018-165.873L211.825,155.407z"/>
<path style="fill:#00E676;" d="M421.67,240.941h-90.353c0-49.845-40.508-90.353-90.353-90.353c-10.172,0-20.028,1.656-29.139,4.819
	l-42.541-80.339c21.978-9.562,46.231-14.833,71.68-14.833C340.57,60.235,421.67,141.327,421.67,240.941z"/>
<path style="fill:#003B15;" d="M265.05,259.012c-9.976,13.312-28.853,16-42.165,6.024c-13.312-9.976-16-28.853-6.024-42.165
	c9.976-13.304,105.412-90.353,105.412-90.353S275.027,245.707,265.05,259.012z"/>
<g>
	<path style="fill:#56C435;" d="M248.493,429.176c0,4.141-3.388,7.529-7.529,7.529l0,0c-4.141,0-7.529-3.388-7.529-7.529V384
		c0-4.141,3.388-7.529,7.529-7.529l0,0c4.141,0,7.529,3.388,7.529,7.529V429.176z"/>
	<path style="fill:#56C435;" d="M391.552,316.235c4.141,0,7.529,3.388,7.529,7.529l0,0c0,4.141-3.388,7.529-7.529,7.529h-45.176
		c-4.141,0-7.529-3.388-7.529-7.529l0,0c0-4.141,3.388-7.529,7.529-7.529H391.552z"/>
	<path style="fill:#56C435;" d="M82.846,316.235c-4.141,0-7.529,3.388-7.529,7.529l0,0c0,4.141,3.388,7.529,7.529,7.529h45.176
		c4.141,0,7.529-3.388,7.529-7.529l0,0c0-4.141-3.388-7.529-7.529-7.529H82.846z"/>
	<path style="fill:#56C435;" d="M137.924,398.592c-2.342,3.426-1.446,8.132,1.973,10.466l0,0c3.418,2.334,8.132,1.446,10.466-1.98
		l25.48-37.308c2.342-3.411,1.446-8.132-1.973-10.466l0,0c-3.418-2.334-8.124-1.446-10.466,1.98L137.924,398.592z"/>
	<path style="fill:#56C435;" d="M344.004,398.592c2.342,3.426,1.438,8.132-1.98,10.466l0,0c-3.418,2.334-8.124,1.446-10.466-1.98
		l-25.487-37.308c-2.342-3.411-1.438-8.132,1.98-10.466l0,0c3.418-2.334,8.132-1.446,10.466,1.98L344.004,398.592z"/>
</g>
<g>
</g>
<g>
</g>
<g>
</g>
<g>
</g>
<g>
</g>
<g>
</g>
<g>
</g>
<g>
</g>
<g>
</g>
<g>
</g>
<g>
</g>
<g>
</g>
<g>
</g>
<g>
</g>
<g>
</g>
</svg>
