<svg viewBox="0 0 512 512" xmlns="http://www.w3.org/2000/svg"><path d="m512 256c0 141.386719-114.613281 256-256 256s-256-114.613281-256-256 114.613281-256 256-256 256 114.613281 256 256zm0 0" fill="#9543ff"/><path d="m512 256c0-11.808594-.816406-23.425781-2.363281-34.808594l-87.023438-87.019531-333.226562 220.886719 156.734375 156.734375c3.277344.125 6.570312.207031 9.878906.207031 141.386719 0 256-114.613281 256-256zm0 0" fill="#7c00ff"/><path d="m94.386719 139.171875h323.226562v210.886719h-323.226562zm0 0" fill="#414952"/><path d="m255.605469 139.171875h162.007812v210.886719h-162.007812zm0 0" fill="#23272b"/><path d="m422.613281 355.058594h-333.226562v-220.886719h333.226562zm-323.226562-10h313.226562v-200.886719h-313.226562zm0 0" fill="#2d2d2d"/><path d="m422.613281 134.171875h-167.007812v10h157.007812v200.886719h-157.007812v10h167.007812zm0 0" fill="#1e1d1e"/><path d="m235.5 350.058594h41v34.769531h-41zm0 0" fill="#2d2d2d"/><path d="m255.605469 350.058594h20.894531v34.769531h-20.894531zm0 0" fill="#1e1d1e"/><path d="m152.777344 373.328125h206.445312v23h-206.445312zm0 0" fill="#2d2d2d"/><path d="m255.605469 373.328125h103.617187v23h-103.617187zm0 0" fill="#1e1d1e"/><path d="m256 310.242188c-18.996094 0-37.988281-7.230469-52.449219-21.691407-28.921875-28.917969-28.921875-75.976562 0-104.898437l19.796875 19.796875c-18.003906 18.003906-18.003906 47.300781 0 65.304687s47.300782 18.003906 65.304688 0 18.003906-47.296875 0-65.300781l19.796875-19.800781c28.921875 28.921875 28.921875 75.980468 0 104.902344-14.460938 14.457031-33.453125 21.6875-52.449219 21.6875zm0 0" fill="#fff"/><path d="m308.449219 183.652344-19.796875 19.796875c18.003906 18.003906 18.003906 47.296875 0 65.304687-9.101563 9.101563-21.089844 13.59375-33.046875 13.492188v27.984375c.132812 0 .261719.011719.394531.011719 18.996094 0 37.988281-7.230469 52.449219-21.691407 28.921875-28.921875 28.921875-75.980469 0-104.898437zm0 0" fill="#dce1eb"/><path d="m242 167.667969h28v62.332031h-28zm0 0" fill="#fff"/><path d="m255.605469 167.667969h14.394531v62.332031h-14.394531zm0 0" fill="#dce1eb"/></svg>