<?xml version="1.0" encoding="iso-8859-1"?>
<!-- Generator: Adobe Illustrator 19.0.0, SVG Export Plug-In . SVG Version: 6.00 Build 0)  -->
<svg version="1.1" id="Layer_1" xmlns="http://www.w3.org/2000/svg" xmlns:xlink="http://www.w3.org/1999/xlink" x="0px" y="0px"
	 viewBox="0 0 481.882 481.882" style="enable-background:new 0 0 481.882 481.882;" xml:space="preserve">
<rect x="30.118" y="60.235" style="fill:#FFFFFF;" width="421.647" height="346.353"/>
<g>
	<path style="fill:#003B15;" d="M481.882,421.647c0,8.282-6.776,15.059-15.059,15.059H15.059C6.776,436.706,0,429.929,0,421.647l0,0
		c0-8.282,6.776-15.059,15.059-15.059h451.765C475.106,406.588,481.882,413.365,481.882,421.647L481.882,421.647z"/>
	<path style="fill:#003B15;" d="M481.882,45.176c0,8.312-6.746,15.059-15.059,15.059H15.059C6.746,60.235,0,53.489,0,45.176V30.118
		h481.882V45.176z"/>
</g>
<path style="fill:#006E31;" d="M481.882,30.118H0V15.059C0,6.746,6.746,0,15.059,0h451.765c8.312,0,15.059,6.746,15.059,15.059
	V30.118z"/>
<circle style="fill:#C5EB98;" cx="165.504" cy="225.882" r="90.353"/>
<path style="fill:#006E31;" d="M255.849,225.882c0,49.92-40.433,90.353-90.353,90.353c-37.948,0-70.408-23.341-83.802-56.471
	l166.927-69.496C253.312,201.186,255.849,213.233,255.849,225.882z"/>
<path style="fill:#00A344;" d="M256,225.92c0,31.842-16.489,59.859-41.412,75.979l-48.866-77.018l83.042-34.56
	C253.44,201.224,256,213.271,256,225.92z"/>
<g>
	<path style="fill:#00E676;" d="M248.772,190.268l-83.125,34.635v-89.374C203.294,135.529,234.918,158.118,248.772,190.268z"/>
	<circle style="fill:#00E676;" cx="293.647" cy="301.176" r="15.059"/>
</g>
<rect x="338.824" y="293.647" style="fill:#C5EB98;" width="60.235" height="15.059"/>
<circle style="fill:#00E676;" cx="293.647" cy="225.882" r="15.059"/>
<rect x="338.824" y="218.353" style="fill:#C5EB98;" width="60.235" height="15.059"/>
<circle style="fill:#00E676;" cx="293.647" cy="150.588" r="15.059"/>
<rect x="338.824" y="143.059" style="fill:#C5EB98;" width="60.235" height="15.059"/>
<path style="fill:#FFFFFF;" d="M240.941,481.882c-14.042,0-27.294-3.674-37.323-10.368c-12.348-8.237-19.147-20.585-19.147-34.809
	h22.588c0,17.867,22.159,22.588,33.882,22.588s33.882-4.721,33.882-22.588h22.588C297.412,466.357,269.003,481.882,240.941,481.882z
	"/>
<g>
</g>
<g>
</g>
<g>
</g>
<g>
</g>
<g>
</g>
<g>
</g>
<g>
</g>
<g>
</g>
<g>
</g>
<g>
</g>
<g>
</g>
<g>
</g>
<g>
</g>
<g>
</g>
<g>
</g>
</svg>
