<?xml version="1.0" encoding="iso-8859-1"?>
<!-- Generator: Adobe Illustrator 19.0.0, SVG Export Plug-In . SVG Version: 6.00 Build 0)  -->
<svg version="1.1" id="Layer_1" xmlns="http://www.w3.org/2000/svg" xmlns:xlink="http://www.w3.org/1999/xlink" x="0px" y="0px"
	 viewBox="0 0 481.882 481.882" style="enable-background:new 0 0 481.882 481.882;" xml:space="preserve">
<polygon style="fill:#006E31;" points="301.176,173.176 165.647,188.235 30.118,278.588 30.118,451.765 466.824,451.765 
	466.824,15.059 "/>
<polygon style="fill:#00C250;" points="301.176,173.176 165.647,188.235 30.118,278.588 30.118,323.765 158.118,271.059 
	308.706,271.059 466.824,165.647 466.824,15.059 "/>
<path style="fill:#C5EB98;" d="M466.824,451.765H30.118V15.059C30.118,6.746,23.371,0,15.059,0S0,6.746,0,15.059v466.824h466.824
	c8.312,0,15.059-6.746,15.059-15.059C481.882,458.511,475.136,451.765,466.824,451.765z"/>
<polygon style="fill:#ECF5E1;" points="308.706,271.059 158.118,271.059 30.118,323.765 30.118,406.588 165.647,353.882 
	308.706,368.941 466.824,286.118 466.824,165.647 "/>
<g>
</g>
<g>
</g>
<g>
</g>
<g>
</g>
<g>
</g>
<g>
</g>
<g>
</g>
<g>
</g>
<g>
</g>
<g>
</g>
<g>
</g>
<g>
</g>
<g>
</g>
<g>
</g>
<g>
</g>
</svg>
