<?xml version="1.0" encoding="iso-8859-1"?>
<!-- Generator: Adobe Illustrator 21.0.0, SVG Export Plug-In . SVG Version: 6.00 Build 0)  -->
<svg xmlns="http://www.w3.org/2000/svg" xmlns:xlink="http://www.w3.org/1999/xlink" version="1.1" id="Capa_1" x="0px" y="0px" viewBox="0 0 512 512" style="enable-background:new 0 0 512 512;" xml:space="preserve" width="512" height="512">
<g>
	<g>
		<circle style="fill:#68FCDF;" cx="256" cy="256" r="256"/>
		<path style="fill:#10E2C4;" d="M512,256c0,141.38-114.62,256-256,256S0,397.38,0,256c0-46.22,12.25-89.57,33.68-127    C77.8,206.07,160.84,258,256,258s178.21-51.93,222.32-129C499.75,166.43,512,209.78,512,256z"/>
	</g>
	<g>
		<g>
			<path style="fill:#FFFFFF;" d="M457.345,377.7l-16.949,29.363c-1.647,0.039-2.106,0.046-3.753,0.084l-9.504-14.927h-3.707     l-9.596,15.072h-3.707l-9.604-15.072h-3.707l-9.596,15.072h-3.707l-9.596-15.072h-3.707l-9.596,15.072h-3.707l-9.604-15.072     h-3.707l-9.596,15.072h-3.707l-9.596-15.072h-3.707l-9.596,15.072h-3.707l-9.596-15.072h-3.707l-11.457,17.975h-63.873v-64.991     h223.533L457.345,377.7z"/>
			<path style="fill:#D0F6FF;" d="M457.345,377.7l-16.949,29.363c-1.647,0.039-2.106,0.046-3.753,0.084l-9.504-14.927h-3.707     l-9.596,15.072h-3.707l-9.604-15.072h-3.707l-9.596,15.072h-3.707l-9.596-15.072h-3.707l-9.596,15.072h-3.707l-9.604-15.072     h-1.869v-47.016h93.152L457.345,377.7z"/>
			<path style="fill:#D0F6FF;" d="M457.345,377.7l-16.949,29.363c-1.647,0.039-2.106,0.046-3.753,0.084l-9.504-14.927h-3.707     l-9.596,15.072h-3.707l-9.604-15.072h-3.707l-9.596,15.072h-3.707l-9.596-15.072h-3.707l-9.596,15.072h-3.707l-9.604-15.072     h-3.707l-9.596,15.072h-3.707l-9.596-15.072h-3.707l-9.596,15.072h-3.707l-9.596-15.072h-3.707l-11.457,17.975h-63.873V377.7     H457.345z"/>
			<polygon style="fill:#474F6F;" points="245.87,331.166 245.87,424.242 165.262,470.776 84.655,424.242 84.655,331.166      165.262,284.624    "/>
			<polygon style="fill:#323B5A;" points="245.87,331.166 245.87,424.242 165.262,470.776 165.262,284.624    "/>
			<polygon style="fill:#323B5A;" points="208.817,352.557 208.817,402.851 165.262,427.994 121.708,402.851 121.708,352.557      165.262,327.406    "/>
			<polygon style="fill:#20273A;" points="208.817,352.557 208.817,402.851 165.262,427.994 165.262,327.406    "/>
			<path style="fill:#8FC9F7;" d="M457.345,377.7l-16.949,29.363c-1.647,0.039-2.106,0.046-3.753,0.084l-9.504-14.927h-3.707     l-9.596,15.072h-3.707l-9.604-15.072h-3.707l-9.596,15.072h-3.707l-9.596-15.072h-3.707l-9.596,15.072h-3.707l-9.604-15.072     h-1.869V377.7H457.345z"/>
		</g>
		<g>
			<path style="fill:#FFFFFF;" d="M418.779,207.634v36.769c0,10.355-8.394,18.749-18.746,18.749H111.971     c-10.355,0-18.749-8.394-18.749-18.749v-36.769c0-10.355,8.394-18.749,18.749-18.749h288.062     C410.385,188.885,418.779,197.279,418.779,207.634z"/>
			<path style="fill:#D0F6FF;" d="M418.779,207.634v36.769c0,10.355-8.394,18.749-18.746,18.749H256v-74.268h144.032     C410.385,188.885,418.779,197.279,418.779,207.634z"/>
			<g>
				<path style="fill:#474F6F;" d="M136.892,207.635l-0.205,9.013l7.681-4.609l5.633,9.729l-8.091,4.199l8.091,4.404l-5.633,9.832      l-7.784-4.814l0.307,9.013h-11.266l0.307-9.115l-7.783,4.711l-5.633-9.627l7.989-4.404l-7.989-4.199l5.633-9.934l7.681,4.813      l-0.205-9.013H136.892z"/>
				<path style="fill:#474F6F;" d="M178.472,207.635l-0.205,9.013l7.681-4.609l5.633,9.729l-8.091,4.199l8.091,4.404l-5.633,9.832      l-7.784-4.814l0.307,9.013h-11.266l0.307-9.115l-7.783,4.711l-5.633-9.627l7.989-4.404l-7.989-4.199l5.633-9.934l7.681,4.813      l-0.205-9.013H178.472z"/>
				<path style="fill:#474F6F;" d="M220.053,207.635l-0.205,9.013l7.681-4.609l5.633,9.729l-8.091,4.199l8.091,4.404l-5.633,9.832      l-7.784-4.814l0.307,9.013h-11.266l0.307-9.115l-7.783,4.711l-5.633-9.627l7.988-4.404l-7.988-4.199l5.633-9.934l7.681,4.813      l-0.205-9.013H220.053z"/>
				<path style="fill:#474F6F;" d="M274.744,221.769l-5.635-9.73l-7.681,4.609l0.204-9.014h-11.264l0.204,9.014l-7.681-4.813      l-5.632,9.934l7.988,4.198l-7.988,4.405l5.632,9.626l7.784-4.71l-0.307,9.115h11.264l-0.305-9.014l7.782,4.816l5.635-9.833      l-8.092-4.405L274.744,221.769z"/>
				<path style="fill:#323B5A;" d="M303.214,207.635l-0.205,9.013l7.681-4.609l5.633,9.729l-8.091,4.199l8.091,4.404l-5.633,9.832      l-7.784-4.814l0.307,9.013h-11.266l0.307-9.115l-7.783,4.711l-5.633-9.627l7.989-4.404l-7.989-4.199l5.633-9.934l7.681,4.813      l-0.205-9.013H303.214z"/>
				<path style="fill:#323B5A;" d="M344.794,207.635l-0.205,9.013l7.681-4.609l5.633,9.729l-8.091,4.199l8.091,4.404l-5.633,9.832      l-7.784-4.814l0.307,9.013h-11.266l0.307-9.115l-7.783,4.711l-5.633-9.627l7.989-4.404l-7.989-4.199l5.633-9.934l7.681,4.813      l-0.205-9.013H344.794z"/>
				<path style="fill:#323B5A;" d="M386.375,207.635l-0.205,9.013l7.681-4.609l5.633,9.729l-8.091,4.199l8.091,4.404l-5.633,9.832      l-7.784-4.814l0.307,9.013H375.11l0.307-9.115l-7.783,4.711L362,230.372l7.988-4.404L362,221.769l5.633-9.934l7.681,4.813      l-0.205-9.013H386.375z"/>
			</g>
		</g>
		<g>
			<path style="fill:#474F6F;" d="M216.974,142.884c0,9.045-5.584,14.261-15.266,14.261h-5.164v9.682h-12.342v-37.295h17.506     C211.39,129.533,216.974,134.372,216.974,142.884z M205.268,143.257c0-2.764-1.542-4.362-4.202-4.362h-4.523v8.885h4.523     C203.726,147.78,205.268,146.133,205.268,143.257z"/>
			<path style="fill:#474F6F;" d="M242.901,161.56h-13.993l-1.915,5.268h-12.663l15.747-37.295h12.663l15.167,37.295h-13.144     L242.901,161.56z M239.869,152.727l-3.83-10.904l-3.938,10.904H239.869z"/>
			<path style="fill:#474F6F;" d="M275.166,138.418c-1.382,0-2.287,0.425-2.287,1.542c0,4.683,19.312,1.754,19.312,15.271     c0,8.3-7.291,11.97-15.695,11.97c-6.489,0-13.728-2.183-18.676-5.961l4.575-9.253c3.834,3.188,10.432,5.796,14.209,5.796     c1.806,0,2.976-0.585,2.976-1.915c0-4.843-19.312-1.651-19.312-14.738c0-7.447,6.277-12.13,15.964-12.13     c5.905,0,12.022,1.754,16.224,4.414l-4.466,9.366C284.212,140.705,278.411,138.418,275.166,138.418z"/>
			<path style="fill:#474F6F;" d="M310.512,138.418c-1.382,0-2.287,0.425-2.287,1.542c0,4.683,19.312,1.754,19.312,15.271     c0,8.3-7.291,11.97-15.695,11.97c-6.489,0-13.728-2.183-18.676-5.961l4.575-9.253c3.834,3.188,10.432,5.796,14.209,5.796     c1.806,0,2.976-0.585,2.976-1.915c0-4.843-19.312-1.651-19.312-14.738c0-7.447,6.277-12.13,15.964-12.13     c5.905,0,12.022,1.754,16.224,4.414l-4.466,9.366C319.557,140.705,313.757,138.418,310.512,138.418z"/>
		</g>
	</g>
</g>















</svg>
