<?xml version="1.0" encoding="iso-8859-1"?>
<!-- Generator: Adobe Illustrator 21.0.0, SVG Export Plug-In . SVG Version: 6.00 Build 0)  -->
<svg xmlns="http://www.w3.org/2000/svg" xmlns:xlink="http://www.w3.org/1999/xlink" version="1.1" id="Capa_1" x="0px" y="0px" viewBox="0 0 512 512" style="enable-background:new 0 0 512 512;" xml:space="preserve" width="512" height="512">
<g>
	<g>
		<circle style="fill:#65B2FF;" cx="256" cy="256" r="256"/>
		<path style="fill:#0F9BE8;" d="M512,256c0,141.38-114.62,256-256,256S0,397.38,0,256c0-46.22,12.25-89.57,33.68-127    C77.8,206.07,160.84,258,256,258s178.21-51.93,222.32-129C499.75,166.43,512,209.78,512,256z"/>
		<path style="fill:#0066E8;" d="M481.26,377.7v0.01C437.97,457.68,353.32,512,256,512S74.03,457.68,30.74,377.71v-0.01H481.26z"/>
	</g>
	<g>
		<path style="fill:#D0F6FF;" d="M108.671,192.959v37.152H97.23v-37.152c0-11.624-9.453-21.08-21.08-21.083h-0.003    c-11.624,0-21.077,9.459-21.077,21.083v37.152H43.629v-37.152c0-17.934,14.587-32.524,32.518-32.524h0.003    C94.084,160.438,108.671,175.025,108.671,192.959z"/>
		<path style="fill:#8FC9F7;" d="M108.671,192.959v37.152H97.23v-37.152c0-11.624-9.453-21.08-21.08-21.083v-11.441    C94.084,160.438,108.671,175.025,108.671,192.959z"/>
		<path style="fill:#8FC9F7;" d="M102.951,192.959v37.152h-5.72v-37.152c0-11.624-9.453-21.08-21.08-21.083h-0.003    c-11.624,0-21.077,9.459-21.077,21.083v37.152h-5.72v-37.152c0-14.805,11.996-26.803,26.798-26.803h0.003    C90.958,166.158,102.951,178.154,102.951,192.959z"/>
		<path style="fill:#65B2FF;" d="M102.951,192.959v37.152h-5.72v-37.152c0-11.624-9.453-21.08-21.08-21.083v-5.721    C90.958,166.158,102.951,178.154,102.951,192.959z"/>
		<g>
			<path style="fill:#FFD112;" d="M122.515,234.638v26.706c0,9.153-7.42,16.572-16.572,16.572H46.358     c-9.153,0-16.572-7.419-16.572-16.572v-26.706c0-15.3,12.402-27.704,27.704-27.704h37.321     C110.113,206.934,122.515,219.339,122.515,234.638z"/>
			<path style="fill:#FF9F00;" d="M122.515,234.638v26.706c0,9.153-7.42,16.572-16.572,16.572H76.15v-70.983h18.66     C110.113,206.934,122.515,219.339,122.515,234.638z"/>
			<path style="fill:#FF9F00;" d="M122.515,234.638v26.706c0,9.153-7.42,16.572-16.572,16.572H76.15v-70.983h18.66     C110.113,206.934,122.515,219.339,122.515,234.638z"/>
		</g>
		<path style="fill:#474F6F;" d="M80.695,246.591l2.288,8.152H69.317l2.288-8.152c-2.589-1.547-4.322-4.379-4.322-7.614    c0-4.897,3.97-8.867,8.867-8.867c4.897,0,8.867,3.97,8.867,8.867C85.017,242.212,83.284,245.044,80.695,246.591z"/>
		<path style="fill:#323B5A;" d="M80.695,246.591l2.288,8.152H76.15v-24.632c4.897,0,8.867,3.97,8.867,8.867    C85.017,242.212,83.284,245.044,80.695,246.591z"/>
		<path style="fill:#FFFFFF;" d="M482.214,180.145v78.062c0,10.886-8.824,19.71-19.707,19.71H159.684    c-10.886,0-19.71-8.824-19.71-19.71v-78.062c0-10.886,8.824-19.71,19.71-19.71h302.823    C473.39,160.435,482.214,169.259,482.214,180.145z"/>
		<path style="fill:#D0F6FF;" d="M482.214,180.145v78.062c0,10.886-8.824,19.71-19.707,19.71H311.094V160.435h151.413    C473.39,160.435,482.214,169.259,482.214,180.145z"/>
		<g>
			<path style="fill:#474F6F;" d="M185.882,200.834l-0.215,9.474l8.075-4.845l5.921,10.228l-8.505,4.414l8.505,4.63l-5.921,10.336     l-8.183-5.06l0.323,9.474h-11.843l0.323-9.582l-8.182,4.953l-5.922-10.121l8.398-4.63l-8.398-4.414l5.922-10.443l8.075,5.06     l-0.216-9.474H185.882z"/>
			<path style="fill:#474F6F;" d="M229.593,200.834l-0.215,9.474l8.075-4.845l5.921,10.228l-8.505,4.414l8.505,4.63l-5.921,10.336     l-8.183-5.06l0.323,9.474H217.75l0.323-9.582l-8.182,4.953l-5.922-10.121l8.398-4.63l-8.398-4.414l5.922-10.443l8.075,5.06     l-0.216-9.474H229.593z"/>
			<path style="fill:#474F6F;" d="M273.305,200.834l-0.215,9.474l8.075-4.845l5.921,10.228l-8.505,4.414l8.505,4.63l-5.921,10.336     l-8.183-5.06l0.323,9.474h-11.843l0.323-9.582l-8.182,4.953l-5.921-10.121l8.398-4.63l-8.398-4.414l5.921-10.443l8.075,5.06     l-0.215-9.474H273.305z"/>
			<path style="fill:#474F6F;" d="M330.798,215.692l-5.924-10.228l-8.074,4.845l0.215-9.476h-11.841l0.215,9.476l-8.074-5.06     l-5.921,10.443l8.398,4.413l-8.398,4.631l5.921,10.12l8.183-4.951l-0.323,9.582h11.841l-0.32-9.476l8.18,5.063l5.924-10.337     l-8.506-4.631L330.798,215.692z"/>
			<path style="fill:#323B5A;" d="M360.728,200.834l-0.215,9.474l8.075-4.845l5.921,10.228l-8.505,4.414l8.505,4.63l-5.921,10.336     l-8.183-5.06l0.323,9.474h-11.843l0.323-9.582l-8.182,4.953l-5.922-10.121l8.398-4.63l-8.398-4.414l5.922-10.443l8.075,5.06     l-0.216-9.474H360.728z"/>
			<path style="fill:#323B5A;" d="M404.439,200.834l-0.215,9.474l8.075-4.845l5.921,10.228l-8.505,4.414l8.505,4.63l-5.921,10.336     l-8.183-5.06l0.323,9.474h-11.843l0.323-9.582l-8.182,4.953l-5.922-10.121l8.398-4.63l-8.398-4.414l5.922-10.443l8.075,5.06     l-0.216-9.474H404.439z"/>
			<path style="fill:#323B5A;" d="M448.15,200.834l-0.215,9.474l8.075-4.845l5.921,10.228l-8.505,4.414l8.505,4.63l-5.921,10.336     l-8.183-5.06l0.323,9.474h-11.843l0.323-9.582l-8.182,4.953l-5.921-10.121l8.398-4.63l-8.398-4.414l5.921-10.443l8.075,5.06     l-0.215-9.474H448.15z"/>
		</g>
		<polygon style="fill:#323B5A;" points="322.292,220.105 330.798,224.736 324.875,235.073 316.694,230.01 317.015,239.486     311.094,239.486 311.094,200.833 317.015,200.833 316.8,210.309 324.875,205.464 330.798,215.692   "/>
	</g>
	<g>
		<g>
			<path style="fill:#545D7A;" d="M390.6,350.7v123.09C351.49,498.02,305.38,512,256,512c-23.05,0-45.39-3.05-66.64-8.76     c-24.27-6.53-47.11-16.53-67.96-29.45V350.7c0-22.2,18-40.19,40.19-40.19h188.82C372.6,310.51,390.6,328.5,390.6,350.7z"/>
			<path style="fill:#474F6F;" d="M390.6,350.7v123.09C351.49,498.02,305.38,512,256,512c-23.05,0-45.39-3.05-66.64-8.76V310.51     h161.05C372.6,310.51,390.6,328.5,390.6,350.7z"/>
			<path style="fill:#323B5A;" d="M390.6,350.7v123.09C351.49,498.02,305.38,512,256,512V310.51h94.41     C372.6,310.51,390.6,328.5,390.6,350.7z"/>
			<rect x="121.405" y="377.81" style="fill:#474F6F;" width="269.19" height="67.296"/>
			<rect x="189.361" y="377.81" style="fill:#323B5A;" width="201.234" height="67.296"/>
			<rect x="256.004" y="377.81" style="fill:#20273A;" width="134.591" height="67.296"/>
		</g>
		<g>
			<g>
				<ellipse style="fill:#DD1265;" cx="292.866" cy="478.863" rx="10.948" ry="10.952"/>
				<path style="fill:#BA0D5C;" d="M303.816,478.863c0,6.045-4.9,10.952-10.952,10.952v-21.904      C298.916,467.912,303.816,472.819,303.816,478.863z"/>
			</g>
			<g>
				<ellipse style="fill:#FFD112;" cx="323.301" cy="478.863" rx="10.948" ry="10.952"/>
				<path style="fill:#FF9F00;" d="M334.251,478.863c0,6.045-4.9,10.952-10.952,10.952v-21.904      C329.351,467.912,334.251,472.819,334.251,478.863z"/>
			</g>
			<g>
				<ellipse style="fill:#95D600;" cx="354.569" cy="478.863" rx="10.948" ry="10.952"/>
				<path style="fill:#85AF12;" d="M365.519,478.863c0,6.045-4.9,10.952-10.952,10.952v-21.904      C360.619,467.912,365.519,472.819,365.519,478.863z"/>
			</g>
			<rect x="160.314" y="471.393" style="fill:#FFFFFF;" width="58.093" height="14.94"/>
			<rect x="189.361" y="471.393" style="fill:#D0F6FF;" width="29.047" height="14.94"/>
		</g>
		<g>
			<g>
				<ellipse style="fill:#DD1265;" cx="292.866" cy="411.458" rx="10.948" ry="10.952"/>
				<path style="fill:#BA0D5C;" d="M303.816,411.458c0,6.045-4.9,10.952-10.952,10.952v-21.904      C298.916,400.506,303.816,405.413,303.816,411.458z"/>
			</g>
			<g>
				<ellipse style="fill:#FFD112;" cx="323.301" cy="411.458" rx="10.948" ry="10.952"/>
				<path style="fill:#FF9F00;" d="M334.251,411.458c0,6.045-4.9,10.952-10.952,10.952v-21.904      C329.351,400.506,334.251,405.413,334.251,411.458z"/>
			</g>
			<g>
				<ellipse style="fill:#95D600;" cx="354.569" cy="411.458" rx="10.948" ry="10.952"/>
				<path style="fill:#85AF12;" d="M365.519,411.458c0,6.045-4.9,10.952-10.952,10.952v-21.904      C360.619,400.506,365.519,405.413,365.519,411.458z"/>
			</g>
			<rect x="160.314" y="403.988" style="fill:#FFFFFF;" width="58.093" height="14.94"/>
			<rect x="189.361" y="403.988" style="fill:#D0F6FF;" width="29.047" height="14.94"/>
		</g>
		<g>
			<g>
				<ellipse style="fill:#DD1265;" cx="292.866" cy="344.052" rx="10.948" ry="10.952"/>
				<path style="fill:#BA0D5C;" d="M303.816,344.052c0,6.045-4.9,10.952-10.952,10.952V333.1      C298.916,333.1,303.816,338.008,303.816,344.052z"/>
			</g>
			<g>
				<ellipse style="fill:#FFD112;" cx="323.301" cy="344.052" rx="10.948" ry="10.952"/>
				<path style="fill:#FF9F00;" d="M334.251,344.052c0,6.045-4.9,10.952-10.952,10.952V333.1      C329.351,333.1,334.251,338.008,334.251,344.052z"/>
			</g>
			<g>
				<ellipse style="fill:#95D600;" cx="354.569" cy="344.052" rx="10.948" ry="10.952"/>
				<path style="fill:#85AF12;" d="M365.519,344.052c0,6.045-4.9,10.952-10.952,10.952V333.1      C360.619,333.1,365.519,338.008,365.519,344.052z"/>
			</g>
			<rect x="160.314" y="336.582" style="fill:#FFFFFF;" width="58.093" height="14.94"/>
			<rect x="189.361" y="336.582" style="fill:#D0F6FF;" width="29.047" height="14.94"/>
		</g>
	</g>
</g>















</svg>
