<?xml version="1.0" encoding="iso-8859-1"?>
<!-- Generator: Adobe Illustrator 19.0.0, SVG Export Plug-In . SVG Version: 6.00 Build 0)  -->
<svg version="1.1" id="Layer_1" xmlns="http://www.w3.org/2000/svg" xmlns:xlink="http://www.w3.org/1999/xlink" x="0px" y="0px"
	 viewBox="0 0 481.882 481.882" style="enable-background:new 0 0 481.882 481.882;" xml:space="preserve">
<path style="fill:#FFFFFF;" d="M60.235,28.913C60.235,12.943,73.178,0,89.148,0h212.028l120.471,101.188v351.782
	c0,15.97-12.943,28.913-28.913,28.913H89.148c-15.97,0-28.913-12.943-28.913-28.913V28.913z"/>
<g>
	<path style="fill:#C5EB98;" d="M301.176,0v72.282c0,15.97,12.943,28.913,28.913,28.913h91.558"/>
	<path style="fill:#C5EB98;" d="M240.941,299.927c61.914,0,105.058-21.007,105.058-39.868v-20.021
		c-20.134,16.715-58.699,27.55-105.058,27.55s-84.924-10.835-105.058-27.558v20.028C135.883,278.92,179.034,299.927,240.941,299.927
		z"/>
	<path style="fill:#C5EB98;" d="M135.883,340.766v25.946c0,18.861,43.151,39.876,105.058,39.876
		c61.914,0,105.058-21.015,105.058-39.876v-25.946c-20.134,16.723-58.699,27.55-105.058,27.55S156.017,357.489,135.883,340.766z"/>
</g>
<path style="fill:#FFFFFF;" d="M240.941,172.777c-61.907,0-105.05,21.015-105.05,39.876s43.144,39.876,105.05,39.876
	c61.914,0,105.058-21.015,105.058-39.876C345.999,193.792,302.856,172.777,240.941,172.777z"/>
<path style="fill:#C5EB98;" d="M135.883,287.443v25.939c0,18.869,43.144,39.876,105.058,39.876s105.058-21.007,105.058-39.876
	v-25.939c-20.134,16.708-58.699,27.543-105.058,27.543S156.017,304.151,135.883,287.443z"/>
<path style="fill:#56C435;" d="M240.941,157.719c-68.442,0-120.064,23.605-120.102,54.897c0,0.015-0.008,0.023-0.008,0.038v154.059
	c0,31.315,51.629,54.935,120.109,54.935c68.488,0,120.109-23.62,120.109-54.935V212.653
	C361.05,181.338,309.429,157.719,240.941,157.719z M345.992,313.382c0,18.869-43.136,39.876-105.05,39.876
	s-105.05-21.007-105.05-39.876v-25.939c20.126,16.708,58.692,27.543,105.05,27.543c46.351,0,84.924-10.835,105.05-27.543V313.382z
	 M345.992,260.058c0,18.861-43.136,39.868-105.05,39.868s-105.05-21.007-105.05-39.868V240.03
	c20.126,16.708,58.699,27.558,105.05,27.558c46.359,0,84.924-10.835,105.05-27.55V260.058z M240.941,172.777
	c61.914,0,105.05,21.015,105.05,39.876s-43.136,39.876-105.05,39.876c-61.907,0-105.05-21.015-105.05-39.876
	C135.891,193.792,179.034,172.777,240.941,172.777z M240.941,406.588c-61.914,0-105.05-21.015-105.05-39.876v-25.946
	c20.126,16.723,58.692,27.55,105.05,27.55c46.351,0,84.924-10.827,105.05-27.55v25.946
	C345.992,385.574,302.856,406.588,240.941,406.588z"/>
<g>
</g>
<g>
</g>
<g>
</g>
<g>
</g>
<g>
</g>
<g>
</g>
<g>
</g>
<g>
</g>
<g>
</g>
<g>
</g>
<g>
</g>
<g>
</g>
<g>
</g>
<g>
</g>
<g>
</g>
</svg>
