<?xml version="1.0" encoding="iso-8859-1"?>
<!-- Generator: Adobe Illustrator 19.0.0, SVG Export Plug-In . SVG Version: 6.00 Build 0)  -->
<svg version="1.1" id="Layer_1" xmlns="http://www.w3.org/2000/svg" xmlns:xlink="http://www.w3.org/1999/xlink" x="0px" y="0px"
	 viewBox="0 0 481.882 481.882" style="enable-background:new 0 0 481.882 481.882;" xml:space="preserve">
<path style="fill:#FFFFFF;" d="M0,28.913C0,12.943,12.943,0,28.913,0h212.028l120.471,101.188v351.782
	c0,15.97-12.943,28.913-28.913,28.913H28.913C12.943,481.882,0,468.939,0,452.969V28.913z"/>
<path style="fill:#C5EB98;" d="M240.941,0v72.282c0,15.97,12.943,28.913,28.913,28.913h91.558L240.941,0z"/>
<polygon style="fill:#FFFFFF;" points="406.588,139.294 444.235,60.235 481.882,139.294 481.882,429.176 406.588,429.176 "/>
<g>
	<polygon style="fill:#ECF5E1;" points="481.882,180.706 481.882,139.294 444.235,60.235 444.235,180.706 	"/>
	<path style="fill:#ECF5E1;" d="M481.882,459.294c0,12.476-10.12,22.588-22.588,22.588h-30.118
		c-12.469,0-22.588-10.112-22.588-22.588v-15.059h75.294V459.294z"/>
</g>
<g>
	<path style="fill:#C5EB98;" d="M293.647,165.647c0,4.149-3.381,7.529-7.529,7.529H173.176c-4.141,0-7.529-3.381-7.529-7.529l0,0
		c0-4.134,3.388-7.529,7.529-7.529h112.941C290.266,158.118,293.647,161.513,293.647,165.647L293.647,165.647z"/>
	<path style="fill:#C5EB98;" d="M248.471,203.294c0,4.149-3.381,7.529-7.529,7.529h-67.765c-4.141,0-7.529-3.381-7.529-7.529l0,0
		c0-4.134,3.388-7.529,7.529-7.529h67.765C245.09,195.765,248.471,199.16,248.471,203.294L248.471,203.294z"/>
	<path style="fill:#C5EB98;" d="M293.647,263.529c0,4.149-3.381,7.529-7.529,7.529H173.176c-4.141,0-7.529-3.381-7.529-7.529l0,0
		c0-4.134,3.388-7.529,7.529-7.529h112.941C290.266,256,293.647,259.396,293.647,263.529L293.647,263.529z"/>
	<path style="fill:#C5EB98;" d="M248.471,301.176c0,4.149-3.381,7.529-7.529,7.529h-67.765c-4.141,0-7.529-3.381-7.529-7.529l0,0
		c0-4.134,3.388-7.529,7.529-7.529h67.765C245.09,293.647,248.471,297.043,248.471,301.176L248.471,301.176z"/>
	<path style="fill:#C5EB98;" d="M293.647,361.412c0,4.149-3.381,7.529-7.529,7.529H173.176c-4.141,0-7.529-3.381-7.529-7.529l0,0
		c0-4.134,3.388-7.529,7.529-7.529h112.941C290.266,353.882,293.647,357.278,293.647,361.412L293.647,361.412z"/>
	<path style="fill:#C5EB98;" d="M248.471,399.059c0,4.149-3.381,7.529-7.529,7.529h-67.765c-4.141,0-7.529-3.381-7.529-7.529l0,0
		c0-4.134,3.388-7.529,7.529-7.529h67.765C245.09,391.529,248.471,394.925,248.471,399.059L248.471,399.059z"/>
</g>
<g>
	<path style="fill:#00C250;" d="M90.865,218.353l-28.416-28.416c-2.944-2.936-2.944-7.703,0-10.647
		c2.944-2.944,7.703-2.944,10.647,0l16.768,16.76l32.369-38.837c2.665-3.2,7.409-3.629,10.601-0.971
		c3.192,2.658,3.614,7.409,0.956,10.601L90.865,218.353z"/>
	<path style="fill:#00C250;" d="M90.865,316.235l-28.416-28.408c-2.944-2.944-2.944-7.703,0-10.647
		c2.944-2.952,7.703-2.952,10.647,0l16.768,16.76l32.369-38.837c2.665-3.2,7.409-3.622,10.601-0.971
		c3.192,2.658,3.614,7.401,0.956,10.601L90.865,316.235z"/>
	<path style="fill:#00C250;" d="M90.865,414.118l-28.416-28.408c-2.944-2.944-2.944-7.703,0-10.647
		c2.944-2.952,7.703-2.952,10.647,0l16.768,16.76l32.369-38.837c2.665-3.2,7.409-3.622,10.601-0.971
		c3.192,2.658,3.614,7.401,0.956,10.601L90.865,414.118z"/>
</g>
<rect x="406.588" y="421.647" style="fill:#006E31;" width="75.294" height="22.588"/>
<rect x="406.588" y="429.176" style="fill:#008232;" width="37.647" height="15.059"/>
<path style="fill:#003B15;" d="M444.341,60.115L430.366,89.48c3.855,5.097,8.666,8.282,13.975,8.282
	c5.308,0,10.12-3.185,13.975-8.282L444.341,60.115z"/>
<path style="fill:#00A344;" d="M463.059,150.588c-8.689,0-16-5.888-18.176-13.899c-0.188-0.723-1.099-0.723-1.295,0
	c-2.176,8.011-9.487,13.899-18.176,13.899c-7.928,0-14.705-4.894-17.483-11.821c-0.294-0.738-1.34-0.535-1.34,0.264v290.146h75.294
	V139.031c0-0.791-1.047-1.001-1.34-0.264C477.771,145.694,470.987,150.588,463.059,150.588z"/>
<path style="fill:#00C250;" d="M406.588,429.176V139.249c0-0.843,1.099-1.062,1.423-0.279c2.839,6.822,9.555,11.618,17.4,11.618
	c8.727,0,16.068-5.941,18.191-13.99c0.12-0.392,0.632-0.346,0.632,0.06v292.518H406.588z"/>
<path style="fill:#FFFFFF;" d="M406.588,444.235v15.059c0,12.469,10.12,22.588,22.588,22.588h15.059v-37.647H406.588z"/>
<g>
</g>
<g>
</g>
<g>
</g>
<g>
</g>
<g>
</g>
<g>
</g>
<g>
</g>
<g>
</g>
<g>
</g>
<g>
</g>
<g>
</g>
<g>
</g>
<g>
</g>
<g>
</g>
<g>
</g>
</svg>
