<?xml version="1.0" encoding="iso-8859-1"?>
<svg width="481.882" height="481.882" xmlns="http://www.w3.org/2000/svg" xmlns:svg="http://www.w3.org/2000/svg">
 <g>
  <title>Layer 1</title>
  <path id="svg_1" fill="#c5eb98" d="m60.235,23.55298c0,-12.45707 8.75296,-22.55298 19.55299,-22.55298l143.38811,0l81.47089,78.93505l0,274.39396c0,12.45707 -8.75296,22.55298 -19.55299,22.55298l-205.30602,0c-10.80003,0 -19.55299,-10.09592 -19.55299,-22.55298l0,-330.77603l0.00001,0z"/>
  <g id="svg_7"/>
  <g id="svg_8"/>
  <g id="svg_9"/>
  <g id="svg_10"/>
  <g id="svg_11"/>
  <g id="svg_12"/>
  <g id="svg_13"/>
  <g id="svg_14"/>
  <g id="svg_15"/>
  <g id="svg_16"/>
  <g id="svg_17"/>
  <g id="svg_18"/>
  <g id="svg_19"/>
  <g id="svg_20"/>
  <g id="svg_21"/>
  <text font-weight="bold" transform="matrix(2.53487383527205,0,0,2.9897742579700677,-220.9719003295535,-110.88873941782379) " xml:space="preserve" text-anchor="middle" font-family="Cursive" font-size="24" id="svg_23" y="124.7384" x="141.96947" stroke-linecap="null" stroke-linejoin="null" stroke-dasharray="null" stroke-width="0" fill="#ffffff">PPT</text>
  <path fill="#00C250" d="m213.41201,121.92999c0,-12.29136 9.07527,-22.25298 20.27299,-22.25298l148.66811,0l84.4709,77.88505l0,270.74396c0,12.29136 -9.07527,22.25298 -20.27299,22.25298l-212.86602,0c-11.19772,0 -20.27299,-9.96162 -20.27299,-22.25298l0,-326.37603z" id="svg_3"/>
  <path fill="#00A344" d="m380.85457,100.04524l0,56.52849c0,12.48942 9.18872,22.61703 20.52642,22.61703l65.00045,0" id="svg_4" transform="rotate(-0.28790733218193054 423.6180114746062,139.61801147460656) "/>
  <path fill="#b8e283" d="m220.36958,-0.14332l0,57.97488c0,12.80899 9.18656,23.19572 20.5216,23.19572l64.98517,0" transform="rotate(-0.28790733218193054 263.122955322262,40.44198226928664) " id="svg_5"/>
  <text font-weight="bold" transform="matrix(4.1888937186230635,0,0,3.85047978668284,-269.0494775104068,-71.5865216329995) " xml:space="preserve" text-anchor="middle" font-family="Cursive" font-size="24" id="svg_23" y="117.90676" x="145.78909" stroke-linecap="null" stroke-linejoin="null" stroke-dasharray="null" stroke-width="0" fill="#ffffff">PDF</text>
 </g>
</svg>