<?xml version="1.0" encoding="iso-8859-1"?>
<!-- Generator: Adobe Illustrator 19.0.0, SVG Export Plug-In . SVG Version: 6.00 Build 0)  -->
<svg version="1.1" id="Layer_1" xmlns="http://www.w3.org/2000/svg" xmlns:xlink="http://www.w3.org/1999/xlink" x="0px" y="0px"
	 viewBox="0 0 481.882 481.882" style="enable-background:new 0 0 481.882 481.882;" xml:space="preserve">
<path style="fill:#006E31;" d="M75.305,15.059C75.305,6.746,68.559,0,60.247,0H30.129C21.816,0,15.07,6.746,15.07,15.059v451.765
	c0,8.312,6.746,15.059,15.059,15.059h30.118c8.312,0,15.059-6.746,15.059-15.059V15.059z"/>
<path style="fill:#008232;" d="M45.188,0H30.129C21.816,0,15.07,6.746,15.07,15.059v451.765c0,8.312,6.746,15.059,15.059,15.059
	h15.059V0z"/>
<path style="fill:#006E31;" d="M466.835,15.059C466.835,6.746,460.088,0,451.776,0h-30.118C413.346,0,406.6,6.746,406.6,15.059
	v451.765c0,8.312,6.746,15.059,15.059,15.059h30.118c8.312,0,15.059-6.746,15.059-15.059V15.059z"/>
<path style="fill:#008232;" d="M436.717,0h-15.059C413.346,0,406.6,6.746,406.6,15.059v451.765c0,8.312,6.746,15.059,15.059,15.059
	h15.059V0z"/>
<rect x="15.048" y="60.235" style="fill:#FFFFFF;" width="451.765" height="271.059"/>
<g>
	<rect x="15.048" y="60.235" style="fill:#003B15;" width="90.353" height="90.353"/>
	<rect x="195.753" y="60.235" style="fill:#003B15;" width="90.353" height="90.353"/>
	<rect x="376.459" y="60.235" style="fill:#003B15;" width="90.353" height="90.353"/>
	<rect x="105.4" y="150.588" style="fill:#003B15;" width="90.353" height="90.353"/>
	<rect x="286.106" y="150.588" style="fill:#003B15;" width="90.353" height="90.353"/>
	<rect x="15.048" y="240.941" style="fill:#003B15;" width="90.353" height="90.353"/>
	<rect x="195.753" y="240.941" style="fill:#003B15;" width="90.353" height="90.353"/>
	<rect x="376.459" y="240.941" style="fill:#003B15;" width="90.353" height="90.353"/>
</g>
<g>
</g>
<g>
</g>
<g>
</g>
<g>
</g>
<g>
</g>
<g>
</g>
<g>
</g>
<g>
</g>
<g>
</g>
<g>
</g>
<g>
</g>
<g>
</g>
<g>
</g>
<g>
</g>
<g>
</g>
</svg>
