<?xml version="1.0" encoding="iso-8859-1"?>
<!-- Generator: Adobe Illustrator 19.0.0, SVG Export Plug-In . SVG Version: 6.00 Build 0)  -->
<svg version="1.1" id="Layer_1" xmlns="http://www.w3.org/2000/svg" xmlns:xlink="http://www.w3.org/1999/xlink" x="0px" y="0px"
	 viewBox="0 0 481.882 481.882" style="enable-background:new 0 0 481.882 481.882;" xml:space="preserve">
<ellipse style="fill:#00A344;" cx="244.646" cy="240.941" rx="222.411" ry="225.882"/>
<g>
	<ellipse style="fill:#FFFFFF;" cx="333.606" cy="304.941" rx="14.825" ry="15.059"/>
	<ellipse style="fill:#FFFFFF;" cx="155.678" cy="128" rx="14.825" ry="15.059"/>
	<ellipse style="fill:#FFFFFF;" cx="363.272" cy="406.588" rx="14.825" ry="15.059"/>
</g>
<path style="fill:#00E676;" d="M244.646,236.792L411.49,69.933C368.602,26.767,309.685,0,244.646,0V236.792z"/>
<g>
	<ellipse style="fill:#FFFFFF;" cx="322.485" cy="86.588" rx="25.946" ry="26.353"/>
	<ellipse style="fill:#FFFFFF;" cx="81.544" cy="286.118" rx="14.825" ry="15.059"/>
	<path style="fill:#FFFFFF;" d="M466.854,233.412h-44.461c-3.863-94.871-80.045-171.053-173.922-173.079V15.149
		c-1.28-0.015-2.545-0.09-3.825-0.09c-3.689,0-7.364,0.105-11.008,0.286v45.274c-90.541,5.64-162.974,80.354-166.724,172.792H22.43
		c-0.083,2.507-0.181,5.007-0.181,7.529s0.105,5.022,0.181,7.529h44.484c3.75,92.439,76.183,167.153,166.731,172.8v45.274
		c3.644,0.173,7.311,0.279,11,0.279c1.28,0,2.545-0.075,3.825-0.105v-45.176c93.877-2.018,170.059-78.201,173.922-173.071h44.491
		c0.083-2.507,0.173-5.007,0.166-7.529C467.049,238.419,466.936,235.919,466.854,233.412z M233.638,406.159
		c-82.364-5.594-148.171-73.555-151.906-157.688h44.672c3.629,59.189,49.416,106.94,107.234,112.376V406.159z M233.638,345.743
		c-49.641-5.338-88.84-46.374-92.401-97.272h44.619c3.208,25.969,22.724,46.825,47.789,51.614L233.638,345.743L233.638,345.743z
		 M233.638,284.664c-16.866-4.382-29.877-18.545-32.798-36.194h32.798V284.664z M233.638,233.412H200.84
		c2.929-17.641,15.932-31.812,32.798-36.194V233.412z M233.638,181.79c-25.065,4.804-44.582,25.66-47.789,51.622h-44.619
		c3.569-50.899,42.767-91.934,92.401-97.272L233.638,181.79L233.638,181.79z M233.638,121.035
		c-57.818,5.436-103.605,53.18-107.234,112.376H81.732c3.727-84.134,69.534-152.094,151.906-157.696L233.638,121.035
		L233.638,121.035z M248.471,135.725c52.969,1.973,95.842,44.363,99.592,97.687h-44.619c-3.516-28.393-26.526-50.658-54.98-52.51
		v-45.176H248.471z M248.471,195.96c20.254,1.762,36.646,17.363,39.996,37.451h-39.996V195.96z M248.471,248.471h39.996
		c-3.336,20.081-19.72,35.689-39.996,37.459V248.471z M248.471,300.988c28.431-1.852,51.464-24.117,54.98-52.518h44.619
		c-3.735,53.323-46.615,95.714-99.599,97.694V300.988z M248.471,406.483v-45.267c61.139-2.003,110.637-51.117,114.417-112.753
		h44.672C403.72,335.036,334.163,404.472,248.471,406.483z M362.888,233.412c-3.78-61.628-53.278-110.75-114.417-112.745V75.392
		c85.692,2.018,155.249,71.454,159.089,158.02H362.888z"/>
	<path style="fill:#FFFFFF;" d="M244.646,481.882C113.83,481.882,0,373.798,0,240.941C0,108.077,113.83,0,244.646,0
		c130.808,0,237.237,108.077,237.237,240.941C481.882,373.798,375.454,481.882,244.646,481.882z M244.646,15.059
		c-122.639,0-222.411,101.331-222.411,225.882s99.772,225.882,222.411,225.882c122.632,0,222.682-101.331,222.404-225.882
		C466.771,116.119,367.096,14.878,244.646,15.059z"/>
</g>
<g>
</g>
<g>
</g>
<g>
</g>
<g>
</g>
<g>
</g>
<g>
</g>
<g>
</g>
<g>
</g>
<g>
</g>
<g>
</g>
<g>
</g>
<g>
</g>
<g>
</g>
<g>
</g>
<g>
</g>
</svg>
