<?xml version="1.0" encoding="iso-8859-1"?>
<!-- Generator: Adobe Illustrator 19.0.0, SVG Export Plug-In . SVG Version: 6.00 Build 0)  -->
<svg version="1.1" id="Layer_1" xmlns="http://www.w3.org/2000/svg" xmlns:xlink="http://www.w3.org/1999/xlink" x="0px" y="0px"
	 viewBox="0 0 481.882 481.882" style="enable-background:new 0 0 481.882 481.882;" xml:space="preserve">
<g>
	<path style="fill:#00A344;" d="M292.792,120.471c5.158,0,9.961-2.643,12.717-7.002C315.252,98.086,288.372,0,240.945,0
		c-47.352,0-74.278,98.101-64.557,113.461c2.763,4.36,7.56,7.01,12.71,7.01H292.792z"/>
	<path style="fill:#00A344;" d="M118.381,210.824c5.158,0,9.961-2.643,12.717-7.002c9.743-15.383-17.137-113.468-64.565-113.468
		c-47.352,0-74.278,98.101-64.557,113.461c2.763,4.36,7.56,7.01,12.717,7.01H118.381z"/>
	<path style="fill:#00A344;" d="M467.181,210.824c5.165,0,9.961-2.643,12.717-7.002c9.736-15.383-17.129-113.468-64.557-113.468
		c-47.352,0-74.285,98.101-64.557,113.461c2.756,4.36,7.56,7.01,12.702,7.01H467.181z"/>
</g>
<g>
	<path style="fill:#00C250;" d="M67.768,90.436c-0.414-0.015-0.813-0.083-1.235-0.083c-47.352,0-74.278,98.101-64.557,113.461
		c2.763,4.36,7.56,7.01,12.717,7.01h53.075V90.436z"/>
	<path style="fill:#00C250;" d="M242.179,0.083C241.765,0.068,241.366,0,240.945,0c-47.352,0-74.278,98.101-64.557,113.461
		c2.763,4.36,7.56,7.01,12.717,7.01h53.075V0.083z"/>
	<path style="fill:#00C250;" d="M416.568,90.436c-0.407-0.015-0.813-0.083-1.227-0.083c-47.352,0-74.285,98.101-64.557,113.461
		c2.763,4.36,7.56,7.01,12.702,7.01h53.082V90.436z"/>
</g>
<g>
	<path style="fill:#003B15;" d="M209.991,148.841l17.016-28.371h-26.345l-14.584,24.305c-2.665,4.45-1.965,10.142,1.702,13.801
		l30.118,30.118c2.206,2.206,5.097,3.305,7.989,3.305s5.783-1.099,7.989-3.305c4.412-4.405,4.412-11.558,0-15.97L209.991,148.841z"
		/>
	<path style="fill:#003B15;" d="M271.898,148.841l-17.009-28.371h26.338l14.592,24.305c2.665,4.45,1.965,10.142-1.709,13.801
		l-30.118,30.118c-2.206,2.206-5.097,3.305-7.989,3.305c-2.891,0-5.783-1.099-7.989-3.305c-4.412-4.405-4.412-11.558,0-15.97
		L271.898,148.841z"/>
</g>
<g>
	<circle style="fill:#FFFFFF;" cx="222.121" cy="67.765" r="11.294"/>
	<circle style="fill:#FFFFFF;" cx="259.768" cy="67.765" r="11.294"/>
</g>
<g>
	<path style="fill:#003B15;" d="M35.58,239.194l17.016-28.371H26.251l-14.577,24.305c-2.673,4.45-1.973,10.142,1.694,13.801
		l30.118,30.118c2.206,2.206,5.097,3.305,7.989,3.305c2.891,0,5.783-1.099,7.989-3.305c4.412-4.397,4.412-11.558,0-15.97
		L35.58,239.194z"/>
	<path style="fill:#003B15;" d="M97.487,239.194L80.47,210.824h26.345l14.584,24.305c2.665,4.45,1.965,10.142-1.702,13.801
		l-30.118,30.118c-2.206,2.206-5.097,3.305-7.989,3.305c-2.891,0-5.783-1.099-7.989-3.305c-4.412-4.397-4.412-11.558,0-15.97
		L97.487,239.194z"/>
</g>
<g>
	<circle style="fill:#FFFFFF;" cx="47.71" cy="158.118" r="11.294"/>
	<circle style="fill:#FFFFFF;" cx="85.357" cy="158.118" r="11.294"/>
</g>
<g>
	<path style="fill:#003B15;" d="M384.387,239.194l17.016-28.371h-26.338l-14.592,24.305c-2.665,4.45-1.958,10.142,1.709,13.801
		l30.118,30.118c2.206,2.206,5.09,3.305,7.996,3.305c2.884,0,5.79-1.099,7.996-3.305c4.397-4.397,4.397-11.558,0-15.97
		L384.387,239.194z"/>
	<path style="fill:#003B15;" d="M446.294,239.194l-17.024-28.371h26.345l14.592,24.305c2.665,4.45,1.973,10.142-1.702,13.801
		l-30.118,30.118c-2.206,2.206-5.105,3.305-7.989,3.305c-2.899,0-5.783-1.099-8.004-3.305c-4.412-4.397-4.412-11.558,0-15.97
		L446.294,239.194z"/>
</g>
<g>
	<circle style="fill:#FFFFFF;" cx="396.517" cy="158.118" r="11.294"/>
	<circle style="fill:#FFFFFF;" cx="434.164" cy="158.118" r="11.294"/>
</g>
<path style="fill:#00A344;" d="M150.592,481.882v-30.118c0-33.265,26.97-60.235,60.235-60.235h60.235
	c33.265,0,60.235,26.97,60.235,60.235v30.118H150.592z"/>
<path style="fill:#003B15;" d="M210.827,391.529c0,0,15.059-60.235,30.118-60.235c15.059,0,30.118,60.235,30.118,60.235H210.827z"/>
<path style="fill:#006E31;" d="M240.945,331.294c-15.059,0-30.118,60.235-30.118,60.235h30.118V331.294z"/>
<path style="fill:#00C250;" d="M240.945,391.529h-30.118c-33.265,0-60.235,26.97-60.235,60.235v30.118h90.353V391.529z"/>
<g>
	<rect x="233.415" y="225.882" style="fill:#00A344;" width="15.059" height="30.118"/>
	<rect x="233.415" y="278.588" style="fill:#00A344;" width="15.059" height="30.118"/>
</g>
<g>
</g>
<g>
</g>
<g>
</g>
<g>
</g>
<g>
</g>
<g>
</g>
<g>
</g>
<g>
</g>
<g>
</g>
<g>
</g>
<g>
</g>
<g>
</g>
<g>
</g>
<g>
</g>
<g>
</g>
</svg>
