<?xml version="1.0" encoding="iso-8859-1"?>
<!-- Generator: Adobe Illustrator 19.0.0, SVG Export Plug-In . SVG Version: 6.00 Build 0)  -->
<svg version="1.1" id="Layer_1" xmlns="http://www.w3.org/2000/svg" xmlns:xlink="http://www.w3.org/1999/xlink" x="0px" y="0px"
	 viewBox="0 0 481.882 481.882" style="enable-background:new 0 0 481.882 481.882;" xml:space="preserve">
<circle style="fill:#FFFFFF;" cx="240.941" cy="75.294" r="75.294"/>
<path style="fill:#003B15;" d="M406.588,406.588c0,8.312-6.746,15.059-15.059,15.059H90.353c-8.312,0-15.059-6.746-15.059-15.059
	V195.765c0-8.312,6.746-15.059,15.059-15.059h301.176c8.312,0,15.059,6.746,15.059,15.059V406.588z"/>
<rect x="195.765" y="421.647" style="fill:#ECF5E1;" width="90.353" height="37.647"/>
<path style="fill:#FFFFFF;" d="M406.588,406.588v-45.176H75.294v45.176c0,8.312,6.746,15.059,15.059,15.059h301.176
	C399.842,421.647,406.588,414.901,406.588,406.588z"/>
<circle style="fill:#C5EB98;" cx="240.941" cy="391.529" r="15.059"/>
<path style="fill:#006E31;" d="M75.294,195.765v165.647H177.4l180.706-180.706H90.353C82.04,180.706,75.294,187.452,75.294,195.765z
	"/>
<path style="fill:#00E676;" d="M280.102,80.73c-2.56-0.888-21.768-6.392-21.768-9.08c6.37-5.105,10.451-12.936,10.451-21.722
	c0-15.383-12.461-27.851-27.844-27.851s-27.844,12.469-27.844,27.851c0,8.787,4.081,16.617,10.443,21.722
	c0,2.688-19.208,8.192-21.76,9.08c-3.72,2.123-6.016,6.076-6.016,10.36l3.479,22.37h83.396l3.479-22.37
	C286.118,86.807,283.821,82.854,280.102,80.73z"/>
<circle style="fill:#FFFFFF;" cx="75.294" cy="120.471" r="75.294"/>
<path style="fill:#00E676;" d="M114.455,125.907c-2.552-0.888-21.76-6.392-21.76-9.08c6.362-5.105,10.443-12.936,10.443-21.722
	c0-15.383-12.461-27.851-27.844-27.851S47.45,79.721,47.45,95.104c0,8.787,4.081,16.617,10.443,21.722
	c0,2.688-19.208,8.192-21.76,9.08c-3.72,2.123-6.016,6.076-6.016,10.36l3.479,22.37h83.396l3.479-22.37
	C120.471,131.983,118.174,128.03,114.455,125.907z"/>
<circle style="fill:#FFFFFF;" cx="406.588" cy="120.471" r="75.294"/>
<path style="fill:#3BEC96;" d="M445.749,125.907c-2.455-0.851-21.768-6.679-21.768-9.08c6.37-5.105,10.451-12.936,10.451-21.722
	c0-15.383-12.461-27.851-27.844-27.851c-15.383,0-27.844,12.469-27.844,27.851c0,8.787,4.081,16.617,10.451,21.722
	c0,2.688-19.208,8.192-21.768,9.08c-3.72,2.123-6.016,6.076-6.016,10.36l3.479,22.37h83.396l3.479-22.37
	C451.765,131.983,449.468,128.03,445.749,125.907z"/>
<g>
	<circle style="fill:#FFFFFF;" cx="240.941" cy="180.706" r="15.059"/>
	<circle style="fill:#FFFFFF;" cx="240.941" cy="240.941" r="15.059"/>
	<circle style="fill:#FFFFFF;" cx="240.941" cy="301.176" r="15.059"/>
	<circle style="fill:#FFFFFF;" cx="293.647" cy="248.471" r="15.059"/>
	<circle style="fill:#FFFFFF;" cx="338.824" cy="203.294" r="15.059"/>
	<circle style="fill:#FFFFFF;" cx="188.235" cy="248.471" r="15.059"/>
	<circle style="fill:#FFFFFF;" cx="143.059" cy="203.294" r="15.059"/>
	<path style="fill:#FFFFFF;" d="M323.765,470.588c0,6.234-5.06,11.294-11.294,11.294H169.412c-6.234,0-11.294-5.06-11.294-11.294
		s5.06-11.294,11.294-11.294h143.059C318.705,459.294,323.765,464.354,323.765,470.588z"/>
</g>
<g>
</g>
<g>
</g>
<g>
</g>
<g>
</g>
<g>
</g>
<g>
</g>
<g>
</g>
<g>
</g>
<g>
</g>
<g>
</g>
<g>
</g>
<g>
</g>
<g>
</g>
<g>
</g>
<g>
</g>
</svg>
