<?xml version="1.0" encoding="iso-8859-1"?>
<!-- Generator: Adobe Illustrator 19.0.0, SVG Export Plug-In . SVG Version: 6.00 Build 0)  -->
<svg version="1.1" id="Layer_1" xmlns="http://www.w3.org/2000/svg" xmlns:xlink="http://www.w3.org/1999/xlink" x="0px" y="0px"
	 viewBox="0 0 481.882 481.882" style="enable-background:new 0 0 481.882 481.882;" xml:space="preserve">
<path style="fill:#FFFFFF;" d="M60.235,28.913C60.235,12.943,73.178,0,89.148,0h212.028l120.471,101.188v351.782
	c0,15.97-12.943,28.913-28.913,28.913H89.148c-15.97,0-28.913-12.943-28.913-28.913V28.913z"/>
<path style="fill:#C5EB98;" d="M301.176,0v72.282c0,15.97,12.943,28.913,28.913,28.913h91.558"/>
<g>
	<path style="fill:#00C250;" d="M144.437,346.353c-2.831,0-5.662-1.092-7.823-3.238c-4.322-4.322-4.322-11.324,0-15.646
		l47.496-47.503l-47.496-47.511c-4.322-4.322-4.322-11.324,0-15.646c4.322-4.322,11.324-4.322,15.646,0l55.319,55.334
		c4.322,4.314,4.322,11.324,0,15.646l-55.319,55.326C150.099,345.261,147.268,346.353,144.437,346.353z"/>
	<path style="fill:#00C250;" d="M342.807,302.095h-88.501c-6.121,0-11.068-4.947-11.068-11.068s4.954-11.061,11.068-11.061h88.501
		c6.121,0,11.076,4.939,11.076,11.061S348.936,302.095,342.807,302.095z"/>
</g>
<g>
</g>
<g>
</g>
<g>
</g>
<g>
</g>
<g>
</g>
<g>
</g>
<g>
</g>
<g>
</g>
<g>
</g>
<g>
</g>
<g>
</g>
<g>
</g>
<g>
</g>
<g>
</g>
<g>
</g>
</svg>
