<?xml version="1.0" encoding="iso-8859-1"?>
<!-- Generator: Adobe Illustrator 19.0.0, SVG Export Plug-In . SVG Version: 6.00 Build 0)  -->
<svg version="1.1" id="Layer_1" xmlns="http://www.w3.org/2000/svg" xmlns:xlink="http://www.w3.org/1999/xlink" x="0px" y="0px"
	 viewBox="0 0 481.882 481.882" style="enable-background:new 0 0 481.882 481.882;" xml:space="preserve">
<path style="fill:#FFFFFF;" d="M60.235,28.913C60.235,12.943,73.178,0,89.148,0h212.028l120.471,101.195v351.774
	c0,15.97-12.951,28.913-28.92,28.913H89.148c-15.97,0-28.913-12.943-28.913-28.913V28.913z"/>
<g>
	<path style="fill:#C5EB98;" d="M301.176,0v72.282c0,15.97,12.943,28.913,28.913,28.913h91.558"/>
	<rect x="105.412" y="361.412" style="fill:#C5EB98;" width="271.059" height="15.059"/>
	<rect x="105.412" y="308.706" style="fill:#C5EB98;" width="97.882" height="15.059"/>
	<rect x="105.412" y="256" style="fill:#C5EB98;" width="97.882" height="15.059"/>
	<rect x="105.412" y="203.294" style="fill:#C5EB98;" width="97.882" height="15.059"/>
	<rect x="105.412" y="150.588" style="fill:#C5EB98;" width="97.882" height="15.059"/>
	<rect x="105.412" y="406.588" style="fill:#C5EB98;" width="271.059" height="15.059"/>
</g>
<rect x="233.412" y="150.588" style="fill:#00E676;" width="143.059" height="173.176"/>
<polygon style="fill:#006E31;" points="257.25,323.765 376.471,323.765 316.86,212.503 "/>
<circle style="fill:#FFFFFF;" cx="275.87" cy="198.483" r="19.87"/>
<g>
</g>
<g>
</g>
<g>
</g>
<g>
</g>
<g>
</g>
<g>
</g>
<g>
</g>
<g>
</g>
<g>
</g>
<g>
</g>
<g>
</g>
<g>
</g>
<g>
</g>
<g>
</g>
<g>
</g>
</svg>
