<svg id="Capa_1" enable-background="new 0 0 512 512" height="512" viewBox="0 0 512 512" width="512" xmlns="http://www.w3.org/2000/svg" xmlns:xlink="http://www.w3.org/1999/xlink"><linearGradient id="SVGID_1_" gradientUnits="userSpaceOnUse" x1="256" x2="256" y1="512" y2="0"><stop offset="0" stop-color="#ffbef9"/><stop offset="1" stop-color="#fff1ff"/></linearGradient><linearGradient id="SVGID_2_" gradientUnits="userSpaceOnUse" x1="256" x2="256" y1="407" y2="105"><stop offset="0" stop-color="#ff81ff"/><stop offset="1" stop-color="#a93aff"/></linearGradient><g><g><circle cx="256" cy="256" fill="url(#SVGID_1_)" r="256"/></g><g><g><path d="m362.588 318.176h-213.176c-24.724 0-44.412 20.143-44.412 44.412 0 24.487 19.925 44.412 44.412 44.412h213.177c24.507 0 44.411-19.95 44.411-44.412 0-24.487-19.925-44.412-44.412-44.412zm-195.412 53.295h-17.765c-4.91 0-8.882-3.973-8.882-8.882s3.973-8.882 8.882-8.882h17.765c4.91 0 8.882 3.973 8.882 8.882.001 4.909-3.972 8.882-8.882 8.882zm24.045-91.426 48.084-48.084c12.034 9.355 26.954 15.157 43.342 15.157 39.181 0 71.059-31.878 71.059-71.059s-31.878-71.059-71.059-71.059-71.059 31.878-71.059 71.059c0 16.388 5.802 31.307 15.157 43.342l-48.084 48.084c-3.47 3.47-3.47 9.091 0 12.56s9.091 3.47 12.56 0z" fill="url(#SVGID_2_)"/></g></g></g></svg>