<?xml version="1.0" encoding="iso-8859-1"?>
<!-- Generator: Adobe Illustrator 19.0.0, SVG Export Plug-In . SVG Version: 6.00 Build 0)  -->
<svg version="1.1" id="Layer_1" xmlns="http://www.w3.org/2000/svg" xmlns:xlink="http://www.w3.org/1999/xlink" x="0px" y="0px"
	 viewBox="0 0 481.882 481.882" style="enable-background:new 0 0 481.882 481.882;" xml:space="preserve">
<path style="fill:#003B15;" d="M451.765,403.561c0,14.78-7.251,28.649-19.373,37.09c-25.329,17.656-81.197,41.231-198.98,41.231
	c-112.339,0-162.997-21.459-185.585-38.746c-11.174-8.561-17.709-21.835-17.709-35.9V45.176C30.118,20.232,50.349,0,75.294,0
	h331.294c24.945,0,45.176,20.232,45.176,45.176V403.561z"/>
<path style="fill:#00C250;" d="M421.647,195.765c0,8.312-6.746,15.059-15.059,15.059H75.294c-8.312,0-15.059-6.746-15.059-15.059
	V45.176c0-8.312,6.746-15.059,15.059-15.059h331.294c8.312,0,15.059,6.746,15.059,15.059V195.765z"/>
<g>
	<circle style="fill:#56C435;" cx="391.529" cy="318.946" r="15.059"/>
	<circle style="fill:#56C435;" cx="90.353" cy="318.946" r="15.059"/>
	<circle style="fill:#56C435;" cx="210.824" cy="334.005" r="15.059"/>
	<circle style="fill:#56C435;" cx="271.059" cy="334.005" r="15.059"/>
	<circle style="fill:#56C435;" cx="150.588" cy="326.475" r="15.059"/>
	<circle style="fill:#56C435;" cx="331.294" cy="326.475" r="15.059"/>
	<circle style="fill:#56C435;" cx="120.471" cy="394.24" r="15.059"/>
	<circle style="fill:#56C435;" cx="361.412" cy="394.24" r="15.059"/>
	<circle style="fill:#56C435;" cx="180.706" cy="401.769" r="15.059"/>
	<circle style="fill:#56C435;" cx="301.176" cy="401.769" r="15.059"/>
	<circle style="fill:#56C435;" cx="240.941" cy="401.769" r="15.059"/>
</g>
<path style="fill:#C5EB98;" d="M286.118,256c0,8.312-6.746,15.059-15.059,15.059h-60.235c-8.312,0-15.059-6.746-15.059-15.059
	s6.746-15.059,15.059-15.059h60.235C279.371,240.941,286.118,247.688,286.118,256z"/>
<path style="fill:#00E676;" d="M75.294,30.118c-8.312,0-15.059,6.746-15.059,15.059v150.588c0,8.312,6.746,15.059,15.059,15.059
	h53.662L309.662,30.118H75.294z"/>
<g>
</g>
<g>
</g>
<g>
</g>
<g>
</g>
<g>
</g>
<g>
</g>
<g>
</g>
<g>
</g>
<g>
</g>
<g>
</g>
<g>
</g>
<g>
</g>
<g>
</g>
<g>
</g>
<g>
</g>
</svg>
