<?xml version="1.0" encoding="iso-8859-1"?>
<!-- Generator: Adobe Illustrator 19.0.0, SVG Export Plug-In . SVG Version: 6.00 Build 0)  -->
<svg version="1.1" id="Layer_1" xmlns="http://www.w3.org/2000/svg" xmlns:xlink="http://www.w3.org/1999/xlink" x="0px" y="0px"
	 viewBox="0 0 481.882 481.882" style="enable-background:new 0 0 481.882 481.882;" xml:space="preserve">
<path style="fill:#FFFFFF;" d="M373.237,436.706c0,24.952-20.239,45.176-45.176,45.176H147.354
	c-24.945,0-45.176-20.224-45.176-45.176V45.176C102.178,20.232,122.409,0,147.354,0H328.06c24.945,0,45.176,20.232,45.176,45.176
	V436.706z"/>
<rect x="117.237" y="90.353" style="fill:#003B15;" width="240.941" height="301.176"/>
<polygon style="fill:#006E31;" points="117.237,391.529 117.237,90.353 358.178,90.353 "/>
<g>
	<circle style="fill:#64DD17;" cx="185.001" cy="52.706" r="7.529"/>
	<path style="fill:#64DD17;" d="M297.943,52.706c0,4.156-3.366,7.529-7.529,7.529h-75.294c-4.164,0-7.529-3.373-7.529-7.529
		s3.366-7.529,7.529-7.529h75.294C294.577,45.176,297.943,48.55,297.943,52.706z"/>
	<circle style="fill:#64DD17;" cx="237.707" cy="436.706" r="30.118"/>
</g>
<rect x="222.648" y="421.647" style="fill:#FFFFFF;" width="30.118" height="30.118"/>
<path style="fill:#00A344;" d="M72.971,435.923c-8.824,8.809-23.115,8.809-31.94,0c-8.824-8.824-8.824-23.123,0-31.955
	l367.88-367.88c8.824-8.817,23.13-8.817,31.94,0c8.824,8.824,8.824,23.13,0,31.947L72.971,435.923z"/>
<g>
</g>
<g>
</g>
<g>
</g>
<g>
</g>
<g>
</g>
<g>
</g>
<g>
</g>
<g>
</g>
<g>
</g>
<g>
</g>
<g>
</g>
<g>
</g>
<g>
</g>
<g>
</g>
<g>
</g>
</svg>
