<?xml version="1.0" encoding="iso-8859-1"?>
<!-- Generator: Adobe Illustrator 19.0.0, SVG Export Plug-In . SVG Version: 6.00 Build 0)  -->
<svg version="1.1" id="Layer_1" xmlns="http://www.w3.org/2000/svg" xmlns:xlink="http://www.w3.org/1999/xlink" x="0px" y="0px"
	 viewBox="0 0 481.882 481.882" style="enable-background:new 0 0 481.882 481.882;" xml:space="preserve">
<path style="fill:#FFFFFF;" d="M60.235,28.913C60.235,12.943,73.178,0,89.148,0h212.028l120.471,101.195v351.774
	c0,15.97-12.943,28.913-28.913,28.913H89.148c-15.97,0-28.913-12.943-28.913-28.913V28.913z"/>
<path style="fill:#C5EB98;" d="M301.176,0v72.282c0,15.97,12.943,28.913,28.913,28.913h91.558"/>
<g>
	<rect x="105.412" y="210.824" style="fill:#00E676;" width="52.706" height="30.118"/>
	<rect x="173.176" y="210.824" style="fill:#00E676;" width="52.706" height="30.118"/>
	<rect x="240.941" y="210.824" style="fill:#00E676;" width="52.706" height="30.118"/>
	<rect x="308.706" y="210.824" style="fill:#00E676;" width="52.706" height="30.118"/>
</g>
<g>
	<rect x="105.412" y="165.647" style="fill:#00A344;" width="52.706" height="30.118"/>
	<rect x="173.176" y="165.647" style="fill:#00A344;" width="52.706" height="30.118"/>
	<rect x="240.941" y="165.647" style="fill:#00A344;" width="52.706" height="30.118"/>
	<rect x="308.706" y="165.647" style="fill:#00A344;" width="52.706" height="30.118"/>
</g>
<g>
	<rect x="105.412" y="256" style="fill:#00E676;" width="52.706" height="30.118"/>
	<rect x="173.176" y="256" style="fill:#00E676;" width="52.706" height="30.118"/>
	<rect x="240.941" y="256" style="fill:#00E676;" width="52.706" height="30.118"/>
	<rect x="308.706" y="256" style="fill:#00E676;" width="52.706" height="30.118"/>
	<rect x="105.412" y="301.176" style="fill:#00E676;" width="52.706" height="30.118"/>
	<rect x="173.176" y="301.176" style="fill:#00E676;" width="52.706" height="30.118"/>
	<rect x="240.941" y="301.176" style="fill:#00E676;" width="52.706" height="30.118"/>
	<rect x="308.706" y="301.176" style="fill:#00E676;" width="52.706" height="30.118"/>
	<rect x="105.412" y="346.353" style="fill:#00E676;" width="52.706" height="30.118"/>
	<rect x="173.176" y="346.353" style="fill:#00E676;" width="52.706" height="30.118"/>
	<rect x="240.941" y="346.353" style="fill:#00E676;" width="52.706" height="30.118"/>
	<rect x="308.706" y="346.353" style="fill:#00E676;" width="52.706" height="30.118"/>
	<rect x="105.412" y="391.529" style="fill:#00E676;" width="52.706" height="30.118"/>
	<rect x="173.176" y="391.529" style="fill:#00E676;" width="52.706" height="30.118"/>
	<rect x="240.941" y="391.529" style="fill:#00E676;" width="52.706" height="30.118"/>
	<rect x="308.706" y="391.529" style="fill:#00E676;" width="52.706" height="30.118"/>
</g>
<g>
</g>
<g>
</g>
<g>
</g>
<g>
</g>
<g>
</g>
<g>
</g>
<g>
</g>
<g>
</g>
<g>
</g>
<g>
</g>
<g>
</g>
<g>
</g>
<g>
</g>
<g>
</g>
<g>
</g>
</svg>
