<svg id="Capa_1" enable-background="new 0 0 512 512" height="512" viewBox="0 0 512 512" width="512" xmlns="http://www.w3.org/2000/svg"><g><g><g><g><g><g><g><circle cx="256" cy="256" fill="#c38778" r="256"/></g></g></g></g></g></g><path d="m511.515 271.88-201.539-201.539-105.665 26.94-63.702 308.083 106.505 106.485c2.95.101 5.912.152 8.886.152 136.052-.001 247.315-106.133 255.515-240.121z" fill="#a65d4e"/><g><g><g><g><g><g><ellipse cx="256" cy="291.084" fill="#a3d4ff" rx="162.404" ry="162.404" transform="matrix(.707 -.707 .707 .707 -130.847 266.276)"/></g></g></g></g></g></g><g><g><g><g><g><g><path d="m418.404 291.084c0-89.684-72.696-162.389-162.404-162.404v324.807c89.708-.015 162.404-72.719 162.404-162.403z" fill="#65b1fc"/></g></g></g></g></g></g><g><path d="m332.827 243.87-31.475-21.64-29.533 16.722-36.358 28.215-51.307-27.793-18.502-27.847v74.205l38.321 27.975-4.918 27.541 40.329 18.689 67.01-19.397 35.286 19.397 24.591-42.296-12.788-33.443 2.951-27.541z" fill="#fff"/></g><g><path d="m353.483 284.198 2.951-27.541-23.607-12.787-31.475-21.64-29.533 16.722-15.819 12.266v103.913l50.394-14.59 35.286 19.396 24.591-42.296z" fill="#e9edf5"/></g><g><path d="m256 48.442c-42.795 0-77.487 34.692-77.487 77.487 0 61.689 77.487 127.139 77.487 127.139s77.487-63.193 77.487-127.139c0-42.795-34.692-77.487-77.487-77.487zm0 106.72c-16.145 0-29.233-13.088-29.233-29.233s13.088-29.233 29.233-29.233 29.233 13.088 29.233 29.233-13.088 29.233-29.233 29.233z" fill="#ffce00"/></g><g><path d="m333.487 125.929c0-42.785-34.677-77.471-77.459-77.486v48.254c16.132.015 29.205 13.097 29.205 29.232 0 16.136-13.073 29.217-29.205 29.233l-.028 97.906c1.197-.98 77.487-63.695 77.487-127.139z" fill="#fdba12"/></g></g></svg>