<?xml version="1.0" encoding="iso-8859-1"?>
<!-- Generator: Adobe Illustrator 19.0.0, SVG Export Plug-In . SVG Version: 6.00 Build 0)  -->
<svg version="1.1" id="Layer_1" xmlns="http://www.w3.org/2000/svg" xmlns:xlink="http://www.w3.org/1999/xlink" x="0px" y="0px"
	 viewBox="0 0 481.884 481.884" style="enable-background:new 0 0 481.884 481.884;" xml:space="preserve">
<rect y="0.001" style="fill:#FFFFFF;" width="361.412" height="481.882"/>
<path style="fill:#006E31;" d="M470.746,66.975c-11.829-9.6-28.672-8.629-39.484,1.498l-34.364-1.318
	c-2.364-0.098-4.646,0.941-6.129,2.778L343.326,128.4c-5.248,6.453-4.254,15.94,2.191,21.18c6.453,5.24,15.94,4.262,21.18-2.206
	c5.24-6.453,4.254-15.932-2.199-21.18l35.592-43.851l18.808,0.723L300.265,229.211l46.765,37.963l128.121-157.839
	C485.632,96.422,483.659,77.456,470.746,66.975z"/>
<rect x="355.229" y="74.367" transform="matrix(0.7765 0.6301 -0.6301 0.7765 194.6565 -204.3135)" style="fill:#003B15;" width="60.235" height="195.763"/>
<polygon style="fill:#ECF5E1;" points="347.031,267.174 316.808,276.586 295.183,283.28 297.276,260.752 300.265,229.219 "/>
<path style="fill:#003B15;" d="M316.808,276.586l-21.624,6.694l2.093-22.528c4.277,0.459,8.516,2.04,12.13,4.992
	C313.043,268.68,315.467,272.498,316.808,276.586z"/>
<g>
	<path style="fill:#C5EB98;" d="M271.059,82.824c0,4.164-3.373,7.529-7.529,7.529H67.765c-4.156,0-7.529-3.366-7.529-7.529
		c0-4.156,3.373-7.529,7.529-7.529h195.765C267.686,75.295,271.059,78.668,271.059,82.824z"/>
	<path style="fill:#C5EB98;" d="M240.941,143.06c0,4.164-3.373,7.529-7.529,7.529H67.765c-4.156,0-7.529-3.366-7.529-7.529
		c0-4.156,3.373-7.529,7.529-7.529h165.647C237.568,135.53,240.941,138.903,240.941,143.06z"/>
	<path style="fill:#C5EB98;" d="M240.941,203.295c0,4.164-3.373,7.529-7.529,7.529H67.765c-4.156,0-7.529-3.366-7.529-7.529
		c0-4.156,3.373-7.529,7.529-7.529h165.647C237.568,195.766,240.941,199.139,240.941,203.295z"/>
	<path style="fill:#C5EB98;" d="M210.824,263.53c0,4.164-3.373,7.529-7.529,7.529H67.765c-4.156,0-7.529-3.366-7.529-7.529
		c0-4.156,3.373-7.529,7.529-7.529h135.529C207.45,256.001,210.824,259.374,210.824,263.53z"/>
	<path style="fill:#C5EB98;" d="M165.647,323.766c0,4.164-3.373,7.529-7.529,7.529H67.765c-4.156,0-7.529-3.366-7.529-7.529
		c0-4.156,3.373-7.529,7.529-7.529h90.353C162.274,316.236,165.647,319.609,165.647,323.766z"/>
</g>
<g>
	<path style="fill:#00E676;" d="M286.118,293.648c-30.118,0-105.412,15.059-105.412,82.824c0,52.706,45.176,75.294,75.294,75.294
		c37.647,0,90.353-30.118,90.353-82.824c0-60.235-45.176-60.235-45.176-60.235s30.118,7.529,30.118,60.235
		c0,30.118-30.118,64.474-75.294,64.474c-37.647,0-60.235-34.357-60.235-56.945C195.765,316.236,248.471,301.177,286.118,293.648z"
		/>
	<path style="fill:#00E676;" d="M216.937,399.142l30.05-67.863c2.093-4.676,5.911-7.514,11.068-7.514h1.107
		c5.173,0,8.877,2.839,10.963,7.514l30.05,67.863c0.632,1.355,1.001,2.583,1.001,3.817c0,5.06-3.938,9.118-8.983,9.118
		c-4.442,0-7.386-2.59-9.118-6.528l-5.79-13.545h-37.933l-6.031,14.163c-1.596,3.689-4.804,5.911-8.749,5.911
		c-4.924,0-8.742-3.93-8.742-8.87C215.823,401.853,216.312,400.498,216.937,399.142z M270.268,375.252l-11.942-28.439
		l-11.957,28.439H270.268z"/>
	<path style="fill:#00E676;" d="M295.145,344.539h-7.575c-2.424,0-4.412-1.995-4.412-4.42c0-2.44,1.988-4.427,4.412-4.427h7.575
		v-7.371c0-2.5,2.04-4.548,4.548-4.548s4.548,2.048,4.548,4.548v7.371h7.567c2.424,0,4.42,1.988,4.42,4.427
		c0,2.424-1.995,4.42-4.42,4.42h-7.567v7.371c0,2.5-2.048,4.548-4.548,4.548c-2.5,0-4.548-2.04-4.548-4.548V344.539z"/>
</g>
<path style="fill:#008232;" d="M470.746,66.975c-11.829-9.6-28.672-8.629-39.484,1.498l-34.364-1.318
	c-2.364-0.098-4.646,0.941-6.129,2.778L343.326,128.4c-5.248,6.453-4.254,15.94,2.191,21.18c6.453,5.24,15.94,4.262,21.18-2.206
	l-66.432,81.852l23.409,18.997L471.469,67.69C471.213,67.472,471.017,67.193,470.746,66.975z M366.697,147.366
	c5.24-6.453,4.254-15.932-2.199-21.18l35.592-43.851l18.808,0.723L366.697,147.366z"/>
<polygon style="fill:#006E31;" points="423.635,77.222 300.265,229.219 323.674,248.223 447.684,96.754 "/>
<g>
</g>
<g>
</g>
<g>
</g>
<g>
</g>
<g>
</g>
<g>
</g>
<g>
</g>
<g>
</g>
<g>
</g>
<g>
</g>
<g>
</g>
<g>
</g>
<g>
</g>
<g>
</g>
<g>
</g>
</svg>
