<?xml version="1.0" encoding="iso-8859-1"?>
<!-- Generator: Adobe Illustrator 19.0.0, SVG Export Plug-In . SVG Version: 6.00 Build 0)  -->
<svg version="1.1" id="Layer_1" xmlns="http://www.w3.org/2000/svg" xmlns:xlink="http://www.w3.org/1999/xlink" x="0px" y="0px"
	 viewBox="0 0 481.882 481.882" style="enable-background:new 0 0 481.882 481.882;" xml:space="preserve">
<path style="fill:#C5EB98;" d="M423.002,468.322c-0.768,7.71-7.236,13.56-14.991,13.56H73.871c-7.733,0-14.223-5.85-14.984-13.56
	l-28.77-280.087h421.647L423.002,468.322z"/>
<path style="fill:#ECF5E1;" d="M68.706,480.941l300.235-292.706H30.118L58.88,468.322C59.467,474.217,63.413,479.014,68.706,480.941
	z"/>
<path style="fill:#00A344;" d="M481.882,143.059v30.118c0,8.282-6.776,15.059-15.059,15.059H15.059
	C6.776,188.235,0,181.459,0,173.176v-30.118c0-1.581,0.233-3.162,0.753-4.744L26.662,78.08c2.101-6.167,7.823-10.315,14.291-10.315
	H440.93c6.46,0,12.19,4.149,14.298,10.315l25.886,60.235C481.664,139.896,481.882,141.478,481.882,143.059z"/>
<path style="fill:#00C250;" d="M481.882,143.059c0,3.087-0.971,6.249-2.854,8.809c-2.793,3.908-7.379,6.249-12.205,6.249H15.059
	C6.694,158.118,0,151.311,0,143.059c0-1.581,0.233-3.162,0.753-4.744L26.662,78.08c2.101-6.167,7.823-10.315,14.291-10.315H440.93
	c6.46,0,12.19,4.149,14.298,10.315l25.886,60.235C481.664,139.896,481.882,141.478,481.882,143.059z"/>
<path style="fill:#003B15;" d="M391.529,128c0,8.282-6.776,15.059-15.059,15.059H105.412c-8.282,0-15.059-6.776-15.059-15.059l0,0
	c0-8.282,6.776-15.059,15.059-15.059h271.059C384.753,112.941,391.529,119.718,391.529,128L391.529,128z"/>
<g>
	<ellipse style="fill:#FFFFFF;" cx="436.706" cy="131.765" rx="15.059" ry="11.294"/>
	<rect x="150.588" y="188.235" style="fill:#FFFFFF;" width="30.118" height="150.588"/>
	<path style="fill:#FFFFFF;" d="M218.353,188.235h-30.118c20.073,50.191,20.073,100.397,0,150.588h30.118
		C238.426,288.632,238.426,238.426,218.353,188.235z"/>
	<path style="fill:#FFFFFF;" d="M82.033,337.235l-13.47-26.94c20.864-10.428,51.908-43.513,51.908-91.942v-30.118h30.118v30.118
		C150.588,276.488,115.042,320.723,82.033,337.235z"/>
</g>
<rect x="301.176" y="188.235" style="fill:#ECF5E1;" width="30.118" height="150.588"/>
<polygon style="fill:#FFFFFF;" points="331.294,224.941 331.294,188.235 301.176,188.235 301.176,254.291 "/>
<path style="fill:#ECF5E1;" d="M263.529,188.235h30.118c-20.073,50.191-20.073,100.397,0,150.588h-30.118
	C243.456,288.632,243.456,238.426,263.529,188.235z"/>
<path style="fill:#FFFFFF;" d="M252.393,301.869l26.647-25.984c-1.905-29.214,2.929-58.436,14.607-87.65h-30.118
	C248.38,226.116,244.676,263.989,252.393,301.869z"/>
<path style="fill:#ECF5E1;" d="M399.849,337.235l13.47-26.94c-20.864-10.428-51.908-43.513-51.908-91.942v-30.118h-30.118v30.118
	C331.294,276.488,366.84,320.723,399.849,337.235z"/>
<g>
	<path style="fill:#FFFFFF;" d="M331.543,224.708l29.869-29.131v-7.341h-30.118v30.118
		C331.294,220.499,331.445,222.592,331.543,224.708z"/>
	<rect x="120.471" style="fill:#FFFFFF;" width="240.941" height="128"/>
</g>
<g>
</g>
<g>
</g>
<g>
</g>
<g>
</g>
<g>
</g>
<g>
</g>
<g>
</g>
<g>
</g>
<g>
</g>
<g>
</g>
<g>
</g>
<g>
</g>
<g>
</g>
<g>
</g>
<g>
</g>
</svg>
