<?xml version="1.0" encoding="iso-8859-1"?>
<!-- Generator: Adobe Illustrator 19.0.0, SVG Export Plug-In . SVG Version: 6.00 Build 0)  -->
<svg version="1.1" id="Layer_1" xmlns="http://www.w3.org/2000/svg" xmlns:xlink="http://www.w3.org/1999/xlink" x="0px" y="0px"
	 viewBox="0 0 481.882 481.882" style="enable-background:new 0 0 481.882 481.882;" xml:space="preserve">
<path style="fill:#C5EB98;" d="M198.882,166.377C89.043,166.377,0,129.28,0,83.509v314.895c0,45.764,89.043,82.869,198.882,82.869
	s198.882-37.105,198.882-82.869V83.509C397.764,129.28,308.721,166.377,198.882,166.377z"/>
<path style="fill:#ECF5E1;" d="M0,83.509v314.895c0,45.764,89.043,82.869,198.882,82.869V166.377C89.043,166.377,0,129.28,0,83.509z
	"/>
<ellipse style="fill:#FFFFFF;" cx="198.882" cy="83.509" rx="198.882" ry="82.899"/>
<g>
	<path style="fill:#64DD17;" d="M198.882,249.246C79.91,249.246,0,210.68,0,174.667v35.689
		c32.218,32.881,108.16,55.454,198.882,55.454c90.714,0,166.664-22.573,198.882-55.454v-35.689
		C397.764,210.68,317.847,249.246,198.882,249.246z"/>
	<path style="fill:#64DD17;" d="M198.882,356.969C79.91,356.969,0,318.404,0,282.391v35.697
		c32.218,32.873,108.16,55.447,198.882,55.447c90.714,0,166.664-22.573,198.882-55.447v-35.697
		C397.764,318.404,317.847,356.969,198.882,356.969z"/>
</g>
<g>
	<path style="fill:#C5EB98;" d="M198.882,249.246C79.91,249.246,0,210.68,0,174.667v35.689
		c32.218,32.881,108.16,55.454,198.882,55.454V249.246z"/>
	<path style="fill:#C5EB98;" d="M0,282.391v35.697c32.218,32.873,108.16,55.447,198.882,55.447v-16.565
		C79.91,356.969,0,318.404,0,282.391z"/>
</g>
<circle style="fill:#00C250;" cx="346.353" cy="345.743" r="135.529"/>
<path style="fill:#FFFFFF;" d="M426.12,369.137l-29.493-29.5c-0.467-2.545-1.032-5.045-1.702-7.469l17.393-17.4
	c4.043-4.028,4.043-10.586,0-14.63c-4.036-4.036-10.594-4.036-14.637,0l-11.52,11.528c-5.015-8.034-11.392-14.502-18.643-18.839
	l9.246-19.72c1.619-3.456,0.143-7.56-3.313-9.186c-3.456-1.611-7.567-0.136-9.186,3.32l-9.592,20.48
	c-2.696-0.58-5.466-0.971-8.305-0.971c-2.839,0-5.594,0.392-8.312,0.971l-9.577-20.48c-1.619-3.456-5.722-4.924-9.186-3.32
	c-3.456,1.626-4.932,5.73-3.313,9.186l9.246,19.72c-7.251,4.337-13.628,10.805-18.643,18.839l-11.535-11.528
	c-4.028-4.036-10.586-4.036-14.622,0c-4.043,4.043-4.043,10.601,0,14.63l17.393,17.4c-0.67,2.424-1.235,4.924-1.702,7.469
	l-29.493,29.5c-4.036,4.028-4.036,10.586,0,14.622c2.025,2.025,4.676,3.034,7.326,3.034s5.293-1.016,7.326-3.034l14.396-14.389
	c1.084,7.221,3.027,14.02,5.677,20.239l-20.909,20.902c-4.043,4.043-4.043,10.594,0,14.63c2.025,2.033,4.661,3.027,7.319,3.027
	c2.658,0,5.301-1.016,7.319-3.027l17.416-17.4c9.088,10.534,20.924,16.986,33.928,16.986c11.452,0,22.008-5.03,30.592-13.432
	l13.839,13.847c2.033,2.033,4.676,3.027,7.334,3.027c2.658,0,5.293-1.016,7.319-3.027c4.036-4.036,4.036-10.586,0-14.63
	l-16.166-16.158c3.772-7.424,6.46-15.88,7.838-24.983l14.389,14.389c2.033,2.025,4.676,3.034,7.326,3.034s5.293-1.016,7.326-3.034
	C430.155,379.746,430.155,373.188,426.12,369.137z"/>
<g>
</g>
<g>
</g>
<g>
</g>
<g>
</g>
<g>
</g>
<g>
</g>
<g>
</g>
<g>
</g>
<g>
</g>
<g>
</g>
<g>
</g>
<g>
</g>
<g>
</g>
<g>
</g>
<g>
</g>
</svg>
