<?xml version="1.0" encoding="iso-8859-1"?>
<!-- Generator: Adobe Illustrator 19.0.0, SVG Export Plug-In . SVG Version: 6.00 Build 0)  -->
<svg version="1.1" id="Layer_1" xmlns="http://www.w3.org/2000/svg" xmlns:xlink="http://www.w3.org/1999/xlink" x="0px" y="0px"
	 viewBox="0 0 481.882 481.882" style="enable-background:new 0 0 481.882 481.882;" xml:space="preserve">
<path style="fill:#ECF5E1;" d="M481.882,436.706c0,24.952-20.232,45.176-45.176,45.176H45.176C20.232,481.882,0,461.658,0,436.706
	V45.176C0,20.232,20.232,0,45.176,0h391.529c24.945,0,45.176,20.232,45.176,45.176V436.706z"/>
<path style="fill:#FFFFFF;" d="M436.706,0H45.176C20.232,0,0,20.232,0,45.176v391.529c0,15.646,7.959,29.425,20.043,37.527
	L474.248,20.036C466.131,7.959,452.352,0,436.706,0z"/>
<g>
	<circle style="fill:#64DD17;" cx="240.919" cy="45.176" r="15.059"/>
	<circle style="fill:#64DD17;" cx="240.919" cy="436.706" r="15.059"/>
</g>
<g>
	<path style="fill:#003B15;" d="M421.647,376.471c0,8.312-6.746,15.059-15.059,15.059H286.118c-8.312,0-15.059-6.746-15.059-15.059
		V105.412c0-8.312,6.746-15.059,15.059-15.059h120.471c8.312,0,15.059,6.746,15.059,15.059V376.471z"/>
	<path style="fill:#003B15;" d="M210.824,376.471c0,8.312-6.746,15.059-15.059,15.059H75.294c-8.312,0-15.059-6.746-15.059-15.059
		V105.412c0-8.312,6.746-15.059,15.059-15.059h120.471c8.312,0,15.059,6.746,15.059,15.059V376.471z"/>
</g>
<g>
	<path style="fill:#00E676;" d="M421.647,233.412H271.059v-128c0-8.312,6.746-15.059,15.059-15.059h120.471
		c8.312,0,15.059,6.746,15.059,15.059V233.412z"/>
	<path style="fill:#00E676;" d="M210.824,376.471c0,8.312-6.746,15.059-15.059,15.059H75.294c-8.312,0-15.059-6.746-15.059-15.059
		v-128h150.588V376.471z"/>
</g>
<g>
</g>
<g>
</g>
<g>
</g>
<g>
</g>
<g>
</g>
<g>
</g>
<g>
</g>
<g>
</g>
<g>
</g>
<g>
</g>
<g>
</g>
<g>
</g>
<g>
</g>
<g>
</g>
<g>
</g>
</svg>
