<?xml version="1.0" encoding="iso-8859-1"?>
<!-- Generator: Adobe Illustrator 19.0.0, SVG Export Plug-In . SVG Version: 6.00 Build 0)  -->
<svg version="1.1" id="Layer_1" xmlns="http://www.w3.org/2000/svg" xmlns:xlink="http://www.w3.org/1999/xlink" x="0px" y="0px"
	 viewBox="0 0 481.882 481.882" style="enable-background:new 0 0 481.882 481.882;" xml:space="preserve">
<path style="fill:#C5EB98;" d="M0,178.826L231.906,4.889c5.353-4.013,12.717-4.013,18.071,0l231.906,173.937L240.941,359.532
	L0,178.826z"/>
<polygon style="fill:#003B15;" points="240.941,359.532 391.529,246.591 391.529,58.356 90.353,58.356 90.353,246.591 "/>
<path style="fill:#FFFFFF;" d="M481.882,178.826L240.941,359.532L0,178.826v286.118c0,8.312,6.746,15.059,15.059,15.059h451.765
	c8.312,0,15.059-6.746,15.059-15.059V178.826z"/>
<polygon style="fill:#006E31;" points="90.353,58.356 90.353,246.591 109.816,261.183 312.644,58.356 "/>
<path style="fill:#FFFFFF;" d="M240.941,103.532c-45.741,0-82.824,28.657-82.824,64c0,22.453,14.999,42.18,37.647,53.602v17.928
	c0,16.632,13.485,30.118,30.118,30.118H256c16.632,0,30.118-13.485,30.118-30.118v-17.928c22.648-11.43,37.647-31.149,37.647-53.602
	C323.765,132.189,286.682,103.532,240.941,103.532z M210.824,186.356c-12.469,0-22.588-10.112-22.588-22.588
	s10.12-22.588,22.588-22.588s22.588,10.112,22.588,22.588S223.292,186.356,210.824,186.356z M271.059,186.356
	c-12.469,0-22.588-10.112-22.588-22.588s10.12-22.588,22.588-22.588c12.469,0,22.588,10.112,22.588,22.588
	S283.528,186.356,271.059,186.356z"/>
<g>
</g>
<g>
</g>
<g>
</g>
<g>
</g>
<g>
</g>
<g>
</g>
<g>
</g>
<g>
</g>
<g>
</g>
<g>
</g>
<g>
</g>
<g>
</g>
<g>
</g>
<g>
</g>
<g>
</g>
</svg>
