<?xml version="1.0" encoding="iso-8859-1"?>
<!-- Generator: Adobe Illustrator 19.0.0, SVG Export Plug-In . SVG Version: 6.00 Build 0)  -->
<svg version="1.1" id="Layer_1" xmlns="http://www.w3.org/2000/svg" xmlns:xlink="http://www.w3.org/1999/xlink" x="0px" y="0px"
	 viewBox="0 0 481.882 481.882" style="enable-background:new 0 0 481.882 481.882;" xml:space="preserve">
<path style="fill:#FFFFFF;" d="M421.647,30.118C421.647,13.485,408.162,0,391.529,0H90.353C73.72,0,60.235,13.485,60.235,30.118
	v421.647c0,16.632,13.485,30.118,30.118,30.118h301.176c16.632,0,30.118-13.485,30.118-30.118V30.118z"/>
<rect x="90.353" y="45.176" style="fill:#003B15;" width="301.176" height="361.412"/>
<circle style="fill:#C5EB98;" cx="240.941" cy="444.235" r="15.059"/>
<circle style="fill:#00E676;" cx="276.081" cy="266.014" r="10.037"/>
<rect x="308.706" y="263.529" style="fill:#008232;" width="37.647" height="7.529"/>
<circle style="fill:#00E676;" cx="276.081" cy="313.728" r="10.037"/>
<rect x="308.706" y="311.191" style="fill:#008232;" width="37.647" height="7.529"/>
<circle style="fill:#003B15;" cx="240.941" cy="22.588" r="7.529"/>
<polygon style="fill:#006E31;" points="90.421,331.294 376.471,45.244 90.421,45.244 "/>
<rect x="143.059" y="158.118" style="fill:#00E676;" width="45.176" height="52.706"/>
<rect x="218.353" y="128" style="fill:#00C250;" width="45.176" height="82.824"/>
<rect x="301.176" y="90.353" style="fill:#00A344;" width="45.176" height="120.471"/>
<circle style="fill:#56C435;" cx="180.706" cy="301.176" r="60.235"/>
<path style="fill:#C5EB98;" d="M240.941,301.176c0,33.28-26.955,60.235-60.235,60.235c-25.291,0-46.931-15.556-55.868-37.647
	l111.285-46.321C239.232,284.71,240.941,292.744,240.941,301.176z"/>
<path style="fill:#00A344;" d="M241.039,301.199c0,21.233-10.993,39.921-27.61,50.658l-32.58-51.343l55.371-23.055
	C239.322,284.732,241.039,292.774,241.039,301.199z"/>
<path style="fill:#00E676;" d="M236.122,277.444l-55.416,23.085v-59.588C205.553,240.941,226.891,256,236.122,277.444z"/>
<g>
</g>
<g>
</g>
<g>
</g>
<g>
</g>
<g>
</g>
<g>
</g>
<g>
</g>
<g>
</g>
<g>
</g>
<g>
</g>
<g>
</g>
<g>
</g>
<g>
</g>
<g>
</g>
<g>
</g>
</svg>
