<?xml version="1.0" encoding="iso-8859-1"?>
<!-- Generator: Adobe Illustrator 19.0.0, SVG Export Plug-In . SVG Version: 6.00 Build 0)  -->
<svg version="1.1" id="Layer_1" xmlns="http://www.w3.org/2000/svg" xmlns:xlink="http://www.w3.org/1999/xlink" x="0px" y="0px"
	 viewBox="0 0 481.882 481.882" style="enable-background:new 0 0 481.882 481.882;" xml:space="preserve">
<rect x="210.824" y="256" style="fill:#00C250;" width="90.353" height="203.294"/>
<path style="fill:#C5EB98;" d="M30.118,451.765V15.059C30.118,6.746,23.371,0,15.059,0S0,6.746,0,15.059v466.824h466.824
	c8.312,0,15.059-6.746,15.059-15.059c0-8.312-6.746-15.059-15.059-15.059H30.118z"/>
<rect x="75.294" y="331.294" style="fill:#008232;" width="90.353" height="120.471"/>
<g>
	<rect x="346.353" y="82.824" style="fill:#ECF5E1;" width="90.353" height="368.941"/>
	<path style="fill:#ECF5E1;" d="M355.923,163.125c3.027-68.6-50.108-126.667-118.724-129.717
		c-68.593-3.034-126.667,50.116-129.709,118.716c-0.949,21.368,3.569,41.705,12.288,59.686L12.137,319.736
		c8.651,25.856,25.916,43.076,51.787,51.659l105.803-106.074c16.715,9.63,35.878,15.601,56.486,16.512
		C294.807,284.868,352.888,231.725,355.923,163.125z"/>
</g>
<path style="fill:#FFFFFF;" d="M237.214,33.416c-68.593-3.034-126.667,50.108-129.709,118.716
	c-0.949,21.368,3.569,41.705,12.288,59.686L12.137,319.736c4.826,14.404,12.416,26.022,22.581,35.064L319.624,69.896
	C298.413,48.632,269.591,34.846,237.214,33.416z"/>
<circle style="fill:#00C250;" cx="231.71" cy="157.628" r="88.809"/>
<path style="fill:#00E676;" d="M235.648,68.902c-49.001-2.168-90.488,35.787-92.657,84.796
	c-1.144,25.954,9.035,49.732,26.097,66.741L294.536,94.984C279.379,79.789,258.778,69.926,235.648,68.902z"/>
<path style="fill:#003B15;" d="M119.793,211.81L12.137,319.736c8.651,25.856,25.916,43.076,51.787,51.659l105.803-106.074
	C148.134,252.868,130.665,234.21,119.793,211.81z"/>
<g>
	<path style="fill:#006E31;" d="M119.793,211.81L12.137,319.736c4.826,14.404,12.416,26.022,22.581,35.064l109.274-109.274
		C134.152,235.753,125.907,224.399,119.793,211.81z"/>
	<path style="fill:#006E31;" d="M146.876,288.233l22.844-22.912c-21.587-12.454-39.063-31.112-49.928-53.512l-24.704,24.772
		L146.876,288.233z"/>
</g>
<path style="fill:#56C435;" d="M119.793,211.81l-24.704,24.772l28.966,28.898l19.938-19.93
	C134.152,235.753,125.907,224.399,119.793,211.81z"/>
<g>
</g>
<g>
</g>
<g>
</g>
<g>
</g>
<g>
</g>
<g>
</g>
<g>
</g>
<g>
</g>
<g>
</g>
<g>
</g>
<g>
</g>
<g>
</g>
<g>
</g>
<g>
</g>
<g>
</g>
</svg>
