<?xml version="1.0" encoding="iso-8859-1"?>
<!-- Generator: Adobe Illustrator 19.0.0, SVG Export Plug-In . SVG Version: 6.00 Build 0)  -->
<svg version="1.1" id="Layer_1" xmlns="http://www.w3.org/2000/svg" xmlns:xlink="http://www.w3.org/1999/xlink" x="0px" y="0px"
	 viewBox="0 0 481.882 481.882" style="enable-background:new 0 0 481.882 481.882;" xml:space="preserve">
<path style="fill:#003B15;" d="M150.174,415.029l-12.152,66.854h30.607l10.662-58.647C169.585,421.18,159.383,418.5,150.174,415.029
	z"/>
<path style="fill:#ECF5E1;" d="M278.588,143.059c-61.99,56.026-65.574,177.694-61.658,261.346c0.075,2.266,0.151,4.525,0.294,6.852
	c0.309,4.525-1.498,8.892-4.894,11.889c-3.305,3.087-7.823,4.45-12.341,3.765c-26.812-3.908-74.172-13.922-79.518-35.381
	C112.941,301.176,180.706,128,180.706,128L278.588,143.059z"/>
<path style="fill:#003B15;" d="M216.93,404.405c-43.753-5.346-58.812-27.934-58.812-65.581s15.059-150.588,99.162-170.91
	C225.205,215.793,211.802,294.551,216.93,404.405z"/>
<path style="fill:#00A344;" d="M286.118,150.588c0,24.952,20.239,45.176,45.176,45.176h105.412V22.588H331.294
	c-24.945,0-45.176,20.232-45.176,45.176V150.588z"/>
<path style="fill:#00C250;" d="M286.118,67.765v41.57h150.588V22.588H331.294C306.357,22.588,286.118,42.82,286.118,67.765z"/>
<path style="fill:#FFFFFF;" d="M481.882,203.294c0,8.312-6.746,15.059-15.059,15.059h-15.059c-8.312,0-15.059-6.746-15.059-15.059
	V15.059C436.706,6.746,443.452,0,451.765,0h15.059c8.312,0,15.059,6.746,15.059,15.059V203.294z"/>
<path style="fill:#003B15;" d="M286.118,67.765c0-2.251,0.218-4.442,0.527-6.596L180.706,75.294v60.235l105.412,14.057V67.765z"/>
<path style="fill:#00A344;" d="M180.706,75.294c0-8.32-6.746-15.059-15.059-15.059H93.018c-5.052,0-9.773,2.537-12.559,6.746
	c-2.786,4.224-3.29,9.562-1.303,14.208c5.624,13.169,18.726,39.424,18.726,61.869C97.882,188.235,0,263.529,0,323.765
	s30.118,82.824,45.176,82.824c22.588,0,6.219-53.203,30.118-112.941c30.118-75.294,105.412-120.471,105.412-158.118
	C180.706,120.629,180.706,92.634,180.706,75.294z"/>
<path style="fill:#00C250;" d="M180.706,120.651c0-14.712,0-32.806,0-45.357c0-8.32-6.746-15.059-15.059-15.059H93.018
	c-5.052,0-9.773,2.537-12.552,6.746c-2.793,4.224-3.298,9.562-1.31,14.208c5.624,13.161,18.726,39.424,18.726,61.869
	c0,38.249-70.129,98.071-91.663,152.087L180.706,120.651z"/>
<g>
	<circle style="fill:#003B15;" cx="143.059" cy="105.412" r="15.059"/>
	<rect x="391.529" y="22.588" style="fill:#003B15;" width="45.176" height="173.176"/>
</g>
<rect x="391.529" y="22.588" style="fill:#006E31;" width="45.176" height="86.746"/>
<path style="fill:#C5EB98;" d="M459.294,0h-7.529c-8.312,0-15.059,6.746-15.059,15.059v188.235c0,8.312,6.746,15.059,15.059,15.059
	h7.529V0z"/>
<g>
</g>
<g>
</g>
<g>
</g>
<g>
</g>
<g>
</g>
<g>
</g>
<g>
</g>
<g>
</g>
<g>
</g>
<g>
</g>
<g>
</g>
<g>
</g>
<g>
</g>
<g>
</g>
<g>
</g>
</svg>
