<?xml version="1.0" encoding="iso-8859-1"?>
<!-- Generator: Adobe Illustrator 19.0.0, SVG Export Plug-In . SVG Version: 6.00 Build 0)  -->
<svg version="1.1" id="Layer_1" xmlns="http://www.w3.org/2000/svg" xmlns:xlink="http://www.w3.org/1999/xlink" x="0px" y="0px"
	 viewBox="0 0 479.368 479.368" style="enable-background:new 0 0 479.368 479.368;" xml:space="preserve">
<g>
	<rect x="232.151" y="225.852" style="fill:#006E31;" width="15.059" height="105.412"/>
	<path style="fill:#006E31;" d="M329.34,342.076l104.056-110.562c-3.704,0.73-7.59,0.572-11.279-0.745
		c-2.266-0.798-4.382-1.581-6.498-2.349L318.4,331.723C323.663,332.958,327.812,336.934,329.34,342.076z"/>
	<path style="fill:#006E31;" d="M160.96,331.723L63.74,228.427c-2.116,0.776-4.239,1.544-6.498,2.349
		c-3.689,1.318-7.575,1.468-11.287,0.745L150.02,342.091C151.548,336.934,155.697,332.958,160.96,331.723z"/>
</g>
<path style="fill:#ECF5E1;" d="M345.092,461.801c0,9.698-7.868,17.566-17.566,17.566H151.834c-9.698,0-17.566-7.868-17.566-17.566
	V321.25c0-9.705,7.868-17.566,17.566-17.566h175.691c9.698,0,17.566,7.861,17.566,17.566V461.801z"/>
<rect x="164.386" y="331.264" style="fill:#008232;" width="150.588" height="120.471"/>
<path style="fill:#00C250;" d="M239.68,0c0,0-110.08,27.55-119.793,214.129c-24.704,2.123-39.552,8.395-62.645,16.64
	c-6.543,2.342-13.779,1.363-19.343-2.643c-5.647-3.915-9.035-10.383-9.035-17.31C28.856,94.411,123.275,0,239.68,0z"/>
<path style="fill:#00A344;" d="M450.504,210.824c0,6.927-3.388,13.395-9.035,17.31c-5.564,3.998-12.8,4.977-19.343,2.643
	c-23.085-8.245-37.941-14.517-62.637-16.64C349.76,27.55,239.68,0,239.68,0C356.085,0,450.504,94.411,450.504,210.824z"/>
<path style="fill:#ECF5E1;" d="M359.473,214.129c-42.94-3.704-69.353,8.764-109.636,23.191c-6.551,2.342-13.786,2.342-20.329,0
	c-40.275-14.419-66.688-26.895-109.636-23.191C129.6,27.55,239.68,0,239.68,0S349.76,27.55,359.473,214.129z"/>
<g>
	<polygon style="fill:#006E31;" points="314.974,331.294 301.21,331.294 180.74,451.765 223.326,451.765 314.974,360.117 	"/>
	<polygon style="fill:#006E31;" points="314.974,407.883 271.093,451.765 314.974,451.765 	"/>
</g>
<path style="fill:#00C250;" d="M239.68,0c0,0,34.5,8.659,66.575,49.001l27.061-27.061C305.096,7.921,273.321,0,239.68,0z"/>
<path style="fill:#FFFFFF;" d="M239.68,0c0,0-110.08,27.558-119.793,214.129c7.71-0.663,14.765-0.655,21.587-0.354L306.255,48.994
	C274.18,8.659,239.68,0,239.68,0z"/>
<polygon style="fill:#006E31;" points="210.857,331.294 164.386,377.766 164.386,420.352 253.444,331.294 "/>
<g>
</g>
<g>
</g>
<g>
</g>
<g>
</g>
<g>
</g>
<g>
</g>
<g>
</g>
<g>
</g>
<g>
</g>
<g>
</g>
<g>
</g>
<g>
</g>
<g>
</g>
<g>
</g>
<g>
</g>
</svg>
