<?xml version="1.0" encoding="iso-8859-1"?>
<!-- Generator: Adobe Illustrator 19.0.0, SVG Export Plug-In . SVG Version: 6.00 Build 0)  -->
<svg version="1.1" id="Layer_1" xmlns="http://www.w3.org/2000/svg" xmlns:xlink="http://www.w3.org/1999/xlink" x="0px" y="0px"
	 viewBox="0 0 481.369 481.369" style="enable-background:new 0 0 481.369 481.369;" xml:space="preserve">
<rect x="104.898" y="14.802" style="fill:#FFFFFF;" width="376.471" height="451.765"/>
<path style="fill:#00E676;" d="M321.181,361.155c0,33.265,26.97,60.235,60.235,60.235s63.368-27.121,60.235-60.235
	c-3.185-33.709-29.32-60.552-60.235-60.235C348.151,301.266,321.181,327.89,321.181,361.155z"/>
<path style="fill:#00A344;" d="M321.181,361.155c0,33.28,26.955,60.235,60.235,60.235c25.291,0,46.931-15.556,55.868-37.647
	l-111.277-46.321C322.882,344.688,321.181,352.722,321.181,361.155z"/>
<path style="fill:#C5EB98;" d="M321.083,361.185c0,21.225,10.993,39.913,27.61,50.65l32.572-51.343l-55.371-23.055
	C322.784,344.711,321.083,352.752,321.083,361.185z"/>
<path style="fill:#008232;" d="M325.992,337.422l55.416,23.085V300.92C356.561,300.92,335.231,315.979,325.992,337.422z"/>
<rect x="406.075" y="112.684" style="fill:#00C250;" width="30.118" height="135.529"/>
<g>
	<rect x="351.201" y="172.92" style="fill:#00E676;" width="30.118" height="75.294"/>
	<circle style="fill:#00E676;" cx="280.56" cy="324.788" r="11.294"/>
</g>
<rect x="178.024" y="321.001" style="fill:#C5EB98;" width="75.294" height="7.529"/>
<circle style="fill:#00E676;" cx="280.56" cy="363.64" r="11.294"/>
<rect x="178.024" y="359.905" style="fill:#C5EB98;" width="75.294" height="7.529"/>
<circle style="fill:#00E676;" cx="280.56" cy="402.567" r="11.294"/>
<rect x="178.024" y="398.802" style="fill:#C5EB98;" width="75.294" height="7.529"/>
<path style="fill:#003B15;" d="M125.544,248.372l-81.303,81.295c-10.127,10.135-26.519,10.135-36.646,0
	c-10.12-10.12-10.12-26.511,0-36.631l81.483-81.483C98.107,226.574,110.606,239.216,125.544,248.372z"/>
<path style="fill:#006E31;" d="M104.838,231.845L7.325,329.343c-9.848-10.12-9.758-26.278,0.226-36.307l81.528-81.528
	C93.521,218.879,98.837,225.708,104.838,231.845z"/>
<path style="fill:#FFFFFF;" d="M183.204,264.026c-60.198,0-109.176-48.979-109.176-109.176S123.007,45.673,183.204,45.673
	s109.176,48.979,109.176,109.176S243.409,264.026,183.204,264.026z"/>
<path style="fill:#56C435;" d="M183.957,44.829c60.326,0,109.267,48.941,109.267,109.267s-48.941,109.267-109.267,109.267
	c-60.544,0-109.267-49.4-109.267-109.267C74.69,93.771,123.632,44.829,183.957,44.829 M183.957,29.861
	c-68.503,0-124.235,55.733-124.235,124.235c0,68.51,55.733,124.235,124.235,124.235s124.235-55.725,124.235-124.235
	C308.192,85.594,252.46,29.861,183.957,29.861L183.957,29.861z"/>
<circle style="fill:#00C250;" cx="183.204" cy="154.849" r="87.032"/>
<path style="fill:#00E676;" d="M183.204,67.824c-48.06,0-87.032,38.965-87.032,87.025c0,23.778,9.57,45.312,25.02,61.018
	L244.215,92.844C228.516,77.387,206.99,67.824,183.204,67.824z"/>
<g>
</g>
<g>
</g>
<g>
</g>
<g>
</g>
<g>
</g>
<g>
</g>
<g>
</g>
<g>
</g>
<g>
</g>
<g>
</g>
<g>
</g>
<g>
</g>
<g>
</g>
<g>
</g>
<g>
</g>
</svg>
