<svg height="512pt" viewBox="0 -10 512 512" width="512pt" xmlns="http://www.w3.org/2000/svg" xmlns:xlink="http://www.w3.org/1999/xlink"><linearGradient id="a" gradientUnits="userSpaceOnUse" x1="256" x2="256" y1="0" y2="492"><stop offset="0" stop-color="#2af598"/><stop offset="1" stop-color="#009efd"/></linearGradient><path d="m452 0h-392c-33.085938 0-60 26.914062-60 60v352c0 33.085938 26.914062 60 60 60h178v-40h-178c-11.027344 0-20-8.972656-20-20v-252h432v72h40v-172c0-33.085938-26.914062-60-60-60zm-412 120v-60c0-11.027344 8.972656-20 20-20h392c11.027344 0 20 8.972656 20 20v60zm70-40c0 11.046875-8.953125 20-20 20s-20-8.953125-20-20 8.953125-20 20-20 20 8.953125 20 20zm70 0c0 11.046875-8.953125 20-20 20s-20-8.953125-20-20 8.953125-20 20-20 20 8.953125 20 20zm212 172c-66.167969 0-120 53.832031-120 120s53.832031 120 120 120 120-53.832031 120-120-53.832031-120-120-120zm77.46875 100h-21.886719c-1.0625-15.535156-3.363281-30.257812-6.765625-43.316406 13.867188 10.71875 24.144532 25.863281 28.652344 43.316406zm-92.953125 40h30.96875c-2.46875 30.9375-10.269531 50.730469-15.484375 57.90625-5.214844-7.175781-13.015625-26.96875-15.484375-57.90625zm0-40c2.46875-30.9375 10.269531-50.730469 15.484375-57.90625 5.214844 7.175781 13.015625 26.96875 15.484375 57.90625zm-33.332031-43.316406c-3.402344 13.058594-5.699219 27.777344-6.765625 43.316406h-21.886719c4.507812-17.453125 14.785156-32.597656 28.652344-43.316406zm-28.652344 83.316406h21.886719c1.0625 15.535156 3.363281 30.257812 6.765625 43.316406-13.867188-10.71875-24.144532-25.863281-28.652344-43.316406zm126.285156 43.316406c3.402344-13.058594 5.699219-27.777344 6.765625-43.316406h21.886719c-4.507812 17.453125-14.785156 32.597656-28.652344 43.316406zm0 0" fill="url(#a)"/></svg>