<?xml version="1.0" encoding="iso-8859-1"?>
<!-- Generator: Adobe Illustrator 19.0.0, SVG Export Plug-In . SVG Version: 6.00 Build 0)  -->
<svg version="1.1" id="Layer_1" xmlns="http://www.w3.org/2000/svg" xmlns:xlink="http://www.w3.org/1999/xlink" x="0px" y="0px"
	 viewBox="0 0 481.882 481.882" style="enable-background:new 0 0 481.882 481.882;" xml:space="preserve">
<path style="fill:#ECF5E1;" d="M70.272,139.294C22.588,169.412,0,222.118,0,259.765c0,26.722,0,106.504,0,150.588
	c0,16.632,13.485,30.118,30.118,30.118h60.235V139.294H70.272z"/>
<g>
	<path style="fill:#C5EB98;" d="M110.434,139.294c47.684,30.118,70.272,82.824,70.272,120.471c0,26.722,0,106.504,0,150.588
		c0,16.632-13.485,30.118-30.118,30.118H90.353V139.294H110.434z"/>
	<path style="fill:#C5EB98;" d="M135.529,86.588c-15.059-10.037-30.118-15.059-45.176-15.059v45.176h22.588L135.529,86.588z"/>
</g>
<g>
	<path style="fill:#ECF5E1;" d="M45.176,86.588l22.588,30.118h22.588V71.529C75.294,71.529,60.235,76.552,45.176,86.588z"/>
	<path style="fill:#ECF5E1;" d="M371.448,139.294c-47.684,30.118-70.272,82.824-70.272,120.471c0,26.722,0,106.504,0,150.588
		c0,16.632,13.485,30.118,30.118,30.118h60.235V139.294H371.448z"/>
</g>
<g>
	<path style="fill:#C5EB98;" d="M411.61,139.294c47.684,30.118,70.272,82.824,70.272,120.471c0,26.722,0,106.504,0,150.588
		c0,16.632-13.485,30.118-30.118,30.118h-60.235V139.294H411.61z"/>
	<path style="fill:#C5EB98;" d="M436.706,86.588c-15.059-10.037-30.118-15.059-45.176-15.059v45.176h22.588L436.706,86.588z"/>
</g>
<path style="fill:#ECF5E1;" d="M346.353,86.588l22.588,30.118h22.588V71.529C376.471,71.529,361.412,76.552,346.353,86.588z"/>
<path style="fill:#C5EB98;" d="M391.529,259.765c0-58.217-82.824-150.588-112.941-150.588h-75.294
	c-30.118,0-112.941,92.371-112.941,150.588v180.706c0,16.632,13.485,30.118,30.118,30.118h240.941
	c16.632,0,30.118-13.485,30.118-30.118V259.765z"/>
<path style="fill:#FFFFFF;" d="M203.294,109.176c-30.118,0-112.941,92.371-112.941,150.588v180.706
	c0,16.632,13.485,30.118,30.118,30.118h120.471V109.176H203.294z"/>
<path style="fill:#C5EB98;" d="M210.824,79.059l-30.118-45.176c40.154-30.118,80.316-30.118,120.471,0l-30.118,45.176H210.824z"/>
<circle style="fill:#00C250;" cx="240.941" cy="304.941" r="90.353"/>
<path style="fill:#FFFFFF;" d="M180.706,33.882l30.118,45.176h30.118V11.294C220.86,11.294,200.787,18.824,180.706,33.882z"/>
<g>
	<path style="fill:#003B15;" d="M112.941,116.706H67.765c-4.164,0-7.529,3.373-7.529,7.529v1.19l-22.837,15.066
		c-1.114,0.738-1.897,1.882-2.161,3.192c-0.264,1.31,0,2.665,0.745,3.787l3.486,5.218c0.881,1.325,2.342,2.146,3.923,2.221
		c1.589,0.09,3.125-0.595,4.126-1.822l8.719-10.624l-5.18,20.713c-0.384,1.498-0.045,3.087,0.911,4.307
		c0.949,1.212,2.417,1.928,3.96,1.928h8.629c2.763,0,5.015-2.251,5.015-5.015v-25.103h43.369c4.164,0,7.529-3.366,7.529-7.529
		v-7.529C120.471,120.079,117.105,116.706,112.941,116.706z"/>
	<path style="fill:#003B15;" d="M446.645,143.684c-0.264-1.31-1.047-2.455-2.161-3.192l-22.837-15.066v-1.19
		c0-4.156-3.366-7.529-7.529-7.529h-45.176c-4.164,0-7.529,3.373-7.529,7.529v7.529c0,4.164,3.366,7.529,7.529,7.529h43.369v25.103
		c0,2.763,2.251,5.015,5.015,5.015h8.629c1.544,0,2.997-0.715,3.953-1.928c0.956-1.22,1.28-2.808,0.904-4.307l-5.18-20.713
		l8.719,10.624c1.001,1.227,2.545,1.912,4.134,1.822c1.589-0.075,3.042-0.896,3.923-2.221l3.494-5.218
		C446.645,146.357,446.908,144.994,446.645,143.684z"/>
	<path style="fill:#003B15;" d="M326.332,130.824c-0.399-1.973-1.566-3.689-3.238-4.796l-36.977-24.38V86.588
		c0-4.156-3.366-7.529-7.529-7.529h-75.294c-4.164,0-7.529,3.373-7.529,7.529v15.059c0,4.164,3.366,7.529,7.529,7.529h60.235v52.706
		c0,4.164,3.366,7.529,7.529,7.529h12.943c2.327,0,4.518-1.069,5.941-2.899c1.423-1.822,1.928-4.209,1.37-6.453l-12.725-50.884
		l29.327,35.75c1.513,1.837,3.81,2.861,6.189,2.741c2.379-0.12,4.563-1.363,5.888-3.343l5.21-7.831
		C326.325,134.822,326.739,132.789,326.332,130.824z"/>
</g>
<path style="fill:#00E676;" d="M240.941,214.588c-49.897,0-90.353,40.456-90.353,90.353s40.456,90.353,90.353,90.353V214.588z"/>
<path style="fill:#FFFFFF;" d="M239.759,251.723c2.982,0,5.361,2.357,5.361,5.353v2.733c7.341,0.866,13.576,3.238,19.298,6.837
	c1.995,1.129,3.735,2.997,3.735,5.986c0,3.87-3.11,6.852-6.972,6.852c-1.25,0-2.5-0.384-3.735-1.114
	c-4.367-2.62-8.606-4.488-12.838-5.489v23.913c18.936,4.736,27.031,12.341,27.031,25.653c0,13.696-10.714,22.784-26.519,24.29v7.469
	c0,2.982-2.364,5.353-5.361,5.353c-2.989,0-5.481-2.357-5.481-5.353v-7.718c-9.344-1.001-17.943-4.352-25.54-9.705
	c-2.116-1.378-3.358-3.358-3.358-5.986c0-3.863,2.982-6.852,6.844-6.852c1.498,0,2.989,0.497,4.111,1.385
	c5.85,4.239,11.58,7.085,18.432,8.335v-24.531c-18.184-4.744-26.654-11.588-26.654-25.66c0-13.327,10.586-22.543,26.165-23.785
	v-2.613C234.278,254.08,236.762,251.723,239.759,251.723z M234.775,294.174v-22.046c-7.974,0.753-11.957,4.984-11.957,10.466
	C222.818,287.842,225.182,291.064,234.775,294.174z M244.608,311.484v22.679c7.974-0.866,12.333-4.864,12.333-10.835
	C256.941,317.854,254.208,314.488,244.608,311.484z"/>
<g>
</g>
<g>
</g>
<g>
</g>
<g>
</g>
<g>
</g>
<g>
</g>
<g>
</g>
<g>
</g>
<g>
</g>
<g>
</g>
<g>
</g>
<g>
</g>
<g>
</g>
<g>
</g>
<g>
</g>
</svg>
