<?xml version="1.0" encoding="iso-8859-1"?>
<!-- Generator: Adobe Illustrator 19.0.0, SVG Export Plug-In . SVG Version: 6.00 Build 0)  -->
<svg version="1.1" id="Layer_1" xmlns="http://www.w3.org/2000/svg" xmlns:xlink="http://www.w3.org/1999/xlink" x="0px" y="0px"
	 viewBox="0 0 481.882 481.882" style="enable-background:new 0 0 481.882 481.882;" xml:space="preserve">
<path style="fill:#FFFFFF;" d="M421.647,0c33.28,0,60.235,26.955,60.235,60.235v361.412c0,33.28-26.955,60.235-60.235,60.235H60.235
	C26.955,481.882,0,454.927,0,421.647V60.235C0,26.955,26.955,0,60.235,0H421.647z"/>
<path style="fill:#00A344;" d="M421.647,0H60.235C26.97,0,0,26.97,0,60.235v30.118h481.882V60.235
	C481.882,26.97,454.912,0,421.647,0z"/>
<rect x="60.235" y="135.529" style="fill:#00E676;" width="105.412" height="105.412"/>
<g>
	<rect x="60.235" y="271.059" style="fill:#C5EB98;" width="105.412" height="15.059"/>
	<rect x="60.235" y="308.706" style="fill:#C5EB98;" width="105.412" height="15.059"/>
	<rect x="60.235" y="346.353" style="fill:#C5EB98;" width="105.412" height="15.059"/>
	<rect x="60.235" y="384" style="fill:#C5EB98;" width="67.765" height="15.059"/>
</g>
<g>
	<circle style="fill:#006E31;" cx="112.941" cy="180.706" r="30.118"/>
	<path style="fill:#006E31;" d="M165.647,240.941v-13.176c-7.529-8.471-22.588-16.941-52.706-16.941s-45.176,8.471-52.706,16.941
		v13.176H165.647z"/>
</g>
<path style="fill:#FFFFFF;" d="M73.615,28.439h6.694v-13.38h-6.694c-14.728,0-20.073,12.009-20.073,20.081v6.694h-13.38v13.38h13.38
	v20.081h13.38V55.213h13.38v-13.38h-13.38v-6.611C67.004,32.136,68.232,28.439,73.615,28.439z"/>
<g>
	<rect x="210.824" y="135.529" style="fill:#00E676;" width="210.824" height="105.412"/>
	<rect x="210.824" y="278.588" style="fill:#00E676;" width="210.824" height="52.706"/>
	<rect x="210.824" y="361.412" style="fill:#00E676;" width="210.824" height="67.765"/>
</g>
<g>
</g>
<g>
</g>
<g>
</g>
<g>
</g>
<g>
</g>
<g>
</g>
<g>
</g>
<g>
</g>
<g>
</g>
<g>
</g>
<g>
</g>
<g>
</g>
<g>
</g>
<g>
</g>
<g>
</g>
</svg>
