<?xml version="1.0" encoding="iso-8859-1"?>
<!-- Generator: Adobe Illustrator 19.0.0, SVG Export Plug-In . SVG Version: 6.00 Build 0)  -->
<svg version="1.1" id="Layer_1" xmlns="http://www.w3.org/2000/svg" xmlns:xlink="http://www.w3.org/1999/xlink" x="0px" y="0px"
	 viewBox="0 0 481.882 481.882" style="enable-background:new 0 0 481.882 481.882;" xml:space="preserve">
<path style="fill:#003B15;" d="M481.882,361.412c0,33.265-26.97,60.235-60.235,60.235H60.235C26.97,421.647,0,394.677,0,361.412
	V120.471c0-33.265,26.97-60.235,60.235-60.235h361.412c33.265,0,60.235,26.97,60.235,60.235V361.412z"/>
<path style="fill:#006E31;" d="M60.235,60.235C26.97,60.235,0,87.206,0,120.471v240.941c0,19.531,9.329,36.841,23.725,47.842
	L372.744,60.235H60.235z"/>
<path style="fill:#FFFFFF;" d="M421.647,60.235H60.235C26.97,60.235,0,87.206,0,120.471v30.118h481.882v-30.118
	C481.882,87.206,454.912,60.235,421.647,60.235z"/>
<g>
	<circle style="fill:#00E676;" cx="67.765" cy="112.941" r="15.059"/>
	<circle style="fill:#00E676;" cx="128" cy="112.941" r="15.059"/>
	<circle style="fill:#00E676;" cx="188.235" cy="112.941" r="15.059"/>
</g>
<g>
	<path style="fill:#FFFFFF;" d="M311.718,332.8c-5-6.656-3.644-16.098,2.997-21.082l44.175-33.129l-44.16-33.129
		c-6.656-4.984-8.004-14.426-3.004-21.082c5-6.656,14.426-8.004,21.09-3.004l60.235,45.176c3.787,2.839,6.024,7.319,6.024,12.055
		c0,4.736-2.236,9.216-6.024,12.055l-60.235,45.176C326.129,340.811,316.695,339.433,311.718,332.8z"/>
	<path style="fill:#FFFFFF;" d="M149.082,335.812l-60.235-45.176c-3.787-2.839-6.024-7.311-6.024-12.047
		c0-4.736,2.236-9.208,6.024-12.047l60.235-45.176c6.648-4.992,16.09-3.644,21.082,3.004c4.992,6.648,3.644,16.098-3.004,21.09
		l-44.183,33.129l44.175,33.129c6.656,4.984,8.004,14.426,3.004,21.082C165.218,339.396,155.784,340.841,149.082,335.812z"/>
	<path style="fill:#FFFFFF;" d="M211.614,337.235c-7.439-3.72-10.458-12.762-6.739-20.209l45.176-90.353
		c3.72-7.439,12.755-10.451,20.216-6.739c7.432,3.72,10.458,12.762,6.739,20.209l-45.176,90.353
		C228.134,337.875,219.121,340.977,211.614,337.235z"/>
</g>
<g>
</g>
<g>
</g>
<g>
</g>
<g>
</g>
<g>
</g>
<g>
</g>
<g>
</g>
<g>
</g>
<g>
</g>
<g>
</g>
<g>
</g>
<g>
</g>
<g>
</g>
<g>
</g>
<g>
</g>
</svg>
