<svg id="Capa_1" enable-background="new 0 0 512 512" height="512" viewBox="0 0 512 512" width="512" xmlns="http://www.w3.org/2000/svg"><path d="m512 256c0 44.72-11.47 86.76-31.63 123.34-11.57 21.01-26 40.21-42.77 57.09-.11.11-.21.21-.32.32l-98.29 20.31c-54.45 11.25-110.86 8.62-164.03-7.65l-121.84-37.28c-7.93-10.28-15.09-21.19-21.4-32.63-1.95-3.53-3.82-7.12-5.6-10.75l6.95-238.67c43.95-77.66 127.32-130.08 222.93-130.08 141.38 0 256 114.62 256 256z" fill="#65b2fe"/><path d="m512 256c0 70.55-28.55 134.44-74.72 180.75l-98.286 20.31c-54.453 11.252-110.862 8.623-164.032-7.647l-121.842-37.283h-.01c-10.37-13.46-19.44-27.98-26.99-43.38l6.95-238.66v-.01c.2-.36.41-.72.61-1.08 44.12 77.07 127.16 129 222.32 129s178.21-51.93 222.32-129c21.43 37.43 33.68 80.78 33.68 127z" fill="#0e9ce7"/><path d="m239.54 436.76h-127.28l25.46-121h76.36z" fill="#aed2fd"/><path d="m239.54 436.76h-63.64v-121h38.18z" fill="#8cb3ff"/><path d="m305.7 412.13v24.63h-230.97c-7.71-7.74-14.94-15.96-21.61-24.63z" fill="#fff"/><path d="m351.8 146.31v206.2c0 8.97-7.26 16.24-16.23 16.24h-309.45c-16.73-34.02-26.12-72.29-26.12-112.75 0-45.77 12.02-88.74 33.07-125.92h302.5c8.97 0 16.23 7.26 16.23 16.23z" fill="#fff"/><path d="m335.57 130.08h-240.74c-5.16 0-9.35 4.19-9.35 9.35v229.32h250.09c8.97 0 16.23-7.27 16.23-16.24v-206.2c0-8.97-7.26-16.23-16.23-16.23z" fill="#d1f6ff"/><path d="m351.8 146.31v206.2c0 8.97-7.26 16.24-16.23 16.24h-159.67v-238.67h159.67c8.97 0 16.23 7.26 16.23 16.23z" fill="#8fc8f5"/><path d="m335.57 130.08h-302.5c-21.05 37.18-33.07 80.15-33.07 125.92 0 20.58 2.43 40.59 7.03 59.76h344.77v-169.45c0-8.97-7.26-16.23-16.23-16.23z" fill="#4e689b"/><path d="m335.57 130.08h-233.86c-8.97 0-16.23 7.26-16.23 16.23v169.45h266.32v-169.45c0-8.97-7.26-16.23-16.23-16.23z" fill="#374c81"/><path d="m351.8 146.31v169.45h-175.9v-185.68h159.67c8.97 0 16.23 7.26 16.23 16.23z" fill="#234177"/><path d="m28.31 158.39v129.06h295.18v-129.06z" fill="#374c81"/><path d="m85.48 158.39v129.06h238.01v-129.06z" fill="#234177"/><path d="m193.5 342.78c0 9.73-7.88 17.61-17.6 17.61s-17.6-7.88-17.6-17.61c0-9.72 7.88-17.6 17.6-17.6s17.6 7.88 17.6 17.6z" fill="#374c81"/><path d="m175.9 158.39h147.59v129.06h-147.59z" fill="#22283a"/><path d="m193.5 342.78c0 9.73-7.88 17.61-17.6 17.61v-35.21c9.72 0 17.6 7.88 17.6 17.6z" fill="#234177"/><path d="m175.9 412.13h129.801v24.63h-129.801z" fill="#d1f6ff"/><path d="m437.28 436.76c-9.48 9.5-19.69 18.26-30.56 26.18-5.52 4.04-11.21 7.85-17.06 11.44-35.99 22.07-77.85 35.5-122.7 37.39-3.63.15-7.29.23-10.96.23-48.98 0-94.75-13.76-133.65-37.62-5.85-3.59-11.54-7.4-17.07-11.44-10.86-7.92-21.08-16.68-30.56-26.18z" fill="#c55733"/><path d="m437.28 436.76c-43.95 44.07-103.86 72.21-170.32 75.01-3.63.15-7.29.23-10.96.23v-75.24z" fill="#a63917"/><path d="m122.081 474.212c.09.055.178.113.269.168 38.9 23.86 84.67 37.62 133.65 37.62 3.67 0 7.33-.08 10.96-.23 44.85-1.89 86.71-15.32 122.7-37.39.09-.055.178-.113.268-.168z" fill="#83250d"/><path d="m256 474.212v37.788c3.67 0 7.33-.08 10.96-.23 44.85-1.89 86.71-15.32 122.7-37.39.09-.055.178-.113.268-.168z" fill="#531d10"/><path d="m474.41 246.6v142.98c-10.51 17.17-22.99 32.99-37.13 47.17l-.01.01h-37.58v-190.16z" fill="#374c81"/><path d="m474.41 246.6v142.98c-10.51 17.17-22.99 32.99-37.13 47.17v-190.15z" fill="#234177"/><path d="m454.83 227.57v128.75c0 9.693-7.857 17.55-17.55 17.55h-.46c-9.693 0-17.55-7.857-17.55-17.55v-128.75c0-9.693 7.857-17.55 17.55-17.55h.46c9.693 0 17.55 7.857 17.55 17.55z" fill="#fe3345"/><path d="m454.83 227.57v128.75c0 9.693-7.857 17.55-17.55 17.55v-163.85c9.693 0 17.55 7.857 17.55 17.55z" fill="#de1263"/><path d="m343.889 356.169 4.717 37.185-9.038 1.147-4.717-37.185c-.313-2.464 1.431-4.714 3.895-5.027l.117-.015c2.463-.312 4.713 1.432 5.026 3.895z" fill="#fe3345"/><path d="m343.889 356.169 4.717 37.185-4.461.566-5.283-41.646c2.464-.312 4.714 1.432 5.027 3.895z" fill="#de1263"/><path d="m376.975 357.828-3.393 37.329-9.073-.825 3.392-37.329c.225-2.473 2.412-4.296 4.885-4.071l.117.011c2.475.225 4.297 2.412 4.072 4.885z" fill="#ffe853"/><path d="m376.975 357.828-3.393 37.329-4.478-.407 3.799-41.807c2.475.225 4.297 2.412 4.072 4.885z" fill="#fed110"/><path d="m377.795 436.76h-42.172l-5.351-54.124h52.874z" fill="#4e689b"/><path d="m377.795 436.76h-32.705l-2.949-54.124h41.005z" fill="#374c81"/><path d="m377.795 436.76h-21.086v-54.124h26.437z" fill="#234177"/></svg>