<?xml version="1.0" encoding="iso-8859-1"?>
<!-- Generator: Adobe Illustrator 19.0.0, SVG Export Plug-In . SVG Version: 6.00 Build 0)  -->
<svg version="1.1" id="Layer_1" xmlns="http://www.w3.org/2000/svg" xmlns:xlink="http://www.w3.org/1999/xlink" x="0px" y="0px"
	 viewBox="0 0 481.882 481.882" style="enable-background:new 0 0 481.882 481.882;" xml:space="preserve">
<path style="fill:#00A344;" d="M406.588,37.647H301.176v45.176h105.412c12.454,0,22.588,10.135,22.588,22.588v308.706
	c0,12.454-10.135,22.588-22.588,22.588H75.294c-12.454,0-22.588-10.135-22.588-22.588V105.412c0-12.454,10.135-22.588,22.588-22.588
	h75.294v37.647l90.353-60.235L150.588,0v37.647H75.294c-37.368,0-67.765,30.396-67.765,67.765v308.706
	c0,37.368,30.396,67.765,67.765,67.765h331.294c37.368,0,67.765-30.396,67.765-67.765V105.412
	C474.353,68.043,443.957,37.647,406.588,37.647z"/>
<g>
	<path style="fill:#00C250;" d="M52.706,414.118V105.412c0-12.454,10.135-22.588,22.588-22.588h75.294V37.647H75.294
		c-37.368,0-67.765,30.396-67.765,67.765v308.706c0,22.43,10.985,42.263,27.814,54.611l33.175-33.167
		C59.384,432.655,52.706,424.2,52.706,414.118z"/>
	<path style="fill:#00C250;" d="M406.588,37.647H301.176v45.176h105.412c4.194,0,8.072,1.22,11.445,3.223l32.309-32.301
		C438.513,43.723,423.258,37.647,406.588,37.647z"/>
	<polygon style="fill:#00C250;" points="150.588,0 150.588,120.471 240.941,60.235 	"/>
</g>
<g>
	<path style="fill:#FFFFFF;" d="M116.563,210.071c13.485-25.811,35.81-37.444,58.36-37.444c36.277,0,55.115,24.885,55.115,50.696
		c0,15.345-5.579,32.09-20.465,46.042l-36.269,30.456h56.501v39.529H123.776l-10.473-21.624l66.974-75.339
		c22.091-24.885-14.411-48.602-32.557-15.352L116.563,210.071z"/>
	<path style="fill:#FFFFFF;" d="M365.35,303.797h-15.352v35.81h-39.763v-35.81h-57.894l-13.252-24.425l76.732-104.41h34.176v95.112
		h15.352L365.35,303.797L365.35,303.797z M313.261,270.547l0.467-42.104l-29.538,42.104H313.261z"/>
</g>
<g>
</g>
<g>
</g>
<g>
</g>
<g>
</g>
<g>
</g>
<g>
</g>
<g>
</g>
<g>
</g>
<g>
</g>
<g>
</g>
<g>
</g>
<g>
</g>
<g>
</g>
<g>
</g>
<g>
</g>
</svg>
