<?xml version="1.0" encoding="iso-8859-1"?>
<!-- Generator: Adobe Illustrator 19.0.0, SVG Export Plug-In . SVG Version: 6.00 Build 0)  -->
<svg version="1.1" id="Layer_1" xmlns="http://www.w3.org/2000/svg" xmlns:xlink="http://www.w3.org/1999/xlink" x="0px" y="0px"
	 viewBox="0 0 481.882 481.882" style="enable-background:new 0 0 481.882 481.882;" xml:space="preserve">
<path style="fill:#FFFFFF;" d="M60.235,28.913C60.235,12.943,73.178,0,89.148,0h212.028l120.471,101.195v351.774
	c0,15.97-12.943,28.913-28.913,28.913H89.148c-15.97,0-28.913-12.943-28.913-28.913V28.913z"/>
<path style="fill:#C5EB98;" d="M301.176,0v72.282c0,15.97,12.943,28.913,28.913,28.913h91.558"/>
<g>
	<rect x="233.412" style="fill:#006E31;" width="37.647" height="22.588"/>
	<rect x="195.765" y="22.588" style="fill:#006E31;" width="37.647" height="22.588"/>
	<rect x="233.412" y="45.176" style="fill:#006E31;" width="37.647" height="22.588"/>
	<rect x="195.765" y="67.765" style="fill:#006E31;" width="37.647" height="22.588"/>
	<rect x="233.412" y="90.353" style="fill:#006E31;" width="37.647" height="22.588"/>
	<rect x="195.765" y="112.941" style="fill:#006E31;" width="37.647" height="22.588"/>
	<rect x="233.412" y="135.529" style="fill:#006E31;" width="37.647" height="22.588"/>
	<rect x="195.765" y="158.118" style="fill:#006E31;" width="37.647" height="22.588"/>
	<rect x="233.412" y="180.706" style="fill:#006E31;" width="37.647" height="22.588"/>
	<rect x="195.765" y="203.294" style="fill:#006E31;" width="37.647" height="22.588"/>
	<rect x="233.412" y="225.882" style="fill:#006E31;" width="37.647" height="22.588"/>
	<rect x="195.765" y="248.471" style="fill:#006E31;" width="37.647" height="22.588"/>
	<path style="fill:#006E31;" d="M195.765,286.118v60.235c0,16.565,13.553,30.118,30.118,30.118h15.059
		c16.565,0,30.118-13.553,30.118-30.118v-60.235H195.765z M248.471,331.294c0,8.282-6.776,15.059-15.059,15.059
		c-8.282,0-15.059-6.776-15.059-15.059v-15.059h30.118V331.294z"/>
</g>
<g>
</g>
<g>
</g>
<g>
</g>
<g>
</g>
<g>
</g>
<g>
</g>
<g>
</g>
<g>
</g>
<g>
</g>
<g>
</g>
<g>
</g>
<g>
</g>
<g>
</g>
<g>
</g>
<g>
</g>
</svg>
