<svg height="512" viewBox="0 0 128 128" width="512" xmlns="http://www.w3.org/2000/svg"><g><g><path d="m126.25 78.25a30 30 0 0 0 -30-30h-82.313l-5-14.967h-7.187v25.465h39.25l14.9 25.5h69.063a14.672 14.672 0 0 0 1.287-5.998z" fill="#5e8569"/><path d="m82.492 36.626h-31.484l-10.008 11.624h51.5z" fill="#424242"/><path d="m62.75 26.215h8v10.412h-8z" fill="#e6e9ed"/><path d="m75.594 23.857v-8h28.906a8 8 0 0 1 8 8z" fill="#fbb540"/><path d="m57.906 23.857v-8h-28.906a8 8 0 0 0 -8 8z" fill="#fbb540"/><path d="m57.906 13.5h17.687v12.715h-17.687z" fill="#424242"/><path d="m119.145 114.5h-64.297l-6.2-7.596 6.197-5.058 3.8 4.654h56.703l3.8-4.654 6.197 5.058z" fill="#424242"/><path d="m69.844 93h8v13.5h-8z" fill="#e6e9ed"/><path d="m92.5 93h8v13.5h-8z" fill="#e6e9ed"/><path d="m117.666 57.25h-29.479v1.406a18.469 18.469 0 0 0 18.469 18.469h19.566a29.89 29.89 0 0 0 -8.556-19.875z" fill="#85bc94"/><path d="m78.187 58.656v-1.406h-17.021v9.458a10.417 10.417 0 0 0 10.417 10.417h13.435a28.334 28.334 0 0 1 -6.831-18.469z" fill="#85bc94"/><path d="m55.9 84.25.842 1.442a14.75 14.75 0 0 0 12.738 7.308h42.02a14.743 14.743 0 0 0 13.466-8.75z" fill="#424242"/></g><g fill="#332319"><path d="m126.452 105.549-6.2-5.059a1.749 1.749 0 0 0 -2.462.249l-3.274 4.011h-12.266v-10h9.25a16.522 16.522 0 0 0 15.062-9.782v-.005a16.362 16.362 0 0 0 1.438-6.713 32.263 32.263 0 0 0 -3.144-13.769 31.733 31.733 0 0 0 -5.941-8.456c-.03-.031-.066-.054-.1-.082a31.649 31.649 0 0 0 -22.565-9.443h-2.95l-9.482-11.015a1.748 1.748 0 0 0 -1.326-.608h-9.992v-6.912h3.094a1.751 1.751 0 0 0 1.75-1.75v-.608h35.156a1.749 1.749 0 0 0 1.75-1.75 9.761 9.761 0 0 0 -9.75-9.75h-27.156v-.607a1.751 1.751 0 0 0 -1.75-1.75h-17.688a1.75 1.75 0 0 0 -1.75 1.75v.607h-27.156a9.761 9.761 0 0 0 -9.75 9.75 1.749 1.749 0 0 0 1.75 1.75h35.156v.608a1.75 1.75 0 0 0 1.75 1.75h3.094v6.912h-9.992a1.748 1.748 0 0 0 -1.326.608l-9.482 11.015h-25l-4.6-13.772a1.752 1.752 0 0 0 -1.66-1.2h-7.19a1.749 1.749 0 0 0 -1.75 1.755v25.465a1.75 1.75 0 0 0 1.75 1.752h7.781a1.75 1.75 0 0 0 0-3.5h-6.031v-21.967h4.174l4.6 13.772a1.752 1.752 0 0 0 1.66 1.2h82.316a28.1 28.1 0 0 1 16.724 5.5h-24.787a1.751 1.751 0 0 0 -1.75 1.75v1.406a20.026 20.026 0 0 0 4.248 12.4 1.751 1.751 0 0 0 2.764-2.149 16.549 16.549 0 0 1 -3.509-9.912h26.96a28.049 28.049 0 0 1 7.448 16.375h-17.692a16.68 16.68 0 0 1 -5.742-1.011 1.75 1.75 0 1 0 -1.2 3.287 20.165 20.165 0 0 0 6.943 1.224h17.818a12.794 12.794 0 0 1 -.694 3.625h-66.875l-14.395-24.635a1.75 1.75 0 0 0 -1.511-.865h-9.344a1.75 1.75 0 0 0 0 3.5h8.344l14.391 24.632.842 1.442a16.565 16.565 0 0 0 12.86 8.109v10.067h-8.617l-3.276-4.011a1.748 1.748 0 0 0 -2.462-.249l-6.2 5.059a1.748 1.748 0 0 0 -.249 2.462l6.2 7.595a1.747 1.747 0 0 0 1.356.644h64.3a1.747 1.747 0 0 0 1.356-.644l6.2-7.595a1.748 1.748 0 0 0 -.249-2.462zm-21.952-87.942a6.262 6.262 0 0 1 6 4.5h-33.156v-4.5zm-81.5 4.5a6.262 6.262 0 0 1 6-4.5h27.156v4.5zm36.657 1.75v-8.607h14.187v9.215h-14.188zm4.843 4.108h4.5v6.912h-4.5zm-19.684 18.535 6.994-8.123h29.879l7 8.123zm53.934 58.25h-4.5v-10h4.5zm-19.156 0v-10h11.156v10zm-20.55-18.75h62.883a13.015 13.015 0 0 1 -10.427 5.25h-42.02a13.054 13.054 0 0 1 -10.436-5.25zm12.55 8.75h4.5v10h-4.5zm46.721 18h-62.636l-4.569-5.6 3.487-2.845 2.693 3.3a1.749 1.749 0 0 0 1.355.643h56.7a1.749 1.749 0 0 0 1.355-.643l2.693-3.3 3.487 2.845z"/><path d="m78.187 55.5h-17.021a1.75 1.75 0 0 0 -1.75 1.75v9.458a12.181 12.181 0 0 0 12.167 12.167h13.435a1.75 1.75 0 0 0 1.33-2.887 26.7 26.7 0 0 1 -6.411-17.332v-1.406a1.75 1.75 0 0 0 -1.75-1.75zm3.318 19.875h-9.922a8.677 8.677 0 0 1 -8.667-8.667v-7.708h13.523a30.187 30.187 0 0 0 5.066 16.375z"/><path d="m22.281 57h-3.375a1.75 1.75 0 0 0 0 3.5h3.375a1.75 1.75 0 0 0 0-3.5z"/></g></g></svg>