<svg id="Filled" height="512" viewBox="0 0 512 512" width="512" xmlns="http://www.w3.org/2000/svg"><path d="m208 152h-16l-8 32v16h32v-16z" fill="#737d49"/><path d="m136 392a8 8 0 0 1 -8-8v-40a8 8 0 0 1 16 0v40a8 8 0 0 1 -8 8z" fill="#606669"/><path d="m216 392a8 8 0 0 1 -8-8v-40a8 8 0 0 1 16 0v40a8 8 0 0 1 -8 8z" fill="#606669"/><path d="m120 232-85.623 78.488a32 32 0 0 0 -10.377 23.589v1.923a16 16 0 0 0 16 16h183.434a16 16 0 0 0 13.212-6.976c14.232-20.812 58.267-81.024 91.354-81.024h160v-32h-216v-48h-96v16h-48z" fill="#737d49"/><path d="m272 184v48h-152l8-32h48v-16z" fill="#60663c"/><path d="m120 232-24 64h-45.82z" fill="#cfdb8c"/><path d="m120 320 16-56h32v56z" fill="#60663c"/><path d="m224 152c0-17.673-10.745-32-24-32s-24 14.327-24 32z" fill="#737d49"/><path d="m424 232 32-64h32v64z" fill="#60663c"/><path d="m424 264 32 64h32v-64z" fill="#60663c"/><path d="m168 256h-32a8 8 0 0 0 -7.692 5.8l-16 56a8 8 0 0 0 7.692 10.2h48a8 8 0 0 0 8-8v-56a8 8 0 0 0 -8-8zm-8 56h-29.394l11.428-40h17.966z"/><path d="m488 160h-32a8 8 0 0 0 -7.155 4.422l-29.789 59.578h-139.056v-40a8 8 0 0 0 -8-8h-49.754l-4-16h157.754a8 8 0 0 0 0-16h-144.644c-2.973-18.236-15.9-32-31.356-32s-28.383 13.764-31.356 32h-144.644a8 8 0 0 0 0 16h157.754l-4 16h-1.754a8 8 0 0 0 -8 8v8h-40a8 8 0 0 0 -7.761 6.06l-7.417 29.668-83.422 76.465a41.44 41.44 0 0 0 -13.4 30.472 25.363 25.363 0 0 0 25.335 25.335h86.665v24h-22.111l-14.311-7.155a8 8 0 0 0 -7.156 14.31l16 8a7.994 7.994 0 0 0 3.578.845h144a7.994 7.994 0 0 0 3.578-.845l16-8a8 8 0 1 0 -7.156-14.31l-14.311 7.155h-22.111v-24.018a23.988 23.988 0 0 0 19.25-10.442c25.633-37.485 61.358-77.54 84.75-77.54h91.056l29.789 59.578a8 8 0 0 0 7.155 4.422h32a8 8 0 0 0 8-8v-160a8 8 0 0 0 -8-8zm-27.056 16h19.056v48h-43.056zm-260.944-48c6.813 0 12.794 6.784 15.046 16h-30.092c2.252-9.216 8.233-16 15.046-16zm-1.754 32h3.508l4 16h-11.508zm-22.246 48a8 8 0 0 0 8-8v-8h80v32h-133.754l4-16zm-75.221 52.472-10.323 27.528h-19.708zm43.221 123.528v-24h64v24zm125.477-92.829c-17.292 18.039-32.129 38.654-39.435 49.337a8 8 0 0 1 -6.608 3.492h-182.099a9.346 9.346 0 0 1 -9.335-9.335 25.4 25.4 0 0 1 8.216-18.677l13.078-11.988h42.706a8 8 0 0 0 7.491-5.191l22.053-58.809h354.456v16h-152c-16.461 0-36.151 11.833-58.523 35.171zm191.467 28.829-24-48h43.056v48z"/></svg>