<?xml version="1.0" encoding="iso-8859-1"?>
<!-- Generator: Adobe Illustrator 19.0.0, SVG Export Plug-In . SVG Version: 6.00 Build 0)  -->
<svg version="1.1" id="Capa_1" xmlns="http://www.w3.org/2000/svg" xmlns:xlink="http://www.w3.org/1999/xlink" x="0px" y="0px"
	 viewBox="0 0 512 512" style="enable-background:new 0 0 512 512;" xml:space="preserve">
<g>
	<path style="fill:#2196F3;" d="M201.257,213.44l109.408,0.32c0.032,0,0.032,0,0.064,0c4.224,0,8.288-1.856,11.296-4.832
		c2.208-2.176,3.712-5.056,4.352-8.064l25.184-100.992c0.8-3.264,0.576-6.688-0.672-9.824l-32-80C316.457,4,310.537,0,304.009,0h-96
		c-6.56,0-12.416,4-14.848,10.048l-32,80c-1.248,3.136-1.504,6.56-0.672,9.824l25.28,101.44
		C187.529,208.416,193.929,213.408,201.257,213.44z"/>
	<path style="fill:#2196F3;" d="M192.105,229.792c-3.648-6.4-11.232-9.408-18.272-7.424l-100.8,28.8
		c-3.232,0.928-6.08,2.848-8.16,5.472l-53.44,67.84c-4.064,5.152-4.576,12.256-1.312,17.92l48,83.2c2.88,4.992,8.192,8,13.856,8
		c0.736,0,1.504-0.064,2.24-0.16l85.44-12.16c3.36-0.48,6.496-2.016,8.928-4.384l73.12-71.264c1.92-1.344,3.552-3.104,4.768-5.184
		c2.848-4.928,2.88-11.04,0.032-15.968L192.105,229.792z"/>
	<path style="fill:#2196F3;" d="M500.585,324.512l-53.44-67.84c-2.048-2.656-4.928-4.544-8.16-5.472l-100.8-28.8
		c-7.04-1.984-14.592,1.056-18.272,7.424l-54.4,94.688c-2.848,4.928-2.656,11.04,0.192,16c1.024,1.76,2.368,3.296,3.936,4.512
		l73.792,71.904c2.4,2.336,5.536,3.904,8.896,4.384l85.44,12.16c0.736,0.096,1.504,0.16,2.24,0.16c5.664,0,10.976-3.008,13.856-8
		l48-83.2C505.129,336.736,504.649,329.664,500.585,324.512z"/>
	<path style="fill:#2196F3;" d="M501.865,185.824c-11.072-40.128-32.48-77.28-61.952-107.424c-6.112-6.304-16.256-6.4-22.624-0.256
		c-6.304,6.176-6.432,16.288-0.256,22.624c25.696,26.272,44.352,58.624,53.952,93.536c1.952,7.104,8.384,11.776,15.424,11.776
		c1.408,0,2.816-0.192,4.256-0.576C499.177,203.168,504.201,194.368,501.865,185.824z"/>
	<path style="fill:#2196F3;" d="M94.697,78.144C88.393,72,78.281,72.096,72.073,78.4c-29.472,30.144-50.88,67.296-61.92,107.424
		c-2.304,8.544,2.688,17.344,11.2,19.68c1.408,0.384,2.848,0.576,4.256,0.576c7.008,0,13.44-4.672,15.392-11.744
		c9.6-34.912,28.256-67.264,53.952-93.536C101.161,94.464,101.033,84.32,94.697,78.144z"/>
	<path style="fill:#2196F3;" d="M310.249,473.12c-35.2,9.12-73.376,9.12-108.48,0c-8.608-2.208-17.312,2.944-19.488,11.456
		c-2.208,8.576,2.912,17.312,11.456,19.52c20.192,5.248,41.12,7.904,62.272,7.904c21.12,0,42.08-2.656,62.24-7.872
		c8.576-2.208,13.728-10.976,11.488-19.488S318.953,470.912,310.249,473.12z"/>
	<path style="fill:#2196F3;" d="M393.929,122.624c-6.144-6.272-16.288-6.528-22.624-0.352c-6.336,6.144-6.496,16.288-0.384,22.624
		c18.528,19.104,31.872,42.272,38.624,67.008c1.952,7.104,8.416,11.776,15.424,11.776c1.376,0,2.816-0.16,4.224-0.576
		c8.544-2.336,13.536-11.136,11.232-19.648C432.265,173.536,416.169,145.6,393.929,122.624z"/>
	<path style="fill:#2196F3;" d="M118.121,122.656c-22.272,22.976-38.368,50.912-46.496,80.832
		C69.289,212,74.313,220.8,82.857,223.136c1.408,0.384,2.816,0.544,4.224,0.544c7.04,0,13.472-4.672,15.424-11.808
		c6.72-24.672,20.064-47.872,38.592-66.976c6.144-6.336,5.984-16.48-0.384-22.624C134.409,116.128,124.265,116.288,118.121,122.656z
		"/>
	<path style="fill:#2196F3;" d="M209.481,442.048c15.584,4,30.784,5.952,46.528,5.952c15.744,0,30.944-1.952,46.528-5.952
		c8.576-2.176,13.728-10.912,11.52-19.456c-2.176-8.544-11.04-13.728-19.456-11.52c-25.92,6.624-51.296,6.624-77.184,0
		c-8.448-2.208-17.248,2.976-19.456,11.52C195.753,431.168,200.905,439.872,209.481,442.048z"/>
</g>
<circle style="fill:#FAFAFA;" cx="256.009" cy="96" r="32"/>
<circle style="fill:#1976D2;" cx="256.009" cy="256" r="96"/>
<g>
	<ellipse style="fill:#FAFAFA;" cx="117.457" cy="336" rx="31.999" ry="31.999"/>
	<ellipse style="fill:#FAFAFA;" cx="394.569" cy="336.007" rx="31.999" ry="31.999"/>
</g>
<g>
</g>
<g>
</g>
<g>
</g>
<g>
</g>
<g>
</g>
<g>
</g>
<g>
</g>
<g>
</g>
<g>
</g>
<g>
</g>
<g>
</g>
<g>
</g>
<g>
</g>
<g>
</g>
<g>
</g>
</svg>
