<svg height="512" viewBox="0 0 512 512" width="512" xmlns="http://www.w3.org/2000/svg"><g id="flat"><path d="m417.306 275.706a69.107 69.107 0 0 0 -20.766-.662c-25.8 2.72-53.325-11.406-68.534-37.748-15.184-26.3-13.686-57.139 1.5-78.121a70.084 70.084 0 0 0 9.873-18.467 87.668 87.668 0 0 0 4.62-27.58c.314-47.567-39.331-88-86.895-88.584a88.022 88.022 0 0 0 -84.294 116.711 69.269 69.269 0 0 0 9.664 17.867c15.216 20.984 16.728 51.849 1.533 78.167-15.207 26.335-42.717 40.46-68.507 37.751a69.272 69.272 0 0 0 -20.786.663 88.023 88.023 0 0 0 -70.662 89.212c1.516 46.933 40.332 84.736 87.289 85.083a87.773 87.773 0 0 0 66.3-29.39 69.085 69.085 0 0 0 11.4-18.11c10.531-23.715 36.532-40.498 66.959-40.498s56.428 16.783 66.967 40.5a69.085 69.085 0 0 0 11.4 18.11 87.773 87.773 0 0 0 66.3 29.39c46.952-.347 85.767-38.143 87.289-85.072a88.025 88.025 0 0 0 -70.65-89.222zm-305.306 110.294a24 24 0 1 1 24-24 24 24 0 0 1 -24 24zm144-249.463a24 24 0 1 1 24-24 24 24 0 0 1 -24 24zm144 249.463a24 24 0 1 1 24-24 24 24 0 0 1 -24 24z" fill="#ff2b63"/><path d="m329.505 141.175c-9.628 13.3-13.744 30.571-11.6 48.131a64.994 64.994 0 0 1 11.6-30.131 70.084 70.084 0 0 0 9.873-18.467 87.668 87.668 0 0 0 4.62-27.58 84.861 84.861 0 0 0 -.479-9.522 87.423 87.423 0 0 1 -4.141 19.1 70.084 70.084 0 0 1 -9.873 18.469z" fill="#e5235f"/><path d="m256 70.537a24 24 0 0 0 -22.249 33 24 24 0 0 1 44.5 0 24 24 0 0 0 -22.249-33z" fill="#e5235f"/><path d="m400 320a24 24 0 0 0 -22.249 33 24 24 0 0 1 44.5 0 24 24 0 0 0 -22.251-33z" fill="#e5235f"/><path d="m182.473 159.122a64.98 64.98 0 0 1 11.637 30.178c2.143-17.58-1.985-34.867-11.637-48.178a69.269 69.269 0 0 1 -9.664-17.867 87.378 87.378 0 0 1 -4.344-19.817 89.1 89.1 0 0 0 -.465 9.1 87.677 87.677 0 0 0 4.809 28.718 69.269 69.269 0 0 0 9.664 17.866z" fill="#e5235f"/><path d="m400.664 432a87.773 87.773 0 0 1 -66.3-29.39 69.085 69.085 0 0 1 -11.4-18.11c-10.536-23.717-36.537-40.5-66.964-40.5s-56.428 16.783-66.967 40.5a69.085 69.085 0 0 1 -11.4 18.11 87.773 87.773 0 0 1 -66.3 29.39c-44.946-.332-82.409-34.988-86.867-79.113a89.3 89.3 0 0 0 -.422 12.03c1.516 46.933 40.332 84.736 87.289 85.083a87.773 87.773 0 0 0 66.3-29.39 69.085 69.085 0 0 0 11.4-18.11c10.539-23.717 36.54-40.5 66.967-40.5s56.428 16.783 66.967 40.5a69.085 69.085 0 0 0 11.4 18.11 87.773 87.773 0 0 0 66.3 29.39c46.952-.347 85.767-38.143 87.289-85.072a89.311 89.311 0 0 0 -.422-12.042c-4.461 44.124-41.924 78.78-86.87 79.114z" fill="#e5235f"/><path d="m112 320a24 24 0 0 0 -22.249 33 24 24 0 0 1 44.5 0 24 24 0 0 0 -22.251-33z" fill="#e5235f"/><circle cx="256.004" cy="278.862" fill="#e5235f" r="48"/><g fill="#48bdff"><path d="m48.5 260.679a8.1 8.1 0 0 1 -1-.063 8 8 0 0 1 -6.946-8.929 214.794 214.794 0 0 1 27.879-82.268 216.994 216.994 0 0 1 56.347-63.558 8 8 0 1 1 9.68 12.739 202.183 202.183 0 0 0 -78.027 135.069 8 8 0 0 1 -7.933 7.01z"/><path d="m437.443 182.783a8 8 0 0 1 -6.943-4.013 200.979 200.979 0 0 0 -52.917-60.141 8 8 0 1 1 9.68-12.738 216.868 216.868 0 0 1 57.108 64.9 8 8 0 0 1 -6.928 11.988z"/><path d="m463.509 260.725a8 8 0 0 1 -7.928-7.011 200.251 200.251 0 0 0 -10.351-43.192 8 8 0 1 1 15.048-5.436 216.246 216.246 0 0 1 11.18 46.647 8.012 8.012 0 0 1 -7.949 8.992z"/><path d="m256 496c-7.129 0-14.324-.351-21.385-1.041a8 8 0 1 1 1.558-15.924c6.546.641 13.216.965 19.827.965a199.876 199.876 0 0 0 77.988-15.68 8 8 0 1 1 6.209 14.746 215.792 215.792 0 0 1 -84.197 16.934z"/><path d="m198.419 487.971a7.972 7.972 0 0 1 -2.2-.311 216.339 216.339 0 0 1 -24.453-8.612 8 8 0 1 1 6.212-14.744 200.558 200.558 0 0 0 22.64 7.973 8 8 0 0 1 -2.2 15.694z"/><path d="m83.02 248.646a8.005 8.005 0 0 1 -7.821-9.72 183.714 183.714 0 0 1 24.675-59.586 8 8 0 0 1 13.485 8.611 167.74 167.74 0 0 0 -22.533 54.412 8 8 0 0 1 -7.806 6.283z"/><path d="m127.993 164.432a8 8 0 0 1 -5.78-13.531c2.832-2.96 5.8-5.864 8.822-8.63a8 8 0 1 1 10.8 11.8c-2.761 2.53-5.475 5.183-8.064 7.89a7.977 7.977 0 0 1 -5.778 2.471z"/><path d="m428.989 248.654a8 8 0 0 1 -7.8-6.284 168.121 168.121 0 0 0 -51.01-88.293 8 8 0 1 1 10.8-11.8 184.034 184.034 0 0 1 55.833 96.659 8.006 8.006 0 0 1 -7.822 9.719z"/><path d="m256 464a185.146 185.146 0 0 1 -55.82-8.573 8 8 0 0 1 4.82-15.258 170 170 0 0 0 102 0 8 8 0 0 1 4.818 15.258 185.12 185.12 0 0 1 -55.818 8.573z"/></g><path d="m112 304a56 56 0 1 0 56 56 56 56 0 0 0 -56-56zm0 82a24 24 0 1 1 24-24 24 24 0 0 1 -24 24z" fill="#691daf"/><path d="m400 306a56 56 0 1 0 56 56 56 56 0 0 0 -56-56zm0 80a24 24 0 1 1 24-24 24 24 0 0 1 -24 24z" fill="#691daf"/><path d="m256 56.537a56 56 0 1 0 56 56 56 56 0 0 0 -56-56zm0 80a24 24 0 1 1 24-24 24 24 0 0 1 -24 24z" fill="#691daf"/><path d="m294.713 250.487a103.722 103.722 0 0 1 -75.683 58.983 48 48 0 0 0 75.683-58.983z" fill="#e00554"/></g></svg>