<svg id="Capa_1" enable-background="new 0 0 512 512" height="512" viewBox="0 0 512 512" width="512" xmlns="http://www.w3.org/2000/svg"><g><g><path d="m292.578 198.19h-73.157c-30.42 13.906-51.599 44.528-51.599 80.161v35.46c0 35.634 21.179 66.255 51.599 80.161h73.157c30.42-13.906 51.599-44.528 51.599-80.161v-35.46c0-35.634-21.179-66.255-51.599-80.161z" fill="#ffe07d"/><path d="m256 376.242c-35.418 0-64.129-28.712-64.129-64.129v-32.065c0-35.417 28.712-64.129 64.129-64.129s64.129 28.712 64.129 64.129v32.065c0 35.417-28.711 64.129-64.129 64.129z" fill="#fff5d7"/><path d="m215.919 159.806h80.161v40.081h-80.161z" fill="#e5646e"/><path d="m215.919 392.274h80.161v40.081h-80.161z" fill="#e5646e"/><path d="m418.307 385.197-21.375-192.387c-3.617-32.526-31.016-57.052-63.738-57.052h-154.388c-32.722 0-60.121 24.526-63.738 57.052l-21.375 192.387c-2.012 18.099 3.801 36.268 15.95 49.842s29.567 21.363 47.788 21.363h197.139c18.22 0 35.638-7.789 47.788-21.363s17.961-31.743 15.949-49.842zm-39.842 28.464c-6.165 6.881-14.651 10.678-23.896 10.678h-197.138c-9.245 0-17.731-3.797-23.896-10.678-6.161-6.889-8.995-15.743-7.973-24.925l21.375-192.387c1.808-16.259 15.508-28.526 31.869-28.526h154.389c16.361 0 30.06 12.267 31.869 28.526l21.375 192.387c1.021 9.182-1.813 18.036-7.974 24.925z" fill="#ff9a9f"/><path d="m320.129 424.339h-128.258c-17.709 0-32.065 14.356-32.065 32.065v24.048h192.387v-24.048c.001-17.71-14.355-32.065-32.064-32.065z" fill="#ff8086"/><path d="m272.032 360.21h-32.065c-4.427 0-8.016 3.589-8.016 8.016v24.048h48.097v-24.048c0-4.428-3.588-8.016-8.016-8.016z" fill="#ffa95f"/><path d="m257.845 250.143c2.779 25.281-9.861 37.922-9.861 37.922l-13.488-6.744c-1.538-.769-3.412-.424-4.556.859-13.525 15.173-15.603 35.683-15.271 48.878.184 7.299 6.142 13.12 13.443 13.12h3.84l20.985-7.552 27.111 7.552h.237c5.06 0 9.625-3.033 11.608-7.688 17.089-40.113-12.571-75.037-27.761-89.466-2.523-2.398-6.667-.342-6.287 3.119z" fill="#ffe07d"/><path d="m296.081 119.726h-80.161c-8.854 0-16.032 7.178-16.032 16.032v32.065h112.226v-32.065c-.001-8.855-7.179-16.032-16.033-16.032z" fill="#ff8086"/><path d="m223.935 127.742v-8.016h-8.016c-8.854 0-16.032 7.178-16.032 16.032v32.065h112.226v-24.048h-72.145c-8.855-.001-16.033-7.179-16.033-16.033z" fill="#e5646e"/><path d="m199.887 424.339h-8.016c-17.709 0-32.065 14.356-32.065 32.065v24.048h192.387v-32.065h-136.274c-8.854 0-16.032-7.178-16.032-16.032z" fill="#e5646e"/><path d="m352.194 472.435h-192.388c-8.854 0-16.032 7.178-16.032 16.032s7.178 16.032 16.032 16.032h192.387c8.854 0 16.032-7.178 16.032-16.032.001-8.854-7.177-16.032-16.031-16.032z" fill="#ff8086"/><path d="m256 312.113c-13.281 0-24.048 14.355-24.048 32.065h48.097c-.001-17.71-10.768-32.065-24.049-32.065z" fill="#fff"/><path d="m196.02 87.661h119.96c-12.943-19.33-34.97-32.064-59.98-32.064s-47.037 12.734-59.98 32.064z" fill="#ff8086"/></g><g><path d="m425.761 384.369-21.375-192.387c-4.04-36.329-34.646-63.724-71.192-63.724h-14.814c-2.344-6.951-7.849-12.456-14.8-14.8v-18.297h12.399c2.769 0 5.312-1.525 6.616-3.968 1.304-2.442 1.156-5.404-.384-7.705-10.207-15.244-25.104-26.262-42.074-31.655 4.62-5.489 7.411-12.566 7.411-20.285 0-17.396-14.152-31.548-31.548-31.548s-31.548 14.152-31.548 31.548c0 7.719 2.791 14.796 7.411 20.285-16.97 5.393-31.868 16.411-42.074 31.655-1.541 2.301-1.688 5.263-.384 7.705s3.848 3.968 6.616 3.968h12.399v18.297c-6.951 2.344-12.455 7.849-14.8 14.8h-14.814c-36.546 0-67.152 27.395-71.192 63.724l-21.375 192.387c-2.248 20.22 4.246 40.512 17.816 55.673 5.366 5.996 11.665 11.013 18.721 14.912 1.15.635 2.394.937 3.621.937 2.642 0 5.203-1.398 6.571-3.874 2.003-3.625.688-8.188-2.937-10.192-5.579-3.083-10.558-7.049-14.799-11.787-10.728-11.986-15.861-28.027-14.084-44.013l21.375-192.386c3.194-28.722 27.39-50.381 56.284-50.381h13.582v17.064h-13.582c-20.186 0-37.091 15.131-39.323 35.198l-21.375 192.386c-1.26 11.329 2.233 22.251 9.841 30.759 7.611 8.495 18.081 13.173 29.482 13.173h3.46c-5.366 6.754-8.584 15.288-8.584 24.564v9.765c-9.308 3.139-16.032 11.946-16.032 22.3 0 12.976 10.557 23.532 23.532 23.532h192.387c12.976 0 23.532-10.557 23.532-23.532 0-10.353-6.724-19.16-16.032-22.3v-2.472c18.461-1.329 35.825-9.77 48.252-23.654 13.568-15.16 20.062-35.452 17.814-55.672zm-137.18-272.143h-25.081v-17.065h25.081zm-49.129-80.678c0-9.125 7.423-16.548 16.548-16.548s16.548 7.423 16.548 16.548-7.423 16.549-16.548 16.549-16.548-7.424-16.548-16.549zm16.548 31.549c16.412 0 31.95 6.198 43.753 17.064h-87.506c11.803-10.866 27.341-17.064 43.753-17.064zm-7.5 32.064v17.064h-25.081v-17.064zm-41.113 40.626c0-.01.001-.019.001-.029 0-.005-.001-.01-.001-.014.008-4.698 3.832-8.518 8.531-8.518h80.161c4.705 0 8.532 3.828 8.532 8.533v24.564h-97.226v-24.536zm16.032 281.052v-17.064h65.161v17.064zm49.129-32.065h-33.097v-16.549c0-.285.231-.516.516-.516h32.064c.285 0 .516.231.516.516v16.549zm18.359 0h-3.359v-16.549c0-8.556-6.96-15.516-15.516-15.516h-32.064c-8.556 0-15.516 6.96-15.516 15.516v16.549h-3.359c-27.859-13.409-45.77-41.753-45.77-72.662v-32.064c0-30.917 17.93-59.258 45.801-72.661h69.752c27.871 13.404 45.801 41.744 45.801 72.661v32.064c0 30.909-17.911 59.254-45.77 72.662zm-2.326-192.387h-65.161v-17.064h65.161zm-149.456 216.275c-4.723-5.281-6.893-12.063-6.11-19.098l21.375-192.386c1.385-12.459 11.881-21.855 24.415-21.855h29.614v21.818c-29.475 16.944-48.097 48.585-48.097 82.908v32.064c0 34.322 18.621 65.964 48.097 82.908v21.818h-50.989c-7.079 0-13.582-2.906-18.305-8.177zm213.068 88.338h-192.386c-4.705 0-8.532-3.827-8.532-8.532s3.828-8.532 8.532-8.532h136.278c4.142 0 7.5-3.358 7.5-7.5s-3.358-7.5-7.5-7.5h-128.778v-8.532c0-13.545 11.02-24.564 24.564-24.564h128.258c13.545 0 24.564 11.02 24.564 24.564v8.532h-16.549c-4.142 0-7.5 3.358-7.5 7.5s3.358 7.5 7.5 7.5h24.049c4.705 0 8.532 3.827 8.532 8.532s-3.827 8.532-8.532 8.532zm44.576-66.962c-9.755 10.898-23.354 17.552-37.831 18.676-1.243-6.286-3.983-12.037-7.828-16.875h3.46c11.401 0 21.871-4.678 29.487-13.178 7.604-8.502 11.097-19.425 9.836-30.753l-21.376-192.388c-1.675-15.068-11.554-27.644-25.78-32.819-3.891-1.418-8.196.59-9.612 4.484-1.417 3.893.591 8.196 4.484 9.612 8.829 3.212 14.959 11.021 16 20.38l21.375 192.388c.783 7.034-1.387 13.816-6.105 19.091-4.728 5.277-11.23 8.183-18.31 8.183h-50.989v-21.818c29.475-16.945 48.097-48.586 48.097-82.908v-32.064c0-34.323-18.621-65.964-48.097-82.908v-21.818h8.531.001c4.142 0 7.5-3.358 7.5-7.5v-24.564h13.582c28.894 0 53.09 21.659 56.284 50.38l21.375 192.387c1.777 15.985-3.357 32.026-14.084 44.012z"/><path d="m259.975 233.608c-2.593-1.621-5.911-1.505-8.385.293s-3.607 4.918-2.866 7.885c4.666 18.663.275 30.804-3.073 36.726l-10.346-5.172c-2.888-1.445-6.375-.877-8.657 1.405-26.744 26.744-18.375 61.758-18.005 63.235 1.002 4.008 5.05 6.438 9.063 5.45 4.012-.986 6.467-5.045 5.496-9.06-.26-1.078-5.806-25.081 10.483-45.069l10.944 5.472c2.888 1.445 6.375.877 8.657-1.405.624-.624 12.43-12.76 12.459-36.003 3.991 3.8 8.314 8.503 12.183 13.983 14.13 20.018 15.349 40.573 3.624 61.093-2.055 3.597-.806 8.178 2.791 10.233 1.174.671 2.453.99 3.714.99 2.604 0 5.134-1.358 6.519-3.78 14.66-25.655 13.141-52.346-4.393-77.186-12.748-18.062-29.501-28.648-30.208-29.09z"/></g></g></svg>